<?xml version="1.0" encoding="UTF-8" standalone="no"?>
<!DOCTYPE svg PUBLIC "-//W3C//DTD SVG 1.1//EN"
 "http://www.w3.org/Graphics/SVG/1.1/DTD/svg11.dtd">
<!-- Generated by graphviz version 14.0.0 (0)
 -->
<!-- Title: nic_xray Pages: 1 -->
<svg width="1086pt" height="1801pt"
 viewBox="0.00 0.00 1086.00 1801.00" xmlns="http://www.w3.org/2000/svg" xmlns:xlink="http://www.w3.org/1999/xlink">
<g id="graph0" class="graph" transform="scale(1 1) rotate(0) translate(36 1764.88)">
<title>nic_xray</title>
<polygon fill="#1e1e2e" stroke="none" points="-36,36 -36,-1764.88 1049.75,-1764.88 1049.75,36 -36,36"/>
<text xml:space="preserve" text-anchor="start" x="802.5" y="-14.95" font-family="Helvetica,Arial,sans-serif" font-size="9.00" fill="#6c7086">Generated by nic&#45;xray v2.9.0 — © 2026 Ciro Iriarte</text>
<text xml:space="preserve" text-anchor="start" x="846.75" y="-5.2" font-family="Helvetica,Arial,sans-serif" font-size="9.00" fill="#6c7086">2026&#45;03&#45;03 20:29:41 &#45;05:00</text>
<g id="clust1" class="cluster">
<title>cluster_bond_0</title>
<polygon fill="#1e1e2e" fill-opacity="0.800000" stroke="#89b4fa" stroke-width="1.5" stroke-dasharray="5,2" points="266.25,-1136.88 266.25,-1424.88 397.5,-1424.88 397.5,-1136.88 266.25,-1136.88"/>
<text xml:space="preserve" text-anchor="start" x="274.75" y="-1143.22" font-family="Helvetica,Arial,sans-serif" font-weight="bold" font-size="12.00" fill="#89b4fa">bond0</text>
<text xml:space="preserve" text-anchor="start" x="311.5" y="-1143.22" font-family="Helvetica,Arial,sans-serif" font-size="12.00" fill="#89b4fa"> (LACP Active)</text>
</g>
<g id="clust2" class="cluster">
<title>cluster_bond_1</title>
<polygon fill="#1e1e2e" fill-opacity="0.800000" stroke="#f9e2af" stroke-width="1.5" stroke-dasharray="5,2" points="266.25,-544.88 266.25,-832.88 397.5,-832.88 397.5,-544.88 266.25,-544.88"/>
<text xml:space="preserve" text-anchor="start" x="274.75" y="-551.23" font-family="Helvetica,Arial,sans-serif" font-weight="bold" font-size="12.00" fill="#f9e2af">bond1</text>
<text xml:space="preserve" text-anchor="start" x="311.5" y="-551.23" font-family="Helvetica,Arial,sans-serif" font-size="12.00" fill="#f9e2af"> (LACP Active)</text>
</g>
<g id="clust3" class="cluster">
<title>cluster_bond_2</title>
<polygon fill="#1e1e2e" fill-opacity="0.800000" stroke="#94e2d5" stroke-width="1.5" stroke-dasharray="5,2" points="266.25,-840.88 266.25,-1128.88 397.5,-1128.88 397.5,-840.88 266.25,-840.88"/>
<text xml:space="preserve" text-anchor="start" x="274.75" y="-847.23" font-family="Helvetica,Arial,sans-serif" font-weight="bold" font-size="12.00" fill="#94e2d5">bond2</text>
<text xml:space="preserve" text-anchor="start" x="311.5" y="-847.23" font-family="Helvetica,Arial,sans-serif" font-size="12.00" fill="#94e2d5"> (LACP Active)</text>
</g>
<g id="clust4" class="cluster">
<title>cluster_bond_3</title>
<polygon fill="#1e1e2e" fill-opacity="0.800000" stroke="#f5c2e7" stroke-width="1.5" stroke-dasharray="5,2" points="266.25,-1432.88 266.25,-1720.88 397.5,-1720.88 397.5,-1432.88 266.25,-1432.88"/>
<text xml:space="preserve" text-anchor="start" x="274.75" y="-1439.22" font-family="Helvetica,Arial,sans-serif" font-weight="bold" font-size="12.00" fill="#f5c2e7">bond3</text>
<text xml:space="preserve" text-anchor="start" x="311.5" y="-1439.22" font-family="Helvetica,Arial,sans-serif" font-size="12.00" fill="#f5c2e7"> (LACP Active)</text>
</g>
<!-- server -->
<g id="node1" class="node">
<title>server</title>
<polygon fill="#313244" stroke="none" points="0,-715.75 0,-830 165.25,-830 165.25,-715.75 0,-715.75"/>
<text xml:space="preserve" text-anchor="start" x="11" y="-806.7" font-family="Helvetica,Arial,sans-serif" font-weight="bold" font-size="14.00" fill="#cba6f7">server&#45;01.example.net</text>
<text xml:space="preserve" text-anchor="start" x="28.62" y="-779.45" font-family="Helvetica,Arial,sans-serif" font-size="9.00" fill="#a6adc8">Dell Inc. PowerEdge R740</text>
<text xml:space="preserve" text-anchor="start" x="47.38" y="-753.7" font-family="Helvetica,Arial,sans-serif" font-size="9.00" fill="#a6adc8">[SN&#45;SERVER&#45;01]</text>
<text xml:space="preserve" text-anchor="start" x="11.75" y="-727.95" font-family="Helvetica,Arial,sans-serif" font-size="9.00" fill="#a6adc8">Debian GNU/Linux 12 (bookworm)</text>
<polygon fill="none" stroke="#585b70" points="0,-715.75 0,-830 165.25,-830 165.25,-715.75 0,-715.75"/>
</g>
<!-- eno1np0 -->
<g id="node2" class="node">
<title>eno1np0</title>
<polygon fill="#313244" stroke="none" points="274.25,-1165.75 274.25,-1270 389.5,-1270 389.5,-1165.75 274.25,-1165.75"/>
<text xml:space="preserve" text-anchor="start" x="309.38" y="-1253.55" font-family="Helvetica,Arial,sans-serif" font-weight="bold" font-size="11.00" fill="#cdd6f4">eno1np0</text>
<text xml:space="preserve" text-anchor="start" x="291" y="-1233.2" font-family="Helvetica,Arial,sans-serif" font-size="9.00" fill="#a6adc8">XX:XX:XX:XX:XX:01</text>
<text xml:space="preserve" text-anchor="start" x="309.38" y="-1213.45" font-family="Helvetica,Arial,sans-serif" font-size="9.00" fill="#a6adc8">MTU: 9100</text>
<text xml:space="preserve" text-anchor="start" x="306.75" y="-1194.65" font-family="Helvetica,Arial,sans-serif" font-size="8.00" fill="#a6adc8">10GBASE&#45;SR</text>
<text xml:space="preserve" text-anchor="start" x="281.25" y="-1174.55" font-family="Helvetica,Arial,sans-serif" font-size="8.00" fill="#a6e3a1">Tx:&#45;2.32 dBm</text>
<text xml:space="preserve" text-anchor="start" x="330" y="-1174.55" font-family="Helvetica,Arial,sans-serif" font-size="11.00" fill="#cdd6f4"> </text>
<text xml:space="preserve" text-anchor="start" x="333" y="-1174.55" font-family="Helvetica,Arial,sans-serif" font-size="8.00" fill="#a6e3a1">Rx:&#45;2.92 dBm</text>
<polygon fill="none" stroke="#a6e3a1" points="274.25,-1165.75 274.25,-1270 389.5,-1270 389.5,-1165.75 274.25,-1165.75"/>
</g>
<!-- server&#45;&gt;eno1np0 -->
<g id="edge1" class="edge">
<title>server&#45;&gt;eno1np0</title>
<path fill="none" stroke="#585b70" d="M107.31,-829.86C139.06,-903.71 199.23,-1035.28 266.25,-1138.88 270.84,-1145.97 275.96,-1153.15 281.25,-1160.16"/>
<polygon fill="#585b70" stroke="#585b70" points="279.49,-1161.31 284.81,-1164.79 282.82,-1158.75 279.49,-1161.31"/>
</g>
<!-- ens5f0np0 -->
<g id="node3" class="node">
<title>ens5f0np0</title>
<polygon fill="#313244" stroke="none" points="274.25,-1312.75 274.25,-1417 389.5,-1417 389.5,-1312.75 274.25,-1312.75"/>
<text xml:space="preserve" text-anchor="start" x="304.88" y="-1400.55" font-family="Helvetica,Arial,sans-serif" font-weight="bold" font-size="11.00" fill="#cdd6f4">ens5f0np0</text>
<text xml:space="preserve" text-anchor="start" x="291" y="-1380.2" font-family="Helvetica,Arial,sans-serif" font-size="9.00" fill="#a6adc8">XX:XX:XX:XX:XX:07</text>
<text xml:space="preserve" text-anchor="start" x="309.38" y="-1360.45" font-family="Helvetica,Arial,sans-serif" font-size="9.00" fill="#a6adc8">MTU: 9100</text>
<text xml:space="preserve" text-anchor="start" x="306.75" y="-1341.65" font-family="Helvetica,Arial,sans-serif" font-size="8.00" fill="#a6adc8">10GBASE&#45;SR</text>
<text xml:space="preserve" text-anchor="start" x="281.25" y="-1321.55" font-family="Helvetica,Arial,sans-serif" font-size="8.00" fill="#a6e3a1">Tx:&#45;2.63 dBm</text>
<text xml:space="preserve" text-anchor="start" x="330" y="-1321.55" font-family="Helvetica,Arial,sans-serif" font-size="11.00" fill="#cdd6f4"> </text>
<text xml:space="preserve" text-anchor="start" x="333" y="-1321.55" font-family="Helvetica,Arial,sans-serif" font-size="8.00" fill="#a6e3a1">Rx:&#45;3.63 dBm</text>
<polygon fill="none" stroke="#a6e3a1" points="274.25,-1312.75 274.25,-1417 389.5,-1417 389.5,-1312.75 274.25,-1312.75"/>
</g>
<!-- server&#45;&gt;ens5f0np0 -->
<g id="edge7" class="edge">
<title>server&#45;&gt;ens5f0np0</title>
<path fill="none" stroke="#585b70" d="M95.99,-829.72C119.11,-928.63 175,-1136.66 266.25,-1291.88 269.27,-1297.01 272.68,-1302.12 276.32,-1307.11"/>
<polygon fill="#585b70" stroke="#585b70" points="274.49,-1308.16 279.78,-1311.69 277.84,-1305.64 274.49,-1308.16"/>
</g>
<!-- eno2np1 -->
<g id="node4" class="node">
<title>eno2np1</title>
<polygon fill="#313244" stroke="none" points="274.25,-573.75 274.25,-678 389.5,-678 389.5,-573.75 274.25,-573.75"/>
<text xml:space="preserve" text-anchor="start" x="309.38" y="-661.55" font-family="Helvetica,Arial,sans-serif" font-weight="bold" font-size="11.00" fill="#cdd6f4">eno2np1</text>
<text xml:space="preserve" text-anchor="start" x="291" y="-641.2" font-family="Helvetica,Arial,sans-serif" font-size="9.00" fill="#a6adc8">XX:XX:XX:XX:XX:02</text>
<text xml:space="preserve" text-anchor="start" x="309.38" y="-621.45" font-family="Helvetica,Arial,sans-serif" font-size="9.00" fill="#a6adc8">MTU: 9100</text>
<text xml:space="preserve" text-anchor="start" x="306.75" y="-602.65" font-family="Helvetica,Arial,sans-serif" font-size="8.00" fill="#a6adc8">25GBASE&#45;SR</text>
<text xml:space="preserve" text-anchor="start" x="281.25" y="-582.55" font-family="Helvetica,Arial,sans-serif" font-size="8.00" fill="#a6e3a1">Tx:&#45;0.99 dBm</text>
<text xml:space="preserve" text-anchor="start" x="330" y="-582.55" font-family="Helvetica,Arial,sans-serif" font-size="11.00" fill="#cdd6f4"> </text>
<text xml:space="preserve" text-anchor="start" x="333" y="-582.55" font-family="Helvetica,Arial,sans-serif" font-size="8.00" fill="#a6e3a1">Rx:&#45;2.81 dBm</text>
<polygon fill="none" stroke="#a6e3a1" points="274.25,-573.75 274.25,-678 389.5,-678 389.5,-573.75 274.25,-573.75"/>
</g>
<!-- server&#45;&gt;eno2np1 -->
<g id="edge2" class="edge">
<title>server&#45;&gt;eno2np1</title>
<path fill="none" stroke="#585b70" d="M164.93,-724.54C198.57,-704.53 236.98,-681.7 268.36,-663.04"/>
<polygon fill="#585b70" stroke="#585b70" points="269.16,-665.01 273.24,-660.14 267.01,-661.4 269.16,-665.01"/>
</g>
<!-- ens5f1np1 -->
<g id="node5" class="node">
<title>ens5f1np1</title>
<polygon fill="#313244" stroke="none" points="274.25,-720.75 274.25,-825 389.5,-825 389.5,-720.75 274.25,-720.75"/>
<text xml:space="preserve" text-anchor="start" x="304.88" y="-808.55" font-family="Helvetica,Arial,sans-serif" font-weight="bold" font-size="11.00" fill="#cdd6f4">ens5f1np1</text>
<text xml:space="preserve" text-anchor="start" x="291" y="-788.2" font-family="Helvetica,Arial,sans-serif" font-size="9.00" fill="#a6adc8">XX:XX:XX:XX:XX:08</text>
<text xml:space="preserve" text-anchor="start" x="309.38" y="-768.45" font-family="Helvetica,Arial,sans-serif" font-size="9.00" fill="#a6adc8">MTU: 9100</text>
<text xml:space="preserve" text-anchor="start" x="306.75" y="-749.65" font-family="Helvetica,Arial,sans-serif" font-size="8.00" fill="#a6adc8">25GBASE&#45;SR</text>
<text xml:space="preserve" text-anchor="start" x="281.25" y="-729.55" font-family="Helvetica,Arial,sans-serif" font-size="8.00" fill="#a6e3a1">Tx:&#45;0.95 dBm</text>
<text xml:space="preserve" text-anchor="start" x="330" y="-729.55" font-family="Helvetica,Arial,sans-serif" font-size="11.00" fill="#cdd6f4"> </text>
<text xml:space="preserve" text-anchor="start" x="333" y="-729.55" font-family="Helvetica,Arial,sans-serif" font-size="8.00" fill="#a6e3a1">Rx:&#45;3.16 dBm</text>
<polygon fill="none" stroke="#a6e3a1" points="274.25,-720.75 274.25,-825 389.5,-825 389.5,-720.75 274.25,-720.75"/>
</g>
<!-- server&#45;&gt;ens5f1np1 -->
<g id="edge8" class="edge">
<title>server&#45;&gt;ens5f1np1</title>
<path fill="none" stroke="#585b70" d="M164.93,-772.88C198.15,-772.88 236.02,-772.88 267.18,-772.88"/>
<polygon fill="#585b70" stroke="#585b70" points="267.03,-774.98 273.03,-772.88 267.03,-770.78 267.03,-774.98"/>
</g>
<!-- ens3f0np0 -->
<g id="node6" class="node">
<title>ens3f0np0</title>
<polygon fill="#313244" stroke="none" points="274.25,-869.75 274.25,-974 389.5,-974 389.5,-869.75 274.25,-869.75"/>
<text xml:space="preserve" text-anchor="start" x="304.88" y="-957.55" font-family="Helvetica,Arial,sans-serif" font-weight="bold" font-size="11.00" fill="#cdd6f4">ens3f0np0</text>
<text xml:space="preserve" text-anchor="start" x="291" y="-937.2" font-family="Helvetica,Arial,sans-serif" font-size="9.00" fill="#a6adc8">XX:XX:XX:XX:XX:05</text>
<text xml:space="preserve" text-anchor="start" x="309.38" y="-917.45" font-family="Helvetica,Arial,sans-serif" font-size="9.00" fill="#a6adc8">MTU: 9100</text>
<text xml:space="preserve" text-anchor="start" x="306.75" y="-898.65" font-family="Helvetica,Arial,sans-serif" font-size="8.00" fill="#a6adc8">25GBASE&#45;SR</text>
<text xml:space="preserve" text-anchor="start" x="281.25" y="-878.55" font-family="Helvetica,Arial,sans-serif" font-size="8.00" fill="#a6e3a1">Tx:&#45;1.99 dBm</text>
<text xml:space="preserve" text-anchor="start" x="330" y="-878.55" font-family="Helvetica,Arial,sans-serif" font-size="11.00" fill="#cdd6f4"> </text>
<text xml:space="preserve" text-anchor="start" x="333" y="-878.55" font-family="Helvetica,Arial,sans-serif" font-size="8.00" fill="#a6e3a1">Rx:&#45;2.11 dBm</text>
<polygon fill="none" stroke="#a6e3a1" points="274.25,-869.75 274.25,-974 389.5,-974 389.5,-869.75 274.25,-869.75"/>
</g>
<!-- server&#45;&gt;ens3f0np0 -->
<g id="edge5" class="edge">
<title>server&#45;&gt;ens3f0np0</title>
<path fill="none" stroke="#585b70" d="M164.93,-821.87C198.57,-842.15 236.98,-865.29 268.36,-884.2"/>
<polygon fill="#585b70" stroke="#585b70" points="267.02,-885.85 273.25,-887.15 269.19,-882.25 267.02,-885.85"/>
</g>
<!-- ens8f0np0 -->
<g id="node7" class="node">
<title>ens8f0np0</title>
<polygon fill="#313244" stroke="none" points="274.25,-1016.75 274.25,-1121 389.5,-1121 389.5,-1016.75 274.25,-1016.75"/>
<text xml:space="preserve" text-anchor="start" x="304.88" y="-1104.55" font-family="Helvetica,Arial,sans-serif" font-weight="bold" font-size="11.00" fill="#cdd6f4">ens8f0np0</text>
<text xml:space="preserve" text-anchor="start" x="291" y="-1084.2" font-family="Helvetica,Arial,sans-serif" font-size="9.00" fill="#a6adc8">XX:XX:XX:XX:XX:0b</text>
<text xml:space="preserve" text-anchor="start" x="309.38" y="-1064.45" font-family="Helvetica,Arial,sans-serif" font-size="9.00" fill="#a6adc8">MTU: 9100</text>
<text xml:space="preserve" text-anchor="start" x="306.75" y="-1045.65" font-family="Helvetica,Arial,sans-serif" font-size="8.00" fill="#a6adc8">25GBASE&#45;SR</text>
<text xml:space="preserve" text-anchor="start" x="281.25" y="-1025.55" font-family="Helvetica,Arial,sans-serif" font-size="8.00" fill="#a6e3a1">Tx:&#45;1.06 dBm</text>
<text xml:space="preserve" text-anchor="start" x="330" y="-1025.55" font-family="Helvetica,Arial,sans-serif" font-size="11.00" fill="#cdd6f4"> </text>
<text xml:space="preserve" text-anchor="start" x="333" y="-1025.55" font-family="Helvetica,Arial,sans-serif" font-size="8.00" fill="#a6e3a1">Rx:&#45;2.47 dBm</text>
<polygon fill="none" stroke="#a6e3a1" points="274.25,-1016.75 274.25,-1121 389.5,-1121 389.5,-1016.75 274.25,-1016.75"/>
</g>
<!-- server&#45;&gt;ens8f0np0 -->
<g id="edge11" class="edge">
<title>server&#45;&gt;ens8f0np0</title>
<path fill="none" stroke="#585b70" d="M129.19,-829.74C165.78,-875.1 218.72,-940.06 266.25,-995.88 270.52,-1000.89 274.99,-1006.07 279.49,-1011.24"/>
<polygon fill="#585b70" stroke="#585b70" points="277.86,-1012.57 283.39,-1015.71 281.03,-1009.81 277.86,-1012.57"/>
</g>
<!-- ens3f1np1 -->
<g id="node8" class="node">
<title>ens3f1np1</title>
<polygon fill="#313244" stroke="none" points="274.25,-1461.75 274.25,-1566 389.5,-1566 389.5,-1461.75 274.25,-1461.75"/>
<text xml:space="preserve" text-anchor="start" x="304.88" y="-1549.55" font-family="Helvetica,Arial,sans-serif" font-weight="bold" font-size="11.00" fill="#cdd6f4">ens3f1np1</text>
<text xml:space="preserve" text-anchor="start" x="291" y="-1529.2" font-family="Helvetica,Arial,sans-serif" font-size="9.00" fill="#a6adc8">XX:XX:XX:XX:XX:06</text>
<text xml:space="preserve" text-anchor="start" x="309.38" y="-1509.45" font-family="Helvetica,Arial,sans-serif" font-size="9.00" fill="#a6adc8">MTU: 9100</text>
<text xml:space="preserve" text-anchor="start" x="306.75" y="-1490.65" font-family="Helvetica,Arial,sans-serif" font-size="8.00" fill="#a6adc8">25GBASE&#45;SR</text>
<text xml:space="preserve" text-anchor="start" x="281.25" y="-1470.55" font-family="Helvetica,Arial,sans-serif" font-size="8.00" fill="#a6e3a1">Tx:&#45;2.79 dBm</text>
<text xml:space="preserve" text-anchor="start" x="330" y="-1470.55" font-family="Helvetica,Arial,sans-serif" font-size="11.00" fill="#cdd6f4"> </text>
<text xml:space="preserve" text-anchor="start" x="333" y="-1470.55" font-family="Helvetica,Arial,sans-serif" font-size="8.00" fill="#a6e3a1">Rx:&#45;2.49 dBm</text>
<polygon fill="none" stroke="#a6e3a1" points="274.25,-1461.75 274.25,-1566 389.5,-1566 389.5,-1461.75 274.25,-1461.75"/>
</g>
<!-- server&#45;&gt;ens3f1np1 -->
<g id="edge6" class="edge">
<title>server&#45;&gt;ens3f1np1</title>
<path fill="none" stroke="#585b70" d="M91.19,-829.81C108.61,-948.12 158.61,-1226.8 266.25,-1434.88 270,-1442.13 274.5,-1449.33 279.35,-1456.27"/>
<polygon fill="#585b70" stroke="#585b70" points="277.4,-1457.16 282.61,-1460.8 280.81,-1454.7 277.4,-1457.16"/>
</g>
<!-- ens8f1np1 -->
<g id="node9" class="node">
<title>ens8f1np1</title>
<polygon fill="#313244" stroke="none" points="274.25,-1608.75 274.25,-1713 389.5,-1713 389.5,-1608.75 274.25,-1608.75"/>
<text xml:space="preserve" text-anchor="start" x="304.88" y="-1696.55" font-family="Helvetica,Arial,sans-serif" font-weight="bold" font-size="11.00" fill="#cdd6f4">ens8f1np1</text>
<text xml:space="preserve" text-anchor="start" x="291.38" y="-1676.2" font-family="Helvetica,Arial,sans-serif" font-size="9.00" fill="#a6adc8">XX:XX:XX:XX:XX:0c</text>
<text xml:space="preserve" text-anchor="start" x="309.38" y="-1656.45" font-family="Helvetica,Arial,sans-serif" font-size="9.00" fill="#a6adc8">MTU: 9100</text>
<text xml:space="preserve" text-anchor="start" x="306.75" y="-1637.65" font-family="Helvetica,Arial,sans-serif" font-size="8.00" fill="#a6adc8">25GBASE&#45;SR</text>
<text xml:space="preserve" text-anchor="start" x="281.25" y="-1617.55" font-family="Helvetica,Arial,sans-serif" font-size="8.00" fill="#a6e3a1">Tx:&#45;0.66 dBm</text>
<text xml:space="preserve" text-anchor="start" x="330" y="-1617.55" font-family="Helvetica,Arial,sans-serif" font-size="11.00" fill="#cdd6f4"> </text>
<text xml:space="preserve" text-anchor="start" x="333" y="-1617.55" font-family="Helvetica,Arial,sans-serif" font-size="8.00" fill="#a6e3a1">Rx:&#45;2.03 dBm</text>
<polygon fill="none" stroke="#a6e3a1" points="274.25,-1608.75 274.25,-1713 389.5,-1713 389.5,-1608.75 274.25,-1608.75"/>
</g>
<!-- server&#45;&gt;ens8f1np1 -->
<g id="edge12" class="edge">
<title>server&#45;&gt;ens8f1np1</title>
<path fill="none" stroke="#585b70" d="M86.66,-829.76C95.99,-967.32 132.36,-1325.94 266.25,-1587.88 268.85,-1592.96 271.89,-1597.98 275.2,-1602.85"/>
<polygon fill="#585b70" stroke="#585b70" points="273.47,-1604.04 278.66,-1607.71 276.89,-1601.6 273.47,-1604.04"/>
</g>
<!-- eno3np2 -->
<g id="node10" class="node">
<title>eno3np2</title>
<polygon fill="#313244" stroke="none" points="618.25,-576.75 618.25,-681 738,-681 738,-576.75 618.25,-576.75"/>
<text xml:space="preserve" text-anchor="start" x="655.62" y="-664.55" font-family="Helvetica,Arial,sans-serif" font-weight="bold" font-size="11.00" fill="#cdd6f4">eno3np2</text>
<text xml:space="preserve" text-anchor="start" x="637.25" y="-644.2" font-family="Helvetica,Arial,sans-serif" font-size="9.00" fill="#a6adc8">XX:XX:XX:XX:XX:03</text>
<text xml:space="preserve" text-anchor="start" x="655.62" y="-624.45" font-family="Helvetica,Arial,sans-serif" font-size="9.00" fill="#a6adc8">MTU: 1500</text>
<text xml:space="preserve" text-anchor="start" x="653" y="-605.65" font-family="Helvetica,Arial,sans-serif" font-size="8.00" fill="#a6adc8">10GBASE&#45;SR</text>
<text xml:space="preserve" text-anchor="start" x="625.25" y="-585.55" font-family="Helvetica,Arial,sans-serif" font-size="8.00" fill="#a6e3a1">Tx:&#45;2.41 dBm</text>
<text xml:space="preserve" text-anchor="start" x="674" y="-585.55" font-family="Helvetica,Arial,sans-serif" font-size="11.00" fill="#cdd6f4"> </text>
<text xml:space="preserve" text-anchor="start" x="677" y="-585.55" font-family="Helvetica,Arial,sans-serif" font-size="8.00" fill="#f38ba8">Rx:&#45;26.78 dBm</text>
<polygon fill="none" stroke="#f38ba8" points="618.25,-576.75 618.25,-681 738,-681 738,-576.75 618.25,-576.75"/>
</g>
<!-- server&#45;&gt;eno3np2 -->
<g id="edge3" class="edge">
<title>server&#45;&gt;eno3np2</title>
<path fill="none" stroke="#585b70" d="M108.54,-715.8C137.22,-658.11 190.34,-572.31 266.25,-534.88 380.1,-478.73 528.33,-541.85 612.06,-588.37"/>
<polygon fill="#585b70" stroke="#585b70" points="610.89,-590.12 617.15,-591.23 612.95,-586.46 610.89,-590.12"/>
</g>
<!-- eno4np3 -->
<g id="node11" class="node">
<title>eno4np3</title>
<polygon fill="#313244" stroke="none" points="618.25,-429.75 618.25,-534 738,-534 738,-429.75 618.25,-429.75"/>
<text xml:space="preserve" text-anchor="start" x="655.62" y="-517.55" font-family="Helvetica,Arial,sans-serif" font-weight="bold" font-size="11.00" fill="#cdd6f4">eno4np3</text>
<text xml:space="preserve" text-anchor="start" x="637.25" y="-497.2" font-family="Helvetica,Arial,sans-serif" font-size="9.00" fill="#a6adc8">XX:XX:XX:XX:XX:04</text>
<text xml:space="preserve" text-anchor="start" x="655.62" y="-477.45" font-family="Helvetica,Arial,sans-serif" font-size="9.00" fill="#a6adc8">MTU: 1500</text>
<text xml:space="preserve" text-anchor="start" x="653" y="-458.65" font-family="Helvetica,Arial,sans-serif" font-size="8.00" fill="#a6adc8">25GBASE&#45;SR</text>
<text xml:space="preserve" text-anchor="start" x="625.25" y="-438.55" font-family="Helvetica,Arial,sans-serif" font-size="8.00" fill="#a6e3a1">Tx:&#45;0.81 dBm</text>
<text xml:space="preserve" text-anchor="start" x="674" y="-438.55" font-family="Helvetica,Arial,sans-serif" font-size="11.00" fill="#cdd6f4"> </text>
<text xml:space="preserve" text-anchor="start" x="677" y="-438.55" font-family="Helvetica,Arial,sans-serif" font-size="8.00" fill="#f38ba8">Rx:&#45;40.00 dBm</text>
<polygon fill="none" stroke="#f38ba8" points="618.25,-429.75 618.25,-534 738,-534 738,-429.75 618.25,-429.75"/>
</g>
<!-- server&#45;&gt;eno4np3 -->
<g id="edge4" class="edge">
<title>server&#45;&gt;eno4np3</title>
<path fill="none" stroke="#585b70" d="M102.36,-715.76C127.62,-649.64 179.68,-544.5 266.25,-502.88 377.9,-449.19 526.86,-458.61 611.33,-470.27"/>
<polygon fill="#585b70" stroke="#585b70" points="610.81,-472.32 617.05,-471.08 611.4,-468.16 610.81,-472.32"/>
</g>
<!-- ens5f2np2 -->
<g id="node12" class="node">
<title>ens5f2np2</title>
<polygon fill="#313244" stroke="none" points="618.25,-282.75 618.25,-387 738,-387 738,-282.75 618.25,-282.75"/>
<text xml:space="preserve" text-anchor="start" x="651.12" y="-370.55" font-family="Helvetica,Arial,sans-serif" font-weight="bold" font-size="11.00" fill="#cdd6f4">ens5f2np2</text>
<text xml:space="preserve" text-anchor="start" x="637.25" y="-350.2" font-family="Helvetica,Arial,sans-serif" font-size="9.00" fill="#a6adc8">XX:XX:XX:XX:XX:09</text>
<text xml:space="preserve" text-anchor="start" x="655.62" y="-330.45" font-family="Helvetica,Arial,sans-serif" font-size="9.00" fill="#a6adc8">MTU: 1500</text>
<text xml:space="preserve" text-anchor="start" x="653" y="-311.65" font-family="Helvetica,Arial,sans-serif" font-size="8.00" fill="#a6adc8">10GBASE&#45;SR</text>
<text xml:space="preserve" text-anchor="start" x="625.25" y="-291.55" font-family="Helvetica,Arial,sans-serif" font-size="8.00" fill="#a6e3a1">Tx:&#45;2.27 dBm</text>
<text xml:space="preserve" text-anchor="start" x="674" y="-291.55" font-family="Helvetica,Arial,sans-serif" font-size="11.00" fill="#cdd6f4"> </text>
<text xml:space="preserve" text-anchor="start" x="677" y="-291.55" font-family="Helvetica,Arial,sans-serif" font-size="8.00" fill="#f38ba8">Rx:&#45;26.78 dBm</text>
<polygon fill="none" stroke="#f38ba8" points="618.25,-282.75 618.25,-387 738,-387 738,-282.75 618.25,-282.75"/>
</g>
<!-- server&#45;&gt;ens5f2np2 -->
<g id="edge9" class="edge">
<title>server&#45;&gt;ens5f2np2</title>
<path fill="none" stroke="#585b70" d="M100.32,-715.8C124.56,-643.56 176.67,-520.87 266.25,-456.88 372,-381.33 524.71,-352.08 611.07,-341.12"/>
<polygon fill="#585b70" stroke="#585b70" points="611.25,-343.21 616.95,-340.39 610.74,-339.04 611.25,-343.21"/>
</g>
<!-- ens5f3np3 -->
<g id="node13" class="node">
<title>ens5f3np3</title>
<polygon fill="#313244" stroke="none" points="618.25,-135.75 618.25,-240 738,-240 738,-135.75 618.25,-135.75"/>
<text xml:space="preserve" text-anchor="start" x="651.12" y="-223.55" font-family="Helvetica,Arial,sans-serif" font-weight="bold" font-size="11.00" fill="#cdd6f4">ens5f3np3</text>
<text xml:space="preserve" text-anchor="start" x="637.25" y="-203.2" font-family="Helvetica,Arial,sans-serif" font-size="9.00" fill="#a6adc8">XX:XX:XX:XX:XX:0a</text>
<text xml:space="preserve" text-anchor="start" x="655.62" y="-183.45" font-family="Helvetica,Arial,sans-serif" font-size="9.00" fill="#a6adc8">MTU: 1500</text>
<text xml:space="preserve" text-anchor="start" x="653" y="-164.65" font-family="Helvetica,Arial,sans-serif" font-size="8.00" fill="#a6adc8">10GBASE&#45;SR</text>
<text xml:space="preserve" text-anchor="start" x="625.25" y="-144.55" font-family="Helvetica,Arial,sans-serif" font-size="8.00" fill="#a6e3a1">Tx:&#45;2.49 dBm</text>
<text xml:space="preserve" text-anchor="start" x="674" y="-144.55" font-family="Helvetica,Arial,sans-serif" font-size="11.00" fill="#cdd6f4"> </text>
<text xml:space="preserve" text-anchor="start" x="677" y="-144.55" font-family="Helvetica,Arial,sans-serif" font-size="8.00" fill="#f38ba8">Rx:&#45;26.78 dBm</text>
<polygon fill="none" stroke="#f38ba8" points="618.25,-135.75 618.25,-240 738,-240 738,-135.75 618.25,-135.75"/>
</g>
<!-- server&#45;&gt;ens5f3np3 -->
<g id="edge10" class="edge">
<title>server&#45;&gt;ens5f3np3</title>
<path fill="none" stroke="#585b70" d="M96.85,-716.09C118.89,-632.79 170.44,-476.98 266.25,-380.88 364.44,-282.38 522.5,-227.96 611.23,-203.66"/>
<polygon fill="#585b70" stroke="#585b70" points="611.58,-205.74 616.82,-202.15 610.48,-201.69 611.58,-205.74"/>
</g>
<!-- idrac -->
<g id="node14" class="node">
<title>idrac</title>
<polygon fill="#313244" stroke="none" points="630.25,-27.5 630.25,-92.25 726,-92.25 726,-27.5 630.25,-27.5"/>
<text xml:space="preserve" text-anchor="start" x="665" y="-75.8" font-family="Helvetica,Arial,sans-serif" font-weight="bold" font-size="11.00" fill="#cdd6f4">idrac</text>
<text xml:space="preserve" text-anchor="start" x="637.25" y="-55.45" font-family="Helvetica,Arial,sans-serif" font-size="9.00" fill="#a6adc8">XX:XX:XX:XX:XX:0d</text>
<text xml:space="preserve" text-anchor="start" x="655.62" y="-35.7" font-family="Helvetica,Arial,sans-serif" font-size="9.00" fill="#a6adc8">MTU: 1500</text>
<polygon fill="none" stroke="#a6e3a1" points="630.25,-27.5 630.25,-92.25 726,-92.25 726,-27.5 630.25,-27.5"/>
</g>
<!-- server&#45;&gt;idrac -->
<g id="edge13" class="edge">
<title>server&#45;&gt;idrac</title>
<path fill="none" stroke="#585b70" d="M91.07,-715.95C106.81,-616.09 151.89,-407.57 266.25,-276.88 364.81,-164.24 536.32,-100.89 623.27,-74.55"/>
<polygon fill="#585b70" stroke="#585b70" points="623.81,-76.58 628.95,-72.85 622.6,-72.55 623.81,-76.58"/>
</g>
<!-- swport_dev_collapsed_ipf01cly_lf01_ifname_xe_0_0_2 -->
<g id="node15" class="node">
<title>swport_dev_collapsed_ipf01cly_lf01_ifname_xe_0_0_2</title>
<polygon fill="#313244" stroke="none" points="631.75,-1036.38 631.75,-1081.38 724.5,-1081.38 724.5,-1036.38 631.75,-1036.38"/>
<text xml:space="preserve" text-anchor="start" x="638.75" y="-1064.92" font-family="Helvetica,Arial,sans-serif" font-weight="bold" font-size="11.00" fill="#cdd6f4">ifname xe&#45;0/0/2</text>
<text xml:space="preserve" text-anchor="start" x="661.62" y="-1044.58" font-family="Helvetica,Arial,sans-serif" font-size="9.00" fill="#a6adc8">xe&#45;0/0/2</text>
<polygon fill="none" stroke="#fab387" points="631.75,-1036.38 631.75,-1081.38 724.5,-1081.38 724.5,-1036.38 631.75,-1036.38"/>
</g>
<!-- eno1np0&#45;&gt;swport_dev_collapsed_ipf01cly_lf01_ifname_xe_0_0_2 -->
<g id="edge14" class="edge">
<title>eno1np0&#45;&gt;swport_dev_collapsed_ipf01cly_lf01_ifname_xe_0_0_2</title>
<path fill="none" stroke="#89b4fa" stroke-width="2.5" d="M376.1,-1165.98C383.34,-1157.01 390.7,-1147.73 397.5,-1138.88 418.82,-1111.08 412.89,-1091.91 443.5,-1074.88 497.07,-1045.05 568.61,-1044.81 618.35,-1049.65"/>
<polygon fill="#89b4fa" stroke="#89b4fa" stroke-width="2.5" points="617.68,-1053.1 628.01,-1050.72 618.45,-1046.14 617.68,-1053.1"/>
<text xml:space="preserve" text-anchor="start" x="443.5" y="-1086.38" font-family="Helvetica,Arial,sans-serif" font-size="10.00" fill="#a6adc8">VLAN 100;101;102;110;111</text>
<text xml:space="preserve" text-anchor="start" x="488.88" y="-1075.88" font-family="Helvetica,Arial,sans-serif" font-size="10.00" fill="#a6adc8">10GbE</text>
</g>
<!-- swport_dev_collapsed_ipf01cly_lf02_ifname_xe_0_0_2 -->
<g id="node19" class="node">
<title>swport_dev_collapsed_ipf01cly_lf02_ifname_xe_0_0_2</title>
<polygon fill="#313244" stroke="none" points="631.75,-1340.38 631.75,-1385.38 724.5,-1385.38 724.5,-1340.38 631.75,-1340.38"/>
<text xml:space="preserve" text-anchor="start" x="638.75" y="-1368.92" font-family="Helvetica,Arial,sans-serif" font-weight="bold" font-size="11.00" fill="#cdd6f4">ifname xe&#45;0/0/2</text>
<text xml:space="preserve" text-anchor="start" x="661.62" y="-1348.58" font-family="Helvetica,Arial,sans-serif" font-size="9.00" fill="#a6adc8">xe&#45;0/0/2</text>
<polygon fill="none" stroke="#fab387" points="631.75,-1340.38 631.75,-1385.38 724.5,-1385.38 724.5,-1340.38 631.75,-1340.38"/>
</g>
<!-- ens5f0np0&#45;&gt;swport_dev_collapsed_ipf01cly_lf02_ifname_xe_0_0_2 -->
<g id="edge20" class="edge">
<title>ens5f0np0&#45;&gt;swport_dev_collapsed_ipf01cly_lf02_ifname_xe_0_0_2</title>
<path fill="none" stroke="#89b4fa" stroke-width="2.5" d="M389.34,-1364.55C452.51,-1364.18 554.38,-1363.59 618.44,-1363.22"/>
<polygon fill="#89b4fa" stroke="#89b4fa" stroke-width="2.5" points="618.14,-1366.72 628.12,-1363.16 618.1,-1359.72 618.14,-1366.72"/>
<text xml:space="preserve" text-anchor="start" x="443.5" y="-1375.73" font-family="Helvetica,Arial,sans-serif" font-size="10.00" fill="#a6adc8">VLAN 100;101;102;110;111</text>
<text xml:space="preserve" text-anchor="start" x="488.88" y="-1365.23" font-family="Helvetica,Arial,sans-serif" font-size="10.00" fill="#a6adc8">10GbE</text>
</g>
<!-- swport_dev_collapsed_ipf01cly_lf01_ifname_xe_0_0_3 -->
<g id="node16" class="node">
<title>swport_dev_collapsed_ipf01cly_lf01_ifname_xe_0_0_3</title>
<polygon fill="#313244" stroke="none" points="631.75,-772.38 631.75,-817.38 724.5,-817.38 724.5,-772.38 631.75,-772.38"/>
<text xml:space="preserve" text-anchor="start" x="638.75" y="-800.92" font-family="Helvetica,Arial,sans-serif" font-weight="bold" font-size="11.00" fill="#cdd6f4">ifname xe&#45;0/0/3</text>
<text xml:space="preserve" text-anchor="start" x="661.62" y="-780.58" font-family="Helvetica,Arial,sans-serif" font-size="9.00" fill="#a6adc8">xe&#45;0/0/3</text>
<polygon fill="none" stroke="#fab387" points="631.75,-772.38 631.75,-817.38 724.5,-817.38 724.5,-772.38 631.75,-772.38"/>
</g>
<!-- eno2np1&#45;&gt;swport_dev_collapsed_ipf01cly_lf01_ifname_xe_0_0_3 -->
<g id="edge15" class="edge">
<title>eno2np1&#45;&gt;swport_dev_collapsed_ipf01cly_lf01_ifname_xe_0_0_3</title>
<path fill="none" stroke="#f9e2af" stroke-width="2.5" d="M389.34,-653.59C452.91,-684.8 555.66,-735.24 619.65,-766.66"/>
<polygon fill="#f9e2af" stroke="#f9e2af" stroke-width="2.5" points="617.99,-769.74 628.51,-771.01 621.07,-763.46 617.99,-769.74"/>
<text xml:space="preserve" text-anchor="start" x="443.5" y="-746.89" font-family="Helvetica,Arial,sans-serif" font-size="10.00" fill="#a6adc8">VLAN 200;201;202;211;212</text>
<text xml:space="preserve" text-anchor="start" x="488.88" y="-736.39" font-family="Helvetica,Arial,sans-serif" font-size="10.00" fill="#a6adc8">10GbE</text>
</g>
<!-- swport_dev_collapsed_ipf01cly_lf02_ifname_xe_0_0_3 -->
<g id="node20" class="node">
<title>swport_dev_collapsed_ipf01cly_lf02_ifname_xe_0_0_3</title>
<polygon fill="#313244" stroke="none" points="631.75,-1147.38 631.75,-1192.38 724.5,-1192.38 724.5,-1147.38 631.75,-1147.38"/>
<text xml:space="preserve" text-anchor="start" x="638.75" y="-1175.92" font-family="Helvetica,Arial,sans-serif" font-weight="bold" font-size="11.00" fill="#cdd6f4">ifname xe&#45;0/0/3</text>
<text xml:space="preserve" text-anchor="start" x="661.62" y="-1155.58" font-family="Helvetica,Arial,sans-serif" font-size="9.00" fill="#a6adc8">xe&#45;0/0/3</text>
<polygon fill="none" stroke="#fab387" points="631.75,-1147.38 631.75,-1192.38 724.5,-1192.38 724.5,-1147.38 631.75,-1147.38"/>
</g>
<!-- ens5f1np1&#45;&gt;swport_dev_collapsed_ipf01cly_lf02_ifname_xe_0_0_3 -->
<g id="edge21" class="edge">
<title>ens5f1np1&#45;&gt;swport_dev_collapsed_ipf01cly_lf02_ifname_xe_0_0_3</title>
<path fill="none" stroke="#f9e2af" stroke-width="2.5" d="M389.37,-818.68C392.41,-822.58 395.17,-826.65 397.5,-830.88 456.47,-937.87 362.23,-1010.66 443.5,-1101.88 466.72,-1127.93 557.31,-1148.69 618.62,-1160.12"/>
<polygon fill="#f9e2af" stroke="#f9e2af" stroke-width="2.5" points="617.8,-1163.53 628.26,-1161.88 619.05,-1156.64 617.8,-1163.53"/>
<text xml:space="preserve" text-anchor="start" x="443.5" y="-1159.55" font-family="Helvetica,Arial,sans-serif" font-size="10.00" fill="#a6adc8">VLAN 200;201;202;211;212</text>
<text xml:space="preserve" text-anchor="start" x="488.88" y="-1149.05" font-family="Helvetica,Arial,sans-serif" font-size="10.00" fill="#a6adc8">10GbE</text>
</g>
<!-- swport_dev_collapsed_ipf01cly_lf01_ifname_et_0_0_38 -->
<g id="node17" class="node">
<title>swport_dev_collapsed_ipf01cly_lf01_ifname_et_0_0_38</title>
<polygon fill="#313244" stroke="none" points="630.25,-903.38 630.25,-948.38 726,-948.38 726,-903.38 630.25,-903.38"/>
<text xml:space="preserve" text-anchor="start" x="637.25" y="-931.92" font-family="Helvetica,Arial,sans-serif" font-weight="bold" font-size="11.00" fill="#cdd6f4">ifname et&#45;0/0/38</text>
<text xml:space="preserve" text-anchor="start" x="660.12" y="-911.58" font-family="Helvetica,Arial,sans-serif" font-size="9.00" fill="#a6adc8">et&#45;0/0/38</text>
<polygon fill="none" stroke="#fab387" points="630.25,-903.38 630.25,-948.38 726,-948.38 726,-903.38 630.25,-903.38"/>
</g>
<!-- ens3f0np0&#45;&gt;swport_dev_collapsed_ipf01cly_lf01_ifname_et_0_0_38 -->
<g id="edge18" class="edge">
<title>ens3f0np0&#45;&gt;swport_dev_collapsed_ipf01cly_lf01_ifname_et_0_0_38</title>
<path fill="none" stroke="#94e2d5" stroke-width="3" d="M389.34,-922.53C451.71,-923.26 551.82,-924.42 616,-925.16"/>
<polygon fill="#94e2d5" stroke="#94e2d5" stroke-width="3" points="615.73,-928.66 625.77,-925.28 615.82,-921.66 615.73,-928.66"/>
<text xml:space="preserve" text-anchor="start" x="481" y="-935.97" font-family="Helvetica,Arial,sans-serif" font-size="10.00" fill="#a6adc8">VLAN 501</text>
<text xml:space="preserve" text-anchor="start" x="488.88" y="-925.47" font-family="Helvetica,Arial,sans-serif" font-size="10.00" fill="#a6adc8">25GbE</text>
</g>
<!-- swport_dev_collapsed_ipf01cly_lf02_ifname_et_0_0_38 -->
<g id="node21" class="node">
<title>swport_dev_collapsed_ipf01cly_lf02_ifname_et_0_0_38</title>
<polygon fill="#313244" stroke="none" points="630.25,-1246.38 630.25,-1291.38 726,-1291.38 726,-1246.38 630.25,-1246.38"/>
<text xml:space="preserve" text-anchor="start" x="637.25" y="-1274.92" font-family="Helvetica,Arial,sans-serif" font-weight="bold" font-size="11.00" fill="#cdd6f4">ifname et&#45;0/0/38</text>
<text xml:space="preserve" text-anchor="start" x="660.12" y="-1254.58" font-family="Helvetica,Arial,sans-serif" font-size="9.00" fill="#a6adc8">et&#45;0/0/38</text>
<polygon fill="none" stroke="#fab387" points="630.25,-1246.38 630.25,-1291.38 726,-1291.38 726,-1246.38 630.25,-1246.38"/>
</g>
<!-- ens8f0np0&#45;&gt;swport_dev_collapsed_ipf01cly_lf02_ifname_et_0_0_38 -->
<g id="edge24" class="edge">
<title>ens8f0np0&#45;&gt;swport_dev_collapsed_ipf01cly_lf02_ifname_et_0_0_38</title>
<path fill="none" stroke="#94e2d5" stroke-width="3" d="M389.32,-1118.76C392.11,-1121.47 394.86,-1124.19 397.5,-1126.88 419.37,-1149.11 417.93,-1162.01 443.5,-1179.88 496.55,-1216.95 567.08,-1241.04 616.71,-1254.68"/>
<polygon fill="#94e2d5" stroke="#94e2d5" stroke-width="3" points="615.49,-1257.98 626.06,-1257.17 617.29,-1251.21 615.49,-1257.98"/>
<text xml:space="preserve" text-anchor="start" x="481" y="-1248.06" font-family="Helvetica,Arial,sans-serif" font-size="10.00" fill="#a6adc8">VLAN 501</text>
<text xml:space="preserve" text-anchor="start" x="488.88" y="-1237.56" font-family="Helvetica,Arial,sans-serif" font-size="10.00" fill="#a6adc8">25GbE</text>
</g>
<!-- swport_dev_collapsed_ipf01cly_lf01_ifname_et_0_0_39 -->
<g id="node18" class="node">
<title>swport_dev_collapsed_ipf01cly_lf01_ifname_et_0_0_39</title>
<polygon fill="#313244" stroke="none" points="630.25,-1461.38 630.25,-1506.38 726,-1506.38 726,-1461.38 630.25,-1461.38"/>
<text xml:space="preserve" text-anchor="start" x="637.25" y="-1489.92" font-family="Helvetica,Arial,sans-serif" font-weight="bold" font-size="11.00" fill="#cdd6f4">ifname et&#45;0/0/39</text>
<text xml:space="preserve" text-anchor="start" x="660.12" y="-1469.58" font-family="Helvetica,Arial,sans-serif" font-size="9.00" fill="#a6adc8">et&#45;0/0/39</text>
<polygon fill="none" stroke="#fab387" points="630.25,-1461.38 630.25,-1506.38 726,-1506.38 726,-1461.38 630.25,-1461.38"/>
</g>
<!-- ens3f1np1&#45;&gt;swport_dev_collapsed_ipf01cly_lf01_ifname_et_0_0_39 -->
<g id="edge19" class="edge">
<title>ens3f1np1&#45;&gt;swport_dev_collapsed_ipf01cly_lf01_ifname_et_0_0_39</title>
<path fill="none" stroke="#f5c2e7" stroke-width="3" d="M389.34,-1508.95C451.71,-1503.52 551.82,-1494.8 616,-1489.2"/>
<polygon fill="#f5c2e7" stroke="#f5c2e7" stroke-width="3" points="616.13,-1492.7 625.79,-1488.35 615.53,-1485.73 616.13,-1492.7"/>
<text xml:space="preserve" text-anchor="start" x="481" y="-1515.67" font-family="Helvetica,Arial,sans-serif" font-size="10.00" fill="#a6adc8">VLAN 502</text>
<text xml:space="preserve" text-anchor="start" x="488.88" y="-1505.17" font-family="Helvetica,Arial,sans-serif" font-size="10.00" fill="#a6adc8">25GbE</text>
</g>
<!-- swport_dev_collapsed_ipf01cly_lf02_ifname_et_0_0_39 -->
<g id="node22" class="node">
<title>swport_dev_collapsed_ipf01cly_lf02_ifname_et_0_0_39</title>
<polygon fill="#313244" stroke="none" points="630.25,-1595.38 630.25,-1640.38 726,-1640.38 726,-1595.38 630.25,-1595.38"/>
<text xml:space="preserve" text-anchor="start" x="637.25" y="-1623.92" font-family="Helvetica,Arial,sans-serif" font-weight="bold" font-size="11.00" fill="#cdd6f4">ifname et&#45;0/0/39</text>
<text xml:space="preserve" text-anchor="start" x="660.12" y="-1603.58" font-family="Helvetica,Arial,sans-serif" font-size="9.00" fill="#a6adc8">et&#45;0/0/39</text>
<polygon fill="none" stroke="#fab387" points="630.25,-1595.38 630.25,-1640.38 726,-1640.38 726,-1595.38 630.25,-1595.38"/>
</g>
<!-- ens8f1np1&#45;&gt;swport_dev_collapsed_ipf01cly_lf02_ifname_et_0_0_39 -->
<g id="edge25" class="edge">
<title>ens8f1np1&#45;&gt;swport_dev_collapsed_ipf01cly_lf02_ifname_et_0_0_39</title>
<path fill="none" stroke="#f5c2e7" stroke-width="3" d="M389.34,-1653.82C451.71,-1646.03 551.82,-1633.53 616,-1625.51"/>
<polygon fill="#f5c2e7" stroke="#f5c2e7" stroke-width="3" points="616.32,-1629 625.81,-1624.28 615.45,-1622.05 616.32,-1629"/>
<text xml:space="preserve" text-anchor="start" x="481" y="-1658.47" font-family="Helvetica,Arial,sans-serif" font-size="10.00" fill="#a6adc8">VLAN 502</text>
<text xml:space="preserve" text-anchor="start" x="488.88" y="-1647.97" font-family="Helvetica,Arial,sans-serif" font-size="10.00" fill="#a6adc8">25GbE</text>
</g>
<!-- no_lldp_peer -->
<g id="node25" class="node">
<title>no_lldp_peer</title>
<path fill="#313244" stroke="none" d="M897.67,-321.12C897.67,-321.12 963.08,-321.12 963.08,-321.12 967.67,-321.12 972.25,-325.71 972.25,-330.29 972.25,-330.29 972.25,-339.46 972.25,-339.46 972.25,-344.04 967.67,-348.62 963.08,-348.62 963.08,-348.62 897.67,-348.62 897.67,-348.62 893.08,-348.62 888.5,-344.04 888.5,-339.46 888.5,-339.46 888.5,-330.29 888.5,-330.29 888.5,-325.71 893.08,-321.12 897.67,-321.12"/>
<text xml:space="preserve" text-anchor="start" x="895.5" y="-332.18" font-family="Helvetica,Arial,sans-serif" font-style="italic" font-size="11.00" fill="#6c7086">No LLDP peer</text>
<path fill="none" stroke="#6c7086" d="M897.67,-321.12C897.67,-321.12 963.08,-321.12 963.08,-321.12 967.67,-321.12 972.25,-325.71 972.25,-330.29 972.25,-330.29 972.25,-339.46 972.25,-339.46 972.25,-344.04 967.67,-348.62 963.08,-348.62 963.08,-348.62 897.67,-348.62 897.67,-348.62 893.08,-348.62 888.5,-344.04 888.5,-339.46 888.5,-339.46 888.5,-330.29 888.5,-330.29 888.5,-325.71 893.08,-321.12 897.67,-321.12"/>
</g>
<!-- eno3np2&#45;&gt;no_lldp_peer -->
<g id="edge16" class="edge">
<title>eno3np2&#45;&gt;no_lldp_peer</title>
<path fill="none" stroke="#6c7086" stroke-dasharray="5,2" d="M723.29,-576.99C778.55,-512.06 870.75,-403.75 910.35,-357.23"/>
<polygon fill="#6c7086" stroke="#6c7086" points="912.96,-359.56 916.78,-349.68 907.63,-355.02 912.96,-359.56"/>
</g>
<!-- eno4np3&#45;&gt;no_lldp_peer -->
<g id="edge17" class="edge">
<title>eno4np3&#45;&gt;no_lldp_peer</title>
<path fill="none" stroke="#6c7086" stroke-dasharray="5,2" d="M737.8,-447.41C787.1,-418.45 855.8,-378.09 896.13,-354.4"/>
<polygon fill="#6c7086" stroke="#6c7086" points="897.83,-357.46 904.68,-349.38 894.28,-351.43 897.83,-357.46"/>
</g>
<!-- ens5f2np2&#45;&gt;no_lldp_peer -->
<g id="edge22" class="edge">
<title>ens5f2np2&#45;&gt;no_lldp_peer</title>
<path fill="none" stroke="#6c7086" stroke-dasharray="5,2" d="M737.8,-334.88C780.1,-334.88 836.67,-334.88 877.35,-334.88"/>
<polygon fill="#6c7086" stroke="#6c7086" points="877.13,-338.38 887.13,-334.88 877.13,-331.38 877.13,-338.38"/>
</g>
<!-- ens5f3np3&#45;&gt;no_lldp_peer -->
<g id="edge23" class="edge">
<title>ens5f3np3&#45;&gt;no_lldp_peer</title>
<path fill="none" stroke="#6c7086" stroke-dasharray="5,2" d="M737.8,-222.34C787.1,-251.3 855.8,-291.66 896.13,-315.35"/>
<polygon fill="#6c7086" stroke="#6c7086" points="894.28,-318.32 904.68,-320.37 897.83,-312.29 894.28,-318.32"/>
</g>
<!-- idrac&#45;&gt;no_lldp_peer -->
<g id="edge26" class="edge">
<title>idrac&#45;&gt;no_lldp_peer</title>
<path fill="none" stroke="#6c7086" stroke-dasharray="5,2" d="M715.55,-92.08C723.12,-99.1 730.94,-106.61 738,-113.88 805.3,-183.12 878.26,-271.5 911.3,-312.33"/>
<polygon fill="#6c7086" stroke="#6c7086" points="908.51,-314.44 917.51,-320.02 913.95,-310.04 908.51,-314.44"/>
</g>
<!-- sw_switch_01_example_net -->
<g id="node23" class="node">
<title>sw_switch_01_example_net</title>
<path fill="#313244" stroke="none" d="M859,-941.75C859,-941.75 1001.75,-941.75 1001.75,-941.75 1007.75,-941.75 1013.75,-947.75 1013.75,-953.75 1013.75,-953.75 1013.75,-1044 1013.75,-1044 1013.75,-1050 1007.75,-1056 1001.75,-1056 1001.75,-1056 859,-1056 859,-1056 853,-1056 847,-1050 847,-1044 847,-1044 847,-953.75 847,-953.75 847,-947.75 853,-941.75 859,-941.75"/>
<text xml:space="preserve" text-anchor="start" x="858" y="-1032.7" font-family="Helvetica,Arial,sans-serif" font-weight="bold" font-size="14.00" fill="#fab387">switch&#45;01.example.net</text>
<text xml:space="preserve" text-anchor="start" x="882" y="-1005.45" font-family="Helvetica,Arial,sans-serif" font-size="9.00" fill="#a6adc8">Juniper qfx5120&#45;48y&#45;8c</text>
<text xml:space="preserve" text-anchor="start" x="895.88" y="-979.7" font-family="Helvetica,Arial,sans-serif" font-size="9.00" fill="#a6adc8">[SN&#45;SWITCH&#45;01]</text>
<text xml:space="preserve" text-anchor="start" x="885.38" y="-953.95" font-family="Helvetica,Arial,sans-serif" font-size="9.00" fill="#a6adc8">JUNOS 23.4R2&#45;S4.11</text>
<path fill="none" stroke="#fab387" d="M859,-941.75C859,-941.75 1001.75,-941.75 1001.75,-941.75 1007.75,-941.75 1013.75,-947.75 1013.75,-953.75 1013.75,-953.75 1013.75,-1044 1013.75,-1044 1013.75,-1050 1007.75,-1056 1001.75,-1056 1001.75,-1056 859,-1056 859,-1056 853,-1056 847,-1050 847,-1044 847,-1044 847,-953.75 847,-953.75 847,-947.75 853,-941.75 859,-941.75"/>
</g>
<!-- swport_dev_collapsed_ipf01cly_lf01_ifname_xe_0_0_2&#45;&gt;sw_switch_01_example_net -->
<g id="edge27" class="edge">
<title>swport_dev_collapsed_ipf01cly_lf01_ifname_xe_0_0_2&#45;&gt;sw_switch_01_example_net</title>
<path fill="none" stroke="#585b70" d="M724.44,-1048.01C756.6,-1040.3 800.82,-1029.7 839.96,-1020.31"/>
<polygon fill="#585b70" stroke="#585b70" points="840.38,-1022.37 845.73,-1018.93 839.41,-1018.29 840.38,-1022.37"/>
</g>
<!-- swport_dev_collapsed_ipf01cly_lf01_ifname_xe_0_0_3&#45;&gt;sw_switch_01_example_net -->
<g id="edge28" class="edge">
<title>swport_dev_collapsed_ipf01cly_lf01_ifname_xe_0_0_3&#45;&gt;sw_switch_01_example_net</title>
<path fill="none" stroke="#585b70" d="M706.38,-817.09C741.45,-845.68 803.79,-896.5 853.65,-937.15"/>
<polygon fill="#585b70" stroke="#585b70" points="852.21,-938.68 858.19,-940.84 854.86,-935.42 852.21,-938.68"/>
</g>
<!-- swport_dev_collapsed_ipf01cly_lf01_ifname_et_0_0_38&#45;&gt;sw_switch_01_example_net -->
<g id="edge29" class="edge">
<title>swport_dev_collapsed_ipf01cly_lf01_ifname_et_0_0_38&#45;&gt;sw_switch_01_example_net</title>
<path fill="none" stroke="#585b70" d="M725.9,-939.52C757.93,-948.86 801.42,-961.55 839.97,-972.8"/>
<polygon fill="#585b70" stroke="#585b70" points="839.31,-974.79 845.66,-974.45 840.49,-970.76 839.31,-974.79"/>
</g>
<!-- swport_dev_collapsed_ipf01cly_lf01_ifname_et_0_0_39&#45;&gt;sw_switch_01_example_net -->
<g id="edge30" class="edge">
<title>swport_dev_collapsed_ipf01cly_lf01_ifname_et_0_0_39&#45;&gt;sw_switch_01_example_net</title>
<path fill="none" stroke="#585b70" d="M698.25,-1461.54C710.48,-1446.64 726.21,-1426.29 738,-1406.88 808.4,-1290.93 871.22,-1144.9 904.44,-1062.71"/>
<polygon fill="#585b70" stroke="#585b70" points="906.31,-1063.68 906.6,-1057.33 902.41,-1062.11 906.31,-1063.68"/>
</g>
<!-- sw_switch_02_example_net -->
<g id="node24" class="node">
<title>sw_switch_02_example_net</title>
<path fill="#313244" stroke="none" d="M859,-1258.75C859,-1258.75 1001.75,-1258.75 1001.75,-1258.75 1007.75,-1258.75 1013.75,-1264.75 1013.75,-1270.75 1013.75,-1270.75 1013.75,-1361 1013.75,-1361 1013.75,-1367 1007.75,-1373 1001.75,-1373 1001.75,-1373 859,-1373 859,-1373 853,-1373 847,-1367 847,-1361 847,-1361 847,-1270.75 847,-1270.75 847,-1264.75 853,-1258.75 859,-1258.75"/>
<text xml:space="preserve" text-anchor="start" x="858" y="-1349.7" font-family="Helvetica,Arial,sans-serif" font-weight="bold" font-size="14.00" fill="#fab387">switch&#45;02.example.net</text>
<text xml:space="preserve" text-anchor="start" x="882" y="-1322.45" font-family="Helvetica,Arial,sans-serif" font-size="9.00" fill="#a6adc8">Juniper qfx5120&#45;48y&#45;8c</text>
<text xml:space="preserve" text-anchor="start" x="895.88" y="-1296.7" font-family="Helvetica,Arial,sans-serif" font-size="9.00" fill="#a6adc8">[SN&#45;SWITCH&#45;02]</text>
<text xml:space="preserve" text-anchor="start" x="885.38" y="-1270.95" font-family="Helvetica,Arial,sans-serif" font-size="9.00" fill="#a6adc8">JUNOS 23.4R2&#45;S4.11</text>
<path fill="none" stroke="#fab387" d="M859,-1258.75C859,-1258.75 1001.75,-1258.75 1001.75,-1258.75 1007.75,-1258.75 1013.75,-1264.75 1013.75,-1270.75 1013.75,-1270.75 1013.75,-1361 1013.75,-1361 1013.75,-1367 1007.75,-1373 1001.75,-1373 1001.75,-1373 859,-1373 859,-1373 853,-1373 847,-1367 847,-1361 847,-1361 847,-1270.75 847,-1270.75 847,-1264.75 853,-1258.75 859,-1258.75"/>
</g>
<!-- swport_dev_collapsed_ipf01cly_lf02_ifname_xe_0_0_2&#45;&gt;sw_switch_02_example_net -->
<g id="edge31" class="edge">
<title>swport_dev_collapsed_ipf01cly_lf02_ifname_xe_0_0_2&#45;&gt;sw_switch_02_example_net</title>
<path fill="none" stroke="#585b70" d="M724.44,-1354.36C756.6,-1348.32 800.82,-1340.02 839.96,-1332.67"/>
<polygon fill="#585b70" stroke="#585b70" points="840.2,-1334.76 845.71,-1331.59 839.43,-1330.63 840.2,-1334.76"/>
</g>
<!-- swport_dev_collapsed_ipf01cly_lf02_ifname_xe_0_0_3&#45;&gt;sw_switch_02_example_net -->
<g id="edge32" class="edge">
<title>swport_dev_collapsed_ipf01cly_lf02_ifname_xe_0_0_3&#45;&gt;sw_switch_02_example_net</title>
<path fill="none" stroke="#585b70" d="M717.68,-1192.37C750.41,-1211.46 798.65,-1239.61 840.81,-1264.21"/>
<polygon fill="#585b70" stroke="#585b70" points="839.71,-1265.99 845.95,-1267.2 841.82,-1262.36 839.71,-1265.99"/>
</g>
<!-- swport_dev_collapsed_ipf01cly_lf02_ifname_et_0_0_38&#45;&gt;sw_switch_02_example_net -->
<g id="edge33" class="edge">
<title>swport_dev_collapsed_ipf01cly_lf02_ifname_et_0_0_38&#45;&gt;sw_switch_02_example_net</title>
<path fill="none" stroke="#585b70" d="M725.9,-1277.66C757.93,-1283.68 801.42,-1291.84 839.97,-1299.08"/>
<polygon fill="#585b70" stroke="#585b70" points="839.34,-1301.1 845.62,-1300.15 840.11,-1296.97 839.34,-1301.1"/>
</g>
<!-- swport_dev_collapsed_ipf01cly_lf02_ifname_et_0_0_39&#45;&gt;sw_switch_02_example_net -->
<g id="edge34" class="edge">
<title>swport_dev_collapsed_ipf01cly_lf02_ifname_et_0_0_39&#45;&gt;sw_switch_02_example_net</title>
<path fill="none" stroke="#585b70" d="M697.53,-1595.67C735.02,-1550.42 821.45,-1446.12 877.53,-1378.44"/>
<polygon fill="#585b70" stroke="#585b70" points="879.01,-1379.94 881.22,-1373.98 875.78,-1377.26 879.01,-1379.94"/>
</g>
</g>
</svg>
