<?xml version="1.0" encoding="UTF-8" standalone="no"?>
<!DOCTYPE svg PUBLIC "-//W3C//DTD SVG 1.1//EN"
 "http://www.w3.org/Graphics/SVG/1.1/DTD/svg11.dtd">
<!-- Generated by graphviz version 14.0.0 (0)
 -->
<!-- Title: nic_xray Pages: 1 -->
<svg width="1061pt" height="1389pt"
 viewBox="0.00 0.00 1061.00 1389.00" xmlns="http://www.w3.org/2000/svg" xmlns:xlink="http://www.w3.org/1999/xlink">
<g id="graph0" class="graph" transform="scale(1 1) rotate(0) translate(36 1353.38)">
<title>nic_xray</title>
<polygon fill="#1e1e2e" stroke="none" points="-36,36 -36,-1353.38 1025.25,-1353.38 1025.25,36 -36,36"/>
<g id="clust1" class="cluster">
<title>cluster_bond_0</title>
<polygon fill="#1e1e2e" fill-opacity="0.800000" stroke="#89b4fa" stroke-width="1.5" stroke-dasharray="5,2" points="266.25,-883.38 266.25,-1092.38 397,-1092.38 397,-883.38 266.25,-883.38"/>
<text xml:space="preserve" text-anchor="start" x="274.25" y="-1077.97" font-family="Helvetica,Arial,sans-serif" font-weight="bold" font-size="12.00" fill="#89b4fa">bond0</text>
<text xml:space="preserve" text-anchor="start" x="311" y="-1077.97" font-family="Helvetica,Arial,sans-serif" font-size="12.00" fill="#89b4fa"> (LACP Active)</text>
</g>
<g id="clust2" class="cluster">
<title>cluster_bond_1</title>
<polygon fill="#1e1e2e" fill-opacity="0.800000" stroke="#f9e2af" stroke-width="1.5" stroke-dasharray="5,2" points="266.25,-449.38 266.25,-658.38 397,-658.38 397,-449.38 266.25,-449.38"/>
<text xml:space="preserve" text-anchor="start" x="274.25" y="-643.98" font-family="Helvetica,Arial,sans-serif" font-weight="bold" font-size="12.00" fill="#f9e2af">bond1</text>
<text xml:space="preserve" text-anchor="start" x="311" y="-643.98" font-family="Helvetica,Arial,sans-serif" font-size="12.00" fill="#f9e2af"> (LACP Active)</text>
</g>
<g id="clust3" class="cluster">
<title>cluster_bond_2</title>
<polygon fill="#1e1e2e" fill-opacity="0.800000" stroke="#94e2d5" stroke-width="1.5" stroke-dasharray="5,2" points="266.25,-666.38 266.25,-875.38 397,-875.38 397,-666.38 266.25,-666.38"/>
<text xml:space="preserve" text-anchor="start" x="274.25" y="-860.98" font-family="Helvetica,Arial,sans-serif" font-weight="bold" font-size="12.00" fill="#94e2d5">bond2</text>
<text xml:space="preserve" text-anchor="start" x="311" y="-860.98" font-family="Helvetica,Arial,sans-serif" font-size="12.00" fill="#94e2d5"> (LACP Active)</text>
</g>
<g id="clust4" class="cluster">
<title>cluster_bond_3</title>
<polygon fill="#1e1e2e" fill-opacity="0.800000" stroke="#f5c2e7" stroke-width="1.5" stroke-dasharray="5,2" points="266.25,-1100.38 266.25,-1309.38 397,-1309.38 397,-1100.38 266.25,-1100.38"/>
<text xml:space="preserve" text-anchor="start" x="274.25" y="-1294.97" font-family="Helvetica,Arial,sans-serif" font-weight="bold" font-size="12.00" fill="#f5c2e7">bond3</text>
<text xml:space="preserve" text-anchor="start" x="311" y="-1294.97" font-family="Helvetica,Arial,sans-serif" font-size="12.00" fill="#f5c2e7"> (LACP Active)</text>
</g>
<!-- server -->
<g id="node1" class="node">
<title>server</title>
<polygon fill="#313244" stroke="none" points="0,-565.25 0,-629.5 165.25,-629.5 165.25,-565.25 0,-565.25"/>
<text xml:space="preserve" text-anchor="start" x="11" y="-606.2" font-family="Helvetica,Arial,sans-serif" font-weight="bold" font-size="14.00" fill="#cba6f7">server&#45;01.example.net</text>
<text xml:space="preserve" text-anchor="start" x="66.5" y="-577.05" font-family="Helvetica,Arial,sans-serif" font-size="11.00" fill="#a6adc8">Server</text>
<polygon fill="none" stroke="#585b70" points="0,-565.25 0,-629.5 165.25,-629.5 165.25,-565.25 0,-565.25"/>
</g>
<!-- eno1np0 -->
<g id="node2" class="node">
<title>eno1np0</title>
<polygon fill="#313244" stroke="none" points="283.25,-891 283.25,-955.75 379,-955.75 379,-891 283.25,-891"/>
<text xml:space="preserve" text-anchor="start" x="308.62" y="-939.3" font-family="Helvetica,Arial,sans-serif" font-weight="bold" font-size="11.00" fill="#cdd6f4">eno1np0</text>
<text xml:space="preserve" text-anchor="start" x="290.25" y="-918.95" font-family="Helvetica,Arial,sans-serif" font-size="9.00" fill="#a6adc8">XX:XX:XX:XX:XX:01</text>
<text xml:space="preserve" text-anchor="start" x="296.62" y="-899.2" font-family="Helvetica,Arial,sans-serif" font-size="9.00" fill="#a6adc8">10000Mb/s (Full)</text>
<polygon fill="none" stroke="#a6e3a1" points="283.25,-891 283.25,-955.75 379,-955.75 379,-891 283.25,-891"/>
</g>
<!-- server&#45;&gt;eno1np0 -->
<g id="edge1" class="edge">
<title>server&#45;&gt;eno1np0</title>
<path fill="none" stroke="#585b70" d="M97.7,-629.3C124.06,-686.31 185.58,-806.97 266.25,-885.38 269.73,-888.76 273.57,-891.97 277.58,-894.98"/>
<polygon fill="#585b70" stroke="#585b70" points="276.23,-896.6 282.34,-898.38 278.67,-893.18 276.23,-896.6"/>
</g>
<!-- ens5f0np0 -->
<g id="node3" class="node">
<title>ens5f0np0</title>
<polygon fill="#313244" stroke="none" points="283.25,-999 283.25,-1063.75 379,-1063.75 379,-999 283.25,-999"/>
<text xml:space="preserve" text-anchor="start" x="304.12" y="-1047.3" font-family="Helvetica,Arial,sans-serif" font-weight="bold" font-size="11.00" fill="#cdd6f4">ens5f0np0</text>
<text xml:space="preserve" text-anchor="start" x="290.25" y="-1026.95" font-family="Helvetica,Arial,sans-serif" font-size="9.00" fill="#a6adc8">XX:XX:XX:XX:XX:07</text>
<text xml:space="preserve" text-anchor="start" x="296.62" y="-1007.2" font-family="Helvetica,Arial,sans-serif" font-size="9.00" fill="#a6adc8">10000Mb/s (Full)</text>
<polygon fill="none" stroke="#a6e3a1" points="283.25,-999 283.25,-1063.75 379,-1063.75 379,-999 283.25,-999"/>
</g>
<!-- server&#45;&gt;ens5f0np0 -->
<g id="edge7" class="edge">
<title>server&#45;&gt;ens5f0np0</title>
<path fill="none" stroke="#585b70" d="M93.84,-629.4C116.82,-698.12 177.57,-862.75 266.25,-977.38 270.81,-983.27 276.1,-988.97 281.66,-994.31"/>
<polygon fill="#585b70" stroke="#585b70" points="279.89,-995.53 285.71,-998.09 282.75,-992.46 279.89,-995.53"/>
</g>
<!-- eno2np1 -->
<g id="node4" class="node">
<title>eno2np1</title>
<polygon fill="#313244" stroke="none" points="283.25,-457 283.25,-521.75 379,-521.75 379,-457 283.25,-457"/>
<text xml:space="preserve" text-anchor="start" x="308.62" y="-505.3" font-family="Helvetica,Arial,sans-serif" font-weight="bold" font-size="11.00" fill="#cdd6f4">eno2np1</text>
<text xml:space="preserve" text-anchor="start" x="290.25" y="-484.95" font-family="Helvetica,Arial,sans-serif" font-size="9.00" fill="#a6adc8">XX:XX:XX:XX:XX:02</text>
<text xml:space="preserve" text-anchor="start" x="296.62" y="-465.2" font-family="Helvetica,Arial,sans-serif" font-size="9.00" fill="#a6adc8">10000Mb/s (Full)</text>
<polygon fill="none" stroke="#a6e3a1" points="283.25,-457 283.25,-521.75 379,-521.75 379,-457 283.25,-457"/>
</g>
<!-- server&#45;&gt;eno2np1 -->
<g id="edge2" class="edge">
<title>server&#45;&gt;eno2np1</title>
<path fill="none" stroke="#585b70" d="M156.92,-565.26C195.37,-548.42 241.63,-528.15 276.66,-512.8"/>
<polygon fill="#585b70" stroke="#585b70" points="277.48,-514.74 282.13,-510.4 275.79,-510.89 277.48,-514.74"/>
</g>
<!-- ens5f1np1 -->
<g id="node5" class="node">
<title>ens5f1np1</title>
<polygon fill="#313244" stroke="none" points="283.25,-565 283.25,-629.75 379,-629.75 379,-565 283.25,-565"/>
<text xml:space="preserve" text-anchor="start" x="304.12" y="-613.3" font-family="Helvetica,Arial,sans-serif" font-weight="bold" font-size="11.00" fill="#cdd6f4">ens5f1np1</text>
<text xml:space="preserve" text-anchor="start" x="290.25" y="-592.95" font-family="Helvetica,Arial,sans-serif" font-size="9.00" fill="#a6adc8">XX:XX:XX:XX:XX:08</text>
<text xml:space="preserve" text-anchor="start" x="296.62" y="-573.2" font-family="Helvetica,Arial,sans-serif" font-size="9.00" fill="#a6adc8">10000Mb/s (Full)</text>
<polygon fill="none" stroke="#a6e3a1" points="283.25,-565 283.25,-629.75 379,-629.75 379,-565 283.25,-565"/>
</g>
<!-- server&#45;&gt;ens5f1np1 -->
<g id="edge8" class="edge">
<title>server&#45;&gt;ens5f1np1</title>
<path fill="none" stroke="#585b70" d="M165.02,-597.38C201.53,-597.38 243.59,-597.38 276.12,-597.38"/>
<polygon fill="#585b70" stroke="#585b70" points="275.82,-599.48 281.82,-597.38 275.82,-595.28 275.82,-599.48"/>
</g>
<!-- ens3f0np0 -->
<g id="node6" class="node">
<title>ens3f0np0</title>
<polygon fill="#313244" stroke="none" points="283.25,-674 283.25,-738.75 379,-738.75 379,-674 283.25,-674"/>
<text xml:space="preserve" text-anchor="start" x="304.12" y="-722.3" font-family="Helvetica,Arial,sans-serif" font-weight="bold" font-size="11.00" fill="#cdd6f4">ens3f0np0</text>
<text xml:space="preserve" text-anchor="start" x="290.25" y="-701.95" font-family="Helvetica,Arial,sans-serif" font-size="9.00" fill="#a6adc8">XX:XX:XX:XX:XX:05</text>
<text xml:space="preserve" text-anchor="start" x="296.62" y="-682.2" font-family="Helvetica,Arial,sans-serif" font-size="9.00" fill="#a6adc8">25000Mb/s (Full)</text>
<polygon fill="none" stroke="#a6e3a1" points="283.25,-674 283.25,-738.75 379,-738.75 379,-674 283.25,-674"/>
</g>
<!-- server&#45;&gt;ens3f0np0 -->
<g id="edge5" class="edge">
<title>server&#45;&gt;ens3f0np0</title>
<path fill="none" stroke="#585b70" d="M156.25,-629.49C194.89,-646.57 241.56,-667.21 276.82,-682.8"/>
<polygon fill="#585b70" stroke="#585b70" points="275.54,-684.53 281.88,-685.04 277.24,-680.69 275.54,-684.53"/>
</g>
<!-- ens8f0np0 -->
<g id="node7" class="node">
<title>ens8f0np0</title>
<polygon fill="#313244" stroke="none" points="283.25,-782 283.25,-846.75 379,-846.75 379,-782 283.25,-782"/>
<text xml:space="preserve" text-anchor="start" x="304.12" y="-830.3" font-family="Helvetica,Arial,sans-serif" font-weight="bold" font-size="11.00" fill="#cdd6f4">ens8f0np0</text>
<text xml:space="preserve" text-anchor="start" x="290.25" y="-809.95" font-family="Helvetica,Arial,sans-serif" font-size="9.00" fill="#a6adc8">XX:XX:XX:XX:XX:0b</text>
<text xml:space="preserve" text-anchor="start" x="296.62" y="-790.2" font-family="Helvetica,Arial,sans-serif" font-size="9.00" fill="#a6adc8">25000Mb/s (Full)</text>
<polygon fill="none" stroke="#a6e3a1" points="283.25,-782 283.25,-846.75 379,-846.75 379,-782 283.25,-782"/>
</g>
<!-- server&#45;&gt;ens8f0np0 -->
<g id="edge11" class="edge">
<title>server&#45;&gt;ens8f0np0</title>
<path fill="none" stroke="#585b70" d="M118.73,-629.21C155.32,-662.27 214.44,-715.36 266.25,-760.38 272.67,-765.95 279.5,-771.81 286.22,-777.52"/>
<polygon fill="#585b70" stroke="#585b70" points="284.73,-779.01 290.66,-781.3 287.45,-775.81 284.73,-779.01"/>
</g>
<!-- ens3f1np1 -->
<g id="node8" class="node">
<title>ens3f1np1</title>
<polygon fill="#313244" stroke="none" points="283.25,-1108 283.25,-1172.75 379,-1172.75 379,-1108 283.25,-1108"/>
<text xml:space="preserve" text-anchor="start" x="304.12" y="-1156.3" font-family="Helvetica,Arial,sans-serif" font-weight="bold" font-size="11.00" fill="#cdd6f4">ens3f1np1</text>
<text xml:space="preserve" text-anchor="start" x="290.25" y="-1135.95" font-family="Helvetica,Arial,sans-serif" font-size="9.00" fill="#a6adc8">XX:XX:XX:XX:XX:06</text>
<text xml:space="preserve" text-anchor="start" x="296.62" y="-1116.2" font-family="Helvetica,Arial,sans-serif" font-size="9.00" fill="#a6adc8">25000Mb/s (Full)</text>
<polygon fill="none" stroke="#a6e3a1" points="283.25,-1108 283.25,-1172.75 379,-1172.75 379,-1108 283.25,-1108"/>
</g>
<!-- server&#45;&gt;ens3f1np1 -->
<g id="edge6" class="edge">
<title>server&#45;&gt;ens3f1np1</title>
<path fill="none" stroke="#585b70" d="M87.63,-629.45C99.79,-715.24 143.32,-953.6 266.25,-1102.38 269.58,-1106.41 273.46,-1110.12 277.64,-1113.51"/>
<polygon fill="#585b70" stroke="#585b70" points="276.22,-1115.07 282.27,-1117.01 278.75,-1111.72 276.22,-1115.07"/>
</g>
<!-- ens8f1np1 -->
<g id="node9" class="node">
<title>ens8f1np1</title>
<polygon fill="#313244" stroke="none" points="283.62,-1216 283.62,-1280.75 378.62,-1280.75 378.62,-1216 283.62,-1216"/>
<text xml:space="preserve" text-anchor="start" x="304.12" y="-1264.3" font-family="Helvetica,Arial,sans-serif" font-weight="bold" font-size="11.00" fill="#cdd6f4">ens8f1np1</text>
<text xml:space="preserve" text-anchor="start" x="290.62" y="-1243.95" font-family="Helvetica,Arial,sans-serif" font-size="9.00" fill="#a6adc8">XX:XX:XX:XX:XX:0c</text>
<text xml:space="preserve" text-anchor="start" x="296.62" y="-1224.2" font-family="Helvetica,Arial,sans-serif" font-size="9.00" fill="#a6adc8">25000Mb/s (Full)</text>
<polygon fill="none" stroke="#a6e3a1" points="283.62,-1216 283.62,-1280.75 378.62,-1280.75 378.62,-1216 283.62,-1216"/>
</g>
<!-- server&#45;&gt;ens8f1np1 -->
<g id="edge12" class="edge">
<title>server&#45;&gt;ens8f1np1</title>
<path fill="none" stroke="#585b70" d="M91.96,-629.25C112.07,-705.5 165.6,-904.21 219.25,-1067.38 238.05,-1124.55 231.69,-1145.1 266.25,-1194.38 270.38,-1200.26 275.3,-1205.89 280.55,-1211.14"/>
<polygon fill="#585b70" stroke="#585b70" points="279.01,-1212.58 284.8,-1215.21 281.92,-1209.54 279.01,-1212.58"/>
</g>
<!-- eno3np2 -->
<g id="node10" class="node">
<title>eno3np2</title>
<polygon fill="#313244" stroke="none" points="617.75,-371.88 617.75,-416.88 713.5,-416.88 713.5,-371.88 617.75,-371.88"/>
<text xml:space="preserve" text-anchor="start" x="643.12" y="-400.43" font-family="Helvetica,Arial,sans-serif" font-weight="bold" font-size="11.00" fill="#cdd6f4">eno3np2</text>
<text xml:space="preserve" text-anchor="start" x="624.75" y="-380.07" font-family="Helvetica,Arial,sans-serif" font-size="9.00" fill="#a6adc8">XX:XX:XX:XX:XX:03</text>
<polygon fill="none" stroke="#f38ba8" points="617.75,-371.88 617.75,-416.88 713.5,-416.88 713.5,-371.88 617.75,-371.88"/>
</g>
<!-- server&#45;&gt;eno3np2 -->
<g id="edge3" class="edge">
<title>server&#45;&gt;eno3np2</title>
<path fill="none" stroke="#585b70" d="M109.5,-565.54C141.85,-528.26 200.97,-467.97 266.25,-439.38 380.97,-389.12 531.25,-387.28 610.41,-390.62"/>
<polygon fill="#585b70" stroke="#585b70" points="610.24,-392.72 616.33,-390.89 610.44,-388.52 610.24,-392.72"/>
</g>
<!-- eno4np3 -->
<g id="node11" class="node">
<title>eno4np3</title>
<polygon fill="#313244" stroke="none" points="617.75,-283.88 617.75,-328.88 713.5,-328.88 713.5,-283.88 617.75,-283.88"/>
<text xml:space="preserve" text-anchor="start" x="643.12" y="-312.43" font-family="Helvetica,Arial,sans-serif" font-weight="bold" font-size="11.00" fill="#cdd6f4">eno4np3</text>
<text xml:space="preserve" text-anchor="start" x="624.75" y="-292.07" font-family="Helvetica,Arial,sans-serif" font-size="9.00" fill="#a6adc8">XX:XX:XX:XX:XX:04</text>
<polygon fill="none" stroke="#f38ba8" points="617.75,-283.88 617.75,-328.88 713.5,-328.88 713.5,-283.88 617.75,-283.88"/>
</g>
<!-- server&#45;&gt;eno4np3 -->
<g id="edge4" class="edge">
<title>server&#45;&gt;eno4np3</title>
<path fill="none" stroke="#585b70" d="M102.76,-565.33C131.95,-519.38 192.13,-435.59 266.25,-392.38 377.06,-327.77 530.69,-311.54 610.94,-307.57"/>
<polygon fill="#585b70" stroke="#585b70" points="610.59,-309.69 616.49,-307.31 610.4,-305.49 610.59,-309.69"/>
</g>
<!-- ens5f2np2 -->
<g id="node12" class="node">
<title>ens5f2np2</title>
<polygon fill="#313244" stroke="none" points="617.75,-195.88 617.75,-240.88 713.5,-240.88 713.5,-195.88 617.75,-195.88"/>
<text xml:space="preserve" text-anchor="start" x="638.62" y="-224.43" font-family="Helvetica,Arial,sans-serif" font-weight="bold" font-size="11.00" fill="#cdd6f4">ens5f2np2</text>
<text xml:space="preserve" text-anchor="start" x="624.75" y="-204.07" font-family="Helvetica,Arial,sans-serif" font-size="9.00" fill="#a6adc8">XX:XX:XX:XX:XX:09</text>
<polygon fill="none" stroke="#f38ba8" points="617.75,-195.88 617.75,-240.88 713.5,-240.88 713.5,-195.88 617.75,-195.88"/>
</g>
<!-- server&#45;&gt;ens5f2np2 -->
<g id="edge9" class="edge">
<title>server&#45;&gt;ens5f2np2</title>
<path fill="none" stroke="#585b70" d="M96.74,-565.39C121.39,-509.3 180.03,-393.29 266.25,-331.38 372.53,-255.05 529.06,-230.14 610.66,-222.11"/>
<polygon fill="#585b70" stroke="#585b70" points="610.56,-224.23 616.33,-221.57 610.16,-220.05 610.56,-224.23"/>
</g>
<!-- ens5f3np3 -->
<g id="node13" class="node">
<title>ens5f3np3</title>
<polygon fill="#313244" stroke="none" points="617.75,-107.88 617.75,-152.88 713.5,-152.88 713.5,-107.88 617.75,-107.88"/>
<text xml:space="preserve" text-anchor="start" x="638.62" y="-136.43" font-family="Helvetica,Arial,sans-serif" font-weight="bold" font-size="11.00" fill="#cdd6f4">ens5f3np3</text>
<text xml:space="preserve" text-anchor="start" x="624.75" y="-116.08" font-family="Helvetica,Arial,sans-serif" font-size="9.00" fill="#a6adc8">XX:XX:XX:XX:XX:0a</text>
<polygon fill="none" stroke="#f38ba8" points="617.75,-107.88 617.75,-152.88 713.5,-152.88 713.5,-107.88 617.75,-107.88"/>
</g>
<!-- server&#45;&gt;ens5f3np3 -->
<g id="edge10" class="edge">
<title>server&#45;&gt;ens5f3np3</title>
<path fill="none" stroke="#585b70" d="M91.93,-565.47C111.03,-498.39 164.46,-341.94 266.25,-257.38 368.28,-172.61 527.63,-144.15 610.48,-134.8"/>
<polygon fill="#585b70" stroke="#585b70" points="610.53,-136.91 616.27,-134.17 610.08,-132.73 610.53,-136.91"/>
</g>
<!-- idrac -->
<g id="node14" class="node">
<title>idrac</title>
<polygon fill="#313244" stroke="none" points="617.75,0 617.75,-64.75 713.5,-64.75 713.5,0 617.75,0"/>
<text xml:space="preserve" text-anchor="start" x="652.5" y="-48.3" font-family="Helvetica,Arial,sans-serif" font-weight="bold" font-size="11.00" fill="#cdd6f4">idrac</text>
<text xml:space="preserve" text-anchor="start" x="624.75" y="-27.95" font-family="Helvetica,Arial,sans-serif" font-size="9.00" fill="#a6adc8">XX:XX:XX:XX:XX:0d</text>
<text xml:space="preserve" text-anchor="start" x="635.62" y="-8.2" font-family="Helvetica,Arial,sans-serif" font-size="9.00" fill="#a6adc8">425Mb/s (Half)</text>
<polygon fill="none" stroke="#a6e3a1" points="617.75,0 617.75,-64.75 713.5,-64.75 713.5,0 617.75,0"/>
</g>
<!-- server&#45;&gt;idrac -->
<g id="edge13" class="edge">
<title>server&#45;&gt;idrac</title>
<path fill="none" stroke="#585b70" d="M88.57,-565.43C102.25,-487.63 147.77,-286.53 266.25,-175.38 364.57,-83.14 526.57,-49.66 610.48,-38.09"/>
<polygon fill="#585b70" stroke="#585b70" points="610.69,-40.19 616.36,-37.31 610.13,-36.02 610.69,-40.19"/>
</g>
<!-- swport_dev_collapsed_ipf01cly_lf01_ifname_xe_0_0_2 -->
<g id="node15" class="node">
<title>swport_dev_collapsed_ipf01cly_lf01_ifname_xe_0_0_2</title>
<polygon fill="#313244" stroke="none" points="619.25,-790.75 619.25,-816 712,-816 712,-790.75 619.25,-790.75"/>
<text xml:space="preserve" text-anchor="start" x="626.25" y="-799.55" font-family="Helvetica,Arial,sans-serif" font-weight="bold" font-size="11.00" fill="#cdd6f4">ifname xe&#45;0/0/2</text>
<polygon fill="none" stroke="#fab387" points="619.25,-790.75 619.25,-816 712,-816 712,-790.75 619.25,-790.75"/>
</g>
<!-- eno1np0&#45;&gt;swport_dev_collapsed_ipf01cly_lf01_ifname_xe_0_0_2 -->
<g id="edge14" class="edge">
<title>eno1np0&#45;&gt;swport_dev_collapsed_ipf01cly_lf01_ifname_xe_0_0_2</title>
<path fill="none" stroke="#89b4fa" stroke-width="2.5" d="M378.68,-899.72C385.19,-895.4 391.52,-890.6 397,-885.38 424.09,-859.57 410.57,-833.54 443,-814.88 492.54,-786.36 559.09,-787.03 606.3,-792.64"/>
<polygon fill="#89b4fa" stroke="#89b4fa" stroke-width="2.5" points="605.55,-796.07 615.93,-793.92 606.48,-789.13 605.55,-796.07"/>
<text xml:space="preserve" text-anchor="start" x="443" y="-815.88" font-family="Helvetica,Arial,sans-serif" font-size="10.00" fill="#a6adc8">VLAN 100;101;102;110;111</text>
</g>
<!-- swport_dev_collapsed_ipf01cly_lf02_ifname_xe_0_0_2 -->
<g id="node19" class="node">
<title>swport_dev_collapsed_ipf01cly_lf02_ifname_xe_0_0_2</title>
<polygon fill="#313244" stroke="none" points="619.25,-1017.75 619.25,-1043 712,-1043 712,-1017.75 619.25,-1017.75"/>
<text xml:space="preserve" text-anchor="start" x="626.25" y="-1026.55" font-family="Helvetica,Arial,sans-serif" font-weight="bold" font-size="11.00" fill="#cdd6f4">ifname xe&#45;0/0/2</text>
<polygon fill="none" stroke="#fab387" points="619.25,-1017.75 619.25,-1043 712,-1043 712,-1017.75 619.25,-1017.75"/>
</g>
<!-- ens5f0np0&#45;&gt;swport_dev_collapsed_ipf01cly_lf02_ifname_xe_0_0_2 -->
<g id="edge20" class="edge">
<title>ens5f0np0&#45;&gt;swport_dev_collapsed_ipf01cly_lf02_ifname_xe_0_0_2</title>
<path fill="none" stroke="#89b4fa" stroke-width="2.5" d="M378.71,-1031.23C438.15,-1031.06 541.02,-1030.75 605.81,-1030.55"/>
<polygon fill="#89b4fa" stroke="#89b4fa" stroke-width="2.5" points="605.65,-1034.05 615.64,-1030.52 605.63,-1027.05 605.65,-1034.05"/>
<text xml:space="preserve" text-anchor="start" x="443" y="-1032.02" font-family="Helvetica,Arial,sans-serif" font-size="10.00" fill="#a6adc8">VLAN 100;101;102;110;111</text>
</g>
<!-- swport_dev_collapsed_ipf01cly_lf01_ifname_xe_0_0_3 -->
<g id="node16" class="node">
<title>swport_dev_collapsed_ipf01cly_lf01_ifname_xe_0_0_3</title>
<polygon fill="#313244" stroke="none" points="619.25,-589.75 619.25,-615 712,-615 712,-589.75 619.25,-589.75"/>
<text xml:space="preserve" text-anchor="start" x="626.25" y="-598.55" font-family="Helvetica,Arial,sans-serif" font-weight="bold" font-size="11.00" fill="#cdd6f4">ifname xe&#45;0/0/3</text>
<polygon fill="none" stroke="#fab387" points="619.25,-589.75 619.25,-615 712,-615 712,-589.75 619.25,-589.75"/>
</g>
<!-- eno2np1&#45;&gt;swport_dev_collapsed_ipf01cly_lf01_ifname_xe_0_0_3 -->
<g id="edge15" class="edge">
<title>eno2np1&#45;&gt;swport_dev_collapsed_ipf01cly_lf01_ifname_xe_0_0_3</title>
<path fill="none" stroke="#f9e2af" stroke-width="2.5" d="M378.71,-505.21C440.95,-526.36 550.78,-563.69 614.68,-585.4"/>
<polygon fill="#f9e2af" stroke="#f9e2af" stroke-width="2.5" points="613.41,-588.67 624.01,-588.57 615.66,-582.04 613.41,-588.67"/>
<text xml:space="preserve" text-anchor="start" x="443" y="-566.82" font-family="Helvetica,Arial,sans-serif" font-size="10.00" fill="#a6adc8">VLAN 200;201;202;211;212</text>
</g>
<!-- swport_dev_collapsed_ipf01cly_lf02_ifname_xe_0_0_3 -->
<g id="node20" class="node">
<title>swport_dev_collapsed_ipf01cly_lf02_ifname_xe_0_0_3</title>
<polygon fill="#313244" stroke="none" points="619.25,-871.75 619.25,-897 712,-897 712,-871.75 619.25,-871.75"/>
<text xml:space="preserve" text-anchor="start" x="626.25" y="-880.55" font-family="Helvetica,Arial,sans-serif" font-weight="bold" font-size="11.00" fill="#cdd6f4">ifname xe&#45;0/0/3</text>
<polygon fill="none" stroke="#fab387" points="619.25,-871.75 619.25,-897 712,-897 712,-871.75 619.25,-871.75"/>
</g>
<!-- ens5f1np1&#45;&gt;swport_dev_collapsed_ipf01cly_lf02_ifname_xe_0_0_3 -->
<g id="edge21" class="edge">
<title>ens5f1np1&#45;&gt;swport_dev_collapsed_ipf01cly_lf02_ifname_xe_0_0_3</title>
<path fill="none" stroke="#f9e2af" stroke-width="2.5" d="M374.68,-629.51C383.06,-637.5 391.08,-646.61 397,-656.38 438.69,-725.15 385.5,-775.15 443,-831.38 465.91,-853.78 548.59,-869.05 606.21,-877.25"/>
<polygon fill="#f9e2af" stroke="#f9e2af" stroke-width="2.5" points="605.4,-880.67 615.79,-878.57 606.36,-873.74 605.4,-880.67"/>
<text xml:space="preserve" text-anchor="start" x="443" y="-871.07" font-family="Helvetica,Arial,sans-serif" font-size="10.00" fill="#a6adc8">VLAN 200;201;202;211;212</text>
</g>
<!-- swport_dev_collapsed_ipf01cly_lf01_ifname_et_0_0_38 -->
<g id="node17" class="node">
<title>swport_dev_collapsed_ipf01cly_lf01_ifname_et_0_0_38</title>
<polygon fill="#313244" stroke="none" points="617.75,-696.75 617.75,-722 713.5,-722 713.5,-696.75 617.75,-696.75"/>
<text xml:space="preserve" text-anchor="start" x="624.75" y="-705.55" font-family="Helvetica,Arial,sans-serif" font-weight="bold" font-size="11.00" fill="#cdd6f4">ifname et&#45;0/0/38</text>
<polygon fill="none" stroke="#fab387" points="617.75,-696.75 617.75,-722 713.5,-722 713.5,-696.75 617.75,-696.75"/>
</g>
<!-- ens3f0np0&#45;&gt;swport_dev_collapsed_ipf01cly_lf01_ifname_et_0_0_38 -->
<g id="edge18" class="edge">
<title>ens3f0np0&#45;&gt;swport_dev_collapsed_ipf01cly_lf01_ifname_et_0_0_38</title>
<path fill="none" stroke="#94e2d5" stroke-width="3" d="M378.71,-706.8C437.41,-707.32 538.44,-708.24 603.35,-708.82"/>
<polygon fill="#94e2d5" stroke="#94e2d5" stroke-width="3" points="603.25,-712.32 613.28,-708.91 603.31,-705.32 603.25,-712.32"/>
<text xml:space="preserve" text-anchor="start" x="480.5" y="-709.4" font-family="Helvetica,Arial,sans-serif" font-size="10.00" fill="#a6adc8">VLAN 501</text>
</g>
<!-- swport_dev_collapsed_ipf01cly_lf02_ifname_et_0_0_38 -->
<g id="node21" class="node">
<title>swport_dev_collapsed_ipf01cly_lf02_ifname_et_0_0_38</title>
<polygon fill="#313244" stroke="none" points="617.75,-946.75 617.75,-972 713.5,-972 713.5,-946.75 617.75,-946.75"/>
<text xml:space="preserve" text-anchor="start" x="624.75" y="-955.55" font-family="Helvetica,Arial,sans-serif" font-weight="bold" font-size="11.00" fill="#cdd6f4">ifname et&#45;0/0/38</text>
<polygon fill="none" stroke="#fab387" points="617.75,-946.75 617.75,-972 713.5,-972 713.5,-946.75 617.75,-946.75"/>
</g>
<!-- ens8f0np0&#45;&gt;swport_dev_collapsed_ipf01cly_lf02_ifname_et_0_0_38 -->
<g id="edge24" class="edge">
<title>ens8f0np0&#45;&gt;swport_dev_collapsed_ipf01cly_lf02_ifname_et_0_0_38</title>
<path fill="none" stroke="#94e2d5" stroke-width="3" d="M366.69,-846.55C387.45,-864.36 415.17,-885.61 443,-899.38 494.27,-924.72 557.68,-940.51 603.52,-949.48"/>
<polygon fill="#94e2d5" stroke="#94e2d5" stroke-width="3" points="602.81,-952.91 613.29,-951.32 604.11,-946.03 602.81,-952.91"/>
<text xml:space="preserve" text-anchor="start" x="480.5" y="-941.04" font-family="Helvetica,Arial,sans-serif" font-size="10.00" fill="#a6adc8">VLAN 501</text>
</g>
<!-- swport_dev_collapsed_ipf01cly_lf01_ifname_et_0_0_39 -->
<g id="node18" class="node">
<title>swport_dev_collapsed_ipf01cly_lf01_ifname_et_0_0_39</title>
<polygon fill="#313244" stroke="none" points="617.75,-1107.75 617.75,-1133 713.5,-1133 713.5,-1107.75 617.75,-1107.75"/>
<text xml:space="preserve" text-anchor="start" x="624.75" y="-1116.55" font-family="Helvetica,Arial,sans-serif" font-weight="bold" font-size="11.00" fill="#cdd6f4">ifname et&#45;0/0/39</text>
<polygon fill="none" stroke="#fab387" points="617.75,-1107.75 617.75,-1133 713.5,-1133 713.5,-1107.75 617.75,-1107.75"/>
</g>
<!-- ens3f1np1&#45;&gt;swport_dev_collapsed_ipf01cly_lf01_ifname_et_0_0_39 -->
<g id="edge19" class="edge">
<title>ens3f1np1&#45;&gt;swport_dev_collapsed_ipf01cly_lf01_ifname_et_0_0_39</title>
<path fill="none" stroke="#f5c2e7" stroke-width="3" d="M378.71,-1137.57C437.41,-1134.04 538.44,-1127.97 603.35,-1124.06"/>
<polygon fill="#f5c2e7" stroke="#f5c2e7" stroke-width="3" points="603.52,-1127.56 613.29,-1123.46 603.1,-1120.57 603.52,-1127.56"/>
<text xml:space="preserve" text-anchor="start" x="480.5" y="-1134.34" font-family="Helvetica,Arial,sans-serif" font-size="10.00" fill="#a6adc8">VLAN 502</text>
</g>
<!-- swport_dev_collapsed_ipf01cly_lf02_ifname_et_0_0_39 -->
<g id="node22" class="node">
<title>swport_dev_collapsed_ipf01cly_lf02_ifname_et_0_0_39</title>
<polygon fill="#313244" stroke="none" points="617.75,-1206.75 617.75,-1232 713.5,-1232 713.5,-1206.75 617.75,-1206.75"/>
<text xml:space="preserve" text-anchor="start" x="624.75" y="-1215.55" font-family="Helvetica,Arial,sans-serif" font-weight="bold" font-size="11.00" fill="#cdd6f4">ifname et&#45;0/0/39</text>
<polygon fill="none" stroke="#fab387" points="617.75,-1206.75 617.75,-1232 713.5,-1232 713.5,-1206.75 617.75,-1206.75"/>
</g>
<!-- ens8f1np1&#45;&gt;swport_dev_collapsed_ipf01cly_lf02_ifname_et_0_0_39 -->
<g id="edge25" class="edge">
<title>ens8f1np1&#45;&gt;swport_dev_collapsed_ipf01cly_lf02_ifname_et_0_0_39</title>
<path fill="none" stroke="#f5c2e7" stroke-width="3" d="M378.36,-1244.34C437.17,-1239.21 538.88,-1230.34 603.89,-1224.67"/>
<polygon fill="#f5c2e7" stroke="#f5c2e7" stroke-width="3" points="603.8,-1228.19 613.46,-1223.84 603.19,-1221.22 603.8,-1228.19"/>
<text xml:space="preserve" text-anchor="start" x="480.5" y="-1239.17" font-family="Helvetica,Arial,sans-serif" font-size="10.00" fill="#a6adc8">VLAN 502</text>
</g>
<!-- no_lldp_peer -->
<g id="node25" class="node">
<title>no_lldp_peer</title>
<path fill="#313244" stroke="none" d="M873.17,-204.62C873.17,-204.62 938.58,-204.62 938.58,-204.62 943.17,-204.62 947.75,-209.21 947.75,-213.79 947.75,-213.79 947.75,-222.96 947.75,-222.96 947.75,-227.54 943.17,-232.12 938.58,-232.12 938.58,-232.12 873.17,-232.12 873.17,-232.12 868.58,-232.12 864,-227.54 864,-222.96 864,-222.96 864,-213.79 864,-213.79 864,-209.21 868.58,-204.62 873.17,-204.62"/>
<text xml:space="preserve" text-anchor="start" x="871" y="-215.68" font-family="Helvetica,Arial,sans-serif" font-style="italic" font-size="11.00" fill="#6c7086">No LLDP peer</text>
<path fill="none" stroke="#6c7086" d="M873.17,-204.62C873.17,-204.62 938.58,-204.62 938.58,-204.62 943.17,-204.62 947.75,-209.21 947.75,-213.79 947.75,-213.79 947.75,-222.96 947.75,-222.96 947.75,-227.54 943.17,-232.12 938.58,-232.12 938.58,-232.12 873.17,-232.12 873.17,-232.12 868.58,-232.12 864,-227.54 864,-222.96 864,-222.96 864,-213.79 864,-213.79 864,-209.21 868.58,-204.62 873.17,-204.62"/>
</g>
<!-- eno3np2&#45;&gt;no_lldp_peer -->
<g id="edge16" class="edge">
<title>eno3np2&#45;&gt;no_lldp_peer</title>
<path fill="none" stroke="#6c7086" stroke-dasharray="5,2" d="M696.8,-372.08C743.46,-337.61 832.43,-271.89 877.4,-238.67"/>
<polygon fill="#6c7086" stroke="#6c7086" points="879.37,-241.57 885.33,-232.81 875.21,-235.94 879.37,-241.57"/>
</g>
<!-- eno4np3&#45;&gt;no_lldp_peer -->
<g id="edge17" class="edge">
<title>eno4np3&#45;&gt;no_lldp_peer</title>
<path fill="none" stroke="#6c7086" stroke-dasharray="5,2" d="M713.41,-289.09C754.96,-273.75 815.41,-251.42 857.22,-235.98"/>
<polygon fill="#6c7086" stroke="#6c7086" points="858.37,-239.28 866.53,-232.54 855.94,-232.72 858.37,-239.28"/>
</g>
<!-- ens5f2np2&#45;&gt;no_lldp_peer -->
<g id="edge22" class="edge">
<title>ens5f2np2&#45;&gt;no_lldp_peer</title>
<path fill="none" stroke="#6c7086" stroke-dasharray="5,2" d="M713.41,-218.38C753.55,-218.38 811.31,-218.38 852.88,-218.38"/>
<polygon fill="#6c7086" stroke="#6c7086" points="852.64,-221.88 862.64,-218.38 852.64,-214.88 852.64,-221.88"/>
</g>
<!-- ens5f3np3&#45;&gt;no_lldp_peer -->
<g id="edge23" class="edge">
<title>ens5f3np3&#45;&gt;no_lldp_peer</title>
<path fill="none" stroke="#6c7086" stroke-dasharray="5,2" d="M713.41,-147.66C754.96,-163 815.41,-185.33 857.22,-200.77"/>
<polygon fill="#6c7086" stroke="#6c7086" points="855.94,-204.03 866.53,-204.21 858.37,-197.47 855.94,-204.03"/>
</g>
<!-- idrac&#45;&gt;no_lldp_peer -->
<g id="edge26" class="edge">
<title>idrac&#45;&gt;no_lldp_peer</title>
<path fill="none" stroke="#6c7086" stroke-dasharray="5,2" d="M707.85,-64.56C756.91,-102.86 837.34,-165.65 878.62,-197.88"/>
<polygon fill="#6c7086" stroke="#6c7086" points="876.29,-200.5 886.33,-203.9 880.6,-194.98 876.29,-200.5"/>
</g>
<!-- sw_switch_01_example_net -->
<g id="node23" class="node">
<title>sw_switch_01_example_net</title>
<path fill="#313244" stroke="none" d="M834.5,-728.25C834.5,-728.25 977.25,-728.25 977.25,-728.25 983.25,-728.25 989.25,-734.25 989.25,-740.25 989.25,-740.25 989.25,-780.5 989.25,-780.5 989.25,-786.5 983.25,-792.5 977.25,-792.5 977.25,-792.5 834.5,-792.5 834.5,-792.5 828.5,-792.5 822.5,-786.5 822.5,-780.5 822.5,-780.5 822.5,-740.25 822.5,-740.25 822.5,-734.25 828.5,-728.25 834.5,-728.25"/>
<text xml:space="preserve" text-anchor="start" x="833.5" y="-769.2" font-family="Helvetica,Arial,sans-serif" font-weight="bold" font-size="14.00" fill="#fab387">switch&#45;01.example.net</text>
<text xml:space="preserve" text-anchor="start" x="889.75" y="-740.05" font-family="Helvetica,Arial,sans-serif" font-size="11.00" fill="#a6adc8">Switch</text>
<path fill="none" stroke="#fab387" d="M834.5,-728.25C834.5,-728.25 977.25,-728.25 977.25,-728.25 983.25,-728.25 989.25,-734.25 989.25,-740.25 989.25,-740.25 989.25,-780.5 989.25,-780.5 989.25,-786.5 983.25,-792.5 977.25,-792.5 977.25,-792.5 834.5,-792.5 834.5,-792.5 828.5,-792.5 822.5,-786.5 822.5,-780.5 822.5,-780.5 822.5,-740.25 822.5,-740.25 822.5,-734.25 828.5,-728.25 834.5,-728.25"/>
</g>
<!-- swport_dev_collapsed_ipf01cly_lf01_ifname_xe_0_0_2&#45;&gt;sw_switch_01_example_net -->
<g id="edge27" class="edge">
<title>swport_dev_collapsed_ipf01cly_lf01_ifname_xe_0_0_2&#45;&gt;sw_switch_01_example_net</title>
<path fill="none" stroke="#585b70" d="M712,-795.19C741.24,-789.91 780.25,-782.87 815.53,-776.5"/>
<polygon fill="#585b70" stroke="#585b70" points="815.52,-778.64 821.05,-775.5 814.77,-774.5 815.52,-778.64"/>
</g>
<!-- swport_dev_collapsed_ipf01cly_lf01_ifname_xe_0_0_3&#45;&gt;sw_switch_01_example_net -->
<g id="edge28" class="edge">
<title>swport_dev_collapsed_ipf01cly_lf01_ifname_xe_0_0_3&#45;&gt;sw_switch_01_example_net</title>
<path fill="none" stroke="#585b70" d="M685.32,-614.77C720.49,-638.1 797.72,-689.31 850.53,-724.34"/>
<polygon fill="#585b70" stroke="#585b70" points="849.1,-725.91 855.27,-727.48 851.43,-722.41 849.1,-725.91"/>
</g>
<!-- swport_dev_collapsed_ipf01cly_lf01_ifname_et_0_0_38&#45;&gt;sw_switch_01_example_net -->
<g id="edge29" class="edge">
<title>swport_dev_collapsed_ipf01cly_lf01_ifname_et_0_0_38&#45;&gt;sw_switch_01_example_net</title>
<path fill="none" stroke="#585b70" d="M713.41,-719.39C742.63,-725.65 781.2,-733.9 816.06,-741.36"/>
<polygon fill="#585b70" stroke="#585b70" points="815.19,-743.32 821.5,-742.53 816.07,-739.22 815.19,-743.32"/>
</g>
<!-- swport_dev_collapsed_ipf01cly_lf01_ifname_et_0_0_39&#45;&gt;sw_switch_01_example_net -->
<g id="edge30" class="edge">
<title>swport_dev_collapsed_ipf01cly_lf01_ifname_et_0_0_39&#45;&gt;sw_switch_01_example_net</title>
<path fill="none" stroke="#585b70" d="M677.93,-1107.87C687.76,-1096.78 702.16,-1079.95 713.5,-1064.38 780.44,-972.44 849.12,-857.23 883.09,-798.55"/>
<polygon fill="#585b70" stroke="#585b70" points="884.73,-799.92 885.91,-793.67 881.09,-797.82 884.73,-799.92"/>
</g>
<!-- sw_switch_02_example_net -->
<g id="node24" class="node">
<title>sw_switch_02_example_net</title>
<path fill="#313244" stroke="none" d="M834.5,-962.25C834.5,-962.25 977.25,-962.25 977.25,-962.25 983.25,-962.25 989.25,-968.25 989.25,-974.25 989.25,-974.25 989.25,-1014.5 989.25,-1014.5 989.25,-1020.5 983.25,-1026.5 977.25,-1026.5 977.25,-1026.5 834.5,-1026.5 834.5,-1026.5 828.5,-1026.5 822.5,-1020.5 822.5,-1014.5 822.5,-1014.5 822.5,-974.25 822.5,-974.25 822.5,-968.25 828.5,-962.25 834.5,-962.25"/>
<text xml:space="preserve" text-anchor="start" x="833.5" y="-1003.2" font-family="Helvetica,Arial,sans-serif" font-weight="bold" font-size="14.00" fill="#fab387">switch&#45;02.example.net</text>
<text xml:space="preserve" text-anchor="start" x="889.75" y="-974.05" font-family="Helvetica,Arial,sans-serif" font-size="11.00" fill="#a6adc8">Switch</text>
<path fill="none" stroke="#fab387" d="M834.5,-962.25C834.5,-962.25 977.25,-962.25 977.25,-962.25 983.25,-962.25 989.25,-968.25 989.25,-974.25 989.25,-974.25 989.25,-1014.5 989.25,-1014.5 989.25,-1020.5 983.25,-1026.5 977.25,-1026.5 977.25,-1026.5 834.5,-1026.5 834.5,-1026.5 828.5,-1026.5 822.5,-1020.5 822.5,-1014.5 822.5,-1014.5 822.5,-974.25 822.5,-974.25 822.5,-968.25 828.5,-962.25 834.5,-962.25"/>
</g>
<!-- swport_dev_collapsed_ipf01cly_lf02_ifname_xe_0_0_2&#45;&gt;sw_switch_02_example_net -->
<g id="edge31" class="edge">
<title>swport_dev_collapsed_ipf01cly_lf02_ifname_xe_0_0_2&#45;&gt;sw_switch_02_example_net</title>
<path fill="none" stroke="#585b70" d="M712,-1023.52C741.24,-1019.1 780.25,-1013.21 815.53,-1007.87"/>
<polygon fill="#585b70" stroke="#585b70" points="815.42,-1010.02 821.04,-1007.04 814.79,-1005.86 815.42,-1010.02"/>
</g>
<!-- swport_dev_collapsed_ipf01cly_lf02_ifname_xe_0_0_3&#45;&gt;sw_switch_02_example_net -->
<g id="edge32" class="edge">
<title>swport_dev_collapsed_ipf01cly_lf02_ifname_xe_0_0_3&#45;&gt;sw_switch_02_example_net</title>
<path fill="none" stroke="#585b70" d="M693.96,-896.99C726.63,-912.08 782.69,-937.96 828.81,-959.25"/>
<polygon fill="#585b70" stroke="#585b70" points="827.83,-961.12 834.16,-961.73 829.59,-957.3 827.83,-961.12"/>
</g>
<!-- swport_dev_collapsed_ipf01cly_lf02_ifname_et_0_0_38&#45;&gt;sw_switch_02_example_net -->
<g id="edge33" class="edge">
<title>swport_dev_collapsed_ipf01cly_lf02_ifname_et_0_0_38&#45;&gt;sw_switch_02_example_net</title>
<path fill="none" stroke="#585b70" d="M713.41,-966.25C742.51,-970.52 780.88,-976.16 815.62,-981.26"/>
<polygon fill="#585b70" stroke="#585b70" points="815.24,-983.33 821.48,-982.12 815.85,-979.17 815.24,-983.33"/>
</g>
<!-- swport_dev_collapsed_ipf01cly_lf02_ifname_et_0_0_39&#45;&gt;sw_switch_02_example_net -->
<g id="edge34" class="edge">
<title>swport_dev_collapsed_ipf01cly_lf02_ifname_et_0_0_39&#45;&gt;sw_switch_02_example_net</title>
<path fill="none" stroke="#585b70" d="M679.77,-1206.96C714.74,-1173.94 811.07,-1082.96 865.71,-1031.36"/>
<polygon fill="#585b70" stroke="#585b70" points="866.84,-1033.18 869.76,-1027.53 863.96,-1030.13 866.84,-1033.18"/>
</g>
</g>
</svg>
