<?xml version="1.0" encoding="UTF-8" standalone="no"?>
<!DOCTYPE svg PUBLIC "-//W3C//DTD SVG 1.1//EN"
 "http://www.w3.org/Graphics/SVG/1.1/DTD/svg11.dtd">
<!-- Generated by graphviz version 14.0.0 (0)
 -->
<!-- Title: nic_xray Pages: 1 -->
<svg width="1419pt" height="2760pt"
 viewBox="0.00 0.00 1419.00 2760.00" xmlns="http://www.w3.org/2000/svg" xmlns:xlink="http://www.w3.org/1999/xlink">
<g id="graph0" class="graph" transform="scale(1 1) rotate(0) translate(36 2724.27)">
<title>nic_xray</title>
<polygon fill="#1e1e2e" stroke="none" points="-36,36 -36,-2724.27 1382.75,-2724.27 1382.75,36 -36,36"/>
<text xml:space="preserve" text-anchor="start" x="1130.25" y="-14.95" font-family="Helvetica,Arial,sans-serif" font-size="9.00" fill="#6c7086">Generated by nic&#45;xray v2.10.3 — © 2026 Ciro Iriarte</text>
<text xml:space="preserve" text-anchor="start" x="1177.12" y="-5.2" font-family="Helvetica,Arial,sans-serif" font-size="9.00" fill="#6c7086">2026&#45;05&#45;20 00:54:29 &#45;03:00</text>
<!-- server -->
<g id="node1" class="node">
<title>server</title>
<polygon fill="#313244" stroke="none" points="0,-2029.77 0,-2144.02 181.75,-2144.02 181.75,-2029.77 0,-2029.77"/>
<text xml:space="preserve" text-anchor="start" x="56.38" y="-2120.72" font-family="Helvetica,Arial,sans-serif" font-weight="bold" font-size="14.00" fill="#cba6f7">bigiron.lan</text>
<text xml:space="preserve" text-anchor="start" x="11" y="-2093.47" font-family="Helvetica,Arial,sans-serif" font-size="9.00" fill="#a6adc8">Intel Corporation SandyBridge Platform</text>
<text xml:space="preserve" text-anchor="start" x="83.38" y="-2067.72" font-family="Helvetica,Arial,sans-serif" font-size="9.00" fill="#a6adc8">[00]</text>
<text xml:space="preserve" text-anchor="start" x="31.62" y="-2041.97" font-family="Helvetica,Arial,sans-serif" font-size="9.00" fill="#a6adc8">Debian GNU/Linux 13 (trixie)</text>
<polygon fill="none" stroke="#585b70" points="0,-2029.77 0,-2144.02 181.75,-2144.02 181.75,-2029.77 0,-2029.77"/>
</g>
<!-- ens6f0 -->
<g id="node2" class="node">
<title>ens6f0</title>
<polygon fill="#313244" stroke="none" points="290.75,-2547.52 290.75,-2688.27 489.25,-2688.27 489.25,-2547.52 290.75,-2547.52"/>
<text xml:space="preserve" text-anchor="start" x="372.75" y="-2671.82" font-family="Helvetica,Arial,sans-serif" font-weight="bold" font-size="11.00" fill="#cdd6f4">ens6f0</text>
<text xml:space="preserve" text-anchor="start" x="353.62" y="-2651.47" font-family="Helvetica,Arial,sans-serif" font-size="9.00" fill="#a6adc8">14:02:ec:83:1c:e0</text>
<text xml:space="preserve" text-anchor="start" x="367.5" y="-2631.72" font-family="Helvetica,Arial,sans-serif" font-size="9.00" fill="#a6adc8">MTU: 9216</text>
<text xml:space="preserve" text-anchor="start" x="297.75" y="-2612.92" font-family="Helvetica,Arial,sans-serif" font-size="8.00" fill="#a6adc8">82599ES 10&#45;Gigabit SFI/SFP+ Network Connection</text>
<text xml:space="preserve" text-anchor="start" x="369.75" y="-2594.67" font-family="Helvetica,Arial,sans-serif" font-size="8.00" fill="#a6adc8">0000:05:00</text>
<text xml:space="preserve" text-anchor="start" x="364.88" y="-2576.42" font-family="Helvetica,Arial,sans-serif" font-size="8.00" fill="#a6adc8">10GBASE&#45;SR</text>
<text xml:space="preserve" text-anchor="start" x="339.38" y="-2556.32" font-family="Helvetica,Arial,sans-serif" font-size="8.00" fill="#a6e3a1">Tx:&#45;2.27 dBm</text>
<text xml:space="preserve" text-anchor="start" x="388.12" y="-2556.32" font-family="Helvetica,Arial,sans-serif" font-size="11.00" fill="#cdd6f4"> </text>
<text xml:space="preserve" text-anchor="start" x="391.12" y="-2556.32" font-family="Helvetica,Arial,sans-serif" font-size="8.00" fill="#a6e3a1">Rx:&#45;3.21 dBm</text>
<polygon fill="none" stroke="#a6e3a1" points="290.75,-2547.52 290.75,-2688.27 489.25,-2688.27 489.25,-2547.52 290.75,-2547.52"/>
</g>
<!-- server&#45;&gt;ens6f0 -->
<g id="edge1" class="edge">
<title>server&#45;&gt;ens6f0</title>
<path fill="none" stroke="#585b70" d="M101.73,-2143.73C118.29,-2226.83 157.79,-2383.57 235.75,-2493.89 249.44,-2513.27 266.96,-2531.25 285.22,-2547.16"/>
<polygon fill="#585b70" stroke="#585b70" points="283.84,-2548.74 289.76,-2551.05 286.57,-2545.55 283.84,-2548.74"/>
</g>
<!-- ens6f1 -->
<g id="node3" class="node">
<title>ens6f1</title>
<polygon fill="#313244" stroke="none" points="546,-2464.52 546,-2605.27 744.5,-2605.27 744.5,-2464.52 546,-2464.52"/>
<text xml:space="preserve" text-anchor="start" x="628" y="-2588.82" font-family="Helvetica,Arial,sans-serif" font-weight="bold" font-size="11.00" fill="#cdd6f4">ens6f1</text>
<text xml:space="preserve" text-anchor="start" x="608.88" y="-2568.47" font-family="Helvetica,Arial,sans-serif" font-size="9.00" fill="#a6adc8">14:02:ec:83:1c:e1</text>
<text xml:space="preserve" text-anchor="start" x="622.75" y="-2548.72" font-family="Helvetica,Arial,sans-serif" font-size="9.00" fill="#a6adc8">MTU: 1500</text>
<text xml:space="preserve" text-anchor="start" x="553" y="-2529.92" font-family="Helvetica,Arial,sans-serif" font-size="8.00" fill="#a6adc8">82599ES 10&#45;Gigabit SFI/SFP+ Network Connection</text>
<text xml:space="preserve" text-anchor="start" x="625" y="-2511.67" font-family="Helvetica,Arial,sans-serif" font-size="8.00" fill="#a6adc8">0000:05:00</text>
<text xml:space="preserve" text-anchor="start" x="620.12" y="-2493.42" font-family="Helvetica,Arial,sans-serif" font-size="8.00" fill="#a6adc8">10GBASE&#45;SR</text>
<text xml:space="preserve" text-anchor="start" x="590.12" y="-2473.32" font-family="Helvetica,Arial,sans-serif" font-size="8.00" fill="#f38ba8">Tx:&#45;40.00 dBm</text>
<text xml:space="preserve" text-anchor="start" x="643.38" y="-2473.32" font-family="Helvetica,Arial,sans-serif" font-size="11.00" fill="#cdd6f4"> </text>
<text xml:space="preserve" text-anchor="start" x="646.38" y="-2473.32" font-family="Helvetica,Arial,sans-serif" font-size="8.00" fill="#f38ba8">Rx:&#45;33.01 dBm</text>
<polygon fill="none" stroke="#f38ba8" points="546,-2464.52 546,-2605.27 744.5,-2605.27 744.5,-2464.52 546,-2464.52"/>
</g>
<!-- server&#45;&gt;ens6f1 -->
<g id="edge2" class="edge">
<title>server&#45;&gt;ens6f1</title>
<path fill="none" stroke="#585b70" d="M118.96,-2143.77C151.82,-2207.6 212.65,-2310.73 290.75,-2375.89 363.98,-2437 464.47,-2479.17 539.59,-2504.66"/>
<polygon fill="#585b70" stroke="#585b70" points="538.53,-2506.52 544.89,-2506.44 539.87,-2502.53 538.53,-2506.52"/>
</g>
<!-- fwbr102i0 -->
<g id="node7" class="node">
<title>fwbr102i0</title>
<path fill="#cba6f7" stroke="#cba6f7" stroke-dasharray="5,2" d="M411.12,-2353.89C411.12,-2353.89 368.88,-2353.89 368.88,-2353.89 362.88,-2353.89 356.88,-2347.89 356.88,-2341.89 356.88,-2341.89 356.88,-2329.89 356.88,-2329.89 356.88,-2323.89 362.88,-2317.89 368.88,-2317.89 368.88,-2317.89 411.12,-2317.89 411.12,-2317.89 417.12,-2317.89 423.12,-2323.89 423.12,-2329.89 423.12,-2329.89 423.12,-2341.89 423.12,-2341.89 423.12,-2347.89 417.12,-2353.89 411.12,-2353.89"/>
<text xml:space="preserve" text-anchor="start" x="364.88" y="-2340.44" font-family="Helvetica,Arial,sans-serif" font-weight="bold" font-size="11.00" fill="#1e1e2e">fwbr102i0</text>
<text xml:space="preserve" text-anchor="start" x="378.75" y="-2332.29" font-family="Helvetica,Arial,sans-serif" font-size="8.00" fill="#1e1e2e">bridge</text>
<text xml:space="preserve" text-anchor="start" x="368.62" y="-2323.34" font-family="Helvetica,Arial,sans-serif" font-size="9.00" fill="#1e1e2e">MTU 9216</text>
</g>
<!-- server&#45;&gt;fwbr102i0 -->
<g id="edge3" class="edge">
<title>server&#45;&gt;fwbr102i0</title>
<path fill="none" stroke="#585b70" d="M159.67,-2143.71C223.56,-2197.25 316.09,-2274.8 361.61,-2312.94"/>
<polygon fill="#585b70" stroke="#585b70" points="360.08,-2314.4 366.03,-2316.64 362.78,-2311.18 360.08,-2314.4"/>
</g>
<!-- fwbr107i0 -->
<g id="node8" class="node">
<title>fwbr107i0</title>
<path fill="#cba6f7" stroke="#cba6f7" stroke-dasharray="5,2" d="M411.12,-2141.89C411.12,-2141.89 368.88,-2141.89 368.88,-2141.89 362.88,-2141.89 356.88,-2135.89 356.88,-2129.89 356.88,-2129.89 356.88,-2117.89 356.88,-2117.89 356.88,-2111.89 362.88,-2105.89 368.88,-2105.89 368.88,-2105.89 411.12,-2105.89 411.12,-2105.89 417.12,-2105.89 423.12,-2111.89 423.12,-2117.89 423.12,-2117.89 423.12,-2129.89 423.12,-2129.89 423.12,-2135.89 417.12,-2141.89 411.12,-2141.89"/>
<text xml:space="preserve" text-anchor="start" x="364.88" y="-2128.44" font-family="Helvetica,Arial,sans-serif" font-weight="bold" font-size="11.00" fill="#1e1e2e">fwbr107i0</text>
<text xml:space="preserve" text-anchor="start" x="378.75" y="-2120.29" font-family="Helvetica,Arial,sans-serif" font-size="8.00" fill="#1e1e2e">bridge</text>
<text xml:space="preserve" text-anchor="start" x="368.62" y="-2111.34" font-family="Helvetica,Arial,sans-serif" font-size="9.00" fill="#1e1e2e">MTU 9216</text>
</g>
<!-- server&#45;&gt;fwbr107i0 -->
<g id="edge4" class="edge">
<title>server&#45;&gt;fwbr107i0</title>
<path fill="none" stroke="#585b70" d="M181.43,-2098.05C237.36,-2105.01 306.62,-2113.64 349.3,-2118.95"/>
<polygon fill="#585b70" stroke="#585b70" points="348.98,-2121.03 355.19,-2119.68 349.5,-2116.86 348.98,-2121.03"/>
</g>
<!-- fwbr108i0 -->
<g id="node9" class="node">
<title>fwbr108i0</title>
<path fill="#cba6f7" stroke="#cba6f7" stroke-dasharray="5,2" d="M411.12,-2044.89C411.12,-2044.89 368.88,-2044.89 368.88,-2044.89 362.88,-2044.89 356.88,-2038.89 356.88,-2032.89 356.88,-2032.89 356.88,-2020.89 356.88,-2020.89 356.88,-2014.89 362.88,-2008.89 368.88,-2008.89 368.88,-2008.89 411.12,-2008.89 411.12,-2008.89 417.12,-2008.89 423.12,-2014.89 423.12,-2020.89 423.12,-2020.89 423.12,-2032.89 423.12,-2032.89 423.12,-2038.89 417.12,-2044.89 411.12,-2044.89"/>
<text xml:space="preserve" text-anchor="start" x="364.88" y="-2031.44" font-family="Helvetica,Arial,sans-serif" font-weight="bold" font-size="11.00" fill="#1e1e2e">fwbr108i0</text>
<text xml:space="preserve" text-anchor="start" x="378.75" y="-2023.29" font-family="Helvetica,Arial,sans-serif" font-size="8.00" fill="#1e1e2e">bridge</text>
<text xml:space="preserve" text-anchor="start" x="368.62" y="-2014.34" font-family="Helvetica,Arial,sans-serif" font-size="9.00" fill="#1e1e2e">MTU 9216</text>
</g>
<!-- server&#45;&gt;fwbr108i0 -->
<g id="edge5" class="edge">
<title>server&#45;&gt;fwbr108i0</title>
<path fill="none" stroke="#585b70" d="M181.43,-2068.81C237.48,-2057.49 306.91,-2043.47 349.57,-2034.86"/>
<polygon fill="#585b70" stroke="#585b70" points="349.75,-2036.96 355.21,-2033.72 348.91,-2032.85 349.75,-2036.96"/>
</g>
<!-- fwbr122i0 -->
<g id="node10" class="node">
<title>fwbr122i0</title>
<path fill="#cba6f7" stroke="#cba6f7" stroke-dasharray="5,2" d="M411.12,-1850.89C411.12,-1850.89 368.88,-1850.89 368.88,-1850.89 362.88,-1850.89 356.88,-1844.89 356.88,-1838.89 356.88,-1838.89 356.88,-1826.89 356.88,-1826.89 356.88,-1820.89 362.88,-1814.89 368.88,-1814.89 368.88,-1814.89 411.12,-1814.89 411.12,-1814.89 417.12,-1814.89 423.12,-1820.89 423.12,-1826.89 423.12,-1826.89 423.12,-1838.89 423.12,-1838.89 423.12,-1844.89 417.12,-1850.89 411.12,-1850.89"/>
<text xml:space="preserve" text-anchor="start" x="364.88" y="-1837.44" font-family="Helvetica,Arial,sans-serif" font-weight="bold" font-size="11.00" fill="#1e1e2e">fwbr122i0</text>
<text xml:space="preserve" text-anchor="start" x="378.75" y="-1829.29" font-family="Helvetica,Arial,sans-serif" font-size="8.00" fill="#1e1e2e">bridge</text>
<text xml:space="preserve" text-anchor="start" x="368.62" y="-1820.34" font-family="Helvetica,Arial,sans-serif" font-size="9.00" fill="#1e1e2e">MTU 9216</text>
</g>
<!-- server&#45;&gt;fwbr122i0 -->
<g id="edge6" class="edge">
<title>server&#45;&gt;fwbr122i0</title>
<path fill="none" stroke="#585b70" d="M158.56,-2029.89C222.71,-1975.05 316.49,-1894.88 362.1,-1855.89"/>
<polygon fill="#585b70" stroke="#585b70" points="363.33,-1857.6 366.53,-1852.1 360.61,-1854.4 363.33,-1857.6"/>
</g>
<!-- vmbr0 -->
<g id="node11" class="node">
<title>vmbr0</title>
<path fill="#cba6f7" stroke="#cba6f7" stroke-dasharray="5,2" d="M407.38,-898.89C407.38,-898.89 372.62,-898.89 372.62,-898.89 366.62,-898.89 360.62,-892.89 360.62,-886.89 360.62,-886.89 360.62,-874.89 360.62,-874.89 360.62,-868.89 366.62,-862.89 372.62,-862.89 372.62,-862.89 407.38,-862.89 407.38,-862.89 413.38,-862.89 419.38,-868.89 419.38,-874.89 419.38,-874.89 419.38,-886.89 419.38,-886.89 419.38,-892.89 413.38,-898.89 407.38,-898.89"/>
<text xml:space="preserve" text-anchor="start" x="373.5" y="-885.44" font-family="Helvetica,Arial,sans-serif" font-weight="bold" font-size="11.00" fill="#1e1e2e">vmbr0</text>
<text xml:space="preserve" text-anchor="start" x="378.75" y="-877.29" font-family="Helvetica,Arial,sans-serif" font-size="8.00" fill="#1e1e2e">bridge</text>
<text xml:space="preserve" text-anchor="start" x="368.62" y="-868.34" font-family="Helvetica,Arial,sans-serif" font-size="9.00" fill="#1e1e2e">MTU 9216</text>
</g>
<!-- server&#45;&gt;vmbr0 -->
<g id="edge7" class="edge">
<title>server&#45;&gt;vmbr0</title>
<path fill="none" stroke="#585b70" d="M105.91,-2029.94C158.96,-1814.6 346.15,-1054.82 382.76,-906.21"/>
<polygon fill="#585b70" stroke="#585b70" points="384.73,-907.01 384.12,-900.68 380.65,-906.01 384.73,-907.01"/>
</g>
<!-- vmbr1 -->
<g id="node12" class="node">
<title>vmbr1</title>
<path fill="#cba6f7" stroke="#cba6f7" stroke-dasharray="5,2" d="M407.38,-819.89C407.38,-819.89 372.62,-819.89 372.62,-819.89 366.62,-819.89 360.62,-813.89 360.62,-807.89 360.62,-807.89 360.62,-795.89 360.62,-795.89 360.62,-789.89 366.62,-783.89 372.62,-783.89 372.62,-783.89 407.38,-783.89 407.38,-783.89 413.38,-783.89 419.38,-789.89 419.38,-795.89 419.38,-795.89 419.38,-807.89 419.38,-807.89 419.38,-813.89 413.38,-819.89 407.38,-819.89"/>
<text xml:space="preserve" text-anchor="start" x="373.5" y="-806.44" font-family="Helvetica,Arial,sans-serif" font-weight="bold" font-size="11.00" fill="#1e1e2e">vmbr1</text>
<text xml:space="preserve" text-anchor="start" x="378.75" y="-798.29" font-family="Helvetica,Arial,sans-serif" font-size="8.00" fill="#1e1e2e">bridge</text>
<text xml:space="preserve" text-anchor="start" x="368.62" y="-789.34" font-family="Helvetica,Arial,sans-serif" font-size="9.00" fill="#1e1e2e">MTU 9100</text>
</g>
<!-- server&#45;&gt;vmbr1 -->
<g id="edge8" class="edge">
<title>server&#45;&gt;vmbr1</title>
<path fill="none" stroke="#585b70" d="M93.72,-2030.03C101.89,-1811.71 141.25,-1030.11 290.75,-841.89 305.98,-822.72 331.9,-812.67 353.29,-807.44"/>
<polygon fill="#585b70" stroke="#585b70" points="353.48,-809.55 358.87,-806.18 352.56,-805.46 353.48,-809.55"/>
</g>
<!-- swport_sw01_ifname_gigabitethernet0_1_1 -->
<g id="node4" class="node">
<title>swport_sw01_ifname_gigabitethernet0_1_1</title>
<polygon fill="#313244" stroke="none" points="801.25,-2630.39 801.25,-2675.39 957,-2675.39 957,-2630.39 801.25,-2630.39"/>
<text xml:space="preserve" text-anchor="start" x="808.25" y="-2658.94" font-family="Helvetica,Arial,sans-serif" font-weight="bold" font-size="11.00" fill="#cdd6f4">ifname gigabitethernet0/1/1</text>
<text xml:space="preserve" text-anchor="start" x="862.62" y="-2638.59" font-family="Helvetica,Arial,sans-serif" font-size="9.00" fill="#a6adc8">GE0/1/1</text>
<polygon fill="none" stroke="#fab387" points="801.25,-2630.39 801.25,-2675.39 957,-2675.39 957,-2630.39 801.25,-2630.39"/>
</g>
<!-- ens6f0&#45;&gt;swport_sw01_ifname_gigabitethernet0_1_1 -->
<g id="edge9" class="edge">
<title>ens6f0&#45;&gt;swport_sw01_ifname_gigabitethernet0_1_1</title>
<path fill="none" stroke="#a6e3a1" stroke-width="2.5" d="M488.99,-2624.93C576.32,-2631.21 703.1,-2640.32 787.97,-2646.42"/>
<polygon fill="#a6e3a1" stroke="#a6e3a1" stroke-width="2.5" points="787.48,-2649.89 797.7,-2647.12 787.98,-2642.91 787.48,-2649.89"/>
<text xml:space="preserve" text-anchor="start" x="543.25" y="-2654.05" font-family="Helvetica,Arial,sans-serif" font-size="10.00" fill="#a6adc8">VLAN 98;99;100;101;102;108;200;301;302;304</text>
<text xml:space="preserve" text-anchor="start" x="630.25" y="-2643.55" font-family="Helvetica,Arial,sans-serif" font-size="10.00" fill="#a6adc8">10GbE</text>
</g>
<!-- no_lldp_peer -->
<g id="node6" class="node">
<title>no_lldp_peer</title>
<path fill="#313244" stroke="none" d="M1173.67,-2538.14C1173.67,-2538.14 1239.08,-2538.14 1239.08,-2538.14 1243.67,-2538.14 1248.25,-2542.73 1248.25,-2547.31 1248.25,-2547.31 1248.25,-2556.48 1248.25,-2556.48 1248.25,-2561.06 1243.67,-2565.64 1239.08,-2565.64 1239.08,-2565.64 1173.67,-2565.64 1173.67,-2565.64 1169.08,-2565.64 1164.5,-2561.06 1164.5,-2556.48 1164.5,-2556.48 1164.5,-2547.31 1164.5,-2547.31 1164.5,-2542.73 1169.08,-2538.14 1173.67,-2538.14"/>
<text xml:space="preserve" text-anchor="start" x="1171.5" y="-2549.19" font-family="Helvetica,Arial,sans-serif" font-style="italic" font-size="11.00" fill="#6c7086">No LLDP peer</text>
<path fill="none" stroke="#6c7086" d="M1173.67,-2538.14C1173.67,-2538.14 1239.08,-2538.14 1239.08,-2538.14 1243.67,-2538.14 1248.25,-2542.73 1248.25,-2547.31 1248.25,-2547.31 1248.25,-2556.48 1248.25,-2556.48 1248.25,-2561.06 1243.67,-2565.64 1239.08,-2565.64 1239.08,-2565.64 1173.67,-2565.64 1173.67,-2565.64 1169.08,-2565.64 1164.5,-2561.06 1164.5,-2556.48 1164.5,-2556.48 1164.5,-2547.31 1164.5,-2547.31 1164.5,-2542.73 1169.08,-2538.14 1173.67,-2538.14"/>
</g>
<!-- ens6f1&#45;&gt;no_lldp_peer -->
<g id="edge10" class="edge">
<title>ens6f1&#45;&gt;no_lldp_peer</title>
<path fill="none" stroke="#6c7086" stroke-dasharray="5,2" d="M744.28,-2537.87C863.37,-2541.5 1059.88,-2547.47 1153.14,-2550.31"/>
<polygon fill="#6c7086" stroke="#6c7086" points="1152.91,-2553.8 1163.01,-2550.61 1153.12,-2546.8 1152.91,-2553.8"/>
</g>
<!-- sw_sw01 -->
<g id="node5" class="node">
<title>sw_sw01</title>
<path fill="#313244" stroke="none" d="M1078,-2621.52C1078,-2621.52 1334.75,-2621.52 1334.75,-2621.52 1340.75,-2621.52 1346.75,-2627.52 1346.75,-2633.52 1346.75,-2633.52 1346.75,-2672.27 1346.75,-2672.27 1346.75,-2678.27 1340.75,-2684.27 1334.75,-2684.27 1334.75,-2684.27 1078,-2684.27 1078,-2684.27 1072,-2684.27 1066,-2678.27 1066,-2672.27 1066,-2672.27 1066,-2633.52 1066,-2633.52 1066,-2627.52 1072,-2621.52 1078,-2621.52"/>
<text xml:space="preserve" text-anchor="start" x="1189.5" y="-2660.97" font-family="Helvetica,Arial,sans-serif" font-weight="bold" font-size="14.00" fill="#fab387">sw01</text>
<text xml:space="preserve" text-anchor="start" x="1077" y="-2633.72" font-family="Helvetica,Arial,sans-serif" font-size="9.00" fill="#a6adc8">ArubaOS (MODEL: ArubaS2500&#45;24P), Version 7.4.1.12 (72393)</text>
<path fill="none" stroke="#fab387" d="M1078,-2621.52C1078,-2621.52 1334.75,-2621.52 1334.75,-2621.52 1340.75,-2621.52 1346.75,-2627.52 1346.75,-2633.52 1346.75,-2633.52 1346.75,-2672.27 1346.75,-2672.27 1346.75,-2678.27 1340.75,-2684.27 1334.75,-2684.27 1334.75,-2684.27 1078,-2684.27 1078,-2684.27 1072,-2684.27 1066,-2678.27 1066,-2672.27 1066,-2672.27 1066,-2633.52 1066,-2633.52 1066,-2627.52 1072,-2621.52 1078,-2621.52"/>
</g>
<!-- swport_sw01_ifname_gigabitethernet0_1_1&#45;&gt;sw_sw01 -->
<g id="edge11" class="edge">
<title>swport_sw01_ifname_gigabitethernet0_1_1&#45;&gt;sw_sw01</title>
<path fill="none" stroke="#585b70" d="M956.79,-2652.89C987.3,-2652.89 1023.47,-2652.89 1058.65,-2652.89"/>
<polygon fill="#585b70" stroke="#585b70" points="1058.62,-2654.99 1064.62,-2652.89 1058.62,-2650.79 1058.62,-2654.99"/>
</g>
<!-- fwln102i0 -->
<g id="node13" class="node">
<title>fwln102i0</title>
<polygon fill="#a6e3a1" stroke="#a6e3a1" points="946.25,-2486.89 839.47,-2486.89 812,-2414.89 918.78,-2414.89 946.25,-2486.89"/>
<text xml:space="preserve" text-anchor="start" x="854.75" y="-2455.44" font-family="Helvetica,Arial,sans-serif" font-weight="bold" font-size="11.00" fill="#1e1e2e">fwln102i0</text>
<text xml:space="preserve" text-anchor="start" x="871.62" y="-2447.29" font-family="Helvetica,Arial,sans-serif" font-size="8.00" fill="#1e1e2e">veth</text>
<text xml:space="preserve" text-anchor="start" x="857.75" y="-2438.34" font-family="Helvetica,Arial,sans-serif" font-size="9.00" fill="#1e1e2e">MTU 9216</text>
</g>
<!-- fwbr102i0&#45;&gt;fwln102i0 -->
<g id="edge12" class="edge">
<title>fwbr102i0&#45;&gt;fwln102i0</title>
<path fill="none" stroke="#585b70" stroke-dasharray="5,2" d="M423.34,-2343.53C502.35,-2362.18 706.44,-2410.36 812.28,-2435.35"/>
<polygon fill="#585b70" stroke="#585b70" points="811.5,-2437.68 818.88,-2436.91 812.63,-2432.91 811.5,-2437.68"/>
</g>
<!-- veth102i0 -->
<g id="node37" class="node">
<title>veth102i0</title>
<polygon fill="#a6e3a1" stroke="#a6e3a1" points="947.03,-2371.89 839.01,-2371.89 811.22,-2299.89 919.24,-2299.89 947.03,-2371.89"/>
<text xml:space="preserve" text-anchor="start" x="854.38" y="-2340.44" font-family="Helvetica,Arial,sans-serif" font-weight="bold" font-size="11.00" fill="#1e1e2e">veth102i0</text>
<text xml:space="preserve" text-anchor="start" x="871.62" y="-2332.29" font-family="Helvetica,Arial,sans-serif" font-size="8.00" fill="#1e1e2e">veth</text>
<text xml:space="preserve" text-anchor="start" x="857.75" y="-2323.34" font-family="Helvetica,Arial,sans-serif" font-size="9.00" fill="#1e1e2e">MTU 9216</text>
</g>
<!-- fwbr102i0&#45;&gt;veth102i0 -->
<g id="edge36" class="edge">
<title>fwbr102i0&#45;&gt;veth102i0</title>
<path fill="none" stroke="#585b70" stroke-dasharray="5,2" d="M423.34,-2335.89C503.41,-2335.89 711.93,-2335.89 816.48,-2335.89"/>
<polygon fill="#585b70" stroke="#585b70" points="816.23,-2338.34 823.23,-2335.89 816.23,-2333.44 816.23,-2338.34"/>
</g>
<!-- fwln107i0 -->
<g id="node14" class="node">
<title>fwln107i0</title>
<polygon fill="#a6e3a1" stroke="#a6e3a1" points="946.25,-2256.89 839.47,-2256.89 812,-2184.89 918.78,-2184.89 946.25,-2256.89"/>
<text xml:space="preserve" text-anchor="start" x="854.75" y="-2225.44" font-family="Helvetica,Arial,sans-serif" font-weight="bold" font-size="11.00" fill="#1e1e2e">fwln107i0</text>
<text xml:space="preserve" text-anchor="start" x="871.62" y="-2217.29" font-family="Helvetica,Arial,sans-serif" font-size="8.00" fill="#1e1e2e">veth</text>
<text xml:space="preserve" text-anchor="start" x="857.75" y="-2208.34" font-family="Helvetica,Arial,sans-serif" font-size="9.00" fill="#1e1e2e">MTU 9216</text>
</g>
<!-- fwbr107i0&#45;&gt;fwln107i0 -->
<g id="edge13" class="edge">
<title>fwbr107i0&#45;&gt;fwln107i0</title>
<path fill="none" stroke="#585b70" stroke-dasharray="5,2" d="M423.34,-2130.84C454.14,-2137.42 501.82,-2147.52 543.25,-2155.89 636.96,-2174.84 745.65,-2195.74 813.16,-2208.59"/>
<polygon fill="#585b70" stroke="#585b70" points="812.37,-2210.94 819.7,-2209.84 813.28,-2206.12 812.37,-2210.94"/>
</g>
<!-- tap107i0 -->
<g id="node21" class="node">
<title>tap107i0</title>
<polygon fill="#89dceb" stroke="#89dceb" points="908.88,-2141.89 905.88,-2145.89 884.88,-2145.89 881.88,-2141.89 849.38,-2141.89 849.38,-2105.89 908.88,-2105.89 908.88,-2141.89"/>
<text xml:space="preserve" text-anchor="start" x="857.38" y="-2128.44" font-family="Helvetica,Arial,sans-serif" font-weight="bold" font-size="11.00" fill="#1e1e2e">tap107i0</text>
<text xml:space="preserve" text-anchor="start" x="873.5" y="-2120.29" font-family="Helvetica,Arial,sans-serif" font-size="8.00" fill="#1e1e2e">tun</text>
<text xml:space="preserve" text-anchor="start" x="857.75" y="-2111.34" font-family="Helvetica,Arial,sans-serif" font-size="9.00" fill="#1e1e2e">MTU 9216</text>
</g>
<!-- fwbr107i0&#45;&gt;tap107i0 -->
<g id="edge20" class="edge">
<title>fwbr107i0&#45;&gt;tap107i0</title>
<path fill="none" stroke="#585b70" stroke-dasharray="5,2" d="M423.34,-2123.89C510.11,-2123.89 747.74,-2123.89 840.41,-2123.89"/>
<polygon fill="#585b70" stroke="#585b70" points="840.4,-2126.34 847.4,-2123.89 840.4,-2121.44 840.4,-2126.34"/>
</g>
<!-- fwln108i0 -->
<g id="node15" class="node">
<title>fwln108i0</title>
<polygon fill="#a6e3a1" stroke="#a6e3a1" points="946.25,-2062.89 839.47,-2062.89 812,-1990.89 918.78,-1990.89 946.25,-2062.89"/>
<text xml:space="preserve" text-anchor="start" x="854.75" y="-2031.44" font-family="Helvetica,Arial,sans-serif" font-weight="bold" font-size="11.00" fill="#1e1e2e">fwln108i0</text>
<text xml:space="preserve" text-anchor="start" x="871.62" y="-2023.29" font-family="Helvetica,Arial,sans-serif" font-size="8.00" fill="#1e1e2e">veth</text>
<text xml:space="preserve" text-anchor="start" x="857.75" y="-2014.34" font-family="Helvetica,Arial,sans-serif" font-size="9.00" fill="#1e1e2e">MTU 9216</text>
</g>
<!-- fwbr108i0&#45;&gt;fwln108i0 -->
<g id="edge14" class="edge">
<title>fwbr108i0&#45;&gt;fwln108i0</title>
<path fill="none" stroke="#585b70" stroke-dasharray="5,2" d="M423.34,-2026.89C503.61,-2026.89 713.01,-2026.89 817.29,-2026.89"/>
<polygon fill="#585b70" stroke="#585b70" points="817.01,-2029.34 824.01,-2026.89 817.01,-2024.44 817.01,-2029.34"/>
</g>
<!-- tap108i0 -->
<g id="node22" class="node">
<title>tap108i0</title>
<polygon fill="#89dceb" stroke="#89dceb" points="908.88,-1947.89 905.88,-1951.89 884.88,-1951.89 881.88,-1947.89 849.38,-1947.89 849.38,-1911.89 908.88,-1911.89 908.88,-1947.89"/>
<text xml:space="preserve" text-anchor="start" x="857.38" y="-1934.44" font-family="Helvetica,Arial,sans-serif" font-weight="bold" font-size="11.00" fill="#1e1e2e">tap108i0</text>
<text xml:space="preserve" text-anchor="start" x="873.5" y="-1926.29" font-family="Helvetica,Arial,sans-serif" font-size="8.00" fill="#1e1e2e">tun</text>
<text xml:space="preserve" text-anchor="start" x="857.75" y="-1917.34" font-family="Helvetica,Arial,sans-serif" font-size="9.00" fill="#1e1e2e">MTU 9216</text>
</g>
<!-- fwbr108i0&#45;&gt;tap108i0 -->
<g id="edge21" class="edge">
<title>fwbr108i0&#45;&gt;tap108i0</title>
<path fill="none" stroke="#585b70" stroke-dasharray="5,2" d="M423.34,-2020.45C510.19,-2003.16 748.21,-1955.76 840.69,-1937.35"/>
<polygon fill="#585b70" stroke="#585b70" points="841.04,-1939.78 847.43,-1936.01 840.09,-1934.97 841.04,-1939.78"/>
</g>
<!-- fwln122i0 -->
<g id="node16" class="node">
<title>fwln122i0</title>
<polygon fill="#a6e3a1" stroke="#a6e3a1" points="946.25,-1868.89 839.47,-1868.89 812,-1796.89 918.78,-1796.89 946.25,-1868.89"/>
<text xml:space="preserve" text-anchor="start" x="854.75" y="-1837.44" font-family="Helvetica,Arial,sans-serif" font-weight="bold" font-size="11.00" fill="#1e1e2e">fwln122i0</text>
<text xml:space="preserve" text-anchor="start" x="871.62" y="-1829.29" font-family="Helvetica,Arial,sans-serif" font-size="8.00" fill="#1e1e2e">veth</text>
<text xml:space="preserve" text-anchor="start" x="857.75" y="-1820.34" font-family="Helvetica,Arial,sans-serif" font-size="9.00" fill="#1e1e2e">MTU 9216</text>
</g>
<!-- fwbr122i0&#45;&gt;fwln122i0 -->
<g id="edge15" class="edge">
<title>fwbr122i0&#45;&gt;fwln122i0</title>
<path fill="none" stroke="#585b70" stroke-dasharray="5,2" d="M423.34,-1832.89C503.61,-1832.89 713.01,-1832.89 817.29,-1832.89"/>
<polygon fill="#585b70" stroke="#585b70" points="817.01,-1835.34 824.01,-1832.89 817.01,-1830.44 817.01,-1835.34"/>
</g>
<!-- tap122i0 -->
<g id="node36" class="node">
<title>tap122i0</title>
<polygon fill="#89dceb" stroke="#89dceb" points="908.88,-1753.89 905.88,-1757.89 884.88,-1757.89 881.88,-1753.89 849.38,-1753.89 849.38,-1717.89 908.88,-1717.89 908.88,-1753.89"/>
<text xml:space="preserve" text-anchor="start" x="857.38" y="-1740.44" font-family="Helvetica,Arial,sans-serif" font-weight="bold" font-size="11.00" fill="#1e1e2e">tap122i0</text>
<text xml:space="preserve" text-anchor="start" x="873.5" y="-1732.29" font-family="Helvetica,Arial,sans-serif" font-size="8.00" fill="#1e1e2e">tun</text>
<text xml:space="preserve" text-anchor="start" x="857.75" y="-1723.34" font-family="Helvetica,Arial,sans-serif" font-size="9.00" fill="#1e1e2e">MTU 9216</text>
</g>
<!-- fwbr122i0&#45;&gt;tap122i0 -->
<g id="edge35" class="edge">
<title>fwbr122i0&#45;&gt;tap122i0</title>
<path fill="none" stroke="#585b70" stroke-dasharray="5,2" d="M423.34,-1826.45C510.19,-1809.16 748.21,-1761.76 840.69,-1743.35"/>
<polygon fill="#585b70" stroke="#585b70" points="841.04,-1745.78 847.43,-1742.01 840.09,-1740.97 841.04,-1745.78"/>
</g>
<!-- fwpr102p0 -->
<g id="node17" class="node">
<title>fwpr102p0</title>
<polygon fill="#a6e3a1" stroke="#a6e3a1" points="951.7,-1674.89 836.25,-1674.89 806.55,-1602.89 922,-1602.89 951.7,-1674.89"/>
<text xml:space="preserve" text-anchor="start" x="852.12" y="-1643.44" font-family="Helvetica,Arial,sans-serif" font-weight="bold" font-size="11.00" fill="#1e1e2e">fwpr102p0</text>
<text xml:space="preserve" text-anchor="start" x="871.62" y="-1635.29" font-family="Helvetica,Arial,sans-serif" font-size="8.00" fill="#1e1e2e">veth</text>
<text xml:space="preserve" text-anchor="start" x="857.75" y="-1626.34" font-family="Helvetica,Arial,sans-serif" font-size="9.00" fill="#1e1e2e">MTU 9216</text>
</g>
<!-- vmbr0&#45;&gt;fwpr102p0 -->
<g id="edge16" class="edge">
<title>vmbr0&#45;&gt;fwpr102p0</title>
<path fill="none" stroke="#585b70" stroke-dasharray="5,2" d="M391.23,-899.17C393.06,-974.06 408.9,-1261.94 543.25,-1438.89 609.96,-1526.76 727.37,-1583.78 803.94,-1613.64"/>
<polygon fill="#585b70" stroke="#585b70" points="802.86,-1615.85 810.27,-1616.08 804.62,-1611.28 802.86,-1615.85"/>
</g>
<!-- fwpr107p0 -->
<g id="node18" class="node">
<title>fwpr107p0</title>
<polygon fill="#a6e3a1" stroke="#a6e3a1" points="951.7,-1559.89 836.25,-1559.89 806.55,-1487.89 922,-1487.89 951.7,-1559.89"/>
<text xml:space="preserve" text-anchor="start" x="852.12" y="-1528.44" font-family="Helvetica,Arial,sans-serif" font-weight="bold" font-size="11.00" fill="#1e1e2e">fwpr107p0</text>
<text xml:space="preserve" text-anchor="start" x="871.62" y="-1520.29" font-family="Helvetica,Arial,sans-serif" font-size="8.00" fill="#1e1e2e">veth</text>
<text xml:space="preserve" text-anchor="start" x="857.75" y="-1511.34" font-family="Helvetica,Arial,sans-serif" font-size="9.00" fill="#1e1e2e">MTU 9216</text>
</g>
<!-- vmbr0&#45;&gt;fwpr107p0 -->
<g id="edge17" class="edge">
<title>vmbr0&#45;&gt;fwpr107p0</title>
<path fill="none" stroke="#585b70" stroke-dasharray="5,2" d="M392.41,-899.3C398.41,-965.91 427.09,-1197.92 543.25,-1337.89 612.44,-1421.26 729.17,-1473.85 804.93,-1501.07"/>
<polygon fill="#585b70" stroke="#585b70" points="803.74,-1503.25 811.16,-1503.28 805.38,-1498.63 803.74,-1503.25"/>
</g>
<!-- fwpr108p0 -->
<g id="node19" class="node">
<title>fwpr108p0</title>
<polygon fill="#a6e3a1" stroke="#a6e3a1" points="951.7,-1444.89 836.25,-1444.89 806.55,-1372.89 922,-1372.89 951.7,-1444.89"/>
<text xml:space="preserve" text-anchor="start" x="852.12" y="-1413.44" font-family="Helvetica,Arial,sans-serif" font-weight="bold" font-size="11.00" fill="#1e1e2e">fwpr108p0</text>
<text xml:space="preserve" text-anchor="start" x="871.62" y="-1405.29" font-family="Helvetica,Arial,sans-serif" font-size="8.00" fill="#1e1e2e">veth</text>
<text xml:space="preserve" text-anchor="start" x="857.75" y="-1396.34" font-family="Helvetica,Arial,sans-serif" font-size="9.00" fill="#1e1e2e">MTU 9216</text>
</g>
<!-- vmbr0&#45;&gt;fwpr108p0 -->
<g id="edge18" class="edge">
<title>vmbr0&#45;&gt;fwpr108p0</title>
<path fill="none" stroke="#585b70" stroke-dasharray="5,2" d="M394,-899.21C404.34,-956.99 443.49,-1137.89 543.25,-1243.89 615.57,-1320.74 731.36,-1366.58 806.07,-1389.77"/>
<polygon fill="#585b70" stroke="#585b70" points="805.21,-1392.07 812.62,-1391.77 806.64,-1387.38 805.21,-1392.07"/>
</g>
<!-- fwpr122p0 -->
<g id="node20" class="node">
<title>fwpr122p0</title>
<polygon fill="#a6e3a1" stroke="#a6e3a1" points="951.7,-1329.89 836.25,-1329.89 806.55,-1257.89 922,-1257.89 951.7,-1329.89"/>
<text xml:space="preserve" text-anchor="start" x="852.12" y="-1298.44" font-family="Helvetica,Arial,sans-serif" font-weight="bold" font-size="11.00" fill="#1e1e2e">fwpr122p0</text>
<text xml:space="preserve" text-anchor="start" x="871.62" y="-1290.29" font-family="Helvetica,Arial,sans-serif" font-size="8.00" fill="#1e1e2e">veth</text>
<text xml:space="preserve" text-anchor="start" x="857.75" y="-1281.34" font-family="Helvetica,Arial,sans-serif" font-size="9.00" fill="#1e1e2e">MTU 9216</text>
</g>
<!-- vmbr0&#45;&gt;fwpr122p0 -->
<g id="edge19" class="edge">
<title>vmbr0&#45;&gt;fwpr122p0</title>
<path fill="none" stroke="#585b70" stroke-dasharray="5,2" d="M396.04,-899.11C410.57,-948.36 457.06,-1085.56 543.25,-1161.89 619.6,-1229.52 734.71,-1264.57 808.12,-1281.09"/>
<polygon fill="#585b70" stroke="#585b70" points="807.58,-1283.48 814.94,-1282.6 808.64,-1278.7 807.58,-1283.48"/>
</g>
<!-- tap109i0 -->
<g id="node23" class="node">
<title>tap109i0</title>
<polygon fill="#89dceb" stroke="#89dceb" points="908.88,-1214.89 905.88,-1218.89 884.88,-1218.89 881.88,-1214.89 849.38,-1214.89 849.38,-1178.89 908.88,-1178.89 908.88,-1214.89"/>
<text xml:space="preserve" text-anchor="start" x="857.38" y="-1201.44" font-family="Helvetica,Arial,sans-serif" font-weight="bold" font-size="11.00" fill="#1e1e2e">tap109i0</text>
<text xml:space="preserve" text-anchor="start" x="873.5" y="-1193.29" font-family="Helvetica,Arial,sans-serif" font-size="8.00" fill="#1e1e2e">tun</text>
<text xml:space="preserve" text-anchor="start" x="857.75" y="-1184.34" font-family="Helvetica,Arial,sans-serif" font-size="9.00" fill="#1e1e2e">MTU 9216</text>
</g>
<!-- vmbr0&#45;&gt;tap109i0 -->
<g id="edge22" class="edge">
<title>vmbr0&#45;&gt;tap109i0</title>
<path fill="none" stroke="#585b70" stroke-dasharray="5,2" d="M399.58,-899.38C419.21,-939.66 471.29,-1035.9 543.25,-1087.89 636.92,-1155.57 774.83,-1182.73 840.58,-1192.31"/>
<polygon fill="#585b70" stroke="#585b70" points="840.22,-1194.73 847.49,-1193.29 840.9,-1189.88 840.22,-1194.73"/>
</g>
<!-- tap110i0 -->
<g id="node24" class="node">
<title>tap110i0</title>
<polygon fill="#89dceb" stroke="#89dceb" points="908.88,-1135.89 905.88,-1139.89 884.88,-1139.89 881.88,-1135.89 849.38,-1135.89 849.38,-1099.89 908.88,-1099.89 908.88,-1135.89"/>
<text xml:space="preserve" text-anchor="start" x="857.38" y="-1122.44" font-family="Helvetica,Arial,sans-serif" font-weight="bold" font-size="11.00" fill="#1e1e2e">tap110i0</text>
<text xml:space="preserve" text-anchor="start" x="873.5" y="-1114.29" font-family="Helvetica,Arial,sans-serif" font-size="8.00" fill="#1e1e2e">tun</text>
<text xml:space="preserve" text-anchor="start" x="857.75" y="-1105.34" font-family="Helvetica,Arial,sans-serif" font-size="9.00" fill="#1e1e2e">MTU 9216</text>
</g>
<!-- vmbr0&#45;&gt;tap110i0 -->
<g id="edge23" class="edge">
<title>vmbr0&#45;&gt;tap110i0</title>
<path fill="none" stroke="#585b70" stroke-dasharray="5,2" d="M406.36,-899.39C431.82,-928.89 485.71,-986.57 543.25,-1018.89 642.65,-1074.74 776.72,-1101.96 840.89,-1112.48"/>
<polygon fill="#585b70" stroke="#585b70" points="840.3,-1114.86 847.6,-1113.55 841.08,-1110.03 840.3,-1114.86"/>
</g>
<!-- tap111i0 -->
<g id="node25" class="node">
<title>tap111i0</title>
<polygon fill="#89dceb" stroke="#89dceb" points="908.88,-1056.89 905.88,-1060.89 884.88,-1060.89 881.88,-1056.89 849.38,-1056.89 849.38,-1020.89 908.88,-1020.89 908.88,-1056.89"/>
<text xml:space="preserve" text-anchor="start" x="857.38" y="-1043.44" font-family="Helvetica,Arial,sans-serif" font-weight="bold" font-size="11.00" fill="#1e1e2e">tap111i0</text>
<text xml:space="preserve" text-anchor="start" x="873.5" y="-1035.29" font-family="Helvetica,Arial,sans-serif" font-size="8.00" fill="#1e1e2e">tun</text>
<text xml:space="preserve" text-anchor="start" x="857.75" y="-1026.34" font-family="Helvetica,Arial,sans-serif" font-size="9.00" fill="#1e1e2e">MTU 9216</text>
</g>
<!-- vmbr0&#45;&gt;tap111i0 -->
<g id="edge24" class="edge">
<title>vmbr0&#45;&gt;tap111i0</title>
<path fill="none" stroke="#585b70" stroke-dasharray="5,2" d="M419.77,-898.57C449.67,-916.27 498.3,-943.22 543.25,-959.89 647.82,-998.68 778,-1022.91 840.8,-1033.19"/>
<polygon fill="#585b70" stroke="#585b70" points="840.41,-1035.61 847.71,-1034.31 841.19,-1030.77 840.41,-1035.61"/>
</g>
<!-- tap112i0 -->
<g id="node26" class="node">
<title>tap112i0</title>
<polygon fill="#89dceb" stroke="#89dceb" points="908.88,-977.89 905.88,-981.89 884.88,-981.89 881.88,-977.89 849.38,-977.89 849.38,-941.89 908.88,-941.89 908.88,-977.89"/>
<text xml:space="preserve" text-anchor="start" x="857.38" y="-964.44" font-family="Helvetica,Arial,sans-serif" font-weight="bold" font-size="11.00" fill="#1e1e2e">tap112i0</text>
<text xml:space="preserve" text-anchor="start" x="873.5" y="-956.29" font-family="Helvetica,Arial,sans-serif" font-size="8.00" fill="#1e1e2e">tun</text>
<text xml:space="preserve" text-anchor="start" x="857.75" y="-947.34" font-family="Helvetica,Arial,sans-serif" font-size="9.00" fill="#1e1e2e">MTU 9216</text>
</g>
<!-- vmbr0&#45;&gt;tap112i0 -->
<g id="edge25" class="edge">
<title>vmbr0&#45;&gt;tap112i0</title>
<path fill="none" stroke="#585b70" stroke-dasharray="5,2" d="M419.79,-887.55C450.32,-894.47 500.02,-905.33 543.25,-912.89 650.67,-931.7 778.52,-947.96 840.59,-955.47"/>
<polygon fill="#585b70" stroke="#585b70" points="840.16,-957.88 847.4,-956.29 840.75,-953.02 840.16,-957.88"/>
</g>
<!-- tap113i0 -->
<g id="node27" class="node">
<title>tap113i0</title>
<polygon fill="#89dceb" stroke="#89dceb" points="908.88,-898.89 905.88,-902.89 884.88,-902.89 881.88,-898.89 849.38,-898.89 849.38,-862.89 908.88,-862.89 908.88,-898.89"/>
<text xml:space="preserve" text-anchor="start" x="857.38" y="-885.44" font-family="Helvetica,Arial,sans-serif" font-weight="bold" font-size="11.00" fill="#1e1e2e">tap113i0</text>
<text xml:space="preserve" text-anchor="start" x="873.5" y="-877.29" font-family="Helvetica,Arial,sans-serif" font-size="8.00" fill="#1e1e2e">tun</text>
<text xml:space="preserve" text-anchor="start" x="857.75" y="-868.34" font-family="Helvetica,Arial,sans-serif" font-size="9.00" fill="#1e1e2e">MTU 9216</text>
</g>
<!-- vmbr0&#45;&gt;tap113i0 -->
<g id="edge26" class="edge">
<title>vmbr0&#45;&gt;tap113i0</title>
<path fill="none" stroke="#585b70" stroke-dasharray="5,2" d="M419.65,-880.89C503.21,-880.89 746.62,-880.89 840.54,-880.89"/>
<polygon fill="#585b70" stroke="#585b70" points="840.38,-883.34 847.38,-880.89 840.38,-878.44 840.38,-883.34"/>
</g>
<!-- tap114i0 -->
<g id="node28" class="node">
<title>tap114i0</title>
<polygon fill="#89dceb" stroke="#89dceb" points="908.88,-819.89 905.88,-823.89 884.88,-823.89 881.88,-819.89 849.38,-819.89 849.38,-783.89 908.88,-783.89 908.88,-819.89"/>
<text xml:space="preserve" text-anchor="start" x="857.38" y="-806.44" font-family="Helvetica,Arial,sans-serif" font-weight="bold" font-size="11.00" fill="#1e1e2e">tap114i0</text>
<text xml:space="preserve" text-anchor="start" x="873.5" y="-798.29" font-family="Helvetica,Arial,sans-serif" font-size="8.00" fill="#1e1e2e">tun</text>
<text xml:space="preserve" text-anchor="start" x="857.75" y="-789.34" font-family="Helvetica,Arial,sans-serif" font-size="9.00" fill="#1e1e2e">MTU 9216</text>
</g>
<!-- vmbr0&#45;&gt;tap114i0 -->
<g id="edge27" class="edge">
<title>vmbr0&#45;&gt;tap114i0</title>
<path fill="none" stroke="#585b70" stroke-dasharray="5,2" d="M419.65,-876.25C503.21,-862.7 746.62,-823.22 840.54,-807.99"/>
<polygon fill="#585b70" stroke="#585b70" points="840.88,-810.42 847.4,-806.88 840.1,-805.58 840.88,-810.42"/>
</g>
<!-- tap115i0 -->
<g id="node29" class="node">
<title>tap115i0</title>
<polygon fill="#89dceb" stroke="#89dceb" points="908.88,-740.89 905.88,-744.89 884.88,-744.89 881.88,-740.89 849.38,-740.89 849.38,-704.89 908.88,-704.89 908.88,-740.89"/>
<text xml:space="preserve" text-anchor="start" x="857.38" y="-727.44" font-family="Helvetica,Arial,sans-serif" font-weight="bold" font-size="11.00" fill="#1e1e2e">tap115i0</text>
<text xml:space="preserve" text-anchor="start" x="873.5" y="-719.29" font-family="Helvetica,Arial,sans-serif" font-size="8.00" fill="#1e1e2e">tun</text>
<text xml:space="preserve" text-anchor="start" x="857.75" y="-710.34" font-family="Helvetica,Arial,sans-serif" font-size="9.00" fill="#1e1e2e">MTU 9216</text>
</g>
<!-- vmbr0&#45;&gt;tap115i0 -->
<g id="edge28" class="edge">
<title>vmbr0&#45;&gt;tap115i0</title>
<path fill="none" stroke="#585b70" stroke-dasharray="5,2" d="M419.65,-870.27C439.39,-862.76 466.13,-852.24 489.25,-841.89 513.74,-830.93 518.19,-824.49 543.25,-814.89 648.59,-774.53 778.83,-744.03 841.3,-730.53"/>
<polygon fill="#585b70" stroke="#585b70" points="841.49,-732.99 847.82,-729.13 840.46,-728.2 841.49,-732.99"/>
</g>
<!-- tap116i0 -->
<g id="node30" class="node">
<title>tap116i0</title>
<polygon fill="#89dceb" stroke="#89dceb" points="908.88,-661.89 905.88,-665.89 884.88,-665.89 881.88,-661.89 849.38,-661.89 849.38,-625.89 908.88,-625.89 908.88,-661.89"/>
<text xml:space="preserve" text-anchor="start" x="857.38" y="-648.44" font-family="Helvetica,Arial,sans-serif" font-weight="bold" font-size="11.00" fill="#1e1e2e">tap116i0</text>
<text xml:space="preserve" text-anchor="start" x="873.5" y="-640.29" font-family="Helvetica,Arial,sans-serif" font-size="8.00" fill="#1e1e2e">tun</text>
<text xml:space="preserve" text-anchor="start" x="857.75" y="-631.34" font-family="Helvetica,Arial,sans-serif" font-size="9.00" fill="#1e1e2e">MTU 9216</text>
</g>
<!-- vmbr0&#45;&gt;tap116i0 -->
<g id="edge29" class="edge">
<title>vmbr0&#45;&gt;tap116i0</title>
<path fill="none" stroke="#585b70" stroke-dasharray="5,2" d="M419.58,-875.07C440.82,-869.52 469.43,-859.37 489.25,-841.89 526.55,-809.01 504.54,-775.11 543.25,-743.89 633.16,-671.39 774.52,-651.42 841.1,-645.95"/>
<polygon fill="#585b70" stroke="#585b70" points="840.92,-648.42 847.71,-645.44 840.54,-643.53 840.92,-648.42"/>
</g>
<!-- tap117i0 -->
<g id="node31" class="node">
<title>tap117i0</title>
<polygon fill="#89dceb" stroke="#89dceb" points="908.88,-582.89 905.88,-586.89 884.88,-586.89 881.88,-582.89 849.38,-582.89 849.38,-546.89 908.88,-546.89 908.88,-582.89"/>
<text xml:space="preserve" text-anchor="start" x="857.38" y="-569.44" font-family="Helvetica,Arial,sans-serif" font-weight="bold" font-size="11.00" fill="#1e1e2e">tap117i0</text>
<text xml:space="preserve" text-anchor="start" x="873.5" y="-561.29" font-family="Helvetica,Arial,sans-serif" font-size="8.00" fill="#1e1e2e">tun</text>
<text xml:space="preserve" text-anchor="start" x="857.75" y="-552.34" font-family="Helvetica,Arial,sans-serif" font-size="9.00" fill="#1e1e2e">MTU 9216</text>
</g>
<!-- vmbr0&#45;&gt;tap117i0 -->
<g id="edge30" class="edge">
<title>vmbr0&#45;&gt;tap117i0</title>
<path fill="none" stroke="#585b70" stroke-dasharray="5,2" d="M419.44,-876.6C441.46,-871.81 471.17,-861.92 489.25,-841.89 548.36,-776.41 480.12,-712.51 543.25,-650.89 625.43,-570.68 771.81,-562.33 840.53,-563.23"/>
<polygon fill="#585b70" stroke="#585b70" points="840.35,-565.67 847.4,-563.36 840.45,-560.78 840.35,-565.67"/>
</g>
<!-- tap118i0 -->
<g id="node32" class="node">
<title>tap118i0</title>
<polygon fill="#89dceb" stroke="#89dceb" points="908.88,-503.89 905.88,-507.89 884.88,-507.89 881.88,-503.89 849.38,-503.89 849.38,-467.89 908.88,-467.89 908.88,-503.89"/>
<text xml:space="preserve" text-anchor="start" x="857.38" y="-490.44" font-family="Helvetica,Arial,sans-serif" font-weight="bold" font-size="11.00" fill="#1e1e2e">tap118i0</text>
<text xml:space="preserve" text-anchor="start" x="873.5" y="-482.29" font-family="Helvetica,Arial,sans-serif" font-size="8.00" fill="#1e1e2e">tun</text>
<text xml:space="preserve" text-anchor="start" x="857.75" y="-473.34" font-family="Helvetica,Arial,sans-serif" font-size="9.00" fill="#1e1e2e">MTU 9216</text>
</g>
<!-- vmbr0&#45;&gt;tap118i0 -->
<g id="edge31" class="edge">
<title>vmbr0&#45;&gt;tap118i0</title>
<path fill="none" stroke="#585b70" stroke-dasharray="5,2" d="M419.47,-877.1C441.81,-872.59 471.95,-862.83 489.25,-841.89 570.83,-743.2 453.9,-650.61 543.25,-558.89 622.89,-477.15 771.16,-476.92 840.53,-481.94"/>
<polygon fill="#585b70" stroke="#585b70" points="840.3,-484.38 847.48,-482.49 840.69,-479.5 840.3,-484.38"/>
</g>
<!-- tap119i0 -->
<g id="node33" class="node">
<title>tap119i0</title>
<polygon fill="#89dceb" stroke="#89dceb" points="908.88,-424.89 905.88,-428.89 884.88,-428.89 881.88,-424.89 849.38,-424.89 849.38,-388.89 908.88,-388.89 908.88,-424.89"/>
<text xml:space="preserve" text-anchor="start" x="857.38" y="-411.44" font-family="Helvetica,Arial,sans-serif" font-weight="bold" font-size="11.00" fill="#1e1e2e">tap119i0</text>
<text xml:space="preserve" text-anchor="start" x="873.5" y="-403.29" font-family="Helvetica,Arial,sans-serif" font-size="8.00" fill="#1e1e2e">tun</text>
<text xml:space="preserve" text-anchor="start" x="857.75" y="-394.34" font-family="Helvetica,Arial,sans-serif" font-size="9.00" fill="#1e1e2e">MTU 9216</text>
</g>
<!-- vmbr0&#45;&gt;tap119i0 -->
<g id="edge32" class="edge">
<title>vmbr0&#45;&gt;tap119i0</title>
<path fill="none" stroke="#585b70" stroke-dasharray="5,2" d="M419.71,-877.3C442.2,-872.91 472.41,-863.2 489.25,-841.89 592.31,-711.52 428.52,-592.12 543.25,-471.89 622.02,-389.34 771.91,-394.23 841.24,-401.7"/>
<polygon fill="#585b70" stroke="#585b70" points="840.55,-404.09 847.79,-402.45 841.11,-399.22 840.55,-404.09"/>
</g>
<!-- tap120i0 -->
<g id="node34" class="node">
<title>tap120i0</title>
<polygon fill="#89dceb" stroke="#89dceb" points="908.88,-345.89 905.88,-349.89 884.88,-349.89 881.88,-345.89 849.38,-345.89 849.38,-309.89 908.88,-309.89 908.88,-345.89"/>
<text xml:space="preserve" text-anchor="start" x="857.38" y="-332.44" font-family="Helvetica,Arial,sans-serif" font-weight="bold" font-size="11.00" fill="#1e1e2e">tap120i0</text>
<text xml:space="preserve" text-anchor="start" x="873.5" y="-324.29" font-family="Helvetica,Arial,sans-serif" font-size="8.00" fill="#1e1e2e">tun</text>
<text xml:space="preserve" text-anchor="start" x="857.75" y="-315.34" font-family="Helvetica,Arial,sans-serif" font-size="9.00" fill="#1e1e2e">MTU 9216</text>
</g>
<!-- vmbr0&#45;&gt;tap120i0 -->
<g id="edge33" class="edge">
<title>vmbr0&#45;&gt;tap120i0</title>
<path fill="none" stroke="#585b70" stroke-dasharray="5,2" d="M419.86,-877.42C442.44,-873.09 472.69,-863.42 489.25,-841.89 612.89,-681.19 404.36,-536.61 543.25,-388.89 621.24,-305.95 771.52,-313.3 841.1,-322.02"/>
<polygon fill="#585b70" stroke="#585b70" points="840.42,-324.4 847.68,-322.88 841.05,-319.54 840.42,-324.4"/>
</g>
<!-- tap121i0 -->
<g id="node35" class="node">
<title>tap121i0</title>
<polygon fill="#89dceb" stroke="#89dceb" points="908.88,-266.89 905.88,-270.89 884.88,-270.89 881.88,-266.89 849.38,-266.89 849.38,-230.89 908.88,-230.89 908.88,-266.89"/>
<text xml:space="preserve" text-anchor="start" x="857.38" y="-253.44" font-family="Helvetica,Arial,sans-serif" font-weight="bold" font-size="11.00" fill="#1e1e2e">tap121i0</text>
<text xml:space="preserve" text-anchor="start" x="873.5" y="-245.29" font-family="Helvetica,Arial,sans-serif" font-size="8.00" fill="#1e1e2e">tun</text>
<text xml:space="preserve" text-anchor="start" x="857.75" y="-236.34" font-family="Helvetica,Arial,sans-serif" font-size="9.00" fill="#1e1e2e">MTU 9216</text>
</g>
<!-- vmbr0&#45;&gt;tap121i0 -->
<g id="edge34" class="edge">
<title>vmbr0&#45;&gt;tap121i0</title>
<path fill="none" stroke="#585b70" stroke-dasharray="5,2" d="M419.51,-877.59C442.19,-873.35 472.77,-863.72 489.25,-841.89 561.26,-746.53 461.8,-394.33 543.25,-306.89 620.73,-223.71 771.27,-232.88 841.01,-242.51"/>
<polygon fill="#585b70" stroke="#585b70" points="840.32,-244.89 847.6,-243.47 841.03,-240.04 840.32,-244.89"/>
</g>
<!-- vlan400 -->
<g id="node38" class="node">
<title>vlan400</title>
<polygon fill="#fab387" stroke="#fab387" points="927.09,-158.89 903.11,-188.29 855.14,-188.29 831.16,-158.89 855.14,-129.5 903.11,-129.5 927.09,-158.89"/>
<text xml:space="preserve" text-anchor="start" x="859.25" y="-163.44" font-family="Helvetica,Arial,sans-serif" font-weight="bold" font-size="11.00" fill="#1e1e2e">vlan400</text>
<text xml:space="preserve" text-anchor="start" x="872" y="-155.29" font-family="Helvetica,Arial,sans-serif" font-size="8.00" fill="#1e1e2e">vlan</text>
<text xml:space="preserve" text-anchor="start" x="857.75" y="-146.34" font-family="Helvetica,Arial,sans-serif" font-size="9.00" fill="#1e1e2e">MTU 9100</text>
</g>
<!-- vmbr0&#45;&gt;vlan400 -->
<g id="edge37" class="edge">
<title>vmbr0&#45;&gt;vlan400</title>
<path fill="none" stroke="#585b70" stroke-dasharray="5,2" d="M419.58,-877.64C442.31,-873.44 472.91,-863.82 489.25,-841.89 571.21,-731.87 451.86,-329.22 543.25,-226.89 614.79,-146.8 752.6,-145.98 827.19,-152.36"/>
<polygon fill="#585b70" stroke="#585b70" points="826.82,-154.79 834.01,-152.99 827.27,-149.91 826.82,-154.79"/>
</g>
<!-- vmbr0_100 -->
<g id="node39" class="node">
<title>vmbr0_100</title>
<polygon fill="#fab387" stroke="#fab387" points="936.28,-56.89 907.7,-86.29 850.55,-86.29 821.97,-56.89 850.55,-27.5 907.7,-27.5 936.28,-56.89"/>
<text xml:space="preserve" text-anchor="start" x="852.12" y="-61.44" font-family="Helvetica,Arial,sans-serif" font-weight="bold" font-size="11.00" fill="#1e1e2e">vmbr0.100</text>
<text xml:space="preserve" text-anchor="start" x="872" y="-53.29" font-family="Helvetica,Arial,sans-serif" font-size="8.00" fill="#1e1e2e">vlan</text>
<text xml:space="preserve" text-anchor="start" x="857.75" y="-44.34" font-family="Helvetica,Arial,sans-serif" font-size="9.00" fill="#1e1e2e">MTU 1500</text>
</g>
<!-- vmbr0&#45;&gt;vmbr0_100 -->
<g id="edge38" class="edge">
<title>vmbr0&#45;&gt;vmbr0_100</title>
<path fill="none" stroke="#585b70" stroke-dasharray="5,2" d="M419.64,-877.69C442.41,-873.51 473.03,-863.91 489.25,-841.89 581.92,-716.1 442.48,-260.3 543.25,-140.89 610.29,-61.45 740.19,-51.09 817.01,-52.68"/>
<polygon fill="#585b70" stroke="#585b70" points="816.61,-55.12 823.68,-52.86 816.75,-50.22 816.61,-55.12"/>
</g>
</g>
</svg>
