<?xml version="1.0" encoding="UTF-8" standalone="no"?>
<!DOCTYPE svg PUBLIC "-//W3C//DTD SVG 1.1//EN"
 "http://www.w3.org/Graphics/SVG/1.1/DTD/svg11.dtd">
<!-- Generated by graphviz version 14.0.0 (0)
 -->
<!-- Title: nic_xray Pages: 1 -->
<svg width="1086pt" height="1791pt"
 viewBox="0.00 0.00 1086.00 1791.00" xmlns="http://www.w3.org/2000/svg" xmlns:xlink="http://www.w3.org/1999/xlink">
<g id="graph0" class="graph" transform="scale(1 1) rotate(0) translate(36 1755.12)">
<title>nic_xray</title>
<polygon fill="#1e1e2e" stroke="none" points="-36,36 -36,-1755.12 1049.75,-1755.12 1049.75,36 -36,36"/>
<text xml:space="preserve" text-anchor="start" x="802.5" y="-5.2" font-family="Helvetica,Arial,sans-serif" font-size="9.00" fill="#6c7086">Generated by nic&#45;xray v2.6.0 — © 2026 Ciro Iriarte</text>
<g id="clust1" class="cluster">
<title>cluster_bond_0</title>
<polygon fill="#1e1e2e" fill-opacity="0.800000" stroke="#89b4fa" stroke-width="1.5" stroke-dasharray="5,2" points="266.25,-1127.12 266.25,-1415.12 397.5,-1415.12 397.5,-1127.12 266.25,-1127.12"/>
<text xml:space="preserve" text-anchor="start" x="274.75" y="-1133.47" font-family="Helvetica,Arial,sans-serif" font-weight="bold" font-size="12.00" fill="#89b4fa">bond0</text>
<text xml:space="preserve" text-anchor="start" x="311.5" y="-1133.47" font-family="Helvetica,Arial,sans-serif" font-size="12.00" fill="#89b4fa"> (LACP Active)</text>
</g>
<g id="clust2" class="cluster">
<title>cluster_bond_1</title>
<polygon fill="#1e1e2e" fill-opacity="0.800000" stroke="#f9e2af" stroke-width="1.5" stroke-dasharray="5,2" points="266.25,-535.12 266.25,-823.12 397.5,-823.12 397.5,-535.12 266.25,-535.12"/>
<text xml:space="preserve" text-anchor="start" x="274.75" y="-541.48" font-family="Helvetica,Arial,sans-serif" font-weight="bold" font-size="12.00" fill="#f9e2af">bond1</text>
<text xml:space="preserve" text-anchor="start" x="311.5" y="-541.48" font-family="Helvetica,Arial,sans-serif" font-size="12.00" fill="#f9e2af"> (LACP Active)</text>
</g>
<g id="clust3" class="cluster">
<title>cluster_bond_2</title>
<polygon fill="#1e1e2e" fill-opacity="0.800000" stroke="#94e2d5" stroke-width="1.5" stroke-dasharray="5,2" points="266.25,-831.12 266.25,-1119.12 397.5,-1119.12 397.5,-831.12 266.25,-831.12"/>
<text xml:space="preserve" text-anchor="start" x="274.75" y="-837.48" font-family="Helvetica,Arial,sans-serif" font-weight="bold" font-size="12.00" fill="#94e2d5">bond2</text>
<text xml:space="preserve" text-anchor="start" x="311.5" y="-837.48" font-family="Helvetica,Arial,sans-serif" font-size="12.00" fill="#94e2d5"> (LACP Active)</text>
</g>
<g id="clust4" class="cluster">
<title>cluster_bond_3</title>
<polygon fill="#1e1e2e" fill-opacity="0.800000" stroke="#f5c2e7" stroke-width="1.5" stroke-dasharray="5,2" points="266.25,-1423.12 266.25,-1711.12 397.5,-1711.12 397.5,-1423.12 266.25,-1423.12"/>
<text xml:space="preserve" text-anchor="start" x="274.75" y="-1429.47" font-family="Helvetica,Arial,sans-serif" font-weight="bold" font-size="12.00" fill="#f5c2e7">bond3</text>
<text xml:space="preserve" text-anchor="start" x="311.5" y="-1429.47" font-family="Helvetica,Arial,sans-serif" font-size="12.00" fill="#f5c2e7"> (LACP Active)</text>
</g>
<!-- server -->
<g id="node1" class="node">
<title>server</title>
<polygon fill="#313244" stroke="none" points="0,-731 0,-795.25 165.25,-795.25 165.25,-731 0,-731"/>
<text xml:space="preserve" text-anchor="start" x="11" y="-771.95" font-family="Helvetica,Arial,sans-serif" font-weight="bold" font-size="14.00" fill="#cba6f7">server&#45;01.example.net</text>
<text xml:space="preserve" text-anchor="start" x="66.5" y="-742.8" font-family="Helvetica,Arial,sans-serif" font-size="11.00" fill="#a6adc8">Server</text>
<polygon fill="none" stroke="#585b70" points="0,-731 0,-795.25 165.25,-795.25 165.25,-731 0,-731"/>
</g>
<!-- eno1np0 -->
<g id="node2" class="node">
<title>eno1np0</title>
<polygon fill="#313244" stroke="none" points="274.25,-1156 274.25,-1260.25 389.5,-1260.25 389.5,-1156 274.25,-1156"/>
<text xml:space="preserve" text-anchor="start" x="309.38" y="-1243.8" font-family="Helvetica,Arial,sans-serif" font-weight="bold" font-size="11.00" fill="#cdd6f4">eno1np0</text>
<text xml:space="preserve" text-anchor="start" x="291" y="-1223.45" font-family="Helvetica,Arial,sans-serif" font-size="9.00" fill="#a6adc8">XX:XX:XX:XX:XX:01</text>
<text xml:space="preserve" text-anchor="start" x="309.38" y="-1203.7" font-family="Helvetica,Arial,sans-serif" font-size="9.00" fill="#a6adc8">MTU: 9100</text>
<text xml:space="preserve" text-anchor="start" x="306.75" y="-1184.9" font-family="Helvetica,Arial,sans-serif" font-size="8.00" fill="#a6adc8">10GBASE&#45;SR</text>
<text xml:space="preserve" text-anchor="start" x="281.25" y="-1164.8" font-family="Helvetica,Arial,sans-serif" font-size="8.00" fill="#a6e3a1">Tx:&#45;2.32 dBm</text>
<text xml:space="preserve" text-anchor="start" x="330" y="-1164.8" font-family="Helvetica,Arial,sans-serif" font-size="11.00" fill="#cdd6f4"> </text>
<text xml:space="preserve" text-anchor="start" x="333" y="-1164.8" font-family="Helvetica,Arial,sans-serif" font-size="8.00" fill="#a6e3a1">Rx:&#45;2.93 dBm</text>
<polygon fill="none" stroke="#a6e3a1" points="274.25,-1156 274.25,-1260.25 389.5,-1260.25 389.5,-1156 274.25,-1156"/>
</g>
<!-- server&#45;&gt;eno1np0 -->
<g id="edge1" class="edge">
<title>server&#45;&gt;eno1np0</title>
<path fill="none" stroke="#585b70" d="M96.66,-795.01C123.93,-860.19 190.74,-1012.41 266.25,-1129.12 270.84,-1136.22 275.96,-1143.4 281.25,-1150.41"/>
<polygon fill="#585b70" stroke="#585b70" points="279.49,-1151.56 284.81,-1155.04 282.82,-1149 279.49,-1151.56"/>
</g>
<!-- ens5f0np0 -->
<g id="node3" class="node">
<title>ens5f0np0</title>
<polygon fill="#313244" stroke="none" points="274.25,-1303 274.25,-1407.25 389.5,-1407.25 389.5,-1303 274.25,-1303"/>
<text xml:space="preserve" text-anchor="start" x="304.88" y="-1390.8" font-family="Helvetica,Arial,sans-serif" font-weight="bold" font-size="11.00" fill="#cdd6f4">ens5f0np0</text>
<text xml:space="preserve" text-anchor="start" x="291" y="-1370.45" font-family="Helvetica,Arial,sans-serif" font-size="9.00" fill="#a6adc8">XX:XX:XX:XX:XX:07</text>
<text xml:space="preserve" text-anchor="start" x="309.38" y="-1350.7" font-family="Helvetica,Arial,sans-serif" font-size="9.00" fill="#a6adc8">MTU: 9100</text>
<text xml:space="preserve" text-anchor="start" x="306.75" y="-1331.9" font-family="Helvetica,Arial,sans-serif" font-size="8.00" fill="#a6adc8">10GBASE&#45;SR</text>
<text xml:space="preserve" text-anchor="start" x="281.25" y="-1311.8" font-family="Helvetica,Arial,sans-serif" font-size="8.00" fill="#a6e3a1">Tx:&#45;2.62 dBm</text>
<text xml:space="preserve" text-anchor="start" x="330" y="-1311.8" font-family="Helvetica,Arial,sans-serif" font-size="11.00" fill="#cdd6f4"> </text>
<text xml:space="preserve" text-anchor="start" x="333" y="-1311.8" font-family="Helvetica,Arial,sans-serif" font-size="8.00" fill="#a6e3a1">Rx:&#45;3.55 dBm</text>
<polygon fill="none" stroke="#a6e3a1" points="274.25,-1303 274.25,-1407.25 389.5,-1407.25 389.5,-1303 274.25,-1303"/>
</g>
<!-- server&#45;&gt;ens5f0np0 -->
<g id="edge7" class="edge">
<title>server&#45;&gt;ens5f0np0</title>
<path fill="none" stroke="#585b70" d="M90.32,-795.07C108.9,-879.24 166.4,-1112.29 266.25,-1282.12 269.27,-1287.26 272.68,-1292.37 276.32,-1297.36"/>
<polygon fill="#585b70" stroke="#585b70" points="274.49,-1298.41 279.78,-1301.94 277.84,-1295.89 274.49,-1298.41"/>
</g>
<!-- eno2np1 -->
<g id="node4" class="node">
<title>eno2np1</title>
<polygon fill="#313244" stroke="none" points="274.25,-564 274.25,-668.25 389.5,-668.25 389.5,-564 274.25,-564"/>
<text xml:space="preserve" text-anchor="start" x="309.38" y="-651.8" font-family="Helvetica,Arial,sans-serif" font-weight="bold" font-size="11.00" fill="#cdd6f4">eno2np1</text>
<text xml:space="preserve" text-anchor="start" x="291" y="-631.45" font-family="Helvetica,Arial,sans-serif" font-size="9.00" fill="#a6adc8">XX:XX:XX:XX:XX:02</text>
<text xml:space="preserve" text-anchor="start" x="309.38" y="-611.7" font-family="Helvetica,Arial,sans-serif" font-size="9.00" fill="#a6adc8">MTU: 9100</text>
<text xml:space="preserve" text-anchor="start" x="306.75" y="-592.9" font-family="Helvetica,Arial,sans-serif" font-size="8.00" fill="#a6adc8">25GBASE&#45;SR</text>
<text xml:space="preserve" text-anchor="start" x="281.25" y="-572.8" font-family="Helvetica,Arial,sans-serif" font-size="8.00" fill="#a6e3a1">Tx:&#45;0.95 dBm</text>
<text xml:space="preserve" text-anchor="start" x="330" y="-572.8" font-family="Helvetica,Arial,sans-serif" font-size="11.00" fill="#cdd6f4"> </text>
<text xml:space="preserve" text-anchor="start" x="333" y="-572.8" font-family="Helvetica,Arial,sans-serif" font-size="8.00" fill="#a6e3a1">Rx:&#45;2.77 dBm</text>
<polygon fill="none" stroke="#a6e3a1" points="274.25,-564 274.25,-668.25 389.5,-668.25 389.5,-564 274.25,-564"/>
</g>
<!-- server&#45;&gt;eno2np1 -->
<g id="edge2" class="edge">
<title>server&#45;&gt;eno2np1</title>
<path fill="none" stroke="#585b70" d="M137.58,-731.05C176.02,-708.19 227.8,-677.41 268.1,-653.45"/>
<polygon fill="#585b70" stroke="#585b70" points="269.08,-655.31 273.16,-650.44 266.93,-651.7 269.08,-655.31"/>
</g>
<!-- ens5f1np1 -->
<g id="node5" class="node">
<title>ens5f1np1</title>
<polygon fill="#313244" stroke="none" points="274.25,-711 274.25,-815.25 389.5,-815.25 389.5,-711 274.25,-711"/>
<text xml:space="preserve" text-anchor="start" x="304.88" y="-798.8" font-family="Helvetica,Arial,sans-serif" font-weight="bold" font-size="11.00" fill="#cdd6f4">ens5f1np1</text>
<text xml:space="preserve" text-anchor="start" x="291" y="-778.45" font-family="Helvetica,Arial,sans-serif" font-size="9.00" fill="#a6adc8">XX:XX:XX:XX:XX:08</text>
<text xml:space="preserve" text-anchor="start" x="309.38" y="-758.7" font-family="Helvetica,Arial,sans-serif" font-size="9.00" fill="#a6adc8">MTU: 9100</text>
<text xml:space="preserve" text-anchor="start" x="306.75" y="-739.9" font-family="Helvetica,Arial,sans-serif" font-size="8.00" fill="#a6adc8">25GBASE&#45;SR</text>
<text xml:space="preserve" text-anchor="start" x="281.25" y="-719.8" font-family="Helvetica,Arial,sans-serif" font-size="8.00" fill="#a6e3a1">Tx:&#45;0.96 dBm</text>
<text xml:space="preserve" text-anchor="start" x="330" y="-719.8" font-family="Helvetica,Arial,sans-serif" font-size="11.00" fill="#cdd6f4"> </text>
<text xml:space="preserve" text-anchor="start" x="333" y="-719.8" font-family="Helvetica,Arial,sans-serif" font-size="8.00" fill="#a6e3a1">Rx:&#45;3.11 dBm</text>
<polygon fill="none" stroke="#a6e3a1" points="274.25,-711 274.25,-815.25 389.5,-815.25 389.5,-711 274.25,-711"/>
</g>
<!-- server&#45;&gt;ens5f1np1 -->
<g id="edge8" class="edge">
<title>server&#45;&gt;ens5f1np1</title>
<path fill="none" stroke="#585b70" d="M164.93,-763.12C198.15,-763.12 236.02,-763.12 267.18,-763.12"/>
<polygon fill="#585b70" stroke="#585b70" points="267.03,-765.23 273.03,-763.13 267.03,-761.03 267.03,-765.23"/>
</g>
<!-- ens3f0np0 -->
<g id="node6" class="node">
<title>ens3f0np0</title>
<polygon fill="#313244" stroke="none" points="274.25,-860 274.25,-964.25 389.5,-964.25 389.5,-860 274.25,-860"/>
<text xml:space="preserve" text-anchor="start" x="304.88" y="-947.8" font-family="Helvetica,Arial,sans-serif" font-weight="bold" font-size="11.00" fill="#cdd6f4">ens3f0np0</text>
<text xml:space="preserve" text-anchor="start" x="291" y="-927.45" font-family="Helvetica,Arial,sans-serif" font-size="9.00" fill="#a6adc8">XX:XX:XX:XX:XX:05</text>
<text xml:space="preserve" text-anchor="start" x="309.38" y="-907.7" font-family="Helvetica,Arial,sans-serif" font-size="9.00" fill="#a6adc8">MTU: 9100</text>
<text xml:space="preserve" text-anchor="start" x="306.75" y="-888.9" font-family="Helvetica,Arial,sans-serif" font-size="8.00" fill="#a6adc8">25GBASE&#45;SR</text>
<text xml:space="preserve" text-anchor="start" x="281.25" y="-868.8" font-family="Helvetica,Arial,sans-serif" font-size="8.00" fill="#a6e3a1">Tx:&#45;1.99 dBm</text>
<text xml:space="preserve" text-anchor="start" x="330" y="-868.8" font-family="Helvetica,Arial,sans-serif" font-size="11.00" fill="#cdd6f4"> </text>
<text xml:space="preserve" text-anchor="start" x="333" y="-868.8" font-family="Helvetica,Arial,sans-serif" font-size="8.00" fill="#a6e3a1">Rx:&#45;2.08 dBm</text>
<polygon fill="none" stroke="#a6e3a1" points="274.25,-860 274.25,-964.25 389.5,-964.25 389.5,-860 274.25,-860"/>
</g>
<!-- server&#45;&gt;ens3f0np0 -->
<g id="edge5" class="edge">
<title>server&#45;&gt;ens3f0np0</title>
<path fill="none" stroke="#585b70" d="M136.67,-795.09C175.19,-818.3 227.46,-849.8 268.07,-874.28"/>
<polygon fill="#585b70" stroke="#585b70" points="266.96,-876.06 273.19,-877.36 269.13,-872.46 266.96,-876.06"/>
</g>
<!-- ens8f0np0 -->
<g id="node7" class="node">
<title>ens8f0np0</title>
<polygon fill="#313244" stroke="none" points="274.25,-1007 274.25,-1111.25 389.5,-1111.25 389.5,-1007 274.25,-1007"/>
<text xml:space="preserve" text-anchor="start" x="304.88" y="-1094.8" font-family="Helvetica,Arial,sans-serif" font-weight="bold" font-size="11.00" fill="#cdd6f4">ens8f0np0</text>
<text xml:space="preserve" text-anchor="start" x="291" y="-1074.45" font-family="Helvetica,Arial,sans-serif" font-size="9.00" fill="#a6adc8">XX:XX:XX:XX:XX:0b</text>
<text xml:space="preserve" text-anchor="start" x="309.38" y="-1054.7" font-family="Helvetica,Arial,sans-serif" font-size="9.00" fill="#a6adc8">MTU: 9100</text>
<text xml:space="preserve" text-anchor="start" x="306.75" y="-1035.9" font-family="Helvetica,Arial,sans-serif" font-size="8.00" fill="#a6adc8">25GBASE&#45;SR</text>
<text xml:space="preserve" text-anchor="start" x="281.25" y="-1015.8" font-family="Helvetica,Arial,sans-serif" font-size="8.00" fill="#a6e3a1">Tx:&#45;1.02 dBm</text>
<text xml:space="preserve" text-anchor="start" x="330" y="-1015.8" font-family="Helvetica,Arial,sans-serif" font-size="11.00" fill="#cdd6f4"> </text>
<text xml:space="preserve" text-anchor="start" x="333" y="-1015.8" font-family="Helvetica,Arial,sans-serif" font-size="8.00" fill="#a6e3a1">Rx:&#45;2.45 dBm</text>
<polygon fill="none" stroke="#a6e3a1" points="274.25,-1007 274.25,-1111.25 389.5,-1111.25 389.5,-1007 274.25,-1007"/>
</g>
<!-- server&#45;&gt;ens8f0np0 -->
<g id="edge11" class="edge">
<title>server&#45;&gt;ens8f0np0</title>
<path fill="none" stroke="#585b70" d="M109.25,-795.2C144.24,-838.81 209.15,-919.07 266.25,-986.12 270.52,-991.14 274.99,-996.32 279.49,-1001.49"/>
<polygon fill="#585b70" stroke="#585b70" points="277.86,-1002.82 283.39,-1005.96 281.03,-1000.06 277.86,-1002.82"/>
</g>
<!-- ens3f1np1 -->
<g id="node8" class="node">
<title>ens3f1np1</title>
<polygon fill="#313244" stroke="none" points="274.25,-1452 274.25,-1556.25 389.5,-1556.25 389.5,-1452 274.25,-1452"/>
<text xml:space="preserve" text-anchor="start" x="304.88" y="-1539.8" font-family="Helvetica,Arial,sans-serif" font-weight="bold" font-size="11.00" fill="#cdd6f4">ens3f1np1</text>
<text xml:space="preserve" text-anchor="start" x="291" y="-1519.45" font-family="Helvetica,Arial,sans-serif" font-size="9.00" fill="#a6adc8">XX:XX:XX:XX:XX:06</text>
<text xml:space="preserve" text-anchor="start" x="309.38" y="-1499.7" font-family="Helvetica,Arial,sans-serif" font-size="9.00" fill="#a6adc8">MTU: 9100</text>
<text xml:space="preserve" text-anchor="start" x="306.75" y="-1480.9" font-family="Helvetica,Arial,sans-serif" font-size="8.00" fill="#a6adc8">25GBASE&#45;SR</text>
<text xml:space="preserve" text-anchor="start" x="281.25" y="-1460.8" font-family="Helvetica,Arial,sans-serif" font-size="8.00" fill="#a6e3a1">Tx:&#45;2.79 dBm</text>
<text xml:space="preserve" text-anchor="start" x="330" y="-1460.8" font-family="Helvetica,Arial,sans-serif" font-size="11.00" fill="#cdd6f4"> </text>
<text xml:space="preserve" text-anchor="start" x="333" y="-1460.8" font-family="Helvetica,Arial,sans-serif" font-size="8.00" fill="#a6e3a1">Rx:&#45;2.43 dBm</text>
<polygon fill="none" stroke="#a6e3a1" points="274.25,-1452 274.25,-1556.25 389.5,-1556.25 389.5,-1452 274.25,-1452"/>
</g>
<!-- server&#45;&gt;ens3f1np1 -->
<g id="edge6" class="edge">
<title>server&#45;&gt;ens3f1np1</title>
<path fill="none" stroke="#585b70" d="M87.66,-795.18C101.09,-893.96 150.11,-1200.63 266.25,-1425.12 270,-1432.38 274.5,-1439.58 279.35,-1446.52"/>
<polygon fill="#585b70" stroke="#585b70" points="277.4,-1447.41 282.61,-1451.05 280.81,-1444.95 277.4,-1447.41"/>
</g>
<!-- ens8f1np1 -->
<g id="node9" class="node">
<title>ens8f1np1</title>
<polygon fill="#313244" stroke="none" points="274.25,-1599 274.25,-1703.25 389.5,-1703.25 389.5,-1599 274.25,-1599"/>
<text xml:space="preserve" text-anchor="start" x="304.88" y="-1686.8" font-family="Helvetica,Arial,sans-serif" font-weight="bold" font-size="11.00" fill="#cdd6f4">ens8f1np1</text>
<text xml:space="preserve" text-anchor="start" x="291.38" y="-1666.45" font-family="Helvetica,Arial,sans-serif" font-size="9.00" fill="#a6adc8">XX:XX:XX:XX:XX:0c</text>
<text xml:space="preserve" text-anchor="start" x="309.38" y="-1646.7" font-family="Helvetica,Arial,sans-serif" font-size="9.00" fill="#a6adc8">MTU: 9100</text>
<text xml:space="preserve" text-anchor="start" x="306.75" y="-1627.9" font-family="Helvetica,Arial,sans-serif" font-size="8.00" fill="#a6adc8">25GBASE&#45;SR</text>
<text xml:space="preserve" text-anchor="start" x="281.25" y="-1607.8" font-family="Helvetica,Arial,sans-serif" font-size="8.00" fill="#a6e3a1">Tx:&#45;0.64 dBm</text>
<text xml:space="preserve" text-anchor="start" x="330" y="-1607.8" font-family="Helvetica,Arial,sans-serif" font-size="11.00" fill="#cdd6f4"> </text>
<text xml:space="preserve" text-anchor="start" x="333" y="-1607.8" font-family="Helvetica,Arial,sans-serif" font-size="8.00" fill="#a6e3a1">Rx:&#45;2.03 dBm</text>
<polygon fill="none" stroke="#a6e3a1" points="274.25,-1599 274.25,-1703.25 389.5,-1703.25 389.5,-1599 274.25,-1599"/>
</g>
<!-- server&#45;&gt;ens8f1np1 -->
<g id="edge12" class="edge">
<title>server&#45;&gt;ens8f1np1</title>
<path fill="none" stroke="#585b70" d="M85.1,-794.99C91.47,-908.06 123.2,-1298.27 266.25,-1578.12 268.85,-1583.21 271.89,-1588.23 275.2,-1593.1"/>
<polygon fill="#585b70" stroke="#585b70" points="273.47,-1594.29 278.66,-1597.96 276.89,-1591.85 273.47,-1594.29"/>
</g>
<!-- eno3np2 -->
<g id="node10" class="node">
<title>eno3np2</title>
<polygon fill="#313244" stroke="none" points="618.25,-567 618.25,-671.25 738,-671.25 738,-567 618.25,-567"/>
<text xml:space="preserve" text-anchor="start" x="655.62" y="-654.8" font-family="Helvetica,Arial,sans-serif" font-weight="bold" font-size="11.00" fill="#cdd6f4">eno3np2</text>
<text xml:space="preserve" text-anchor="start" x="637.25" y="-634.45" font-family="Helvetica,Arial,sans-serif" font-size="9.00" fill="#a6adc8">XX:XX:XX:XX:XX:03</text>
<text xml:space="preserve" text-anchor="start" x="655.62" y="-614.7" font-family="Helvetica,Arial,sans-serif" font-size="9.00" fill="#a6adc8">MTU: 1500</text>
<text xml:space="preserve" text-anchor="start" x="653" y="-595.9" font-family="Helvetica,Arial,sans-serif" font-size="8.00" fill="#a6adc8">10GBASE&#45;SR</text>
<text xml:space="preserve" text-anchor="start" x="625.25" y="-575.8" font-family="Helvetica,Arial,sans-serif" font-size="8.00" fill="#a6e3a1">Tx:&#45;2.41 dBm</text>
<text xml:space="preserve" text-anchor="start" x="674" y="-575.8" font-family="Helvetica,Arial,sans-serif" font-size="11.00" fill="#cdd6f4"> </text>
<text xml:space="preserve" text-anchor="start" x="677" y="-575.8" font-family="Helvetica,Arial,sans-serif" font-size="8.00" fill="#f38ba8">Rx:&#45;26.78 dBm</text>
<polygon fill="none" stroke="#f38ba8" points="618.25,-567 618.25,-671.25 738,-671.25 738,-567 618.25,-567"/>
</g>
<!-- server&#45;&gt;eno3np2 -->
<g id="edge3" class="edge">
<title>server&#45;&gt;eno3np2</title>
<path fill="none" stroke="#585b70" d="M96.65,-731.27C120.8,-677.06 178.2,-568.55 266.25,-525.12 380.1,-468.98 528.33,-532.1 612.06,-578.62"/>
<polygon fill="#585b70" stroke="#585b70" points="610.89,-580.37 617.15,-581.48 612.95,-576.71 610.89,-580.37"/>
</g>
<!-- eno4np3 -->
<g id="node11" class="node">
<title>eno4np3</title>
<polygon fill="#313244" stroke="none" points="618.25,-420 618.25,-524.25 738,-524.25 738,-420 618.25,-420"/>
<text xml:space="preserve" text-anchor="start" x="655.62" y="-507.8" font-family="Helvetica,Arial,sans-serif" font-weight="bold" font-size="11.00" fill="#cdd6f4">eno4np3</text>
<text xml:space="preserve" text-anchor="start" x="637.25" y="-487.45" font-family="Helvetica,Arial,sans-serif" font-size="9.00" fill="#a6adc8">XX:XX:XX:XX:XX:04</text>
<text xml:space="preserve" text-anchor="start" x="655.62" y="-467.7" font-family="Helvetica,Arial,sans-serif" font-size="9.00" fill="#a6adc8">MTU: 1500</text>
<text xml:space="preserve" text-anchor="start" x="653" y="-448.9" font-family="Helvetica,Arial,sans-serif" font-size="8.00" fill="#a6adc8">25GBASE&#45;SR</text>
<text xml:space="preserve" text-anchor="start" x="625.25" y="-428.8" font-family="Helvetica,Arial,sans-serif" font-size="8.00" fill="#a6e3a1">Tx:&#45;0.82 dBm</text>
<text xml:space="preserve" text-anchor="start" x="674" y="-428.8" font-family="Helvetica,Arial,sans-serif" font-size="11.00" fill="#cdd6f4"> </text>
<text xml:space="preserve" text-anchor="start" x="677" y="-428.8" font-family="Helvetica,Arial,sans-serif" font-size="8.00" fill="#f38ba8">Rx:&#45;40.00 dBm</text>
<polygon fill="none" stroke="#f38ba8" points="618.25,-420 618.25,-524.25 738,-524.25 738,-420 618.25,-420"/>
</g>
<!-- server&#45;&gt;eno4np3 -->
<g id="edge4" class="edge">
<title>server&#45;&gt;eno4np3</title>
<path fill="none" stroke="#585b70" d="M93.32,-731.19C113.72,-670.55 167.56,-540.58 266.25,-493.12 377.9,-439.44 526.86,-448.86 611.33,-460.52"/>
<polygon fill="#585b70" stroke="#585b70" points="610.81,-462.57 617.05,-461.33 611.4,-458.41 610.81,-462.57"/>
</g>
<!-- ens5f2np2 -->
<g id="node12" class="node">
<title>ens5f2np2</title>
<polygon fill="#313244" stroke="none" points="618.25,-273 618.25,-377.25 738,-377.25 738,-273 618.25,-273"/>
<text xml:space="preserve" text-anchor="start" x="651.12" y="-360.8" font-family="Helvetica,Arial,sans-serif" font-weight="bold" font-size="11.00" fill="#cdd6f4">ens5f2np2</text>
<text xml:space="preserve" text-anchor="start" x="637.25" y="-340.45" font-family="Helvetica,Arial,sans-serif" font-size="9.00" fill="#a6adc8">XX:XX:XX:XX:XX:09</text>
<text xml:space="preserve" text-anchor="start" x="655.62" y="-320.7" font-family="Helvetica,Arial,sans-serif" font-size="9.00" fill="#a6adc8">MTU: 1500</text>
<text xml:space="preserve" text-anchor="start" x="653" y="-301.9" font-family="Helvetica,Arial,sans-serif" font-size="8.00" fill="#a6adc8">10GBASE&#45;SR</text>
<text xml:space="preserve" text-anchor="start" x="625.25" y="-281.8" font-family="Helvetica,Arial,sans-serif" font-size="8.00" fill="#a6e3a1">Tx:&#45;2.25 dBm</text>
<text xml:space="preserve" text-anchor="start" x="674" y="-281.8" font-family="Helvetica,Arial,sans-serif" font-size="11.00" fill="#cdd6f4"> </text>
<text xml:space="preserve" text-anchor="start" x="677" y="-281.8" font-family="Helvetica,Arial,sans-serif" font-size="8.00" fill="#f38ba8">Rx:&#45;26.78 dBm</text>
<polygon fill="none" stroke="#f38ba8" points="618.25,-273 618.25,-377.25 738,-377.25 738,-273 618.25,-273"/>
</g>
<!-- server&#45;&gt;ens5f2np2 -->
<g id="edge9" class="edge">
<title>server&#45;&gt;ens5f2np2</title>
<path fill="none" stroke="#585b70" d="M92.36,-731.08C111.83,-666.2 165.19,-519.32 266.25,-447.12 372,-371.58 524.71,-342.33 611.07,-331.37"/>
<polygon fill="#585b70" stroke="#585b70" points="611.25,-333.46 616.95,-330.64 610.74,-329.29 611.25,-333.46"/>
</g>
<!-- ens5f3np3 -->
<g id="node13" class="node">
<title>ens5f3np3</title>
<polygon fill="#313244" stroke="none" points="618.25,-126 618.25,-230.25 738,-230.25 738,-126 618.25,-126"/>
<text xml:space="preserve" text-anchor="start" x="651.12" y="-213.8" font-family="Helvetica,Arial,sans-serif" font-weight="bold" font-size="11.00" fill="#cdd6f4">ens5f3np3</text>
<text xml:space="preserve" text-anchor="start" x="637.25" y="-193.45" font-family="Helvetica,Arial,sans-serif" font-size="9.00" fill="#a6adc8">XX:XX:XX:XX:XX:0a</text>
<text xml:space="preserve" text-anchor="start" x="655.62" y="-173.7" font-family="Helvetica,Arial,sans-serif" font-size="9.00" fill="#a6adc8">MTU: 1500</text>
<text xml:space="preserve" text-anchor="start" x="653" y="-154.9" font-family="Helvetica,Arial,sans-serif" font-size="8.00" fill="#a6adc8">10GBASE&#45;SR</text>
<text xml:space="preserve" text-anchor="start" x="625.25" y="-134.8" font-family="Helvetica,Arial,sans-serif" font-size="8.00" fill="#a6e3a1">Tx:&#45;2.45 dBm</text>
<text xml:space="preserve" text-anchor="start" x="674" y="-134.8" font-family="Helvetica,Arial,sans-serif" font-size="11.00" fill="#cdd6f4"> </text>
<text xml:space="preserve" text-anchor="start" x="677" y="-134.8" font-family="Helvetica,Arial,sans-serif" font-size="8.00" fill="#f38ba8">Rx:&#45;26.78 dBm</text>
<polygon fill="none" stroke="#f38ba8" points="618.25,-126 618.25,-230.25 738,-230.25 738,-126 618.25,-126"/>
</g>
<!-- server&#45;&gt;ens5f3np3 -->
<g id="edge10" class="edge">
<title>server&#45;&gt;ens5f3np3</title>
<path fill="none" stroke="#585b70" d="M90.6,-731.15C108.02,-658.26 159.84,-477.87 266.25,-371.12 364.44,-272.63 522.5,-218.21 611.23,-193.91"/>
<polygon fill="#585b70" stroke="#585b70" points="611.58,-195.99 616.82,-192.4 610.48,-191.94 611.58,-195.99"/>
</g>
<!-- idrac -->
<g id="node14" class="node">
<title>idrac</title>
<polygon fill="#313244" stroke="none" points="630.25,-17.75 630.25,-82.5 726,-82.5 726,-17.75 630.25,-17.75"/>
<text xml:space="preserve" text-anchor="start" x="665" y="-66.05" font-family="Helvetica,Arial,sans-serif" font-weight="bold" font-size="11.00" fill="#cdd6f4">idrac</text>
<text xml:space="preserve" text-anchor="start" x="637.25" y="-45.7" font-family="Helvetica,Arial,sans-serif" font-size="9.00" fill="#a6adc8">XX:XX:XX:XX:XX:0d</text>
<text xml:space="preserve" text-anchor="start" x="655.62" y="-25.95" font-family="Helvetica,Arial,sans-serif" font-size="9.00" fill="#a6adc8">MTU: 1500</text>
<polygon fill="none" stroke="#a6e3a1" points="630.25,-17.75 630.25,-82.5 726,-82.5 726,-17.75 630.25,-17.75"/>
</g>
<!-- server&#45;&gt;idrac -->
<g id="edge13" class="edge">
<title>server&#45;&gt;idrac</title>
<path fill="none" stroke="#585b70" d="M87.39,-731.28C98.96,-646.14 141.17,-410.07 266.25,-267.12 364.81,-154.49 536.32,-91.14 623.27,-64.8"/>
<polygon fill="#585b70" stroke="#585b70" points="623.81,-66.83 628.95,-63.1 622.6,-62.8 623.81,-66.83"/>
</g>
<!-- swport_dev_collapsed_ipf01cly_lf01_ifname_xe_0_0_2 -->
<g id="node15" class="node">
<title>swport_dev_collapsed_ipf01cly_lf01_ifname_xe_0_0_2</title>
<polygon fill="#313244" stroke="none" points="631.75,-1014.5 631.75,-1039.75 724.5,-1039.75 724.5,-1014.5 631.75,-1014.5"/>
<text xml:space="preserve" text-anchor="start" x="638.75" y="-1023.3" font-family="Helvetica,Arial,sans-serif" font-weight="bold" font-size="11.00" fill="#cdd6f4">ifname xe&#45;0/0/2</text>
<polygon fill="none" stroke="#fab387" points="631.75,-1014.5 631.75,-1039.75 724.5,-1039.75 724.5,-1014.5 631.75,-1014.5"/>
</g>
<!-- eno1np0&#45;&gt;swport_dev_collapsed_ipf01cly_lf01_ifname_xe_0_0_2 -->
<g id="edge14" class="edge">
<title>eno1np0&#45;&gt;swport_dev_collapsed_ipf01cly_lf01_ifname_xe_0_0_2</title>
<path fill="none" stroke="#89b4fa" stroke-width="2.5" d="M380.47,-1156.03C398.8,-1138.3 420.81,-1119.59 443.5,-1106.12 498.87,-1073.28 569.79,-1051.76 618.9,-1039.6"/>
<polygon fill="#89b4fa" stroke="#89b4fa" stroke-width="2.5" points="619.55,-1043.04 628.46,-1037.3 617.92,-1036.23 619.55,-1043.04"/>
<text xml:space="preserve" text-anchor="start" x="443.5" y="-1117.62" font-family="Helvetica,Arial,sans-serif" font-size="10.00" fill="#a6adc8">VLAN 100;101;102;110;111</text>
<text xml:space="preserve" text-anchor="start" x="488.88" y="-1107.12" font-family="Helvetica,Arial,sans-serif" font-size="10.00" fill="#a6adc8">10GbE</text>
</g>
<!-- swport_dev_collapsed_ipf01cly_lf02_ifname_xe_0_0_2 -->
<g id="node19" class="node">
<title>swport_dev_collapsed_ipf01cly_lf02_ifname_xe_0_0_2</title>
<polygon fill="#313244" stroke="none" points="631.75,-1331.5 631.75,-1356.75 724.5,-1356.75 724.5,-1331.5 631.75,-1331.5"/>
<text xml:space="preserve" text-anchor="start" x="638.75" y="-1340.3" font-family="Helvetica,Arial,sans-serif" font-weight="bold" font-size="11.00" fill="#cdd6f4">ifname xe&#45;0/0/2</text>
<polygon fill="none" stroke="#fab387" points="631.75,-1331.5 631.75,-1356.75 724.5,-1356.75 724.5,-1331.5 631.75,-1331.5"/>
</g>
<!-- ens5f0np0&#45;&gt;swport_dev_collapsed_ipf01cly_lf02_ifname_xe_0_0_2 -->
<g id="edge20" class="edge">
<title>ens5f0np0&#45;&gt;swport_dev_collapsed_ipf01cly_lf02_ifname_xe_0_0_2</title>
<path fill="none" stroke="#89b4fa" stroke-width="2.5" d="M389.34,-1353.32C452.51,-1351.3 554.38,-1348.05 618.44,-1346"/>
<polygon fill="#89b4fa" stroke="#89b4fa" stroke-width="2.5" points="618.24,-1349.51 628.12,-1345.69 618.02,-1342.51 618.24,-1349.51"/>
<text xml:space="preserve" text-anchor="start" x="443.5" y="-1363.07" font-family="Helvetica,Arial,sans-serif" font-size="10.00" fill="#a6adc8">VLAN 100;101;102;110;111</text>
<text xml:space="preserve" text-anchor="start" x="488.88" y="-1352.57" font-family="Helvetica,Arial,sans-serif" font-size="10.00" fill="#a6adc8">10GbE</text>
</g>
<!-- swport_dev_collapsed_ipf01cly_lf01_ifname_xe_0_0_3 -->
<g id="node16" class="node">
<title>swport_dev_collapsed_ipf01cly_lf01_ifname_xe_0_0_3</title>
<polygon fill="#313244" stroke="none" points="631.75,-819.5 631.75,-844.75 724.5,-844.75 724.5,-819.5 631.75,-819.5"/>
<text xml:space="preserve" text-anchor="start" x="638.75" y="-828.3" font-family="Helvetica,Arial,sans-serif" font-weight="bold" font-size="11.00" fill="#cdd6f4">ifname xe&#45;0/0/3</text>
<polygon fill="none" stroke="#fab387" points="631.75,-819.5 631.75,-844.75 724.5,-844.75 724.5,-819.5 631.75,-819.5"/>
</g>
<!-- eno2np1&#45;&gt;swport_dev_collapsed_ipf01cly_lf01_ifname_xe_0_0_3 -->
<g id="edge15" class="edge">
<title>eno2np1&#45;&gt;swport_dev_collapsed_ipf01cly_lf01_ifname_xe_0_0_3</title>
<path fill="none" stroke="#f9e2af" stroke-width="2.5" d="M389.34,-651.55C462.53,-697.48 587.65,-775.98 645.76,-812.44"/>
<polygon fill="#f9e2af" stroke="#f9e2af" stroke-width="2.5" points="643.56,-815.2 653.89,-817.55 647.28,-809.27 643.56,-815.2"/>
<text xml:space="preserve" text-anchor="start" x="443.5" y="-767.59" font-family="Helvetica,Arial,sans-serif" font-size="10.00" fill="#a6adc8">VLAN 200;201;202;211;212</text>
<text xml:space="preserve" text-anchor="start" x="488.88" y="-757.09" font-family="Helvetica,Arial,sans-serif" font-size="10.00" fill="#a6adc8">10GbE</text>
</g>
<!-- swport_dev_collapsed_ipf01cly_lf02_ifname_xe_0_0_3 -->
<g id="node20" class="node">
<title>swport_dev_collapsed_ipf01cly_lf02_ifname_xe_0_0_3</title>
<polygon fill="#313244" stroke="none" points="631.75,-1189.5 631.75,-1214.75 724.5,-1214.75 724.5,-1189.5 631.75,-1189.5"/>
<text xml:space="preserve" text-anchor="start" x="638.75" y="-1198.3" font-family="Helvetica,Arial,sans-serif" font-weight="bold" font-size="11.00" fill="#cdd6f4">ifname xe&#45;0/0/3</text>
<polygon fill="none" stroke="#fab387" points="631.75,-1189.5 631.75,-1214.75 724.5,-1214.75 724.5,-1189.5 631.75,-1189.5"/>
</g>
<!-- ens5f1np1&#45;&gt;swport_dev_collapsed_ipf01cly_lf02_ifname_xe_0_0_3 -->
<g id="edge21" class="edge">
<title>ens5f1np1&#45;&gt;swport_dev_collapsed_ipf01cly_lf02_ifname_xe_0_0_3</title>
<path fill="none" stroke="#f9e2af" stroke-width="2.5" d="M389.48,-808.87C392.5,-812.78 395.22,-816.88 397.5,-821.12 463.82,-944.61 351.61,-1027.29 443.5,-1133.12 455.21,-1146.62 553.25,-1172.36 618.55,-1188.3"/>
<polygon fill="#f9e2af" stroke="#f9e2af" stroke-width="2.5" points="617.73,-1191.7 628.27,-1190.66 619.38,-1184.9 617.73,-1191.7"/>
<text xml:space="preserve" text-anchor="start" x="443.5" y="-1185.01" font-family="Helvetica,Arial,sans-serif" font-size="10.00" fill="#a6adc8">VLAN 200;201;202;211;212</text>
<text xml:space="preserve" text-anchor="start" x="488.88" y="-1174.51" font-family="Helvetica,Arial,sans-serif" font-size="10.00" fill="#a6adc8">10GbE</text>
</g>
<!-- swport_dev_collapsed_ipf01cly_lf01_ifname_et_0_0_38 -->
<g id="node17" class="node">
<title>swport_dev_collapsed_ipf01cly_lf01_ifname_et_0_0_38</title>
<polygon fill="#313244" stroke="none" points="630.25,-946.5 630.25,-971.75 726,-971.75 726,-946.5 630.25,-946.5"/>
<text xml:space="preserve" text-anchor="start" x="637.25" y="-955.3" font-family="Helvetica,Arial,sans-serif" font-weight="bold" font-size="11.00" fill="#cdd6f4">ifname et&#45;0/0/38</text>
<polygon fill="none" stroke="#fab387" points="630.25,-946.5 630.25,-971.75 726,-971.75 726,-946.5 630.25,-946.5"/>
</g>
<!-- ens3f0np0&#45;&gt;swport_dev_collapsed_ipf01cly_lf01_ifname_et_0_0_38 -->
<g id="edge18" class="edge">
<title>ens3f0np0&#45;&gt;swport_dev_collapsed_ipf01cly_lf01_ifname_et_0_0_38</title>
<path fill="none" stroke="#94e2d5" stroke-width="3" d="M389.34,-919.83C451.71,-928.35 551.82,-942.02 616,-950.78"/>
<polygon fill="#94e2d5" stroke="#94e2d5" stroke-width="3" points="615.43,-954.23 625.82,-952.12 616.38,-947.3 615.43,-954.23"/>
<text xml:space="preserve" text-anchor="start" x="481" y="-954.08" font-family="Helvetica,Arial,sans-serif" font-size="10.00" fill="#a6adc8">VLAN 501</text>
<text xml:space="preserve" text-anchor="start" x="488.88" y="-943.58" font-family="Helvetica,Arial,sans-serif" font-size="10.00" fill="#a6adc8">25GbE</text>
</g>
<!-- swport_dev_collapsed_ipf01cly_lf02_ifname_et_0_0_38 -->
<g id="node21" class="node">
<title>swport_dev_collapsed_ipf01cly_lf02_ifname_et_0_0_38</title>
<polygon fill="#313244" stroke="none" points="630.25,-1257.5 630.25,-1282.75 726,-1282.75 726,-1257.5 630.25,-1257.5"/>
<text xml:space="preserve" text-anchor="start" x="637.25" y="-1266.3" font-family="Helvetica,Arial,sans-serif" font-weight="bold" font-size="11.00" fill="#cdd6f4">ifname et&#45;0/0/38</text>
<polygon fill="none" stroke="#fab387" points="630.25,-1257.5 630.25,-1282.75 726,-1282.75 726,-1257.5 630.25,-1257.5"/>
</g>
<!-- ens8f0np0&#45;&gt;swport_dev_collapsed_ipf01cly_lf02_ifname_et_0_0_38 -->
<g id="edge24" class="edge">
<title>ens8f0np0&#45;&gt;swport_dev_collapsed_ipf01cly_lf02_ifname_et_0_0_38</title>
<path fill="none" stroke="#94e2d5" stroke-width="3" d="M389.29,-1107.18C392.19,-1110.43 394.95,-1113.76 397.5,-1117.12 425.55,-1154.23 407.38,-1181.82 443.5,-1211.12 492.44,-1250.82 564.67,-1264.23 615.84,-1268.54"/>
<polygon fill="#94e2d5" stroke="#94e2d5" stroke-width="3" points="615.58,-1272.03 625.81,-1269.25 616.08,-1265.05 615.58,-1272.03"/>
<text xml:space="preserve" text-anchor="start" x="481" y="-1272.54" font-family="Helvetica,Arial,sans-serif" font-size="10.00" fill="#a6adc8">VLAN 501</text>
<text xml:space="preserve" text-anchor="start" x="488.88" y="-1262.04" font-family="Helvetica,Arial,sans-serif" font-size="10.00" fill="#a6adc8">25GbE</text>
</g>
<!-- swport_dev_collapsed_ipf01cly_lf01_ifname_et_0_0_39 -->
<g id="node18" class="node">
<title>swport_dev_collapsed_ipf01cly_lf01_ifname_et_0_0_39</title>
<polygon fill="#313244" stroke="none" points="630.25,-1425.5 630.25,-1450.75 726,-1450.75 726,-1425.5 630.25,-1425.5"/>
<text xml:space="preserve" text-anchor="start" x="637.25" y="-1434.3" font-family="Helvetica,Arial,sans-serif" font-weight="bold" font-size="11.00" fill="#cdd6f4">ifname et&#45;0/0/39</text>
<polygon fill="none" stroke="#fab387" points="630.25,-1425.5 630.25,-1450.75 726,-1450.75 726,-1425.5 630.25,-1425.5"/>
</g>
<!-- ens3f1np1&#45;&gt;swport_dev_collapsed_ipf01cly_lf01_ifname_et_0_0_39 -->
<g id="edge19" class="edge">
<title>ens3f1np1&#45;&gt;swport_dev_collapsed_ipf01cly_lf01_ifname_et_0_0_39</title>
<path fill="none" stroke="#f5c2e7" stroke-width="3" d="M389.34,-1493.3C451.85,-1481.32 552.24,-1462.07 616.41,-1449.77"/>
<polygon fill="#f5c2e7" stroke="#f5c2e7" stroke-width="3" points="616.69,-1453.27 625.86,-1447.95 615.38,-1446.4 616.69,-1453.27"/>
<text xml:space="preserve" text-anchor="start" x="481" y="-1494.28" font-family="Helvetica,Arial,sans-serif" font-size="10.00" fill="#a6adc8">VLAN 502</text>
<text xml:space="preserve" text-anchor="start" x="488.88" y="-1483.78" font-family="Helvetica,Arial,sans-serif" font-size="10.00" fill="#a6adc8">25GbE</text>
</g>
<!-- swport_dev_collapsed_ipf01cly_lf02_ifname_et_0_0_39 -->
<g id="node22" class="node">
<title>swport_dev_collapsed_ipf01cly_lf02_ifname_et_0_0_39</title>
<polygon fill="#313244" stroke="none" points="630.25,-1550.5 630.25,-1575.75 726,-1575.75 726,-1550.5 630.25,-1550.5"/>
<text xml:space="preserve" text-anchor="start" x="637.25" y="-1559.3" font-family="Helvetica,Arial,sans-serif" font-weight="bold" font-size="11.00" fill="#cdd6f4">ifname et&#45;0/0/39</text>
<polygon fill="none" stroke="#fab387" points="630.25,-1550.5 630.25,-1575.75 726,-1575.75 726,-1550.5 630.25,-1550.5"/>
</g>
<!-- ens8f1np1&#45;&gt;swport_dev_collapsed_ipf01cly_lf02_ifname_et_0_0_39 -->
<g id="edge25" class="edge">
<title>ens8f1np1&#45;&gt;swport_dev_collapsed_ipf01cly_lf02_ifname_et_0_0_39</title>
<path fill="none" stroke="#f5c2e7" stroke-width="3" d="M389.34,-1636.69C451.85,-1620.71 552.24,-1595.05 616.41,-1578.65"/>
<polygon fill="#f5c2e7" stroke="#f5c2e7" stroke-width="3" points="617.09,-1582.08 625.92,-1576.22 615.36,-1575.3 617.09,-1582.08"/>
<text xml:space="preserve" text-anchor="start" x="481" y="-1634.16" font-family="Helvetica,Arial,sans-serif" font-size="10.00" fill="#a6adc8">VLAN 502</text>
<text xml:space="preserve" text-anchor="start" x="488.88" y="-1623.66" font-family="Helvetica,Arial,sans-serif" font-size="10.00" fill="#a6adc8">25GbE</text>
</g>
<!-- no_lldp_peer -->
<g id="node25" class="node">
<title>no_lldp_peer</title>
<path fill="#313244" stroke="none" d="M897.67,-311.38C897.67,-311.38 963.08,-311.38 963.08,-311.38 967.67,-311.38 972.25,-315.96 972.25,-320.54 972.25,-320.54 972.25,-329.71 972.25,-329.71 972.25,-334.29 967.67,-338.88 963.08,-338.88 963.08,-338.88 897.67,-338.88 897.67,-338.88 893.08,-338.88 888.5,-334.29 888.5,-329.71 888.5,-329.71 888.5,-320.54 888.5,-320.54 888.5,-315.96 893.08,-311.38 897.67,-311.38"/>
<text xml:space="preserve" text-anchor="start" x="895.5" y="-322.43" font-family="Helvetica,Arial,sans-serif" font-style="italic" font-size="11.00" fill="#6c7086">No LLDP peer</text>
<path fill="none" stroke="#6c7086" d="M897.67,-311.38C897.67,-311.38 963.08,-311.38 963.08,-311.38 967.67,-311.38 972.25,-315.96 972.25,-320.54 972.25,-320.54 972.25,-329.71 972.25,-329.71 972.25,-334.29 967.67,-338.88 963.08,-338.88 963.08,-338.88 897.67,-338.88 897.67,-338.88 893.08,-338.88 888.5,-334.29 888.5,-329.71 888.5,-329.71 888.5,-320.54 888.5,-320.54 888.5,-315.96 893.08,-311.38 897.67,-311.38"/>
</g>
<!-- eno3np2&#45;&gt;no_lldp_peer -->
<g id="edge16" class="edge">
<title>eno3np2&#45;&gt;no_lldp_peer</title>
<path fill="none" stroke="#6c7086" stroke-dasharray="5,2" d="M723.29,-567.24C778.55,-502.31 870.75,-394 910.35,-347.48"/>
<polygon fill="#6c7086" stroke="#6c7086" points="912.96,-349.81 916.78,-339.93 907.63,-345.27 912.96,-349.81"/>
</g>
<!-- eno4np3&#45;&gt;no_lldp_peer -->
<g id="edge17" class="edge">
<title>eno4np3&#45;&gt;no_lldp_peer</title>
<path fill="none" stroke="#6c7086" stroke-dasharray="5,2" d="M737.8,-437.66C787.1,-408.7 855.8,-368.34 896.13,-344.65"/>
<polygon fill="#6c7086" stroke="#6c7086" points="897.83,-347.71 904.68,-339.63 894.28,-341.68 897.83,-347.71"/>
</g>
<!-- ens5f2np2&#45;&gt;no_lldp_peer -->
<g id="edge22" class="edge">
<title>ens5f2np2&#45;&gt;no_lldp_peer</title>
<path fill="none" stroke="#6c7086" stroke-dasharray="5,2" d="M737.8,-325.12C780.1,-325.12 836.67,-325.12 877.35,-325.12"/>
<polygon fill="#6c7086" stroke="#6c7086" points="877.13,-328.63 887.13,-325.13 877.13,-321.63 877.13,-328.63"/>
</g>
<!-- ens5f3np3&#45;&gt;no_lldp_peer -->
<g id="edge23" class="edge">
<title>ens5f3np3&#45;&gt;no_lldp_peer</title>
<path fill="none" stroke="#6c7086" stroke-dasharray="5,2" d="M737.8,-212.59C787.1,-241.55 855.8,-281.91 896.13,-305.6"/>
<polygon fill="#6c7086" stroke="#6c7086" points="894.28,-308.57 904.68,-310.62 897.83,-302.54 894.28,-308.57"/>
</g>
<!-- idrac&#45;&gt;no_lldp_peer -->
<g id="edge26" class="edge">
<title>idrac&#45;&gt;no_lldp_peer</title>
<path fill="none" stroke="#6c7086" stroke-dasharray="5,2" d="M715.55,-82.33C723.12,-89.35 730.94,-96.86 738,-104.12 805.3,-173.37 878.26,-261.75 911.3,-302.58"/>
<polygon fill="#6c7086" stroke="#6c7086" points="908.51,-304.69 917.51,-310.27 913.95,-300.29 908.51,-304.69"/>
</g>
<!-- sw_switch_01_example_net -->
<g id="node23" class="node">
<title>sw_switch_01_example_net</title>
<path fill="#313244" stroke="none" d="M859,-959C859,-959 1001.75,-959 1001.75,-959 1007.75,-959 1013.75,-965 1013.75,-971 1013.75,-971 1013.75,-1011.25 1013.75,-1011.25 1013.75,-1017.25 1007.75,-1023.25 1001.75,-1023.25 1001.75,-1023.25 859,-1023.25 859,-1023.25 853,-1023.25 847,-1017.25 847,-1011.25 847,-1011.25 847,-971 847,-971 847,-965 853,-959 859,-959"/>
<text xml:space="preserve" text-anchor="start" x="858" y="-999.95" font-family="Helvetica,Arial,sans-serif" font-weight="bold" font-size="14.00" fill="#fab387">switch&#45;01.example.net</text>
<text xml:space="preserve" text-anchor="start" x="914.25" y="-970.8" font-family="Helvetica,Arial,sans-serif" font-size="11.00" fill="#a6adc8">Switch</text>
<path fill="none" stroke="#fab387" d="M859,-959C859,-959 1001.75,-959 1001.75,-959 1007.75,-959 1013.75,-965 1013.75,-971 1013.75,-971 1013.75,-1011.25 1013.75,-1011.25 1013.75,-1017.25 1007.75,-1023.25 1001.75,-1023.25 1001.75,-1023.25 859,-1023.25 859,-1023.25 853,-1023.25 847,-1017.25 847,-1011.25 847,-1011.25 847,-971 847,-971 847,-965 853,-959 859,-959"/>
</g>
<!-- swport_dev_collapsed_ipf01cly_lf01_ifname_xe_0_0_2&#45;&gt;sw_switch_01_example_net -->
<g id="edge27" class="edge">
<title>swport_dev_collapsed_ipf01cly_lf01_ifname_xe_0_0_2&#45;&gt;sw_switch_01_example_net</title>
<path fill="none" stroke="#585b70" d="M724.44,-1020.61C756.6,-1015.98 800.82,-1009.62 839.96,-1003.99"/>
<polygon fill="#585b70" stroke="#585b70" points="840.06,-1006.09 845.7,-1003.16 839.47,-1001.94 840.06,-1006.09"/>
</g>
<!-- swport_dev_collapsed_ipf01cly_lf01_ifname_xe_0_0_3&#45;&gt;sw_switch_01_example_net -->
<g id="edge28" class="edge">
<title>swport_dev_collapsed_ipf01cly_lf01_ifname_xe_0_0_3&#45;&gt;sw_switch_01_example_net</title>
<path fill="none" stroke="#585b70" d="M698.76,-844.6C735.82,-868.15 817.31,-919.92 872.8,-955.18"/>
<polygon fill="#585b70" stroke="#585b70" points="871.62,-956.92 877.81,-958.36 873.88,-953.37 871.62,-956.92"/>
</g>
<!-- swport_dev_collapsed_ipf01cly_lf01_ifname_et_0_0_38&#45;&gt;sw_switch_01_example_net -->
<g id="edge29" class="edge">
<title>swport_dev_collapsed_ipf01cly_lf01_ifname_et_0_0_38&#45;&gt;sw_switch_01_example_net</title>
<path fill="none" stroke="#585b70" d="M725.9,-965.11C757.93,-969.2 801.42,-974.76 839.97,-979.69"/>
<polygon fill="#585b70" stroke="#585b70" points="839.39,-981.74 845.61,-980.41 839.92,-977.57 839.39,-981.74"/>
</g>
<!-- swport_dev_collapsed_ipf01cly_lf01_ifname_et_0_0_39&#45;&gt;sw_switch_01_example_net -->
<g id="edge30" class="edge">
<title>swport_dev_collapsed_ipf01cly_lf01_ifname_et_0_0_39&#45;&gt;sw_switch_01_example_net</title>
<path fill="none" stroke="#585b70" d="M693.52,-1425.87C706.32,-1414.44 724.99,-1396.45 738,-1378.12 821.25,-1260.91 887.19,-1102.08 915.02,-1029.81"/>
<polygon fill="#585b70" stroke="#585b70" points="916.86,-1030.85 917.05,-1024.5 912.94,-1029.35 916.86,-1030.85"/>
</g>
<!-- sw_switch_02_example_net -->
<g id="node24" class="node">
<title>sw_switch_02_example_net</title>
<path fill="#313244" stroke="none" d="M859,-1274C859,-1274 1001.75,-1274 1001.75,-1274 1007.75,-1274 1013.75,-1280 1013.75,-1286 1013.75,-1286 1013.75,-1326.25 1013.75,-1326.25 1013.75,-1332.25 1007.75,-1338.25 1001.75,-1338.25 1001.75,-1338.25 859,-1338.25 859,-1338.25 853,-1338.25 847,-1332.25 847,-1326.25 847,-1326.25 847,-1286 847,-1286 847,-1280 853,-1274 859,-1274"/>
<text xml:space="preserve" text-anchor="start" x="858" y="-1314.95" font-family="Helvetica,Arial,sans-serif" font-weight="bold" font-size="14.00" fill="#fab387">switch&#45;02.example.net</text>
<text xml:space="preserve" text-anchor="start" x="914.25" y="-1285.8" font-family="Helvetica,Arial,sans-serif" font-size="11.00" fill="#a6adc8">Switch</text>
<path fill="none" stroke="#fab387" d="M859,-1274C859,-1274 1001.75,-1274 1001.75,-1274 1007.75,-1274 1013.75,-1280 1013.75,-1286 1013.75,-1286 1013.75,-1326.25 1013.75,-1326.25 1013.75,-1332.25 1007.75,-1338.25 1001.75,-1338.25 1001.75,-1338.25 859,-1338.25 859,-1338.25 853,-1338.25 847,-1332.25 847,-1326.25 847,-1326.25 847,-1286 847,-1286 847,-1280 853,-1274 859,-1274"/>
</g>
<!-- swport_dev_collapsed_ipf01cly_lf02_ifname_xe_0_0_2&#45;&gt;sw_switch_02_example_net -->
<g id="edge31" class="edge">
<title>swport_dev_collapsed_ipf01cly_lf02_ifname_xe_0_0_2&#45;&gt;sw_switch_02_example_net</title>
<path fill="none" stroke="#585b70" d="M724.44,-1337.24C756.6,-1332.36 800.82,-1325.65 839.96,-1319.7"/>
<polygon fill="#585b70" stroke="#585b70" points="840.09,-1321.81 845.71,-1318.83 839.46,-1317.65 840.09,-1321.81"/>
</g>
<!-- swport_dev_collapsed_ipf01cly_lf02_ifname_xe_0_0_3&#45;&gt;sw_switch_02_example_net -->
<g id="edge32" class="edge">
<title>swport_dev_collapsed_ipf01cly_lf02_ifname_xe_0_0_3&#45;&gt;sw_switch_02_example_net</title>
<path fill="none" stroke="#585b70" d="M709.31,-1214.67C742.83,-1228.6 798.39,-1251.69 845.3,-1271.18"/>
<polygon fill="#585b70" stroke="#585b70" points="844.41,-1273.09 850.75,-1273.45 846.02,-1269.21 844.41,-1273.09"/>
</g>
<!-- swport_dev_collapsed_ipf01cly_lf02_ifname_et_0_0_38&#45;&gt;sw_switch_02_example_net -->
<g id="edge33" class="edge">
<title>swport_dev_collapsed_ipf01cly_lf02_ifname_et_0_0_38&#45;&gt;sw_switch_02_example_net</title>
<path fill="none" stroke="#585b70" d="M725.9,-1276.85C757.93,-1281.46 801.42,-1287.72 839.97,-1293.26"/>
<polygon fill="#585b70" stroke="#585b70" points="839.37,-1295.3 845.61,-1294.08 839.97,-1291.14 839.37,-1295.3"/>
</g>
<!-- swport_dev_collapsed_ipf01cly_lf02_ifname_et_0_0_39&#45;&gt;sw_switch_02_example_net -->
<g id="edge34" class="edge">
<title>swport_dev_collapsed_ipf01cly_lf02_ifname_et_0_0_39&#45;&gt;sw_switch_02_example_net</title>
<path fill="none" stroke="#585b70" d="M691.2,-1550.73C727.4,-1513.55 836.09,-1401.92 893.29,-1343.19"/>
<polygon fill="#585b70" stroke="#585b70" points="894.58,-1344.87 897.26,-1339.1 891.57,-1341.94 894.58,-1344.87"/>
</g>
</g>
</svg>
