<?xml version="1.0" encoding="UTF-8" standalone="no"?>
<!DOCTYPE svg PUBLIC "-//W3C//DTD SVG 1.1//EN"
 "http://www.w3.org/Graphics/SVG/1.1/DTD/svg11.dtd">
<!-- Generated by graphviz version 14.0.0 (0)
 -->
<!-- Title: nic_xray Pages: 1 -->
<svg width="1419pt" height="375pt"
 viewBox="0.00 0.00 1419.00 375.00" xmlns="http://www.w3.org/2000/svg" xmlns:xlink="http://www.w3.org/1999/xlink">
<g id="graph0" class="graph" transform="scale(1 1) rotate(0) translate(36 339.25)">
<title>nic_xray</title>
<polygon fill="#1e1e2e" stroke="none" points="-36,36 -36,-339.25 1382.75,-339.25 1382.75,36 -36,36"/>
<text xml:space="preserve" text-anchor="start" x="1130.25" y="-14.95" font-family="Helvetica,Arial,sans-serif" font-size="9.00" fill="#6c7086">Generated by nic&#45;xray v2.10.3 — © 2026 Ciro Iriarte</text>
<text xml:space="preserve" text-anchor="start" x="1177.12" y="-5.2" font-family="Helvetica,Arial,sans-serif" font-size="9.00" fill="#6c7086">2026&#45;05&#45;19 15:31:38 &#45;03:00</text>
<!-- server -->
<g id="node1" class="node">
<title>server</title>
<polygon fill="#313244" stroke="none" points="0,-64.75 0,-179 181.75,-179 181.75,-64.75 0,-64.75"/>
<text xml:space="preserve" text-anchor="start" x="56.38" y="-155.7" font-family="Helvetica,Arial,sans-serif" font-weight="bold" font-size="14.00" fill="#cba6f7">bigiron.lan</text>
<text xml:space="preserve" text-anchor="start" x="11" y="-128.45" font-family="Helvetica,Arial,sans-serif" font-size="9.00" fill="#a6adc8">Intel Corporation SandyBridge Platform</text>
<text xml:space="preserve" text-anchor="start" x="83.38" y="-102.7" font-family="Helvetica,Arial,sans-serif" font-size="9.00" fill="#a6adc8">[00]</text>
<text xml:space="preserve" text-anchor="start" x="31.62" y="-76.95" font-family="Helvetica,Arial,sans-serif" font-size="9.00" fill="#a6adc8">Debian GNU/Linux 13 (trixie)</text>
<polygon fill="none" stroke="#585b70" points="0,-64.75 0,-179 181.75,-179 181.75,-64.75 0,-64.75"/>
</g>
<!-- ens6f0 -->
<g id="node2" class="node">
<title>ens6f0</title>
<polygon fill="#313244" stroke="none" points="290.75,-162.5 290.75,-303.25 489.25,-303.25 489.25,-162.5 290.75,-162.5"/>
<text xml:space="preserve" text-anchor="start" x="372.75" y="-286.8" font-family="Helvetica,Arial,sans-serif" font-weight="bold" font-size="11.00" fill="#cdd6f4">ens6f0</text>
<text xml:space="preserve" text-anchor="start" x="353.62" y="-266.45" font-family="Helvetica,Arial,sans-serif" font-size="9.00" fill="#a6adc8">14:02:ec:83:1c:e0</text>
<text xml:space="preserve" text-anchor="start" x="367.5" y="-246.7" font-family="Helvetica,Arial,sans-serif" font-size="9.00" fill="#a6adc8">MTU: 9216</text>
<text xml:space="preserve" text-anchor="start" x="297.75" y="-227.9" font-family="Helvetica,Arial,sans-serif" font-size="8.00" fill="#a6adc8">82599ES 10&#45;Gigabit SFI/SFP+ Network Connection</text>
<text xml:space="preserve" text-anchor="start" x="369.75" y="-209.65" font-family="Helvetica,Arial,sans-serif" font-size="8.00" fill="#a6adc8">0000:05:00</text>
<text xml:space="preserve" text-anchor="start" x="364.88" y="-191.4" font-family="Helvetica,Arial,sans-serif" font-size="8.00" fill="#a6adc8">10GBASE&#45;SR</text>
<text xml:space="preserve" text-anchor="start" x="339.38" y="-171.3" font-family="Helvetica,Arial,sans-serif" font-size="8.00" fill="#a6e3a1">Tx:&#45;2.30 dBm</text>
<text xml:space="preserve" text-anchor="start" x="388.12" y="-171.3" font-family="Helvetica,Arial,sans-serif" font-size="11.00" fill="#cdd6f4"> </text>
<text xml:space="preserve" text-anchor="start" x="391.12" y="-171.3" font-family="Helvetica,Arial,sans-serif" font-size="8.00" fill="#a6e3a1">Rx:&#45;3.25 dBm</text>
<polygon fill="none" stroke="#a6e3a1" points="290.75,-162.5 290.75,-303.25 489.25,-303.25 489.25,-162.5 290.75,-162.5"/>
</g>
<!-- server&#45;&gt;ens6f0 -->
<g id="edge1" class="edge">
<title>server&#45;&gt;ens6f0</title>
<path fill="none" stroke="#585b70" d="M181.43,-155.33C213.78,-167.42 250.6,-181.17 284.16,-193.71"/>
<polygon fill="#585b70" stroke="#585b70" points="283.05,-195.53 289.4,-195.67 284.52,-191.6 283.05,-195.53"/>
</g>
<!-- ens6f1 -->
<g id="node3" class="node">
<title>ens6f1</title>
<polygon fill="#313244" stroke="none" points="546,-27.5 546,-168.25 744.5,-168.25 744.5,-27.5 546,-27.5"/>
<text xml:space="preserve" text-anchor="start" x="628" y="-151.8" font-family="Helvetica,Arial,sans-serif" font-weight="bold" font-size="11.00" fill="#cdd6f4">ens6f1</text>
<text xml:space="preserve" text-anchor="start" x="608.88" y="-131.45" font-family="Helvetica,Arial,sans-serif" font-size="9.00" fill="#a6adc8">14:02:ec:83:1c:e1</text>
<text xml:space="preserve" text-anchor="start" x="622.75" y="-111.7" font-family="Helvetica,Arial,sans-serif" font-size="9.00" fill="#a6adc8">MTU: 1500</text>
<text xml:space="preserve" text-anchor="start" x="553" y="-92.9" font-family="Helvetica,Arial,sans-serif" font-size="8.00" fill="#a6adc8">82599ES 10&#45;Gigabit SFI/SFP+ Network Connection</text>
<text xml:space="preserve" text-anchor="start" x="625" y="-74.65" font-family="Helvetica,Arial,sans-serif" font-size="8.00" fill="#a6adc8">0000:05:00</text>
<text xml:space="preserve" text-anchor="start" x="620.12" y="-56.4" font-family="Helvetica,Arial,sans-serif" font-size="8.00" fill="#a6adc8">10GBASE&#45;SR</text>
<text xml:space="preserve" text-anchor="start" x="590.12" y="-36.3" font-family="Helvetica,Arial,sans-serif" font-size="8.00" fill="#f38ba8">Tx:&#45;40.00 dBm</text>
<text xml:space="preserve" text-anchor="start" x="643.38" y="-36.3" font-family="Helvetica,Arial,sans-serif" font-size="11.00" fill="#cdd6f4"> </text>
<text xml:space="preserve" text-anchor="start" x="646.38" y="-36.3" font-family="Helvetica,Arial,sans-serif" font-size="8.00" fill="#f38ba8">Rx:&#45;40.00 dBm</text>
<polygon fill="none" stroke="#f38ba8" points="546,-27.5 546,-168.25 744.5,-168.25 744.5,-27.5 546,-27.5"/>
</g>
<!-- server&#45;&gt;ens6f1 -->
<g id="edge2" class="edge">
<title>server&#45;&gt;ens6f1</title>
<path fill="none" stroke="#585b70" d="M181.55,-117.98C279.26,-113.73 435.44,-106.95 538.92,-102.45"/>
<polygon fill="#585b70" stroke="#585b70" points="538.87,-104.56 544.77,-102.2 538.68,-100.36 538.87,-104.56"/>
</g>
<!-- swport_sw01_ifname_gigabitethernet0_1_1 -->
<g id="node4" class="node">
<title>swport_sw01_ifname_gigabitethernet0_1_1</title>
<polygon fill="#313244" stroke="none" points="801.25,-210.38 801.25,-255.38 957,-255.38 957,-210.38 801.25,-210.38"/>
<text xml:space="preserve" text-anchor="start" x="808.25" y="-238.93" font-family="Helvetica,Arial,sans-serif" font-weight="bold" font-size="11.00" fill="#cdd6f4">ifname gigabitethernet0/1/1</text>
<text xml:space="preserve" text-anchor="start" x="862.62" y="-218.57" font-family="Helvetica,Arial,sans-serif" font-size="9.00" fill="#a6adc8">GE0/1/1</text>
<polygon fill="none" stroke="#fab387" points="801.25,-210.38 801.25,-255.38 957,-255.38 957,-210.38 801.25,-210.38"/>
</g>
<!-- ens6f0&#45;&gt;swport_sw01_ifname_gigabitethernet0_1_1 -->
<g id="edge3" class="edge">
<title>ens6f0&#45;&gt;swport_sw01_ifname_gigabitethernet0_1_1</title>
<path fill="none" stroke="#a6e3a1" stroke-width="2.5" d="M488.99,-232.88C576.23,-232.88 702.84,-232.88 787.7,-232.88"/>
<polygon fill="#a6e3a1" stroke="#a6e3a1" stroke-width="2.5" points="787.69,-236.38 797.69,-232.88 787.69,-229.38 787.69,-236.38"/>
<text xml:space="preserve" text-anchor="start" x="543.25" y="-244.38" font-family="Helvetica,Arial,sans-serif" font-size="10.00" fill="#a6adc8">VLAN 98;99;100;101;102;108;200;301;302;304</text>
<text xml:space="preserve" text-anchor="start" x="630.25" y="-233.88" font-family="Helvetica,Arial,sans-serif" font-size="10.00" fill="#a6adc8">10GbE</text>
</g>
<!-- no_lldp_peer -->
<g id="node6" class="node">
<title>no_lldp_peer</title>
<path fill="#313244" stroke="none" d="M1173.67,-84.12C1173.67,-84.12 1239.08,-84.12 1239.08,-84.12 1243.67,-84.12 1248.25,-88.71 1248.25,-93.29 1248.25,-93.29 1248.25,-102.46 1248.25,-102.46 1248.25,-107.04 1243.67,-111.62 1239.08,-111.62 1239.08,-111.62 1173.67,-111.62 1173.67,-111.62 1169.08,-111.62 1164.5,-107.04 1164.5,-102.46 1164.5,-102.46 1164.5,-93.29 1164.5,-93.29 1164.5,-88.71 1169.08,-84.12 1173.67,-84.12"/>
<text xml:space="preserve" text-anchor="start" x="1171.5" y="-95.17" font-family="Helvetica,Arial,sans-serif" font-style="italic" font-size="11.00" fill="#6c7086">No LLDP peer</text>
<path fill="none" stroke="#6c7086" d="M1173.67,-84.12C1173.67,-84.12 1239.08,-84.12 1239.08,-84.12 1243.67,-84.12 1248.25,-88.71 1248.25,-93.29 1248.25,-93.29 1248.25,-102.46 1248.25,-102.46 1248.25,-107.04 1243.67,-111.62 1239.08,-111.62 1239.08,-111.62 1173.67,-111.62 1173.67,-111.62 1169.08,-111.62 1164.5,-107.04 1164.5,-102.46 1164.5,-102.46 1164.5,-93.29 1164.5,-93.29 1164.5,-88.71 1169.08,-84.12 1173.67,-84.12"/>
</g>
<!-- ens6f1&#45;&gt;no_lldp_peer -->
<g id="edge4" class="edge">
<title>ens6f1&#45;&gt;no_lldp_peer</title>
<path fill="none" stroke="#6c7086" stroke-dasharray="5,2" d="M744.28,-97.88C863.37,-97.88 1059.88,-97.88 1153.14,-97.88"/>
<polygon fill="#6c7086" stroke="#6c7086" points="1153.01,-101.38 1163.01,-97.88 1153.01,-94.38 1153.01,-101.38"/>
</g>
<!-- sw_sw01 -->
<g id="node5" class="node">
<title>sw_sw01</title>
<path fill="#313244" stroke="none" d="M1078,-201.5C1078,-201.5 1334.75,-201.5 1334.75,-201.5 1340.75,-201.5 1346.75,-207.5 1346.75,-213.5 1346.75,-213.5 1346.75,-252.25 1346.75,-252.25 1346.75,-258.25 1340.75,-264.25 1334.75,-264.25 1334.75,-264.25 1078,-264.25 1078,-264.25 1072,-264.25 1066,-258.25 1066,-252.25 1066,-252.25 1066,-213.5 1066,-213.5 1066,-207.5 1072,-201.5 1078,-201.5"/>
<text xml:space="preserve" text-anchor="start" x="1189.5" y="-240.95" font-family="Helvetica,Arial,sans-serif" font-weight="bold" font-size="14.00" fill="#fab387">sw01</text>
<text xml:space="preserve" text-anchor="start" x="1077" y="-213.7" font-family="Helvetica,Arial,sans-serif" font-size="9.00" fill="#a6adc8">ArubaOS (MODEL: ArubaS2500&#45;24P), Version 7.4.1.12 (72393)</text>
<path fill="none" stroke="#fab387" d="M1078,-201.5C1078,-201.5 1334.75,-201.5 1334.75,-201.5 1340.75,-201.5 1346.75,-207.5 1346.75,-213.5 1346.75,-213.5 1346.75,-252.25 1346.75,-252.25 1346.75,-258.25 1340.75,-264.25 1334.75,-264.25 1334.75,-264.25 1078,-264.25 1078,-264.25 1072,-264.25 1066,-258.25 1066,-252.25 1066,-252.25 1066,-213.5 1066,-213.5 1066,-207.5 1072,-201.5 1078,-201.5"/>
</g>
<!-- swport_sw01_ifname_gigabitethernet0_1_1&#45;&gt;sw_sw01 -->
<g id="edge5" class="edge">
<title>swport_sw01_ifname_gigabitethernet0_1_1&#45;&gt;sw_sw01</title>
<path fill="none" stroke="#585b70" d="M956.79,-232.88C987.3,-232.88 1023.47,-232.88 1058.65,-232.88"/>
<polygon fill="#585b70" stroke="#585b70" points="1058.62,-234.98 1064.62,-232.88 1058.62,-230.78 1058.62,-234.98"/>
</g>
</g>
</svg>
