<?xml version="1.0" encoding="UTF-8" standalone="no"?>
<!DOCTYPE svg PUBLIC "-//W3C//DTD SVG 1.1//EN"
 "http://www.w3.org/Graphics/SVG/1.1/DTD/svg11.dtd">
<!-- Generated by graphviz version 14.0.0 (0)
 -->
<!-- Title: nic_xray Pages: 1 -->
<svg width="1061pt" height="1419pt"
 viewBox="0.00 0.00 1061.00 1419.00" xmlns="http://www.w3.org/2000/svg" xmlns:xlink="http://www.w3.org/1999/xlink">
<g id="graph0" class="graph" transform="scale(1 1) rotate(0) translate(36 1383.38)">
<title>nic_xray</title>
<polygon fill="#1e1e2e" stroke="none" points="-36,36 -36,-1383.38 1025.25,-1383.38 1025.25,36 -36,36"/>
<g id="clust1" class="cluster">
<title>cluster_bond_0</title>
<polygon fill="#1e1e2e" fill-opacity="0.800000" stroke="#89b4fa" stroke-width="1.5" stroke-dasharray="5,2" points="266.25,-913.38 266.25,-1122.38 397,-1122.38 397,-913.38 266.25,-913.38"/>
<text xml:space="preserve" text-anchor="start" x="274.25" y="-1107.97" font-family="Helvetica,Arial,sans-serif" font-weight="bold" font-size="12.00" fill="#89b4fa">bond0</text>
<text xml:space="preserve" text-anchor="start" x="311" y="-1107.97" font-family="Helvetica,Arial,sans-serif" font-size="12.00" fill="#89b4fa"> (LACP Active)</text>
</g>
<g id="clust2" class="cluster">
<title>cluster_bond_1</title>
<polygon fill="#1e1e2e" fill-opacity="0.800000" stroke="#f9e2af" stroke-width="1.5" stroke-dasharray="5,2" points="266.25,-479.38 266.25,-688.38 397,-688.38 397,-479.38 266.25,-479.38"/>
<text xml:space="preserve" text-anchor="start" x="274.25" y="-673.98" font-family="Helvetica,Arial,sans-serif" font-weight="bold" font-size="12.00" fill="#f9e2af">bond1</text>
<text xml:space="preserve" text-anchor="start" x="311" y="-673.98" font-family="Helvetica,Arial,sans-serif" font-size="12.00" fill="#f9e2af"> (LACP Active)</text>
</g>
<g id="clust3" class="cluster">
<title>cluster_bond_2</title>
<polygon fill="#1e1e2e" fill-opacity="0.800000" stroke="#94e2d5" stroke-width="1.5" stroke-dasharray="5,2" points="266.25,-696.38 266.25,-905.38 397,-905.38 397,-696.38 266.25,-696.38"/>
<text xml:space="preserve" text-anchor="start" x="274.25" y="-890.98" font-family="Helvetica,Arial,sans-serif" font-weight="bold" font-size="12.00" fill="#94e2d5">bond2</text>
<text xml:space="preserve" text-anchor="start" x="311" y="-890.98" font-family="Helvetica,Arial,sans-serif" font-size="12.00" fill="#94e2d5"> (LACP Active)</text>
</g>
<g id="clust4" class="cluster">
<title>cluster_bond_3</title>
<polygon fill="#1e1e2e" fill-opacity="0.800000" stroke="#f5c2e7" stroke-width="1.5" stroke-dasharray="5,2" points="266.25,-1130.38 266.25,-1339.38 397,-1339.38 397,-1130.38 266.25,-1130.38"/>
<text xml:space="preserve" text-anchor="start" x="274.25" y="-1324.97" font-family="Helvetica,Arial,sans-serif" font-weight="bold" font-size="12.00" fill="#f5c2e7">bond3</text>
<text xml:space="preserve" text-anchor="start" x="311" y="-1324.97" font-family="Helvetica,Arial,sans-serif" font-size="12.00" fill="#f5c2e7"> (LACP Active)</text>
</g>
<!-- server -->
<g id="node1" class="node">
<title>server</title>
<polygon fill="#313244" stroke="none" points="0,-595.25 0,-659.5 165.25,-659.5 165.25,-595.25 0,-595.25"/>
<text xml:space="preserve" text-anchor="start" x="11" y="-636.2" font-family="Helvetica,Arial,sans-serif" font-weight="bold" font-size="14.00" fill="#cba6f7">server&#45;01.example.net</text>
<text xml:space="preserve" text-anchor="start" x="66.5" y="-607.05" font-family="Helvetica,Arial,sans-serif" font-size="11.00" fill="#a6adc8">Server</text>
<polygon fill="none" stroke="#585b70" points="0,-595.25 0,-659.5 165.25,-659.5 165.25,-595.25 0,-595.25"/>
</g>
<!-- eno1np0 -->
<g id="node2" class="node">
<title>eno1np0</title>
<polygon fill="#313244" stroke="none" points="283.25,-921 283.25,-985.75 379,-985.75 379,-921 283.25,-921"/>
<text xml:space="preserve" text-anchor="start" x="308.62" y="-969.3" font-family="Helvetica,Arial,sans-serif" font-weight="bold" font-size="11.00" fill="#cdd6f4">eno1np0</text>
<text xml:space="preserve" text-anchor="start" x="290.25" y="-948.95" font-family="Helvetica,Arial,sans-serif" font-size="9.00" fill="#a6adc8">XX:XX:XX:XX:XX:01</text>
<text xml:space="preserve" text-anchor="start" x="308.62" y="-929.2" font-family="Helvetica,Arial,sans-serif" font-size="9.00" fill="#a6adc8">MTU: 9100</text>
<polygon fill="none" stroke="#a6e3a1" points="283.25,-921 283.25,-985.75 379,-985.75 379,-921 283.25,-921"/>
</g>
<!-- server&#45;&gt;eno1np0 -->
<g id="edge1" class="edge">
<title>server&#45;&gt;eno1np0</title>
<path fill="none" stroke="#585b70" d="M97.7,-659.3C124.06,-716.31 185.58,-836.97 266.25,-915.38 269.73,-918.76 273.57,-921.97 277.58,-924.98"/>
<polygon fill="#585b70" stroke="#585b70" points="276.23,-926.6 282.34,-928.38 278.67,-923.18 276.23,-926.6"/>
</g>
<!-- ens5f0np0 -->
<g id="node3" class="node">
<title>ens5f0np0</title>
<polygon fill="#313244" stroke="none" points="283.25,-1029 283.25,-1093.75 379,-1093.75 379,-1029 283.25,-1029"/>
<text xml:space="preserve" text-anchor="start" x="304.12" y="-1077.3" font-family="Helvetica,Arial,sans-serif" font-weight="bold" font-size="11.00" fill="#cdd6f4">ens5f0np0</text>
<text xml:space="preserve" text-anchor="start" x="290.25" y="-1056.95" font-family="Helvetica,Arial,sans-serif" font-size="9.00" fill="#a6adc8">XX:XX:XX:XX:XX:07</text>
<text xml:space="preserve" text-anchor="start" x="308.62" y="-1037.2" font-family="Helvetica,Arial,sans-serif" font-size="9.00" fill="#a6adc8">MTU: 9100</text>
<polygon fill="none" stroke="#a6e3a1" points="283.25,-1029 283.25,-1093.75 379,-1093.75 379,-1029 283.25,-1029"/>
</g>
<!-- server&#45;&gt;ens5f0np0 -->
<g id="edge7" class="edge">
<title>server&#45;&gt;ens5f0np0</title>
<path fill="none" stroke="#585b70" d="M93.84,-659.4C116.82,-728.12 177.57,-892.75 266.25,-1007.38 270.81,-1013.27 276.1,-1018.97 281.66,-1024.31"/>
<polygon fill="#585b70" stroke="#585b70" points="279.89,-1025.53 285.71,-1028.09 282.75,-1022.46 279.89,-1025.53"/>
</g>
<!-- eno2np1 -->
<g id="node4" class="node">
<title>eno2np1</title>
<polygon fill="#313244" stroke="none" points="283.25,-487 283.25,-551.75 379,-551.75 379,-487 283.25,-487"/>
<text xml:space="preserve" text-anchor="start" x="308.62" y="-535.3" font-family="Helvetica,Arial,sans-serif" font-weight="bold" font-size="11.00" fill="#cdd6f4">eno2np1</text>
<text xml:space="preserve" text-anchor="start" x="290.25" y="-514.95" font-family="Helvetica,Arial,sans-serif" font-size="9.00" fill="#a6adc8">XX:XX:XX:XX:XX:02</text>
<text xml:space="preserve" text-anchor="start" x="308.62" y="-495.2" font-family="Helvetica,Arial,sans-serif" font-size="9.00" fill="#a6adc8">MTU: 9100</text>
<polygon fill="none" stroke="#a6e3a1" points="283.25,-487 283.25,-551.75 379,-551.75 379,-487 283.25,-487"/>
</g>
<!-- server&#45;&gt;eno2np1 -->
<g id="edge2" class="edge">
<title>server&#45;&gt;eno2np1</title>
<path fill="none" stroke="#585b70" d="M156.92,-595.26C195.37,-578.42 241.63,-558.15 276.66,-542.8"/>
<polygon fill="#585b70" stroke="#585b70" points="277.48,-544.74 282.13,-540.4 275.79,-540.89 277.48,-544.74"/>
</g>
<!-- ens5f1np1 -->
<g id="node5" class="node">
<title>ens5f1np1</title>
<polygon fill="#313244" stroke="none" points="283.25,-595 283.25,-659.75 379,-659.75 379,-595 283.25,-595"/>
<text xml:space="preserve" text-anchor="start" x="304.12" y="-643.3" font-family="Helvetica,Arial,sans-serif" font-weight="bold" font-size="11.00" fill="#cdd6f4">ens5f1np1</text>
<text xml:space="preserve" text-anchor="start" x="290.25" y="-622.95" font-family="Helvetica,Arial,sans-serif" font-size="9.00" fill="#a6adc8">XX:XX:XX:XX:XX:08</text>
<text xml:space="preserve" text-anchor="start" x="308.62" y="-603.2" font-family="Helvetica,Arial,sans-serif" font-size="9.00" fill="#a6adc8">MTU: 9100</text>
<polygon fill="none" stroke="#a6e3a1" points="283.25,-595 283.25,-659.75 379,-659.75 379,-595 283.25,-595"/>
</g>
<!-- server&#45;&gt;ens5f1np1 -->
<g id="edge8" class="edge">
<title>server&#45;&gt;ens5f1np1</title>
<path fill="none" stroke="#585b70" d="M165.02,-627.38C201.53,-627.38 243.59,-627.38 276.12,-627.38"/>
<polygon fill="#585b70" stroke="#585b70" points="275.82,-629.48 281.82,-627.38 275.82,-625.28 275.82,-629.48"/>
</g>
<!-- ens3f0np0 -->
<g id="node6" class="node">
<title>ens3f0np0</title>
<polygon fill="#313244" stroke="none" points="283.25,-704 283.25,-768.75 379,-768.75 379,-704 283.25,-704"/>
<text xml:space="preserve" text-anchor="start" x="304.12" y="-752.3" font-family="Helvetica,Arial,sans-serif" font-weight="bold" font-size="11.00" fill="#cdd6f4">ens3f0np0</text>
<text xml:space="preserve" text-anchor="start" x="290.25" y="-731.95" font-family="Helvetica,Arial,sans-serif" font-size="9.00" fill="#a6adc8">XX:XX:XX:XX:XX:05</text>
<text xml:space="preserve" text-anchor="start" x="308.62" y="-712.2" font-family="Helvetica,Arial,sans-serif" font-size="9.00" fill="#a6adc8">MTU: 9100</text>
<polygon fill="none" stroke="#a6e3a1" points="283.25,-704 283.25,-768.75 379,-768.75 379,-704 283.25,-704"/>
</g>
<!-- server&#45;&gt;ens3f0np0 -->
<g id="edge5" class="edge">
<title>server&#45;&gt;ens3f0np0</title>
<path fill="none" stroke="#585b70" d="M156.25,-659.49C194.89,-676.57 241.56,-697.21 276.82,-712.8"/>
<polygon fill="#585b70" stroke="#585b70" points="275.54,-714.53 281.88,-715.04 277.24,-710.69 275.54,-714.53"/>
</g>
<!-- ens8f0np0 -->
<g id="node7" class="node">
<title>ens8f0np0</title>
<polygon fill="#313244" stroke="none" points="283.25,-812 283.25,-876.75 379,-876.75 379,-812 283.25,-812"/>
<text xml:space="preserve" text-anchor="start" x="304.12" y="-860.3" font-family="Helvetica,Arial,sans-serif" font-weight="bold" font-size="11.00" fill="#cdd6f4">ens8f0np0</text>
<text xml:space="preserve" text-anchor="start" x="290.25" y="-839.95" font-family="Helvetica,Arial,sans-serif" font-size="9.00" fill="#a6adc8">XX:XX:XX:XX:XX:0b</text>
<text xml:space="preserve" text-anchor="start" x="308.62" y="-820.2" font-family="Helvetica,Arial,sans-serif" font-size="9.00" fill="#a6adc8">MTU: 9100</text>
<polygon fill="none" stroke="#a6e3a1" points="283.25,-812 283.25,-876.75 379,-876.75 379,-812 283.25,-812"/>
</g>
<!-- server&#45;&gt;ens8f0np0 -->
<g id="edge11" class="edge">
<title>server&#45;&gt;ens8f0np0</title>
<path fill="none" stroke="#585b70" d="M118.73,-659.21C155.32,-692.27 214.44,-745.36 266.25,-790.38 272.67,-795.95 279.5,-801.81 286.22,-807.52"/>
<polygon fill="#585b70" stroke="#585b70" points="284.73,-809.01 290.66,-811.3 287.45,-805.81 284.73,-809.01"/>
</g>
<!-- ens3f1np1 -->
<g id="node8" class="node">
<title>ens3f1np1</title>
<polygon fill="#313244" stroke="none" points="283.25,-1138 283.25,-1202.75 379,-1202.75 379,-1138 283.25,-1138"/>
<text xml:space="preserve" text-anchor="start" x="304.12" y="-1186.3" font-family="Helvetica,Arial,sans-serif" font-weight="bold" font-size="11.00" fill="#cdd6f4">ens3f1np1</text>
<text xml:space="preserve" text-anchor="start" x="290.25" y="-1165.95" font-family="Helvetica,Arial,sans-serif" font-size="9.00" fill="#a6adc8">XX:XX:XX:XX:XX:06</text>
<text xml:space="preserve" text-anchor="start" x="308.62" y="-1146.2" font-family="Helvetica,Arial,sans-serif" font-size="9.00" fill="#a6adc8">MTU: 9100</text>
<polygon fill="none" stroke="#a6e3a1" points="283.25,-1138 283.25,-1202.75 379,-1202.75 379,-1138 283.25,-1138"/>
</g>
<!-- server&#45;&gt;ens3f1np1 -->
<g id="edge6" class="edge">
<title>server&#45;&gt;ens3f1np1</title>
<path fill="none" stroke="#585b70" d="M87.63,-659.45C99.79,-745.24 143.32,-983.6 266.25,-1132.38 269.58,-1136.41 273.46,-1140.12 277.64,-1143.51"/>
<polygon fill="#585b70" stroke="#585b70" points="276.22,-1145.07 282.27,-1147.01 278.75,-1141.72 276.22,-1145.07"/>
</g>
<!-- ens8f1np1 -->
<g id="node9" class="node">
<title>ens8f1np1</title>
<polygon fill="#313244" stroke="none" points="283.62,-1246 283.62,-1310.75 378.62,-1310.75 378.62,-1246 283.62,-1246"/>
<text xml:space="preserve" text-anchor="start" x="304.12" y="-1294.3" font-family="Helvetica,Arial,sans-serif" font-weight="bold" font-size="11.00" fill="#cdd6f4">ens8f1np1</text>
<text xml:space="preserve" text-anchor="start" x="290.62" y="-1273.95" font-family="Helvetica,Arial,sans-serif" font-size="9.00" fill="#a6adc8">XX:XX:XX:XX:XX:0c</text>
<text xml:space="preserve" text-anchor="start" x="308.62" y="-1254.2" font-family="Helvetica,Arial,sans-serif" font-size="9.00" fill="#a6adc8">MTU: 9100</text>
<polygon fill="none" stroke="#a6e3a1" points="283.62,-1246 283.62,-1310.75 378.62,-1310.75 378.62,-1246 283.62,-1246"/>
</g>
<!-- server&#45;&gt;ens8f1np1 -->
<g id="edge12" class="edge">
<title>server&#45;&gt;ens8f1np1</title>
<path fill="none" stroke="#585b70" d="M91.96,-659.25C112.07,-735.5 165.6,-934.21 219.25,-1097.38 238.05,-1154.55 231.69,-1175.1 266.25,-1224.38 270.38,-1230.26 275.3,-1235.89 280.55,-1241.14"/>
<polygon fill="#585b70" stroke="#585b70" points="279.01,-1242.58 284.8,-1245.21 281.92,-1239.54 279.01,-1242.58"/>
</g>
<!-- eno3np2 -->
<g id="node10" class="node">
<title>eno3np2</title>
<polygon fill="#313244" stroke="none" points="617.75,0 617.75,-64.75 713.5,-64.75 713.5,0 617.75,0"/>
<text xml:space="preserve" text-anchor="start" x="643.12" y="-48.3" font-family="Helvetica,Arial,sans-serif" font-weight="bold" font-size="11.00" fill="#cdd6f4">eno3np2</text>
<text xml:space="preserve" text-anchor="start" x="624.75" y="-27.95" font-family="Helvetica,Arial,sans-serif" font-size="9.00" fill="#a6adc8">XX:XX:XX:XX:XX:03</text>
<text xml:space="preserve" text-anchor="start" x="643.12" y="-8.2" font-family="Helvetica,Arial,sans-serif" font-size="9.00" fill="#a6adc8">MTU: 1500</text>
<polygon fill="none" stroke="#f38ba8" points="617.75,0 617.75,-64.75 713.5,-64.75 713.5,0 617.75,0"/>
</g>
<!-- server&#45;&gt;eno3np2 -->
<g id="edge3" class="edge">
<title>server&#45;&gt;eno3np2</title>
<path fill="none" stroke="#585b70" d="M89.31,-595.33C104.49,-518.64 152.77,-322.42 266.25,-208.38 364.19,-109.94 526.63,-62.16 610.62,-43.02"/>
<polygon fill="#585b70" stroke="#585b70" points="610.89,-45.11 616.28,-41.75 609.97,-41.01 610.89,-45.11"/>
</g>
<!-- eno4np3 -->
<g id="node11" class="node">
<title>eno4np3</title>
<polygon fill="#313244" stroke="none" points="617.75,-432 617.75,-496.75 713.5,-496.75 713.5,-432 617.75,-432"/>
<text xml:space="preserve" text-anchor="start" x="643.12" y="-480.3" font-family="Helvetica,Arial,sans-serif" font-weight="bold" font-size="11.00" fill="#cdd6f4">eno4np3</text>
<text xml:space="preserve" text-anchor="start" x="624.75" y="-459.95" font-family="Helvetica,Arial,sans-serif" font-size="9.00" fill="#a6adc8">XX:XX:XX:XX:XX:04</text>
<text xml:space="preserve" text-anchor="start" x="643.12" y="-440.2" font-family="Helvetica,Arial,sans-serif" font-size="9.00" fill="#a6adc8">MTU: 1500</text>
<polygon fill="none" stroke="#f38ba8" points="617.75,-432 617.75,-496.75 713.5,-496.75 713.5,-432 617.75,-432"/>
</g>
<!-- server&#45;&gt;eno4np3 -->
<g id="edge4" class="edge">
<title>server&#45;&gt;eno4np3</title>
<path fill="none" stroke="#585b70" d="M108.21,-595.44C139.91,-557.13 199.03,-494.9 266.25,-469.38 382.45,-425.25 531.82,-440.61 610.53,-453.69"/>
<polygon fill="#585b70" stroke="#585b70" points="610.16,-455.75 616.43,-454.69 610.86,-451.61 610.16,-455.75"/>
</g>
<!-- ens5f2np2 -->
<g id="node12" class="node">
<title>ens5f2np2</title>
<polygon fill="#313244" stroke="none" points="617.75,-324 617.75,-388.75 713.5,-388.75 713.5,-324 617.75,-324"/>
<text xml:space="preserve" text-anchor="start" x="638.62" y="-372.3" font-family="Helvetica,Arial,sans-serif" font-weight="bold" font-size="11.00" fill="#cdd6f4">ens5f2np2</text>
<text xml:space="preserve" text-anchor="start" x="624.75" y="-351.95" font-family="Helvetica,Arial,sans-serif" font-size="9.00" fill="#a6adc8">XX:XX:XX:XX:XX:09</text>
<text xml:space="preserve" text-anchor="start" x="643.12" y="-332.2" font-family="Helvetica,Arial,sans-serif" font-size="9.00" fill="#a6adc8">MTU: 1500</text>
<polygon fill="none" stroke="#f38ba8" points="617.75,-324 617.75,-388.75 713.5,-388.75 713.5,-324 617.75,-324"/>
</g>
<!-- server&#45;&gt;ens5f2np2 -->
<g id="edge9" class="edge">
<title>server&#45;&gt;ens5f2np2</title>
<path fill="none" stroke="#585b70" d="M103.76,-595.56C133.55,-551.36 193.72,-472.31 266.25,-432.38 377.91,-370.89 530.87,-358.36 610.87,-356.29"/>
<polygon fill="#585b70" stroke="#585b70" points="610.45,-358.4 616.4,-356.17 610.36,-354.2 610.45,-358.4"/>
</g>
<!-- ens5f3np3 -->
<g id="node13" class="node">
<title>ens5f3np3</title>
<polygon fill="#313244" stroke="none" points="617.75,-216 617.75,-280.75 713.5,-280.75 713.5,-216 617.75,-216"/>
<text xml:space="preserve" text-anchor="start" x="638.62" y="-264.3" font-family="Helvetica,Arial,sans-serif" font-weight="bold" font-size="11.00" fill="#cdd6f4">ens5f3np3</text>
<text xml:space="preserve" text-anchor="start" x="624.75" y="-243.95" font-family="Helvetica,Arial,sans-serif" font-size="9.00" fill="#a6adc8">XX:XX:XX:XX:XX:0a</text>
<text xml:space="preserve" text-anchor="start" x="643.12" y="-224.2" font-family="Helvetica,Arial,sans-serif" font-size="9.00" fill="#a6adc8">MTU: 1500</text>
<polygon fill="none" stroke="#f38ba8" points="617.75,-216 617.75,-280.75 713.5,-280.75 713.5,-216 617.75,-216"/>
</g>
<!-- server&#45;&gt;ens5f3np3 -->
<g id="edge10" class="edge">
<title>server&#45;&gt;ens5f3np3</title>
<path fill="none" stroke="#585b70" d="M98.17,-595.51C124.23,-541.94 183.94,-433.88 266.25,-374.38 373.25,-297.03 529.47,-265.97 610.84,-254.48"/>
<polygon fill="#585b70" stroke="#585b70" points="610.84,-256.6 616.5,-253.7 610.27,-252.44 610.84,-256.6"/>
</g>
<!-- idrac -->
<g id="node14" class="node">
<title>idrac</title>
<polygon fill="#313244" stroke="none" points="617.75,-108 617.75,-172.75 713.5,-172.75 713.5,-108 617.75,-108"/>
<text xml:space="preserve" text-anchor="start" x="652.5" y="-156.3" font-family="Helvetica,Arial,sans-serif" font-weight="bold" font-size="11.00" fill="#cdd6f4">idrac</text>
<text xml:space="preserve" text-anchor="start" x="624.75" y="-135.95" font-family="Helvetica,Arial,sans-serif" font-size="9.00" fill="#a6adc8">XX:XX:XX:XX:XX:0d</text>
<text xml:space="preserve" text-anchor="start" x="643.12" y="-116.2" font-family="Helvetica,Arial,sans-serif" font-size="9.00" fill="#a6adc8">MTU: 1500</text>
<polygon fill="none" stroke="#a6e3a1" points="617.75,-108 617.75,-172.75 713.5,-172.75 713.5,-108 617.75,-108"/>
</g>
<!-- server&#45;&gt;idrac -->
<g id="edge13" class="edge">
<title>server&#45;&gt;idrac</title>
<path fill="none" stroke="#585b70" d="M93.12,-595.44C113.99,-530.5 169.79,-382.04 266.25,-297.38 368.34,-207.76 527.67,-166.09 610.5,-149.57"/>
<polygon fill="#585b70" stroke="#585b70" points="610.82,-151.65 616.3,-148.44 610.01,-147.53 610.82,-151.65"/>
</g>
<!-- swport_dev_collapsed_ipf01cly_lf01_ifname_xe_0_0_2 -->
<g id="node15" class="node">
<title>swport_dev_collapsed_ipf01cly_lf01_ifname_xe_0_0_2</title>
<polygon fill="#313244" stroke="none" points="619.25,-820.75 619.25,-846 712,-846 712,-820.75 619.25,-820.75"/>
<text xml:space="preserve" text-anchor="start" x="626.25" y="-829.55" font-family="Helvetica,Arial,sans-serif" font-weight="bold" font-size="11.00" fill="#cdd6f4">ifname xe&#45;0/0/2</text>
<polygon fill="none" stroke="#fab387" points="619.25,-820.75 619.25,-846 712,-846 712,-820.75 619.25,-820.75"/>
</g>
<!-- eno1np0&#45;&gt;swport_dev_collapsed_ipf01cly_lf01_ifname_xe_0_0_2 -->
<g id="edge14" class="edge">
<title>eno1np0&#45;&gt;swport_dev_collapsed_ipf01cly_lf01_ifname_xe_0_0_2</title>
<path fill="none" stroke="#89b4fa" stroke-width="2.5" d="M378.68,-929.72C385.19,-925.4 391.52,-920.6 397,-915.38 424.09,-889.57 410.57,-863.54 443,-844.88 492.54,-816.36 559.09,-817.03 606.3,-822.64"/>
<polygon fill="#89b4fa" stroke="#89b4fa" stroke-width="2.5" points="605.55,-826.07 615.93,-823.92 606.48,-819.13 605.55,-826.07"/>
<text xml:space="preserve" text-anchor="start" x="443" y="-845.88" font-family="Helvetica,Arial,sans-serif" font-size="10.00" fill="#a6adc8">VLAN 100;101;102;110;111</text>
</g>
<!-- swport_dev_collapsed_ipf01cly_lf02_ifname_xe_0_0_2 -->
<g id="node19" class="node">
<title>swport_dev_collapsed_ipf01cly_lf02_ifname_xe_0_0_2</title>
<polygon fill="#313244" stroke="none" points="619.25,-1047.75 619.25,-1073 712,-1073 712,-1047.75 619.25,-1047.75"/>
<text xml:space="preserve" text-anchor="start" x="626.25" y="-1056.55" font-family="Helvetica,Arial,sans-serif" font-weight="bold" font-size="11.00" fill="#cdd6f4">ifname xe&#45;0/0/2</text>
<polygon fill="none" stroke="#fab387" points="619.25,-1047.75 619.25,-1073 712,-1073 712,-1047.75 619.25,-1047.75"/>
</g>
<!-- ens5f0np0&#45;&gt;swport_dev_collapsed_ipf01cly_lf02_ifname_xe_0_0_2 -->
<g id="edge20" class="edge">
<title>ens5f0np0&#45;&gt;swport_dev_collapsed_ipf01cly_lf02_ifname_xe_0_0_2</title>
<path fill="none" stroke="#89b4fa" stroke-width="2.5" d="M378.71,-1061.23C438.15,-1061.06 541.02,-1060.75 605.81,-1060.55"/>
<polygon fill="#89b4fa" stroke="#89b4fa" stroke-width="2.5" points="605.65,-1064.05 615.64,-1060.52 605.63,-1057.05 605.65,-1064.05"/>
<text xml:space="preserve" text-anchor="start" x="443" y="-1062.02" font-family="Helvetica,Arial,sans-serif" font-size="10.00" fill="#a6adc8">VLAN 100;101;102;110;111</text>
</g>
<!-- swport_dev_collapsed_ipf01cly_lf01_ifname_xe_0_0_3 -->
<g id="node16" class="node">
<title>swport_dev_collapsed_ipf01cly_lf01_ifname_xe_0_0_3</title>
<polygon fill="#313244" stroke="none" points="619.25,-600.75 619.25,-626 712,-626 712,-600.75 619.25,-600.75"/>
<text xml:space="preserve" text-anchor="start" x="626.25" y="-609.55" font-family="Helvetica,Arial,sans-serif" font-weight="bold" font-size="11.00" fill="#cdd6f4">ifname xe&#45;0/0/3</text>
<polygon fill="none" stroke="#fab387" points="619.25,-600.75 619.25,-626 712,-626 712,-600.75 619.25,-600.75"/>
</g>
<!-- eno2np1&#45;&gt;swport_dev_collapsed_ipf01cly_lf01_ifname_xe_0_0_3 -->
<g id="edge15" class="edge">
<title>eno2np1&#45;&gt;swport_dev_collapsed_ipf01cly_lf01_ifname_xe_0_0_3</title>
<path fill="none" stroke="#f9e2af" stroke-width="2.5" d="M378.71,-532.54C438.53,-549.46 542.32,-578.8 607.03,-597.09"/>
<polygon fill="#f9e2af" stroke="#f9e2af" stroke-width="2.5" points="606,-600.44 616.57,-599.79 607.9,-593.7 606,-600.44"/>
<text xml:space="preserve" text-anchor="start" x="443" y="-583.97" font-family="Helvetica,Arial,sans-serif" font-size="10.00" fill="#a6adc8">VLAN 200;201;202;211;212</text>
</g>
<!-- swport_dev_collapsed_ipf01cly_lf02_ifname_xe_0_0_3 -->
<g id="node20" class="node">
<title>swport_dev_collapsed_ipf01cly_lf02_ifname_xe_0_0_3</title>
<polygon fill="#313244" stroke="none" points="619.25,-901.75 619.25,-927 712,-927 712,-901.75 619.25,-901.75"/>
<text xml:space="preserve" text-anchor="start" x="626.25" y="-910.55" font-family="Helvetica,Arial,sans-serif" font-weight="bold" font-size="11.00" fill="#cdd6f4">ifname xe&#45;0/0/3</text>
<polygon fill="none" stroke="#fab387" points="619.25,-901.75 619.25,-927 712,-927 712,-901.75 619.25,-901.75"/>
</g>
<!-- ens5f1np1&#45;&gt;swport_dev_collapsed_ipf01cly_lf02_ifname_xe_0_0_3 -->
<g id="edge21" class="edge">
<title>ens5f1np1&#45;&gt;swport_dev_collapsed_ipf01cly_lf02_ifname_xe_0_0_3</title>
<path fill="none" stroke="#f9e2af" stroke-width="2.5" d="M374.68,-659.51C383.06,-667.5 391.08,-676.61 397,-686.38 438.69,-755.15 385.5,-805.15 443,-861.38 465.91,-883.78 548.59,-899.05 606.21,-907.25"/>
<polygon fill="#f9e2af" stroke="#f9e2af" stroke-width="2.5" points="605.4,-910.67 615.79,-908.57 606.36,-903.74 605.4,-910.67"/>
<text xml:space="preserve" text-anchor="start" x="443" y="-901.07" font-family="Helvetica,Arial,sans-serif" font-size="10.00" fill="#a6adc8">VLAN 200;201;202;211;212</text>
</g>
<!-- swport_dev_collapsed_ipf01cly_lf01_ifname_et_0_0_38 -->
<g id="node17" class="node">
<title>swport_dev_collapsed_ipf01cly_lf01_ifname_et_0_0_38</title>
<polygon fill="#313244" stroke="none" points="617.75,-726.75 617.75,-752 713.5,-752 713.5,-726.75 617.75,-726.75"/>
<text xml:space="preserve" text-anchor="start" x="624.75" y="-735.55" font-family="Helvetica,Arial,sans-serif" font-weight="bold" font-size="11.00" fill="#cdd6f4">ifname et&#45;0/0/38</text>
<polygon fill="none" stroke="#fab387" points="617.75,-726.75 617.75,-752 713.5,-752 713.5,-726.75 617.75,-726.75"/>
</g>
<!-- ens3f0np0&#45;&gt;swport_dev_collapsed_ipf01cly_lf01_ifname_et_0_0_38 -->
<g id="edge18" class="edge">
<title>ens3f0np0&#45;&gt;swport_dev_collapsed_ipf01cly_lf01_ifname_et_0_0_38</title>
<path fill="none" stroke="#94e2d5" stroke-width="3" d="M378.71,-736.8C437.41,-737.32 538.44,-738.24 603.35,-738.82"/>
<polygon fill="#94e2d5" stroke="#94e2d5" stroke-width="3" points="603.25,-742.32 613.28,-738.91 603.31,-735.32 603.25,-742.32"/>
<text xml:space="preserve" text-anchor="start" x="480.5" y="-739.4" font-family="Helvetica,Arial,sans-serif" font-size="10.00" fill="#a6adc8">VLAN 501</text>
</g>
<!-- swport_dev_collapsed_ipf01cly_lf02_ifname_et_0_0_38 -->
<g id="node21" class="node">
<title>swport_dev_collapsed_ipf01cly_lf02_ifname_et_0_0_38</title>
<polygon fill="#313244" stroke="none" points="617.75,-976.75 617.75,-1002 713.5,-1002 713.5,-976.75 617.75,-976.75"/>
<text xml:space="preserve" text-anchor="start" x="624.75" y="-985.55" font-family="Helvetica,Arial,sans-serif" font-weight="bold" font-size="11.00" fill="#cdd6f4">ifname et&#45;0/0/38</text>
<polygon fill="none" stroke="#fab387" points="617.75,-976.75 617.75,-1002 713.5,-1002 713.5,-976.75 617.75,-976.75"/>
</g>
<!-- ens8f0np0&#45;&gt;swport_dev_collapsed_ipf01cly_lf02_ifname_et_0_0_38 -->
<g id="edge24" class="edge">
<title>ens8f0np0&#45;&gt;swport_dev_collapsed_ipf01cly_lf02_ifname_et_0_0_38</title>
<path fill="none" stroke="#94e2d5" stroke-width="3" d="M366.69,-876.55C387.45,-894.36 415.17,-915.61 443,-929.38 494.27,-954.72 557.68,-970.51 603.52,-979.48"/>
<polygon fill="#94e2d5" stroke="#94e2d5" stroke-width="3" points="602.81,-982.91 613.29,-981.32 604.11,-976.03 602.81,-982.91"/>
<text xml:space="preserve" text-anchor="start" x="480.5" y="-971.04" font-family="Helvetica,Arial,sans-serif" font-size="10.00" fill="#a6adc8">VLAN 501</text>
</g>
<!-- swport_dev_collapsed_ipf01cly_lf01_ifname_et_0_0_39 -->
<g id="node18" class="node">
<title>swport_dev_collapsed_ipf01cly_lf01_ifname_et_0_0_39</title>
<polygon fill="#313244" stroke="none" points="617.75,-1137.75 617.75,-1163 713.5,-1163 713.5,-1137.75 617.75,-1137.75"/>
<text xml:space="preserve" text-anchor="start" x="624.75" y="-1146.55" font-family="Helvetica,Arial,sans-serif" font-weight="bold" font-size="11.00" fill="#cdd6f4">ifname et&#45;0/0/39</text>
<polygon fill="none" stroke="#fab387" points="617.75,-1137.75 617.75,-1163 713.5,-1163 713.5,-1137.75 617.75,-1137.75"/>
</g>
<!-- ens3f1np1&#45;&gt;swport_dev_collapsed_ipf01cly_lf01_ifname_et_0_0_39 -->
<g id="edge19" class="edge">
<title>ens3f1np1&#45;&gt;swport_dev_collapsed_ipf01cly_lf01_ifname_et_0_0_39</title>
<path fill="none" stroke="#f5c2e7" stroke-width="3" d="M378.71,-1167.57C437.41,-1164.04 538.44,-1157.97 603.35,-1154.06"/>
<polygon fill="#f5c2e7" stroke="#f5c2e7" stroke-width="3" points="603.52,-1157.56 613.29,-1153.46 603.1,-1150.57 603.52,-1157.56"/>
<text xml:space="preserve" text-anchor="start" x="480.5" y="-1164.34" font-family="Helvetica,Arial,sans-serif" font-size="10.00" fill="#a6adc8">VLAN 502</text>
</g>
<!-- swport_dev_collapsed_ipf01cly_lf02_ifname_et_0_0_39 -->
<g id="node22" class="node">
<title>swport_dev_collapsed_ipf01cly_lf02_ifname_et_0_0_39</title>
<polygon fill="#313244" stroke="none" points="617.75,-1236.75 617.75,-1262 713.5,-1262 713.5,-1236.75 617.75,-1236.75"/>
<text xml:space="preserve" text-anchor="start" x="624.75" y="-1245.55" font-family="Helvetica,Arial,sans-serif" font-weight="bold" font-size="11.00" fill="#cdd6f4">ifname et&#45;0/0/39</text>
<polygon fill="none" stroke="#fab387" points="617.75,-1236.75 617.75,-1262 713.5,-1262 713.5,-1236.75 617.75,-1236.75"/>
</g>
<!-- ens8f1np1&#45;&gt;swport_dev_collapsed_ipf01cly_lf02_ifname_et_0_0_39 -->
<g id="edge25" class="edge">
<title>ens8f1np1&#45;&gt;swport_dev_collapsed_ipf01cly_lf02_ifname_et_0_0_39</title>
<path fill="none" stroke="#f5c2e7" stroke-width="3" d="M378.36,-1274.34C437.17,-1269.21 538.88,-1260.34 603.89,-1254.67"/>
<polygon fill="#f5c2e7" stroke="#f5c2e7" stroke-width="3" points="603.8,-1258.19 613.46,-1253.84 603.19,-1251.22 603.8,-1258.19"/>
<text xml:space="preserve" text-anchor="start" x="480.5" y="-1269.17" font-family="Helvetica,Arial,sans-serif" font-size="10.00" fill="#a6adc8">VLAN 502</text>
</g>
<!-- no_lldp_peer -->
<g id="node25" class="node">
<title>no_lldp_peer</title>
<path fill="#313244" stroke="none" d="M873.17,-234.62C873.17,-234.62 938.58,-234.62 938.58,-234.62 943.17,-234.62 947.75,-239.21 947.75,-243.79 947.75,-243.79 947.75,-252.96 947.75,-252.96 947.75,-257.54 943.17,-262.12 938.58,-262.12 938.58,-262.12 873.17,-262.12 873.17,-262.12 868.58,-262.12 864,-257.54 864,-252.96 864,-252.96 864,-243.79 864,-243.79 864,-239.21 868.58,-234.62 873.17,-234.62"/>
<text xml:space="preserve" text-anchor="start" x="871" y="-245.68" font-family="Helvetica,Arial,sans-serif" font-style="italic" font-size="11.00" fill="#6c7086">No LLDP peer</text>
<path fill="none" stroke="#6c7086" d="M873.17,-234.62C873.17,-234.62 938.58,-234.62 938.58,-234.62 943.17,-234.62 947.75,-239.21 947.75,-243.79 947.75,-243.79 947.75,-252.96 947.75,-252.96 947.75,-257.54 943.17,-262.12 938.58,-262.12 938.58,-262.12 873.17,-262.12 873.17,-262.12 868.58,-262.12 864,-257.54 864,-252.96 864,-252.96 864,-243.79 864,-243.79 864,-239.21 868.58,-234.62 873.17,-234.62"/>
</g>
<!-- eno3np2&#45;&gt;no_lldp_peer -->
<g id="edge16" class="edge">
<title>eno3np2&#45;&gt;no_lldp_peer</title>
<path fill="none" stroke="#6c7086" stroke-dasharray="5,2" d="M702.29,-64.71C751.64,-109.45 839.37,-188.99 881.3,-227"/>
<polygon fill="#6c7086" stroke="#6c7086" points="878.87,-229.52 888.63,-233.65 883.57,-224.34 878.87,-229.52"/>
</g>
<!-- eno4np3&#45;&gt;no_lldp_peer -->
<g id="edge17" class="edge">
<title>eno4np3&#45;&gt;no_lldp_peer</title>
<path fill="none" stroke="#6c7086" stroke-dasharray="5,2" d="M702.29,-432.04C751.64,-387.3 839.37,-307.76 881.3,-269.75"/>
<polygon fill="#6c7086" stroke="#6c7086" points="883.57,-272.41 888.63,-263.1 878.87,-267.23 883.57,-272.41"/>
</g>
<!-- ens5f2np2&#45;&gt;no_lldp_peer -->
<g id="edge22" class="edge">
<title>ens5f2np2&#45;&gt;no_lldp_peer</title>
<path fill="none" stroke="#6c7086" stroke-dasharray="5,2" d="M713.41,-335.17C757.42,-315.22 822.62,-285.66 864.43,-266.71"/>
<polygon fill="#6c7086" stroke="#6c7086" points="865.75,-269.95 873.41,-262.64 862.86,-263.58 865.75,-269.95"/>
</g>
<!-- ens5f3np3&#45;&gt;no_lldp_peer -->
<g id="edge23" class="edge">
<title>ens5f3np3&#45;&gt;no_lldp_peer</title>
<path fill="none" stroke="#6c7086" stroke-dasharray="5,2" d="M713.41,-248.38C753.55,-248.38 811.31,-248.38 852.88,-248.38"/>
<polygon fill="#6c7086" stroke="#6c7086" points="852.64,-251.88 862.64,-248.38 852.64,-244.88 852.64,-251.88"/>
</g>
<!-- idrac&#45;&gt;no_lldp_peer -->
<g id="edge26" class="edge">
<title>idrac&#45;&gt;no_lldp_peer</title>
<path fill="none" stroke="#6c7086" stroke-dasharray="5,2" d="M713.41,-161.58C757.42,-181.53 822.62,-211.09 864.43,-230.04"/>
<polygon fill="#6c7086" stroke="#6c7086" points="862.86,-233.17 873.41,-234.11 865.75,-226.8 862.86,-233.17"/>
</g>
<!-- sw_switch_01_example_net -->
<g id="node23" class="node">
<title>sw_switch_01_example_net</title>
<path fill="#313244" stroke="none" d="M834.5,-758.25C834.5,-758.25 977.25,-758.25 977.25,-758.25 983.25,-758.25 989.25,-764.25 989.25,-770.25 989.25,-770.25 989.25,-810.5 989.25,-810.5 989.25,-816.5 983.25,-822.5 977.25,-822.5 977.25,-822.5 834.5,-822.5 834.5,-822.5 828.5,-822.5 822.5,-816.5 822.5,-810.5 822.5,-810.5 822.5,-770.25 822.5,-770.25 822.5,-764.25 828.5,-758.25 834.5,-758.25"/>
<text xml:space="preserve" text-anchor="start" x="833.5" y="-799.2" font-family="Helvetica,Arial,sans-serif" font-weight="bold" font-size="14.00" fill="#fab387">switch&#45;01.example.net</text>
<text xml:space="preserve" text-anchor="start" x="889.75" y="-770.05" font-family="Helvetica,Arial,sans-serif" font-size="11.00" fill="#a6adc8">Switch</text>
<path fill="none" stroke="#fab387" d="M834.5,-758.25C834.5,-758.25 977.25,-758.25 977.25,-758.25 983.25,-758.25 989.25,-764.25 989.25,-770.25 989.25,-770.25 989.25,-810.5 989.25,-810.5 989.25,-816.5 983.25,-822.5 977.25,-822.5 977.25,-822.5 834.5,-822.5 834.5,-822.5 828.5,-822.5 822.5,-816.5 822.5,-810.5 822.5,-810.5 822.5,-770.25 822.5,-770.25 822.5,-764.25 828.5,-758.25 834.5,-758.25"/>
</g>
<!-- swport_dev_collapsed_ipf01cly_lf01_ifname_xe_0_0_2&#45;&gt;sw_switch_01_example_net -->
<g id="edge27" class="edge">
<title>swport_dev_collapsed_ipf01cly_lf01_ifname_xe_0_0_2&#45;&gt;sw_switch_01_example_net</title>
<path fill="none" stroke="#585b70" d="M712,-825.19C741.24,-819.91 780.25,-812.87 815.53,-806.5"/>
<polygon fill="#585b70" stroke="#585b70" points="815.52,-808.64 821.05,-805.5 814.77,-804.5 815.52,-808.64"/>
</g>
<!-- swport_dev_collapsed_ipf01cly_lf01_ifname_xe_0_0_3&#45;&gt;sw_switch_01_example_net -->
<g id="edge28" class="edge">
<title>swport_dev_collapsed_ipf01cly_lf01_ifname_xe_0_0_3&#45;&gt;sw_switch_01_example_net</title>
<path fill="none" stroke="#585b70" d="M683.38,-625.82C718.74,-652.09 802.15,-714.06 855.92,-754.01"/>
<polygon fill="#585b70" stroke="#585b70" points="854.4,-755.49 860.47,-757.38 856.9,-752.12 854.4,-755.49"/>
</g>
<!-- swport_dev_collapsed_ipf01cly_lf01_ifname_et_0_0_38&#45;&gt;sw_switch_01_example_net -->
<g id="edge29" class="edge">
<title>swport_dev_collapsed_ipf01cly_lf01_ifname_et_0_0_38&#45;&gt;sw_switch_01_example_net</title>
<path fill="none" stroke="#585b70" d="M713.41,-749.39C742.63,-755.65 781.2,-763.9 816.06,-771.36"/>
<polygon fill="#585b70" stroke="#585b70" points="815.19,-773.32 821.5,-772.53 816.07,-769.22 815.19,-773.32"/>
</g>
<!-- swport_dev_collapsed_ipf01cly_lf01_ifname_et_0_0_39&#45;&gt;sw_switch_01_example_net -->
<g id="edge30" class="edge">
<title>swport_dev_collapsed_ipf01cly_lf01_ifname_et_0_0_39&#45;&gt;sw_switch_01_example_net</title>
<path fill="none" stroke="#585b70" d="M677.93,-1137.87C687.76,-1126.78 702.16,-1109.95 713.5,-1094.38 780.44,-1002.44 849.12,-887.23 883.09,-828.55"/>
<polygon fill="#585b70" stroke="#585b70" points="884.73,-829.92 885.91,-823.67 881.09,-827.82 884.73,-829.92"/>
</g>
<!-- sw_switch_02_example_net -->
<g id="node24" class="node">
<title>sw_switch_02_example_net</title>
<path fill="#313244" stroke="none" d="M834.5,-992.25C834.5,-992.25 977.25,-992.25 977.25,-992.25 983.25,-992.25 989.25,-998.25 989.25,-1004.25 989.25,-1004.25 989.25,-1044.5 989.25,-1044.5 989.25,-1050.5 983.25,-1056.5 977.25,-1056.5 977.25,-1056.5 834.5,-1056.5 834.5,-1056.5 828.5,-1056.5 822.5,-1050.5 822.5,-1044.5 822.5,-1044.5 822.5,-1004.25 822.5,-1004.25 822.5,-998.25 828.5,-992.25 834.5,-992.25"/>
<text xml:space="preserve" text-anchor="start" x="833.5" y="-1033.2" font-family="Helvetica,Arial,sans-serif" font-weight="bold" font-size="14.00" fill="#fab387">switch&#45;02.example.net</text>
<text xml:space="preserve" text-anchor="start" x="889.75" y="-1004.05" font-family="Helvetica,Arial,sans-serif" font-size="11.00" fill="#a6adc8">Switch</text>
<path fill="none" stroke="#fab387" d="M834.5,-992.25C834.5,-992.25 977.25,-992.25 977.25,-992.25 983.25,-992.25 989.25,-998.25 989.25,-1004.25 989.25,-1004.25 989.25,-1044.5 989.25,-1044.5 989.25,-1050.5 983.25,-1056.5 977.25,-1056.5 977.25,-1056.5 834.5,-1056.5 834.5,-1056.5 828.5,-1056.5 822.5,-1050.5 822.5,-1044.5 822.5,-1044.5 822.5,-1004.25 822.5,-1004.25 822.5,-998.25 828.5,-992.25 834.5,-992.25"/>
</g>
<!-- swport_dev_collapsed_ipf01cly_lf02_ifname_xe_0_0_2&#45;&gt;sw_switch_02_example_net -->
<g id="edge31" class="edge">
<title>swport_dev_collapsed_ipf01cly_lf02_ifname_xe_0_0_2&#45;&gt;sw_switch_02_example_net</title>
<path fill="none" stroke="#585b70" d="M712,-1053.52C741.24,-1049.1 780.25,-1043.21 815.53,-1037.87"/>
<polygon fill="#585b70" stroke="#585b70" points="815.42,-1040.02 821.04,-1037.04 814.79,-1035.86 815.42,-1040.02"/>
</g>
<!-- swport_dev_collapsed_ipf01cly_lf02_ifname_xe_0_0_3&#45;&gt;sw_switch_02_example_net -->
<g id="edge32" class="edge">
<title>swport_dev_collapsed_ipf01cly_lf02_ifname_xe_0_0_3&#45;&gt;sw_switch_02_example_net</title>
<path fill="none" stroke="#585b70" d="M693.96,-926.99C726.63,-942.08 782.69,-967.96 828.81,-989.25"/>
<polygon fill="#585b70" stroke="#585b70" points="827.83,-991.12 834.16,-991.73 829.59,-987.3 827.83,-991.12"/>
</g>
<!-- swport_dev_collapsed_ipf01cly_lf02_ifname_et_0_0_38&#45;&gt;sw_switch_02_example_net -->
<g id="edge33" class="edge">
<title>swport_dev_collapsed_ipf01cly_lf02_ifname_et_0_0_38&#45;&gt;sw_switch_02_example_net</title>
<path fill="none" stroke="#585b70" d="M713.41,-996.25C742.51,-1000.52 780.88,-1006.16 815.62,-1011.26"/>
<polygon fill="#585b70" stroke="#585b70" points="815.24,-1013.33 821.48,-1012.12 815.85,-1009.17 815.24,-1013.33"/>
</g>
<!-- swport_dev_collapsed_ipf01cly_lf02_ifname_et_0_0_39&#45;&gt;sw_switch_02_example_net -->
<g id="edge34" class="edge">
<title>swport_dev_collapsed_ipf01cly_lf02_ifname_et_0_0_39&#45;&gt;sw_switch_02_example_net</title>
<path fill="none" stroke="#585b70" d="M680.38,-1236.84C700.52,-1218.26 738.83,-1181.98 768.5,-1148.38 794.51,-1118.92 793.67,-1105.07 822.5,-1078.38 829.2,-1072.17 836.69,-1066.21 844.34,-1060.65"/>
<polygon fill="#585b70" stroke="#585b70" points="845.3,-1062.54 848.99,-1057.36 842.88,-1059.12 845.3,-1062.54"/>
</g>
<!-- legend -->
<g id="node26" class="node">
<title>legend</title>
<polygon fill="#1e1e2e" stroke="none" points="853.88,-1099.88 853.88,-1190.88 957.88,-1190.88 957.88,-1099.88 853.88,-1099.88"/>
<text xml:space="preserve" text-anchor="start" x="876.62" y="-1173.42" font-family="Helvetica,Arial,sans-serif" font-weight="bold" font-size="11.00" fill="#cdd6f4">Link Speed</text>
<polygon fill="#a6adc8" stroke="none" points="858.88,-1147.38 858.88,-1164.62 888.88,-1164.62 888.88,-1147.38 858.88,-1147.38"/>
<text xml:space="preserve" text-anchor="start" x="872.38" y="-1151.17" font-family="Helvetica,Arial,sans-serif" font-size="11.00" fill="#cdd6f4"> </text>
<text xml:space="preserve" text-anchor="start" x="907.5" y="-1152.33" font-family="Helvetica,Arial,sans-serif" font-size="9.00" fill="#a6adc8">25 GbE</text>
<polygon fill="#a6adc8" stroke="none" points="858.88,-1126.12 858.88,-1143.38 888.88,-1143.38 888.88,-1126.12 858.88,-1126.12"/>
<text xml:space="preserve" text-anchor="start" x="872.38" y="-1129.92" font-family="Helvetica,Arial,sans-serif" font-size="11.00" fill="#cdd6f4"> </text>
<text xml:space="preserve" text-anchor="start" x="907.5" y="-1131.08" font-family="Helvetica,Arial,sans-serif" font-size="9.00" fill="#a6adc8">10 GbE</text>
<polygon fill="#a6adc8" stroke="none" points="858.88,-1104.88 858.88,-1122.12 888.88,-1122.12 888.88,-1104.88 858.88,-1104.88"/>
<text xml:space="preserve" text-anchor="start" x="872.38" y="-1108.67" font-family="Helvetica,Arial,sans-serif" font-size="11.00" fill="#cdd6f4"> </text>
<text xml:space="preserve" text-anchor="start" x="895.88" y="-1109.83" font-family="Helvetica,Arial,sans-serif" font-size="9.00" fill="#a6adc8">Fast Ethernet</text>
<polygon fill="none" stroke="#585b70" points="853.88,-1099.88 853.88,-1190.88 957.88,-1190.88 957.88,-1099.88 853.88,-1099.88"/>
</g>
</g>
</svg>
