<?xml version="1.0" encoding="UTF-8" standalone="no"?>
<!DOCTYPE svg PUBLIC "-//W3C//DTD SVG 1.1//EN"
 "http://www.w3.org/Graphics/SVG/1.1/DTD/svg11.dtd">
<!-- Generated by graphviz version 14.0.0 (0)
 -->
<!-- Title: nic_xray Pages: 1 -->
<svg width="1063pt" height="1641pt"
 viewBox="0.00 0.00 1063.00 1641.00" xmlns="http://www.w3.org/2000/svg" xmlns:xlink="http://www.w3.org/1999/xlink">
<g id="graph0" class="graph" transform="scale(1 1) rotate(0) translate(36 1604.75)">
<title>nic_xray</title>
<polygon fill="#1e1e2e" stroke="none" points="-36,36 -36,-1604.75 1026.5,-1604.75 1026.5,36 -36,36"/>
<text xml:space="preserve" text-anchor="start" x="779.25" y="-5.2" font-family="Helvetica,Arial,sans-serif" font-size="9.00" fill="#6c7086">Generated by nic&#45;xray v2.5.0 — © 2026 Ciro Iriarte</text>
<g id="clust1" class="cluster">
<title>cluster_bond_0</title>
<polygon fill="#1e1e2e" fill-opacity="0.800000" stroke="#89b4fa" stroke-width="1.5" stroke-dasharray="5,2" points="267.38,-1048.75 267.38,-1300.75 398.12,-1300.75 398.12,-1048.75 267.38,-1048.75"/>
<text xml:space="preserve" text-anchor="start" x="275.38" y="-1055.1" font-family="Helvetica,Arial,sans-serif" font-weight="bold" font-size="12.00" fill="#89b4fa">bond0</text>
<text xml:space="preserve" text-anchor="start" x="312.12" y="-1055.1" font-family="Helvetica,Arial,sans-serif" font-size="12.00" fill="#89b4fa"> (LACP Active)</text>
</g>
<g id="clust2" class="cluster">
<title>cluster_bond_1</title>
<polygon fill="#1e1e2e" fill-opacity="0.800000" stroke="#f9e2af" stroke-width="1.5" stroke-dasharray="5,2" points="267.38,-528.75 267.38,-780.75 398.12,-780.75 398.12,-528.75 267.38,-528.75"/>
<text xml:space="preserve" text-anchor="start" x="275.38" y="-535.1" font-family="Helvetica,Arial,sans-serif" font-weight="bold" font-size="12.00" fill="#f9e2af">bond1</text>
<text xml:space="preserve" text-anchor="start" x="312.12" y="-535.1" font-family="Helvetica,Arial,sans-serif" font-size="12.00" fill="#f9e2af"> (LACP Active)</text>
</g>
<g id="clust3" class="cluster">
<title>cluster_bond_2</title>
<polygon fill="#1e1e2e" fill-opacity="0.800000" stroke="#94e2d5" stroke-width="1.5" stroke-dasharray="5,2" points="266.25,-788.75 266.25,-1040.75 398.25,-1040.75 398.25,-788.75 266.25,-788.75"/>
<text xml:space="preserve" text-anchor="start" x="275.5" y="-795.1" font-family="Helvetica,Arial,sans-serif" font-weight="bold" font-size="12.00" fill="#94e2d5">bond2</text>
<text xml:space="preserve" text-anchor="start" x="312.25" y="-795.1" font-family="Helvetica,Arial,sans-serif" font-size="12.00" fill="#94e2d5"> (LACP Active)</text>
</g>
<g id="clust4" class="cluster">
<title>cluster_bond_3</title>
<polygon fill="#1e1e2e" fill-opacity="0.800000" stroke="#f5c2e7" stroke-width="1.5" stroke-dasharray="5,2" points="267.38,-1308.75 267.38,-1560.75 398.12,-1560.75 398.12,-1308.75 267.38,-1308.75"/>
<text xml:space="preserve" text-anchor="start" x="275.38" y="-1315.1" font-family="Helvetica,Arial,sans-serif" font-weight="bold" font-size="12.00" fill="#f5c2e7">bond3</text>
<text xml:space="preserve" text-anchor="start" x="312.12" y="-1315.1" font-family="Helvetica,Arial,sans-serif" font-size="12.00" fill="#f5c2e7"> (LACP Active)</text>
</g>
<!-- server -->
<g id="node1" class="node">
<title>server</title>
<polygon fill="#313244" stroke="none" points="0,-697.62 0,-761.88 165.25,-761.88 165.25,-697.62 0,-697.62"/>
<text xml:space="preserve" text-anchor="start" x="11" y="-738.58" font-family="Helvetica,Arial,sans-serif" font-weight="bold" font-size="14.00" fill="#cba6f7">server&#45;01.example.net</text>
<text xml:space="preserve" text-anchor="start" x="66.5" y="-709.42" font-family="Helvetica,Arial,sans-serif" font-size="11.00" fill="#a6adc8">Server</text>
<polygon fill="none" stroke="#585b70" points="0,-697.62 0,-761.88 165.25,-761.88 165.25,-697.62 0,-697.62"/>
</g>
<!-- eno1np0 -->
<g id="node2" class="node">
<title>eno1np0</title>
<polygon fill="#313244" stroke="none" points="284.38,-1077.75 284.38,-1163.75 380.12,-1163.75 380.12,-1077.75 284.38,-1077.75"/>
<text xml:space="preserve" text-anchor="start" x="309.75" y="-1147.3" font-family="Helvetica,Arial,sans-serif" font-weight="bold" font-size="11.00" fill="#cdd6f4">eno1np0</text>
<text xml:space="preserve" text-anchor="start" x="291.38" y="-1126.95" font-family="Helvetica,Arial,sans-serif" font-size="9.00" fill="#a6adc8">XX:XX:XX:XX:XX:01</text>
<text xml:space="preserve" text-anchor="start" x="309.75" y="-1107.2" font-family="Helvetica,Arial,sans-serif" font-size="9.00" fill="#a6adc8">MTU: 9100</text>
<text xml:space="preserve" text-anchor="start" x="291.75" y="-1086.55" font-family="Helvetica,Arial,sans-serif" font-weight="bold" font-size="11.00" fill="#a6e3a1">↓</text>
<text xml:space="preserve" text-anchor="start" x="297" y="-1086.55" font-family="Helvetica,Arial,sans-serif" font-size="9.00" fill="#a6adc8">1.1 KB/s</text>
<text xml:space="preserve" text-anchor="start" x="330.75" y="-1086.55" font-family="Helvetica,Arial,sans-serif" font-size="11.00" fill="#cdd6f4"> </text>
<text xml:space="preserve" text-anchor="start" x="333.75" y="-1086.55" font-family="Helvetica,Arial,sans-serif" font-weight="bold" font-size="11.00" fill="#89b4fa">↑</text>
<text xml:space="preserve" text-anchor="start" x="339" y="-1086.55" font-family="Helvetica,Arial,sans-serif" font-size="9.00" fill="#a6adc8">1.2 KB/s</text>
<polygon fill="none" stroke="#a6e3a1" points="284.38,-1077.75 284.38,-1163.75 380.12,-1163.75 380.12,-1077.75 284.38,-1077.75"/>
</g>
<!-- server&#45;&gt;eno1np0 -->
<g id="edge1" class="edge">
<title>server&#45;&gt;eno1np0</title>
<path fill="none" stroke="#585b70" d="M98.73,-761.76C127.47,-821.24 193.63,-951.74 266.25,-1050.75 271.64,-1058.1 277.72,-1065.53 283.93,-1072.65"/>
<polygon fill="#585b70" stroke="#585b70" points="282.15,-1073.8 287.7,-1076.9 285.29,-1071.02 282.15,-1073.8"/>
</g>
<!-- ens5f0np0 -->
<g id="node3" class="node">
<title>ens5f0np0</title>
<polygon fill="#313244" stroke="none" points="279.5,-1206.75 279.5,-1292.75 385,-1292.75 385,-1206.75 279.5,-1206.75"/>
<text xml:space="preserve" text-anchor="start" x="305.25" y="-1276.3" font-family="Helvetica,Arial,sans-serif" font-weight="bold" font-size="11.00" fill="#cdd6f4">ens5f0np0</text>
<text xml:space="preserve" text-anchor="start" x="291.38" y="-1255.95" font-family="Helvetica,Arial,sans-serif" font-size="9.00" fill="#a6adc8">XX:XX:XX:XX:XX:07</text>
<text xml:space="preserve" text-anchor="start" x="309.75" y="-1236.2" font-family="Helvetica,Arial,sans-serif" font-size="9.00" fill="#a6adc8">MTU: 9100</text>
<text xml:space="preserve" text-anchor="start" x="286.5" y="-1215.55" font-family="Helvetica,Arial,sans-serif" font-weight="bold" font-size="11.00" fill="#a6e3a1">↓</text>
<text xml:space="preserve" text-anchor="start" x="291.75" y="-1215.55" font-family="Helvetica,Arial,sans-serif" font-size="9.00" fill="#a6adc8">12.6 KB/s</text>
<text xml:space="preserve" text-anchor="start" x="330.75" y="-1215.55" font-family="Helvetica,Arial,sans-serif" font-size="11.00" fill="#cdd6f4"> </text>
<text xml:space="preserve" text-anchor="start" x="333.75" y="-1215.55" font-family="Helvetica,Arial,sans-serif" font-weight="bold" font-size="11.00" fill="#89b4fa">↑</text>
<text xml:space="preserve" text-anchor="start" x="339" y="-1215.55" font-family="Helvetica,Arial,sans-serif" font-size="9.00" fill="#a6adc8">11.6 KB/s</text>
<polygon fill="none" stroke="#a6e3a1" points="279.5,-1206.75 279.5,-1292.75 385,-1292.75 385,-1206.75 279.5,-1206.75"/>
</g>
<!-- server&#45;&gt;ens5f0np0 -->
<g id="edge7" class="edge">
<title>server&#45;&gt;ens5f0np0</title>
<path fill="none" stroke="#585b70" d="M91.54,-761.76C111.71,-839.34 170.36,-1041.62 266.25,-1185.75 269.79,-1191.08 273.84,-1196.31 278.13,-1201.36"/>
<polygon fill="#585b70" stroke="#585b70" points="276.34,-1202.5 281.88,-1205.62 279.49,-1199.73 276.34,-1202.5"/>
</g>
<!-- eno2np1 -->
<g id="node4" class="node">
<title>eno2np1</title>
<polygon fill="#313244" stroke="none" points="284.38,-557.75 284.38,-643.75 380.12,-643.75 380.12,-557.75 284.38,-557.75"/>
<text xml:space="preserve" text-anchor="start" x="309.75" y="-627.3" font-family="Helvetica,Arial,sans-serif" font-weight="bold" font-size="11.00" fill="#cdd6f4">eno2np1</text>
<text xml:space="preserve" text-anchor="start" x="291.38" y="-606.95" font-family="Helvetica,Arial,sans-serif" font-size="9.00" fill="#a6adc8">XX:XX:XX:XX:XX:02</text>
<text xml:space="preserve" text-anchor="start" x="309.75" y="-587.2" font-family="Helvetica,Arial,sans-serif" font-size="9.00" fill="#a6adc8">MTU: 9100</text>
<text xml:space="preserve" text-anchor="start" x="294.75" y="-566.55" font-family="Helvetica,Arial,sans-serif" font-weight="bold" font-size="11.00" fill="#a6e3a1">↓</text>
<text xml:space="preserve" text-anchor="start" x="300" y="-566.55" font-family="Helvetica,Arial,sans-serif" font-size="9.00" fill="#a6adc8">760 B/s</text>
<text xml:space="preserve" text-anchor="start" x="330.75" y="-566.55" font-family="Helvetica,Arial,sans-serif" font-size="11.00" fill="#cdd6f4"> </text>
<text xml:space="preserve" text-anchor="start" x="333.75" y="-566.55" font-family="Helvetica,Arial,sans-serif" font-weight="bold" font-size="11.00" fill="#89b4fa">↑</text>
<text xml:space="preserve" text-anchor="start" x="339" y="-566.55" font-family="Helvetica,Arial,sans-serif" font-size="9.00" fill="#a6adc8">591 B/s</text>
<polygon fill="none" stroke="#a6e3a1" points="284.38,-557.75 284.38,-643.75 380.12,-643.75 380.12,-557.75 284.38,-557.75"/>
</g>
<!-- server&#45;&gt;eno2np1 -->
<g id="edge2" class="edge">
<title>server&#45;&gt;eno2np1</title>
<path fill="none" stroke="#585b70" d="M145.15,-697.7C185.91,-676.46 238.84,-648.89 277.83,-628.58"/>
<polygon fill="#585b70" stroke="#585b70" points="278.76,-630.46 283.11,-625.83 276.82,-626.74 278.76,-630.46"/>
</g>
<!-- ens5f1np1 -->
<g id="node5" class="node">
<title>ens5f1np1</title>
<polygon fill="#313244" stroke="none" points="284.38,-686.75 284.38,-772.75 380.12,-772.75 380.12,-686.75 284.38,-686.75"/>
<text xml:space="preserve" text-anchor="start" x="305.25" y="-756.3" font-family="Helvetica,Arial,sans-serif" font-weight="bold" font-size="11.00" fill="#cdd6f4">ens5f1np1</text>
<text xml:space="preserve" text-anchor="start" x="291.38" y="-735.95" font-family="Helvetica,Arial,sans-serif" font-size="9.00" fill="#a6adc8">XX:XX:XX:XX:XX:08</text>
<text xml:space="preserve" text-anchor="start" x="309.75" y="-716.2" font-family="Helvetica,Arial,sans-serif" font-size="9.00" fill="#a6adc8">MTU: 9100</text>
<text xml:space="preserve" text-anchor="start" x="294.75" y="-695.55" font-family="Helvetica,Arial,sans-serif" font-weight="bold" font-size="11.00" fill="#a6e3a1">↓</text>
<text xml:space="preserve" text-anchor="start" x="300" y="-695.55" font-family="Helvetica,Arial,sans-serif" font-size="9.00" fill="#a6adc8">610 B/s</text>
<text xml:space="preserve" text-anchor="start" x="330.75" y="-695.55" font-family="Helvetica,Arial,sans-serif" font-size="11.00" fill="#cdd6f4"> </text>
<text xml:space="preserve" text-anchor="start" x="333.75" y="-695.55" font-family="Helvetica,Arial,sans-serif" font-weight="bold" font-size="11.00" fill="#89b4fa">↑</text>
<text xml:space="preserve" text-anchor="start" x="339" y="-695.55" font-family="Helvetica,Arial,sans-serif" font-size="9.00" fill="#a6adc8">852 B/s</text>
<polygon fill="none" stroke="#a6e3a1" points="284.38,-686.75 284.38,-772.75 380.12,-772.75 380.12,-686.75 284.38,-686.75"/>
</g>
<!-- server&#45;&gt;ens5f1np1 -->
<g id="edge8" class="edge">
<title>server&#45;&gt;ens5f1np1</title>
<path fill="none" stroke="#585b70" d="M165.05,-729.75C201.88,-729.75 244.39,-729.75 277.2,-729.75"/>
<polygon fill="#585b70" stroke="#585b70" points="276.96,-731.85 282.96,-729.75 276.96,-727.65 276.96,-731.85"/>
</g>
<!-- ens3f0np0 -->
<g id="node6" class="node">
<title>ens3f0np0</title>
<polygon fill="#313244" stroke="none" points="279.5,-817.75 279.5,-903.75 385,-903.75 385,-817.75 279.5,-817.75"/>
<text xml:space="preserve" text-anchor="start" x="305.25" y="-887.3" font-family="Helvetica,Arial,sans-serif" font-weight="bold" font-size="11.00" fill="#cdd6f4">ens3f0np0</text>
<text xml:space="preserve" text-anchor="start" x="291.38" y="-866.95" font-family="Helvetica,Arial,sans-serif" font-size="9.00" fill="#a6adc8">XX:XX:XX:XX:XX:05</text>
<text xml:space="preserve" text-anchor="start" x="309.75" y="-847.2" font-family="Helvetica,Arial,sans-serif" font-size="9.00" fill="#a6adc8">MTU: 9100</text>
<text xml:space="preserve" text-anchor="start" x="286.5" y="-826.55" font-family="Helvetica,Arial,sans-serif" font-weight="bold" font-size="11.00" fill="#a6e3a1">↓</text>
<text xml:space="preserve" text-anchor="start" x="291.75" y="-826.55" font-family="Helvetica,Arial,sans-serif" font-size="9.00" fill="#a6adc8">80.8 KB/s</text>
<text xml:space="preserve" text-anchor="start" x="330.75" y="-826.55" font-family="Helvetica,Arial,sans-serif" font-size="11.00" fill="#cdd6f4"> </text>
<text xml:space="preserve" text-anchor="start" x="333.75" y="-826.55" font-family="Helvetica,Arial,sans-serif" font-weight="bold" font-size="11.00" fill="#89b4fa">↑</text>
<text xml:space="preserve" text-anchor="start" x="339" y="-826.55" font-family="Helvetica,Arial,sans-serif" font-size="9.00" fill="#a6adc8">85.2 KB/s</text>
<polygon fill="none" stroke="#a6e3a1" points="279.5,-817.75 279.5,-903.75 385,-903.75 385,-817.75 279.5,-817.75"/>
</g>
<!-- server&#45;&gt;ens3f0np0 -->
<g id="edge5" class="edge">
<title>server&#45;&gt;ens3f0np0</title>
<path fill="none" stroke="#585b70" d="M144.2,-761.8C183.45,-782.56 234.3,-809.46 273.06,-829.97"/>
<polygon fill="#585b70" stroke="#585b70" points="272.04,-831.8 278.33,-832.75 274.01,-828.09 272.04,-831.8"/>
</g>
<!-- ens8f0np0 -->
<g id="node7" class="node">
<title>ens8f0np0</title>
<polygon fill="#313244" stroke="none" points="274.25,-946.75 274.25,-1032.75 390.25,-1032.75 390.25,-946.75 274.25,-946.75"/>
<text xml:space="preserve" text-anchor="start" x="305.25" y="-1016.3" font-family="Helvetica,Arial,sans-serif" font-weight="bold" font-size="11.00" fill="#cdd6f4">ens8f0np0</text>
<text xml:space="preserve" text-anchor="start" x="291.38" y="-995.95" font-family="Helvetica,Arial,sans-serif" font-size="9.00" fill="#a6adc8">XX:XX:XX:XX:XX:0b</text>
<text xml:space="preserve" text-anchor="start" x="309.75" y="-976.2" font-family="Helvetica,Arial,sans-serif" font-size="9.00" fill="#a6adc8">MTU: 9100</text>
<text xml:space="preserve" text-anchor="start" x="281.25" y="-955.55" font-family="Helvetica,Arial,sans-serif" font-weight="bold" font-size="11.00" fill="#a6e3a1">↓</text>
<text xml:space="preserve" text-anchor="start" x="286.5" y="-955.55" font-family="Helvetica,Arial,sans-serif" font-size="9.00" fill="#a6adc8">860.5 KB/s</text>
<text xml:space="preserve" text-anchor="start" x="330.75" y="-955.55" font-family="Helvetica,Arial,sans-serif" font-size="11.00" fill="#cdd6f4"> </text>
<text xml:space="preserve" text-anchor="start" x="333.75" y="-955.55" font-family="Helvetica,Arial,sans-serif" font-weight="bold" font-size="11.00" fill="#89b4fa">↑</text>
<text xml:space="preserve" text-anchor="start" x="339" y="-955.55" font-family="Helvetica,Arial,sans-serif" font-size="9.00" fill="#a6adc8">169.8 KB/s</text>
<polygon fill="none" stroke="#a6e3a1" points="274.25,-946.75 274.25,-1032.75 390.25,-1032.75 390.25,-946.75 274.25,-946.75"/>
</g>
<!-- server&#45;&gt;ens8f0np0 -->
<g id="edge11" class="edge">
<title>server&#45;&gt;ens8f0np0</title>
<path fill="none" stroke="#585b70" d="M112.63,-761.71C148.31,-800.84 210.96,-868.91 266.25,-925.75 271.41,-931.05 276.85,-936.55 282.29,-941.99"/>
<polygon fill="#585b70" stroke="#585b70" points="280.48,-943.16 286.22,-945.9 283.45,-940.18 280.48,-943.16"/>
</g>
<!-- ens3f1np1 -->
<g id="node8" class="node">
<title>ens3f1np1</title>
<polygon fill="#313244" stroke="none" points="278.75,-1337.75 278.75,-1423.75 385.75,-1423.75 385.75,-1337.75 278.75,-1337.75"/>
<text xml:space="preserve" text-anchor="start" x="305.25" y="-1407.3" font-family="Helvetica,Arial,sans-serif" font-weight="bold" font-size="11.00" fill="#cdd6f4">ens3f1np1</text>
<text xml:space="preserve" text-anchor="start" x="291.38" y="-1386.95" font-family="Helvetica,Arial,sans-serif" font-size="9.00" fill="#a6adc8">XX:XX:XX:XX:XX:06</text>
<text xml:space="preserve" text-anchor="start" x="309.75" y="-1367.2" font-family="Helvetica,Arial,sans-serif" font-size="9.00" fill="#a6adc8">MTU: 9100</text>
<text xml:space="preserve" text-anchor="start" x="285.75" y="-1346.55" font-family="Helvetica,Arial,sans-serif" font-weight="bold" font-size="11.00" fill="#a6e3a1">↓</text>
<text xml:space="preserve" text-anchor="start" x="291" y="-1346.55" font-family="Helvetica,Arial,sans-serif" font-size="9.00" fill="#a6adc8">3.9 MB/s</text>
<text xml:space="preserve" text-anchor="start" x="326.25" y="-1346.55" font-family="Helvetica,Arial,sans-serif" font-size="11.00" fill="#cdd6f4"> </text>
<text xml:space="preserve" text-anchor="start" x="329.25" y="-1346.55" font-family="Helvetica,Arial,sans-serif" font-weight="bold" font-size="11.00" fill="#89b4fa">↑</text>
<text xml:space="preserve" text-anchor="start" x="334.5" y="-1346.55" font-family="Helvetica,Arial,sans-serif" font-size="9.00" fill="#a6adc8">782.9 KB/s</text>
<polygon fill="none" stroke="#a6e3a1" points="278.75,-1337.75 278.75,-1423.75 385.75,-1423.75 385.75,-1337.75 278.75,-1337.75"/>
</g>
<!-- server&#45;&gt;ens3f1np1 -->
<g id="edge6" class="edge">
<title>server&#45;&gt;ens3f1np1</title>
<path fill="none" stroke="#585b70" d="M88.55,-761.66C103.63,-852.71 155.08,-1119.46 266.25,-1310.75 270.55,-1318.14 275.75,-1325.4 281.32,-1332.27"/>
<polygon fill="#585b70" stroke="#585b70" points="279.64,-1333.53 285.1,-1336.79 282.86,-1330.84 279.64,-1333.53"/>
</g>
<!-- ens8f1np1 -->
<g id="node9" class="node">
<title>ens8f1np1</title>
<polygon fill="#313244" stroke="none" points="283.25,-1466.75 283.25,-1552.75 381.25,-1552.75 381.25,-1466.75 283.25,-1466.75"/>
<text xml:space="preserve" text-anchor="start" x="305.25" y="-1536.3" font-family="Helvetica,Arial,sans-serif" font-weight="bold" font-size="11.00" fill="#cdd6f4">ens8f1np1</text>
<text xml:space="preserve" text-anchor="start" x="291.75" y="-1515.95" font-family="Helvetica,Arial,sans-serif" font-size="9.00" fill="#a6adc8">XX:XX:XX:XX:XX:0c</text>
<text xml:space="preserve" text-anchor="start" x="309.75" y="-1496.2" font-family="Helvetica,Arial,sans-serif" font-size="9.00" fill="#a6adc8">MTU: 9100</text>
<text xml:space="preserve" text-anchor="start" x="290.25" y="-1475.55" font-family="Helvetica,Arial,sans-serif" font-weight="bold" font-size="11.00" fill="#a6e3a1">↓</text>
<text xml:space="preserve" text-anchor="start" x="295.5" y="-1475.55" font-family="Helvetica,Arial,sans-serif" font-size="9.00" fill="#a6adc8">1.9 MB/s</text>
<text xml:space="preserve" text-anchor="start" x="330.75" y="-1475.55" font-family="Helvetica,Arial,sans-serif" font-size="11.00" fill="#cdd6f4"> </text>
<text xml:space="preserve" text-anchor="start" x="333.75" y="-1475.55" font-family="Helvetica,Arial,sans-serif" font-weight="bold" font-size="11.00" fill="#89b4fa">↑</text>
<text xml:space="preserve" text-anchor="start" x="339" y="-1475.55" font-family="Helvetica,Arial,sans-serif" font-size="9.00" fill="#a6adc8">1.3 MB/s</text>
<polygon fill="none" stroke="#a6e3a1" points="283.25,-1466.75 283.25,-1552.75 381.25,-1552.75 381.25,-1466.75 283.25,-1466.75"/>
</g>
<!-- server&#45;&gt;ens8f1np1 -->
<g id="edge12" class="edge">
<title>server&#45;&gt;ens8f1np1</title>
<path fill="none" stroke="#585b70" d="M85.69,-761.65C93.68,-866.51 129.34,-1207.43 266.25,-1445.75 269.74,-1451.83 273.97,-1457.71 278.57,-1463.3"/>
<polygon fill="#585b70" stroke="#585b70" points="276.79,-1464.45 282.3,-1467.63 279.97,-1461.71 276.79,-1464.45"/>
</g>
<!-- eno3np2 -->
<g id="node10" class="node">
<title>eno3np2</title>
<polygon fill="#313244" stroke="none" points="619,-533.75 619,-619.75 714.75,-619.75 714.75,-533.75 619,-533.75"/>
<text xml:space="preserve" text-anchor="start" x="644.38" y="-603.3" font-family="Helvetica,Arial,sans-serif" font-weight="bold" font-size="11.00" fill="#cdd6f4">eno3np2</text>
<text xml:space="preserve" text-anchor="start" x="626" y="-582.95" font-family="Helvetica,Arial,sans-serif" font-size="9.00" fill="#a6adc8">XX:XX:XX:XX:XX:03</text>
<text xml:space="preserve" text-anchor="start" x="644.38" y="-563.2" font-family="Helvetica,Arial,sans-serif" font-size="9.00" fill="#a6adc8">MTU: 1500</text>
<text xml:space="preserve" text-anchor="start" x="639.88" y="-542.55" font-family="Helvetica,Arial,sans-serif" font-weight="bold" font-size="11.00" fill="#a6e3a1">↓</text>
<text xml:space="preserve" text-anchor="start" x="645.12" y="-542.55" font-family="Helvetica,Arial,sans-serif" font-size="9.00" fill="#a6adc8">0 B/s</text>
<text xml:space="preserve" text-anchor="start" x="665.38" y="-542.55" font-family="Helvetica,Arial,sans-serif" font-size="11.00" fill="#cdd6f4"> </text>
<text xml:space="preserve" text-anchor="start" x="668.38" y="-542.55" font-family="Helvetica,Arial,sans-serif" font-weight="bold" font-size="11.00" fill="#89b4fa">↑</text>
<text xml:space="preserve" text-anchor="start" x="673.62" y="-542.55" font-family="Helvetica,Arial,sans-serif" font-size="9.00" fill="#a6adc8">0 B/s</text>
<polygon fill="none" stroke="#f38ba8" points="619,-533.75 619,-619.75 714.75,-619.75 714.75,-533.75 619,-533.75"/>
</g>
<!-- server&#45;&gt;eno3np2 -->
<g id="edge3" class="edge">
<title>server&#45;&gt;eno3np2</title>
<path fill="none" stroke="#585b70" d="M99.6,-697.86C126.3,-648.6 185.17,-555.8 266.25,-518.75 381.61,-466.03 533.5,-516.79 612.68,-551.1"/>
<polygon fill="#585b70" stroke="#585b70" points="611.46,-552.86 617.79,-553.35 613.14,-549.01 611.46,-552.86"/>
</g>
<!-- eno4np3 -->
<g id="node11" class="node">
<title>eno4np3</title>
<polygon fill="#313244" stroke="none" points="619,-404.75 619,-490.75 714.75,-490.75 714.75,-404.75 619,-404.75"/>
<text xml:space="preserve" text-anchor="start" x="644.38" y="-474.3" font-family="Helvetica,Arial,sans-serif" font-weight="bold" font-size="11.00" fill="#cdd6f4">eno4np3</text>
<text xml:space="preserve" text-anchor="start" x="626" y="-453.95" font-family="Helvetica,Arial,sans-serif" font-size="9.00" fill="#a6adc8">XX:XX:XX:XX:XX:04</text>
<text xml:space="preserve" text-anchor="start" x="644.38" y="-434.2" font-family="Helvetica,Arial,sans-serif" font-size="9.00" fill="#a6adc8">MTU: 1500</text>
<text xml:space="preserve" text-anchor="start" x="639.88" y="-413.55" font-family="Helvetica,Arial,sans-serif" font-weight="bold" font-size="11.00" fill="#a6e3a1">↓</text>
<text xml:space="preserve" text-anchor="start" x="645.12" y="-413.55" font-family="Helvetica,Arial,sans-serif" font-size="9.00" fill="#a6adc8">0 B/s</text>
<text xml:space="preserve" text-anchor="start" x="665.38" y="-413.55" font-family="Helvetica,Arial,sans-serif" font-size="11.00" fill="#cdd6f4"> </text>
<text xml:space="preserve" text-anchor="start" x="668.38" y="-413.55" font-family="Helvetica,Arial,sans-serif" font-weight="bold" font-size="11.00" fill="#89b4fa">↑</text>
<text xml:space="preserve" text-anchor="start" x="673.62" y="-413.55" font-family="Helvetica,Arial,sans-serif" font-size="9.00" fill="#a6adc8">0 B/s</text>
<polygon fill="none" stroke="#f38ba8" points="619,-404.75 619,-490.75 714.75,-490.75 714.75,-404.75 619,-404.75"/>
</g>
<!-- server&#45;&gt;eno4np3 -->
<g id="edge4" class="edge">
<title>server&#45;&gt;eno4np3</title>
<path fill="none" stroke="#585b70" d="M96.01,-697.93C119.51,-642.6 176.43,-530.31 266.25,-485.75 379.28,-429.68 532.29,-433.91 612.22,-441.19"/>
<polygon fill="#585b70" stroke="#585b70" points="611.57,-443.24 617.74,-441.72 611.97,-439.06 611.57,-443.24"/>
</g>
<!-- ens5f2np2 -->
<g id="node12" class="node">
<title>ens5f2np2</title>
<polygon fill="#313244" stroke="none" points="619,-275.75 619,-361.75 714.75,-361.75 714.75,-275.75 619,-275.75"/>
<text xml:space="preserve" text-anchor="start" x="639.88" y="-345.3" font-family="Helvetica,Arial,sans-serif" font-weight="bold" font-size="11.00" fill="#cdd6f4">ens5f2np2</text>
<text xml:space="preserve" text-anchor="start" x="626" y="-324.95" font-family="Helvetica,Arial,sans-serif" font-size="9.00" fill="#a6adc8">XX:XX:XX:XX:XX:09</text>
<text xml:space="preserve" text-anchor="start" x="644.38" y="-305.2" font-family="Helvetica,Arial,sans-serif" font-size="9.00" fill="#a6adc8">MTU: 1500</text>
<text xml:space="preserve" text-anchor="start" x="639.88" y="-284.55" font-family="Helvetica,Arial,sans-serif" font-weight="bold" font-size="11.00" fill="#a6e3a1">↓</text>
<text xml:space="preserve" text-anchor="start" x="645.12" y="-284.55" font-family="Helvetica,Arial,sans-serif" font-size="9.00" fill="#a6adc8">0 B/s</text>
<text xml:space="preserve" text-anchor="start" x="665.38" y="-284.55" font-family="Helvetica,Arial,sans-serif" font-size="11.00" fill="#cdd6f4"> </text>
<text xml:space="preserve" text-anchor="start" x="668.38" y="-284.55" font-family="Helvetica,Arial,sans-serif" font-weight="bold" font-size="11.00" fill="#89b4fa">↑</text>
<text xml:space="preserve" text-anchor="start" x="673.62" y="-284.55" font-family="Helvetica,Arial,sans-serif" font-size="9.00" fill="#a6adc8">0 B/s</text>
<polygon fill="none" stroke="#f38ba8" points="619,-275.75 619,-361.75 714.75,-361.75 714.75,-275.75 619,-275.75"/>
</g>
<!-- server&#45;&gt;ens5f2np2 -->
<g id="edge9" class="edge">
<title>server&#45;&gt;ens5f2np2</title>
<path fill="none" stroke="#585b70" d="M94.23,-698.07C116.22,-637.41 172.67,-504.76 266.25,-435.75 372.29,-357.55 529.88,-331.4 611.89,-322.82"/>
<polygon fill="#585b70" stroke="#585b70" points="611.84,-324.93 617.59,-322.24 611.41,-320.75 611.84,-324.93"/>
</g>
<!-- ens5f3np3 -->
<g id="node13" class="node">
<title>ens5f3np3</title>
<polygon fill="#313244" stroke="none" points="619,-146.75 619,-232.75 714.75,-232.75 714.75,-146.75 619,-146.75"/>
<text xml:space="preserve" text-anchor="start" x="639.88" y="-216.3" font-family="Helvetica,Arial,sans-serif" font-weight="bold" font-size="11.00" fill="#cdd6f4">ens5f3np3</text>
<text xml:space="preserve" text-anchor="start" x="626" y="-195.95" font-family="Helvetica,Arial,sans-serif" font-size="9.00" fill="#a6adc8">XX:XX:XX:XX:XX:0a</text>
<text xml:space="preserve" text-anchor="start" x="644.38" y="-176.2" font-family="Helvetica,Arial,sans-serif" font-size="9.00" fill="#a6adc8">MTU: 1500</text>
<text xml:space="preserve" text-anchor="start" x="639.88" y="-155.55" font-family="Helvetica,Arial,sans-serif" font-weight="bold" font-size="11.00" fill="#a6e3a1">↓</text>
<text xml:space="preserve" text-anchor="start" x="645.12" y="-155.55" font-family="Helvetica,Arial,sans-serif" font-size="9.00" fill="#a6adc8">0 B/s</text>
<text xml:space="preserve" text-anchor="start" x="665.38" y="-155.55" font-family="Helvetica,Arial,sans-serif" font-size="11.00" fill="#cdd6f4"> </text>
<text xml:space="preserve" text-anchor="start" x="668.38" y="-155.55" font-family="Helvetica,Arial,sans-serif" font-weight="bold" font-size="11.00" fill="#89b4fa">↑</text>
<text xml:space="preserve" text-anchor="start" x="673.62" y="-155.55" font-family="Helvetica,Arial,sans-serif" font-size="9.00" fill="#a6adc8">0 B/s</text>
<polygon fill="none" stroke="#f38ba8" points="619,-146.75 619,-232.75 714.75,-232.75 714.75,-146.75 619,-146.75"/>
</g>
<!-- server&#45;&gt;ens5f3np3 -->
<g id="edge10" class="edge">
<title>server&#45;&gt;ens5f3np3</title>
<path fill="none" stroke="#585b70" d="M91.28,-697.72C109.63,-627.36 162.52,-457.8 266.25,-359.75 366.74,-264.76 528.36,-218.62 611.94,-200.09"/>
<polygon fill="#585b70" stroke="#585b70" points="612.15,-202.2 617.56,-198.87 611.25,-198.09 612.15,-202.2"/>
</g>
<!-- idrac -->
<g id="node14" class="node">
<title>idrac</title>
<polygon fill="#313244" stroke="none" points="619,-17.75 619,-103.75 714.75,-103.75 714.75,-17.75 619,-17.75"/>
<text xml:space="preserve" text-anchor="start" x="653.75" y="-87.3" font-family="Helvetica,Arial,sans-serif" font-weight="bold" font-size="11.00" fill="#cdd6f4">idrac</text>
<text xml:space="preserve" text-anchor="start" x="626" y="-66.95" font-family="Helvetica,Arial,sans-serif" font-size="9.00" fill="#a6adc8">XX:XX:XX:XX:XX:0d</text>
<text xml:space="preserve" text-anchor="start" x="644.38" y="-47.2" font-family="Helvetica,Arial,sans-serif" font-size="9.00" fill="#a6adc8">MTU: 1500</text>
<text xml:space="preserve" text-anchor="start" x="639.88" y="-26.55" font-family="Helvetica,Arial,sans-serif" font-weight="bold" font-size="11.00" fill="#a6e3a1">↓</text>
<text xml:space="preserve" text-anchor="start" x="645.12" y="-26.55" font-family="Helvetica,Arial,sans-serif" font-size="9.00" fill="#a6adc8">0 B/s</text>
<text xml:space="preserve" text-anchor="start" x="665.38" y="-26.55" font-family="Helvetica,Arial,sans-serif" font-size="11.00" fill="#cdd6f4"> </text>
<text xml:space="preserve" text-anchor="start" x="668.38" y="-26.55" font-family="Helvetica,Arial,sans-serif" font-weight="bold" font-size="11.00" fill="#89b4fa">↑</text>
<text xml:space="preserve" text-anchor="start" x="673.62" y="-26.55" font-family="Helvetica,Arial,sans-serif" font-size="9.00" fill="#a6adc8">0 B/s</text>
<polygon fill="none" stroke="#a6e3a1" points="619,-17.75 619,-103.75 714.75,-103.75 714.75,-17.75 619,-17.75"/>
</g>
<!-- server&#45;&gt;idrac -->
<g id="edge13" class="edge">
<title>server&#45;&gt;idrac</title>
<path fill="none" stroke="#585b70" d="M88.06,-697.77C100.97,-615.62 145.61,-394.3 266.25,-261.75 362.51,-156 527.04,-98.39 611.83,-74.37"/>
<polygon fill="#585b70" stroke="#585b70" points="612.37,-76.41 617.58,-72.77 611.24,-72.36 612.37,-76.41"/>
</g>
<!-- swport_dev_collapsed_ipf01cly_lf01_ifname_xe_0_0_2 -->
<g id="node15" class="node">
<title>swport_dev_collapsed_ipf01cly_lf01_ifname_xe_0_0_2</title>
<polygon fill="#313244" stroke="none" points="620.5,-949.12 620.5,-974.38 713.25,-974.38 713.25,-949.12 620.5,-949.12"/>
<text xml:space="preserve" text-anchor="start" x="627.5" y="-957.92" font-family="Helvetica,Arial,sans-serif" font-weight="bold" font-size="11.00" fill="#cdd6f4">ifname xe&#45;0/0/2</text>
<polygon fill="none" stroke="#fab387" points="620.5,-949.12 620.5,-974.38 713.25,-974.38 713.25,-949.12 620.5,-949.12"/>
</g>
<!-- eno1np0&#45;&gt;swport_dev_collapsed_ipf01cly_lf01_ifname_xe_0_0_2 -->
<g id="edge14" class="edge">
<title>eno1np0&#45;&gt;swport_dev_collapsed_ipf01cly_lf01_ifname_xe_0_0_2</title>
<path fill="none" stroke="#89b4fa" stroke-width="2.5" d="M372.7,-1077.86C397.65,-1051.65 428.14,-1021.53 444.25,-1012.75 495.26,-984.95 560.84,-972.26 607.39,-966.49"/>
<polygon fill="#89b4fa" stroke="#89b4fa" stroke-width="2.5" points="607.6,-969.99 617.13,-965.38 606.8,-963.04 607.6,-969.99"/>
<text xml:space="preserve" text-anchor="start" x="444.25" y="-1024.25" font-family="Helvetica,Arial,sans-serif" font-size="10.00" fill="#a6adc8">VLAN 100;101;102;110;111</text>
<text xml:space="preserve" text-anchor="start" x="489.62" y="-1013.75" font-family="Helvetica,Arial,sans-serif" font-size="10.00" fill="#a6adc8">10GbE</text>
</g>
<!-- swport_dev_collapsed_ipf01cly_lf02_ifname_xe_0_0_2 -->
<g id="node19" class="node">
<title>swport_dev_collapsed_ipf01cly_lf02_ifname_xe_0_0_2</title>
<polygon fill="#313244" stroke="none" points="620.5,-1229.12 620.5,-1254.38 713.25,-1254.38 713.25,-1229.12 620.5,-1229.12"/>
<text xml:space="preserve" text-anchor="start" x="627.5" y="-1237.92" font-family="Helvetica,Arial,sans-serif" font-weight="bold" font-size="11.00" fill="#cdd6f4">ifname xe&#45;0/0/2</text>
<polygon fill="none" stroke="#fab387" points="620.5,-1229.12 620.5,-1254.38 713.25,-1254.38 713.25,-1229.12 620.5,-1229.12"/>
</g>
<!-- ens5f0np0&#45;&gt;swport_dev_collapsed_ipf01cly_lf02_ifname_xe_0_0_2 -->
<g id="edge20" class="edge">
<title>ens5f0np0&#45;&gt;swport_dev_collapsed_ipf01cly_lf02_ifname_xe_0_0_2</title>
<path fill="none" stroke="#89b4fa" stroke-width="2.5" d="M384.86,-1248.51C444.91,-1247.06 543.87,-1244.68 606.91,-1243.17"/>
<polygon fill="#89b4fa" stroke="#89b4fa" stroke-width="2.5" points="606.87,-1246.67 616.78,-1242.93 606.7,-1239.67 606.87,-1246.67"/>
<text xml:space="preserve" text-anchor="start" x="444.25" y="-1258.43" font-family="Helvetica,Arial,sans-serif" font-size="10.00" fill="#a6adc8">VLAN 100;101;102;110;111</text>
<text xml:space="preserve" text-anchor="start" x="489.62" y="-1247.93" font-family="Helvetica,Arial,sans-serif" font-size="10.00" fill="#a6adc8">10GbE</text>
</g>
<!-- swport_dev_collapsed_ipf01cly_lf01_ifname_xe_0_0_3 -->
<g id="node16" class="node">
<title>swport_dev_collapsed_ipf01cly_lf01_ifname_xe_0_0_3</title>
<polygon fill="#313244" stroke="none" points="620.5,-754.12 620.5,-779.38 713.25,-779.38 713.25,-754.12 620.5,-754.12"/>
<text xml:space="preserve" text-anchor="start" x="627.5" y="-762.92" font-family="Helvetica,Arial,sans-serif" font-weight="bold" font-size="11.00" fill="#cdd6f4">ifname xe&#45;0/0/3</text>
<polygon fill="none" stroke="#fab387" points="620.5,-754.12 620.5,-779.38 713.25,-779.38 713.25,-754.12 620.5,-754.12"/>
</g>
<!-- eno2np1&#45;&gt;swport_dev_collapsed_ipf01cly_lf01_ifname_xe_0_0_3 -->
<g id="edge15" class="edge">
<title>eno2np1&#45;&gt;swport_dev_collapsed_ipf01cly_lf01_ifname_xe_0_0_3</title>
<path fill="none" stroke="#f9e2af" stroke-width="2.5" d="M379.85,-624.01C446.45,-657.24 567.54,-717.68 628.58,-748.14"/>
<polygon fill="#f9e2af" stroke="#f9e2af" stroke-width="2.5" points="626.76,-751.14 637.27,-752.47 629.88,-744.88 626.76,-751.14"/>
<text xml:space="preserve" text-anchor="start" x="444.25" y="-724.56" font-family="Helvetica,Arial,sans-serif" font-size="10.00" fill="#a6adc8">VLAN 200;201;202;211;212</text>
<text xml:space="preserve" text-anchor="start" x="489.62" y="-714.06" font-family="Helvetica,Arial,sans-serif" font-size="10.00" fill="#a6adc8">10GbE</text>
</g>
<!-- swport_dev_collapsed_ipf01cly_lf02_ifname_xe_0_0_3 -->
<g id="node20" class="node">
<title>swport_dev_collapsed_ipf01cly_lf02_ifname_xe_0_0_3</title>
<polygon fill="#313244" stroke="none" points="620.5,-1089.12 620.5,-1114.38 713.25,-1114.38 713.25,-1089.12 620.5,-1089.12"/>
<text xml:space="preserve" text-anchor="start" x="627.5" y="-1097.92" font-family="Helvetica,Arial,sans-serif" font-weight="bold" font-size="11.00" fill="#cdd6f4">ifname xe&#45;0/0/3</text>
<polygon fill="none" stroke="#fab387" points="620.5,-1089.12 620.5,-1114.38 713.25,-1114.38 713.25,-1089.12 620.5,-1089.12"/>
</g>
<!-- ens5f1np1&#45;&gt;swport_dev_collapsed_ipf01cly_lf02_ifname_xe_0_0_3 -->
<g id="edge21" class="edge">
<title>ens5f1np1&#45;&gt;swport_dev_collapsed_ipf01cly_lf02_ifname_xe_0_0_3</title>
<path fill="none" stroke="#f9e2af" stroke-width="2.5" d="M380.12,-758.08C387.1,-764.12 393.53,-771.04 398.25,-778.75 459.78,-879.19 365.16,-952.47 444.25,-1039.75 466.05,-1063.8 549.45,-1082.3 607.48,-1092.6"/>
<polygon fill="#f9e2af" stroke="#f9e2af" stroke-width="2.5" points="606.72,-1096.02 617.17,-1094.28 607.91,-1089.12 606.72,-1096.02"/>
<text xml:space="preserve" text-anchor="start" x="444.25" y="-1095.15" font-family="Helvetica,Arial,sans-serif" font-size="10.00" fill="#a6adc8">VLAN 200;201;202;211;212</text>
<text xml:space="preserve" text-anchor="start" x="489.62" y="-1084.65" font-family="Helvetica,Arial,sans-serif" font-size="10.00" fill="#a6adc8">10GbE</text>
</g>
<!-- swport_dev_collapsed_ipf01cly_lf01_ifname_et_0_0_38 -->
<g id="node17" class="node">
<title>swport_dev_collapsed_ipf01cly_lf01_ifname_et_0_0_38</title>
<polygon fill="#313244" stroke="none" points="619,-881.12 619,-906.38 714.75,-906.38 714.75,-881.12 619,-881.12"/>
<text xml:space="preserve" text-anchor="start" x="626" y="-889.92" font-family="Helvetica,Arial,sans-serif" font-weight="bold" font-size="11.00" fill="#cdd6f4">ifname et&#45;0/0/38</text>
<polygon fill="none" stroke="#fab387" points="619,-881.12 619,-906.38 714.75,-906.38 714.75,-881.12 619,-881.12"/>
</g>
<!-- ens3f0np0&#45;&gt;swport_dev_collapsed_ipf01cly_lf01_ifname_et_0_0_38 -->
<g id="edge18" class="edge">
<title>ens3f0np0&#45;&gt;swport_dev_collapsed_ipf01cly_lf01_ifname_et_0_0_38</title>
<path fill="none" stroke="#94e2d5" stroke-width="3" d="M384.86,-865.87C444.36,-871.77 542.07,-881.47 605.17,-887.73"/>
<polygon fill="#94e2d5" stroke="#94e2d5" stroke-width="3" points="604.44,-891.17 614.73,-888.68 605.13,-884.21 604.44,-891.17"/>
<text xml:space="preserve" text-anchor="start" x="481.75" y="-894.58" font-family="Helvetica,Arial,sans-serif" font-size="10.00" fill="#a6adc8">VLAN 501</text>
<text xml:space="preserve" text-anchor="start" x="489.62" y="-884.08" font-family="Helvetica,Arial,sans-serif" font-size="10.00" fill="#a6adc8">25GbE</text>
</g>
<!-- swport_dev_collapsed_ipf01cly_lf02_ifname_et_0_0_38 -->
<g id="node21" class="node">
<title>swport_dev_collapsed_ipf01cly_lf02_ifname_et_0_0_38</title>
<polygon fill="#313244" stroke="none" points="619,-1157.12 619,-1182.38 714.75,-1182.38 714.75,-1157.12 619,-1157.12"/>
<text xml:space="preserve" text-anchor="start" x="626" y="-1165.92" font-family="Helvetica,Arial,sans-serif" font-weight="bold" font-size="11.00" fill="#cdd6f4">ifname et&#45;0/0/38</text>
<polygon fill="none" stroke="#fab387" points="619,-1157.12 619,-1182.38 714.75,-1182.38 714.75,-1157.12 619,-1157.12"/>
</g>
<!-- ens8f0np0&#45;&gt;swport_dev_collapsed_ipf01cly_lf02_ifname_et_0_0_38 -->
<g id="edge24" class="edge">
<title>ens8f0np0&#45;&gt;swport_dev_collapsed_ipf01cly_lf02_ifname_et_0_0_38</title>
<path fill="none" stroke="#94e2d5" stroke-width="3" d="M390.15,-1030.38C392.99,-1033.1 395.72,-1035.9 398.25,-1038.75 425.23,-1069.13 411.59,-1093.58 444.25,-1117.75 491.04,-1152.37 557.34,-1164.36 605.21,-1168.31"/>
<polygon fill="#94e2d5" stroke="#94e2d5" stroke-width="3" points="604.69,-1171.78 614.91,-1168.98 605.17,-1164.8 604.69,-1171.78"/>
<text xml:space="preserve" text-anchor="start" x="481.75" y="-1174.57" font-family="Helvetica,Arial,sans-serif" font-size="10.00" fill="#a6adc8">VLAN 501</text>
<text xml:space="preserve" text-anchor="start" x="489.62" y="-1164.07" font-family="Helvetica,Arial,sans-serif" font-size="10.00" fill="#a6adc8">25GbE</text>
</g>
<!-- swport_dev_collapsed_ipf01cly_lf01_ifname_et_0_0_39 -->
<g id="node18" class="node">
<title>swport_dev_collapsed_ipf01cly_lf01_ifname_et_0_0_39</title>
<polygon fill="#313244" stroke="none" points="619,-1317.12 619,-1342.38 714.75,-1342.38 714.75,-1317.12 619,-1317.12"/>
<text xml:space="preserve" text-anchor="start" x="626" y="-1325.92" font-family="Helvetica,Arial,sans-serif" font-weight="bold" font-size="11.00" fill="#cdd6f4">ifname et&#45;0/0/39</text>
<polygon fill="none" stroke="#fab387" points="619,-1317.12 619,-1342.38 714.75,-1342.38 714.75,-1317.12 619,-1317.12"/>
</g>
<!-- ens3f1np1&#45;&gt;swport_dev_collapsed_ipf01cly_lf01_ifname_et_0_0_39 -->
<g id="edge19" class="edge">
<title>ens3f1np1&#45;&gt;swport_dev_collapsed_ipf01cly_lf01_ifname_et_0_0_39</title>
<path fill="none" stroke="#f5c2e7" stroke-width="3" d="M385.59,-1372.73C445.16,-1363.59 542.34,-1348.69 605.18,-1339.06"/>
<polygon fill="#f5c2e7" stroke="#f5c2e7" stroke-width="3" points="605.37,-1342.57 614.72,-1337.59 604.31,-1335.65 605.37,-1342.57"/>
<text xml:space="preserve" text-anchor="start" x="481.75" y="-1374.3" font-family="Helvetica,Arial,sans-serif" font-size="10.00" fill="#a6adc8">VLAN 502</text>
<text xml:space="preserve" text-anchor="start" x="489.62" y="-1363.8" font-family="Helvetica,Arial,sans-serif" font-size="10.00" fill="#a6adc8">25GbE</text>
</g>
<!-- swport_dev_collapsed_ipf01cly_lf02_ifname_et_0_0_39 -->
<g id="node22" class="node">
<title>swport_dev_collapsed_ipf01cly_lf02_ifname_et_0_0_39</title>
<polygon fill="#313244" stroke="none" points="619,-1429.12 619,-1454.38 714.75,-1454.38 714.75,-1429.12 619,-1429.12"/>
<text xml:space="preserve" text-anchor="start" x="626" y="-1437.92" font-family="Helvetica,Arial,sans-serif" font-weight="bold" font-size="11.00" fill="#cdd6f4">ifname et&#45;0/0/39</text>
<polygon fill="none" stroke="#fab387" points="619,-1429.12 619,-1454.38 714.75,-1454.38 714.75,-1429.12 619,-1429.12"/>
</g>
<!-- ens8f1np1&#45;&gt;swport_dev_collapsed_ipf01cly_lf02_ifname_et_0_0_39 -->
<g id="edge25" class="edge">
<title>ens8f1np1&#45;&gt;swport_dev_collapsed_ipf01cly_lf02_ifname_et_0_0_39</title>
<path fill="none" stroke="#f5c2e7" stroke-width="3" d="M380.91,-1500.01C439.94,-1487.94 540.6,-1467.36 605.13,-1454.17"/>
<polygon fill="#f5c2e7" stroke="#f5c2e7" stroke-width="3" points="605.57,-1457.65 614.66,-1452.22 604.16,-1450.79 605.57,-1457.65"/>
<text xml:space="preserve" text-anchor="start" x="481.75" y="-1497.31" font-family="Helvetica,Arial,sans-serif" font-size="10.00" fill="#a6adc8">VLAN 502</text>
<text xml:space="preserve" text-anchor="start" x="489.62" y="-1486.81" font-family="Helvetica,Arial,sans-serif" font-size="10.00" fill="#a6adc8">25GbE</text>
</g>
<!-- no_lldp_peer -->
<g id="node25" class="node">
<title>no_lldp_peer</title>
<path fill="#313244" stroke="none" d="M874.42,-305C874.42,-305 939.83,-305 939.83,-305 944.42,-305 949,-309.58 949,-314.17 949,-314.17 949,-323.33 949,-323.33 949,-327.92 944.42,-332.5 939.83,-332.5 939.83,-332.5 874.42,-332.5 874.42,-332.5 869.83,-332.5 865.25,-327.92 865.25,-323.33 865.25,-323.33 865.25,-314.17 865.25,-314.17 865.25,-309.58 869.83,-305 874.42,-305"/>
<text xml:space="preserve" text-anchor="start" x="872.25" y="-316.05" font-family="Helvetica,Arial,sans-serif" font-style="italic" font-size="11.00" fill="#6c7086">No LLDP peer</text>
<path fill="none" stroke="#6c7086" d="M874.42,-305C874.42,-305 939.83,-305 939.83,-305 944.42,-305 949,-309.58 949,-314.17 949,-314.17 949,-323.33 949,-323.33 949,-327.92 944.42,-332.5 939.83,-332.5 939.83,-332.5 874.42,-332.5 874.42,-332.5 869.83,-332.5 865.25,-327.92 865.25,-323.33 865.25,-323.33 865.25,-314.17 865.25,-314.17 865.25,-309.58 869.83,-305 874.42,-305"/>
</g>
<!-- eno3np2&#45;&gt;no_lldp_peer -->
<g id="edge16" class="edge">
<title>eno3np2&#45;&gt;no_lldp_peer</title>
<path fill="none" stroke="#6c7086" stroke-dasharray="5,2" d="M707.48,-533.86C758.87,-478.21 846.6,-383.21 885.96,-340.58"/>
<polygon fill="#6c7086" stroke="#6c7086" points="888.36,-343.15 892.57,-333.43 883.22,-338.4 888.36,-343.15"/>
</g>
<!-- eno4np3&#45;&gt;no_lldp_peer -->
<g id="edge17" class="edge">
<title>eno4np3&#45;&gt;no_lldp_peer</title>
<path fill="none" stroke="#6c7086" stroke-dasharray="5,2" d="M714.66,-422.42C760.64,-397.53 829.74,-360.11 871.15,-337.69"/>
<polygon fill="#6c7086" stroke="#6c7086" points="872.59,-340.89 879.71,-333.05 869.25,-334.73 872.59,-340.89"/>
</g>
<!-- ens5f2np2&#45;&gt;no_lldp_peer -->
<g id="edge22" class="edge">
<title>ens5f2np2&#45;&gt;no_lldp_peer</title>
<path fill="none" stroke="#6c7086" stroke-dasharray="5,2" d="M714.66,-318.75C754.8,-318.75 812.56,-318.75 854.13,-318.75"/>
<polygon fill="#6c7086" stroke="#6c7086" points="853.89,-322.25 863.89,-318.75 853.89,-315.25 853.89,-322.25"/>
</g>
<!-- ens5f3np3&#45;&gt;no_lldp_peer -->
<g id="edge23" class="edge">
<title>ens5f3np3&#45;&gt;no_lldp_peer</title>
<path fill="none" stroke="#6c7086" stroke-dasharray="5,2" d="M714.66,-215.08C760.64,-239.97 829.74,-277.39 871.15,-299.81"/>
<polygon fill="#6c7086" stroke="#6c7086" points="869.25,-302.77 879.71,-304.45 872.59,-296.61 869.25,-302.77"/>
</g>
<!-- idrac&#45;&gt;no_lldp_peer -->
<g id="edge26" class="edge">
<title>idrac&#45;&gt;no_lldp_peer</title>
<path fill="none" stroke="#6c7086" stroke-dasharray="5,2" d="M707.48,-103.64C758.87,-159.29 846.6,-254.29 885.96,-296.92"/>
<polygon fill="#6c7086" stroke="#6c7086" points="883.22,-299.1 892.57,-304.07 888.36,-294.35 883.22,-299.1"/>
</g>
<!-- sw_switch_01_example_net -->
<g id="node23" class="node">
<title>sw_switch_01_example_net</title>
<path fill="#313244" stroke="none" d="M835.75,-893.62C835.75,-893.62 978.5,-893.62 978.5,-893.62 984.5,-893.62 990.5,-899.62 990.5,-905.62 990.5,-905.62 990.5,-945.88 990.5,-945.88 990.5,-951.88 984.5,-957.88 978.5,-957.88 978.5,-957.88 835.75,-957.88 835.75,-957.88 829.75,-957.88 823.75,-951.88 823.75,-945.88 823.75,-945.88 823.75,-905.62 823.75,-905.62 823.75,-899.62 829.75,-893.62 835.75,-893.62"/>
<text xml:space="preserve" text-anchor="start" x="834.75" y="-934.58" font-family="Helvetica,Arial,sans-serif" font-weight="bold" font-size="14.00" fill="#fab387">switch&#45;01.example.net</text>
<text xml:space="preserve" text-anchor="start" x="891" y="-905.42" font-family="Helvetica,Arial,sans-serif" font-size="11.00" fill="#a6adc8">Switch</text>
<path fill="none" stroke="#fab387" d="M835.75,-893.62C835.75,-893.62 978.5,-893.62 978.5,-893.62 984.5,-893.62 990.5,-899.62 990.5,-905.62 990.5,-905.62 990.5,-945.88 990.5,-945.88 990.5,-951.88 984.5,-957.88 978.5,-957.88 978.5,-957.88 835.75,-957.88 835.75,-957.88 829.75,-957.88 823.75,-951.88 823.75,-945.88 823.75,-945.88 823.75,-905.62 823.75,-905.62 823.75,-899.62 829.75,-893.62 835.75,-893.62"/>
</g>
<!-- swport_dev_collapsed_ipf01cly_lf01_ifname_xe_0_0_2&#45;&gt;sw_switch_01_example_net -->
<g id="edge27" class="edge">
<title>swport_dev_collapsed_ipf01cly_lf01_ifname_xe_0_0_2&#45;&gt;sw_switch_01_example_net</title>
<path fill="none" stroke="#585b70" d="M713.25,-954.89C742.49,-950.48 781.5,-944.58 816.78,-939.25"/>
<polygon fill="#585b70" stroke="#585b70" points="816.67,-941.39 822.29,-938.42 816.04,-937.24 816.67,-941.39"/>
</g>
<!-- swport_dev_collapsed_ipf01cly_lf01_ifname_xe_0_0_3&#45;&gt;sw_switch_01_example_net -->
<g id="edge28" class="edge">
<title>swport_dev_collapsed_ipf01cly_lf01_ifname_xe_0_0_3&#45;&gt;sw_switch_01_example_net</title>
<path fill="none" stroke="#585b70" d="M686.57,-779.23C721.85,-802.77 799.43,-854.55 852.26,-889.8"/>
<polygon fill="#585b70" stroke="#585b70" points="850.84,-891.38 856.99,-892.96 853.17,-887.88 850.84,-891.38"/>
</g>
<!-- swport_dev_collapsed_ipf01cly_lf01_ifname_et_0_0_38&#45;&gt;sw_switch_01_example_net -->
<g id="edge29" class="edge">
<title>swport_dev_collapsed_ipf01cly_lf01_ifname_et_0_0_38&#45;&gt;sw_switch_01_example_net</title>
<path fill="none" stroke="#585b70" d="M714.66,-900.03C743.76,-903.94 782.13,-909.1 816.87,-913.76"/>
<polygon fill="#585b70" stroke="#585b70" points="816.5,-915.83 822.73,-914.55 817.06,-911.67 816.5,-915.83"/>
</g>
<!-- swport_dev_collapsed_ipf01cly_lf01_ifname_et_0_0_39&#45;&gt;sw_switch_01_example_net -->
<g id="edge30" class="edge">
<title>swport_dev_collapsed_ipf01cly_lf01_ifname_et_0_0_39&#45;&gt;sw_switch_01_example_net</title>
<path fill="none" stroke="#585b70" d="M679.86,-1317.51C689.85,-1306.95 704.12,-1291.04 714.75,-1275.75 789.1,-1168.83 857.48,-1030.14 888.54,-964.05"/>
<polygon fill="#585b70" stroke="#585b70" points="890.33,-965.19 890.97,-958.87 886.52,-963.41 890.33,-965.19"/>
</g>
<!-- sw_switch_02_example_net -->
<g id="node24" class="node">
<title>sw_switch_02_example_net</title>
<path fill="#313244" stroke="none" d="M835.75,-1172.62C835.75,-1172.62 978.5,-1172.62 978.5,-1172.62 984.5,-1172.62 990.5,-1178.62 990.5,-1184.62 990.5,-1184.62 990.5,-1224.88 990.5,-1224.88 990.5,-1230.88 984.5,-1236.88 978.5,-1236.88 978.5,-1236.88 835.75,-1236.88 835.75,-1236.88 829.75,-1236.88 823.75,-1230.88 823.75,-1224.88 823.75,-1224.88 823.75,-1184.62 823.75,-1184.62 823.75,-1178.62 829.75,-1172.62 835.75,-1172.62"/>
<text xml:space="preserve" text-anchor="start" x="834.75" y="-1213.58" font-family="Helvetica,Arial,sans-serif" font-weight="bold" font-size="14.00" fill="#fab387">switch&#45;02.example.net</text>
<text xml:space="preserve" text-anchor="start" x="891" y="-1184.42" font-family="Helvetica,Arial,sans-serif" font-size="11.00" fill="#a6adc8">Switch</text>
<path fill="none" stroke="#fab387" d="M835.75,-1172.62C835.75,-1172.62 978.5,-1172.62 978.5,-1172.62 984.5,-1172.62 990.5,-1178.62 990.5,-1184.62 990.5,-1184.62 990.5,-1224.88 990.5,-1224.88 990.5,-1230.88 984.5,-1236.88 978.5,-1236.88 978.5,-1236.88 835.75,-1236.88 835.75,-1236.88 829.75,-1236.88 823.75,-1230.88 823.75,-1224.88 823.75,-1224.88 823.75,-1184.62 823.75,-1184.62 823.75,-1178.62 829.75,-1172.62 835.75,-1172.62"/>
</g>
<!-- swport_dev_collapsed_ipf01cly_lf02_ifname_xe_0_0_2&#45;&gt;sw_switch_02_example_net -->
<g id="edge31" class="edge">
<title>swport_dev_collapsed_ipf01cly_lf02_ifname_xe_0_0_2&#45;&gt;sw_switch_02_example_net</title>
<path fill="none" stroke="#585b70" d="M713.25,-1234.7C742.49,-1230.16 781.5,-1224.1 816.78,-1218.62"/>
<polygon fill="#585b70" stroke="#585b70" points="816.69,-1220.77 822.29,-1217.77 816.04,-1216.61 816.69,-1220.77"/>
</g>
<!-- swport_dev_collapsed_ipf01cly_lf02_ifname_xe_0_0_3&#45;&gt;sw_switch_02_example_net -->
<g id="edge32" class="edge">
<title>swport_dev_collapsed_ipf01cly_lf02_ifname_xe_0_0_3&#45;&gt;sw_switch_02_example_net</title>
<path fill="none" stroke="#585b70" d="M696.61,-1114.17C728.28,-1127.86 780.62,-1150.49 825.06,-1169.7"/>
<polygon fill="#585b70" stroke="#585b70" points="824.11,-1171.58 830.45,-1172.03 825.78,-1167.73 824.11,-1171.58"/>
</g>
<!-- swport_dev_collapsed_ipf01cly_lf02_ifname_et_0_0_38&#45;&gt;sw_switch_02_example_net -->
<g id="edge33" class="edge">
<title>swport_dev_collapsed_ipf01cly_lf02_ifname_et_0_0_38&#45;&gt;sw_switch_02_example_net</title>
<path fill="none" stroke="#585b70" d="M714.66,-1176.62C743.76,-1180.9 782.13,-1186.53 816.87,-1191.64"/>
<polygon fill="#585b70" stroke="#585b70" points="816.49,-1193.7 822.73,-1192.5 817.1,-1189.55 816.49,-1193.7"/>
</g>
<!-- swport_dev_collapsed_ipf01cly_lf02_ifname_et_0_0_39&#45;&gt;sw_switch_02_example_net -->
<g id="edge34" class="edge">
<title>swport_dev_collapsed_ipf01cly_lf02_ifname_et_0_0_39&#45;&gt;sw_switch_02_example_net</title>
<path fill="none" stroke="#585b70" d="M680.35,-1429.34C715.13,-1394.74 814.22,-1296.17 868.85,-1241.83"/>
<polygon fill="#585b70" stroke="#585b70" points="870.15,-1243.5 872.92,-1237.78 867.18,-1240.52 870.15,-1243.5"/>
</g>
</g>
</svg>
