<?xml version="1.0" encoding="UTF-8" standalone="no"?>
<!DOCTYPE svg PUBLIC "-//W3C//DTD SVG 1.1//EN"
 "http://www.w3.org/Graphics/SVG/1.1/DTD/svg11.dtd">
<!-- Generated by graphviz version 14.0.0 (0)
 -->
<!-- Title: nic_xray Pages: 1 -->
<svg width="1731pt" height="437pt"
 viewBox="0.00 0.00 1731.00 437.00" xmlns="http://www.w3.org/2000/svg" xmlns:xlink="http://www.w3.org/1999/xlink">
<g id="graph0" class="graph" transform="scale(1 1) rotate(0) translate(36 400.5)">
<title>nic_xray</title>
<polygon fill="#1e1e2e" stroke="none" points="-36,36 -36,-400.5 1694.75,-400.5 1694.75,36 -36,36"/>
<text xml:space="preserve" text-anchor="start" x="1442.25" y="-14.95" font-family="Helvetica,Arial,sans-serif" font-size="9.00" fill="#6c7086">Generated by nic&#45;xray v2.10.3 — © 2026 Ciro Iriarte</text>
<text xml:space="preserve" text-anchor="start" x="1489.12" y="-5.2" font-family="Helvetica,Arial,sans-serif" font-size="9.00" fill="#6c7086">2026&#45;05&#45;19 15:31:38 &#45;03:00</text>
<g id="clust1" class="cluster">
<title>cluster_numa_0</title>
<polygon fill="#1e1e2e" fill-opacity="0.533333" stroke="#cba6f7" stroke-width="1.5" stroke-dasharray="5,2" points="274.75,-35.5 274.75,-356.5 817.25,-356.5 817.25,-35.5 274.75,-35.5"/>
<text xml:space="preserve" text-anchor="start" x="766.5" y="-41.3" font-family="Helvetica,Arial,sans-serif" font-weight="bold" font-size="11.00" fill="#cba6f7">NUMA 0</text>
</g>
<g id="clust2" class="cluster">
<title>cluster_pci_0</title>
<polygon fill="#1e1e2e" fill-opacity="0.800000" stroke="#94e2d5" stroke-dasharray="5,2" points="282.75,-62.5 282.75,-348.5 809.25,-348.5 809.25,-62.5 282.75,-62.5"/>
<text xml:space="preserve" text-anchor="start" x="753.25" y="-67.5" font-family="Helvetica,Arial,sans-serif" font-size="10.00" fill="#94e2d5">0000:05:00</text>
</g>
<!-- server -->
<g id="node1" class="node">
<title>server</title>
<polygon fill="#313244" stroke="none" points="0,-158.38 0,-272.62 181.75,-272.62 181.75,-158.38 0,-158.38"/>
<text xml:space="preserve" text-anchor="start" x="56.38" y="-249.32" font-family="Helvetica,Arial,sans-serif" font-weight="bold" font-size="14.00" fill="#cba6f7">bigiron.lan</text>
<text xml:space="preserve" text-anchor="start" x="11" y="-222.07" font-family="Helvetica,Arial,sans-serif" font-size="9.00" fill="#a6adc8">Intel Corporation SandyBridge Platform</text>
<text xml:space="preserve" text-anchor="start" x="83.38" y="-196.32" font-family="Helvetica,Arial,sans-serif" font-size="9.00" fill="#a6adc8">[00]</text>
<text xml:space="preserve" text-anchor="start" x="31.62" y="-170.57" font-family="Helvetica,Arial,sans-serif" font-size="9.00" fill="#a6adc8">Debian GNU/Linux 13 (trixie)</text>
<polygon fill="none" stroke="#585b70" points="0,-158.38 0,-272.62 181.75,-272.62 181.75,-158.38 0,-158.38"/>
</g>
<!-- nic_0000_05_00 -->
<g id="node2" class="node">
<title>nic_0000_05_00</title>
<polygon fill="#313244" stroke="none" points="290.75,-183.12 290.75,-247.88 568,-247.88 568,-183.12 290.75,-183.12"/>
<text xml:space="preserve" text-anchor="start" x="297.75" y="-231.43" font-family="Helvetica,Arial,sans-serif" font-weight="bold" font-size="11.00" fill="#cdd6f4">82599ES 10&#45;Gigabit SFI/SFP+ Network Connection</text>
<text xml:space="preserve" text-anchor="start" x="395.25" y="-211.07" font-family="Helvetica,Arial,sans-serif" font-size="9.00" fill="#a6adc8">Intel Corporation</text>
<text xml:space="preserve" text-anchor="start" x="374.25" y="-191.32" font-family="Helvetica,Arial,sans-serif" font-size="9.00" fill="#a6adc8">FW: 0x800009e1, 1.3227.0</text>
<polygon fill="none" stroke="#94e2d5" points="290.75,-183.12 290.75,-247.88 568,-247.88 568,-183.12 290.75,-183.12"/>
</g>
<!-- server&#45;&gt;nic_0000_05_00 -->
<g id="edge1" class="edge">
<title>server&#45;&gt;nic_0000_05_00</title>
<path fill="none" stroke="#585b70" d="M181.61,-215.5C212.96,-215.5 249.01,-215.5 283.69,-215.5"/>
<polygon fill="#585b70" stroke="#585b70" points="283.55,-217.6 289.55,-215.5 283.55,-213.4 283.55,-217.6"/>
</g>
<!-- ens6f0 -->
<g id="node3" class="node">
<title>ens6f0</title>
<polygon fill="#313244" stroke="none" points="681.5,-236.38 681.5,-340.62 796.75,-340.62 796.75,-236.38 681.5,-236.38"/>
<text xml:space="preserve" text-anchor="start" x="721.88" y="-324.18" font-family="Helvetica,Arial,sans-serif" font-weight="bold" font-size="11.00" fill="#cdd6f4">ens6f0</text>
<text xml:space="preserve" text-anchor="start" x="702.75" y="-303.82" font-family="Helvetica,Arial,sans-serif" font-size="9.00" fill="#a6adc8">14:02:ec:83:1c:e0</text>
<text xml:space="preserve" text-anchor="start" x="716.62" y="-284.07" font-family="Helvetica,Arial,sans-serif" font-size="9.00" fill="#a6adc8">MTU: 9216</text>
<text xml:space="preserve" text-anchor="start" x="714" y="-265.27" font-family="Helvetica,Arial,sans-serif" font-size="8.00" fill="#a6adc8">10GBASE&#45;SR</text>
<text xml:space="preserve" text-anchor="start" x="688.5" y="-245.18" font-family="Helvetica,Arial,sans-serif" font-size="8.00" fill="#a6e3a1">Tx:&#45;2.28 dBm</text>
<text xml:space="preserve" text-anchor="start" x="737.25" y="-245.18" font-family="Helvetica,Arial,sans-serif" font-size="11.00" fill="#cdd6f4"> </text>
<text xml:space="preserve" text-anchor="start" x="740.25" y="-245.18" font-family="Helvetica,Arial,sans-serif" font-size="8.00" fill="#a6e3a1">Rx:&#45;3.26 dBm</text>
<polygon fill="none" stroke="#a6e3a1" points="681.5,-236.38 681.5,-340.62 796.75,-340.62 796.75,-236.38 681.5,-236.38"/>
</g>
<!-- nic_0000_05_00&#45;&gt;ens6f0 -->
<g id="edge2" class="edge">
<title>nic_0000_05_00&#45;&gt;ens6f0</title>
<path fill="none" stroke="#585b70" d="M566.7,-247.84C604.37,-256.77 643.46,-266.04 674.78,-273.47"/>
<polygon fill="#585b70" stroke="#585b70" points="673.95,-275.44 680.28,-274.78 674.92,-271.35 673.95,-275.44"/>
</g>
<!-- ens6f1 -->
<g id="node4" class="node">
<title>ens6f1</title>
<polygon fill="#313244" stroke="none" points="677,-89.38 677,-193.62 801.25,-193.62 801.25,-89.38 677,-89.38"/>
<text xml:space="preserve" text-anchor="start" x="721.88" y="-177.18" font-family="Helvetica,Arial,sans-serif" font-weight="bold" font-size="11.00" fill="#cdd6f4">ens6f1</text>
<text xml:space="preserve" text-anchor="start" x="702.75" y="-156.82" font-family="Helvetica,Arial,sans-serif" font-size="9.00" fill="#a6adc8">14:02:ec:83:1c:e1</text>
<text xml:space="preserve" text-anchor="start" x="716.62" y="-137.07" font-family="Helvetica,Arial,sans-serif" font-size="9.00" fill="#a6adc8">MTU: 1500</text>
<text xml:space="preserve" text-anchor="start" x="714" y="-118.28" font-family="Helvetica,Arial,sans-serif" font-size="8.00" fill="#a6adc8">10GBASE&#45;SR</text>
<text xml:space="preserve" text-anchor="start" x="684" y="-98.17" font-family="Helvetica,Arial,sans-serif" font-size="8.00" fill="#f38ba8">Tx:&#45;40.00 dBm</text>
<text xml:space="preserve" text-anchor="start" x="737.25" y="-98.17" font-family="Helvetica,Arial,sans-serif" font-size="11.00" fill="#cdd6f4"> </text>
<text xml:space="preserve" text-anchor="start" x="740.25" y="-98.17" font-family="Helvetica,Arial,sans-serif" font-size="8.00" fill="#f38ba8">Rx:&#45;40.00 dBm</text>
<polygon fill="none" stroke="#f38ba8" points="677,-89.38 677,-193.62 801.25,-193.62 801.25,-89.38 677,-89.38"/>
</g>
<!-- nic_0000_05_00&#45;&gt;ens6f1 -->
<g id="edge3" class="edge">
<title>nic_0000_05_00&#45;&gt;ens6f1</title>
<path fill="none" stroke="#585b70" d="M564.91,-183.15C601.15,-174.44 638.84,-165.37 669.77,-157.94"/>
<polygon fill="#585b70" stroke="#585b70" points="670.26,-159.98 675.6,-156.53 669.28,-155.89 670.26,-159.98"/>
</g>
<!-- swport_sw01_ifname_gigabitethernet0_1_1 -->
<g id="node5" class="node">
<title>swport_sw01_ifname_gigabitethernet0_1_1</title>
<polygon fill="#313244" stroke="none" points="1113.25,-266 1113.25,-311 1269,-311 1269,-266 1113.25,-266"/>
<text xml:space="preserve" text-anchor="start" x="1120.25" y="-294.55" font-family="Helvetica,Arial,sans-serif" font-weight="bold" font-size="11.00" fill="#cdd6f4">ifname gigabitethernet0/1/1</text>
<text xml:space="preserve" text-anchor="start" x="1174.62" y="-274.2" font-family="Helvetica,Arial,sans-serif" font-size="9.00" fill="#a6adc8">GE0/1/1</text>
<polygon fill="none" stroke="#fab387" points="1113.25,-266 1113.25,-311 1269,-311 1269,-266 1113.25,-266"/>
</g>
<!-- ens6f0&#45;&gt;swport_sw01_ifname_gigabitethernet0_1_1 -->
<g id="edge4" class="edge">
<title>ens6f0&#45;&gt;swport_sw01_ifname_gigabitethernet0_1_1</title>
<path fill="none" stroke="#a6e3a1" stroke-width="2.5" d="M796.66,-288.5C872.89,-288.5 1009.48,-288.5 1099.97,-288.5"/>
<polygon fill="#a6e3a1" stroke="#a6e3a1" stroke-width="2.5" points="1099.74,-292 1109.74,-288.5 1099.74,-285 1099.74,-292"/>
<text xml:space="preserve" text-anchor="start" x="855.25" y="-300" font-family="Helvetica,Arial,sans-serif" font-size="10.00" fill="#a6adc8">VLAN 98;99;100;101;102;108;200;301;302;304</text>
<text xml:space="preserve" text-anchor="start" x="942.25" y="-289.5" font-family="Helvetica,Arial,sans-serif" font-size="10.00" fill="#a6adc8">10GbE</text>
</g>
<!-- no_lldp_peer -->
<g id="node7" class="node">
<title>no_lldp_peer</title>
<path fill="#313244" stroke="none" d="M1485.67,-127.75C1485.67,-127.75 1551.08,-127.75 1551.08,-127.75 1555.67,-127.75 1560.25,-132.33 1560.25,-136.92 1560.25,-136.92 1560.25,-146.08 1560.25,-146.08 1560.25,-150.67 1555.67,-155.25 1551.08,-155.25 1551.08,-155.25 1485.67,-155.25 1485.67,-155.25 1481.08,-155.25 1476.5,-150.67 1476.5,-146.08 1476.5,-146.08 1476.5,-136.92 1476.5,-136.92 1476.5,-132.33 1481.08,-127.75 1485.67,-127.75"/>
<text xml:space="preserve" text-anchor="start" x="1483.5" y="-138.8" font-family="Helvetica,Arial,sans-serif" font-style="italic" font-size="11.00" fill="#6c7086">No LLDP peer</text>
<path fill="none" stroke="#6c7086" d="M1485.67,-127.75C1485.67,-127.75 1551.08,-127.75 1551.08,-127.75 1555.67,-127.75 1560.25,-132.33 1560.25,-136.92 1560.25,-136.92 1560.25,-146.08 1560.25,-146.08 1560.25,-150.67 1555.67,-155.25 1551.08,-155.25 1551.08,-155.25 1485.67,-155.25 1485.67,-155.25 1481.08,-155.25 1476.5,-150.67 1476.5,-146.08 1476.5,-146.08 1476.5,-136.92 1476.5,-136.92 1476.5,-132.33 1481.08,-127.75 1485.67,-127.75"/>
</g>
<!-- ens6f1&#45;&gt;no_lldp_peer -->
<g id="edge5" class="edge">
<title>ens6f1&#45;&gt;no_lldp_peer</title>
<path fill="none" stroke="#6c7086" stroke-dasharray="5,2" d="M801.11,-141.5C949.42,-141.5 1326.91,-141.5 1465.4,-141.5"/>
<polygon fill="#6c7086" stroke="#6c7086" points="1465.38,-145 1475.38,-141.5 1465.38,-138 1465.38,-145"/>
</g>
<!-- sw_sw01 -->
<g id="node6" class="node">
<title>sw_sw01</title>
<path fill="#313244" stroke="none" d="M1390,-257.12C1390,-257.12 1646.75,-257.12 1646.75,-257.12 1652.75,-257.12 1658.75,-263.12 1658.75,-269.12 1658.75,-269.12 1658.75,-307.88 1658.75,-307.88 1658.75,-313.88 1652.75,-319.88 1646.75,-319.88 1646.75,-319.88 1390,-319.88 1390,-319.88 1384,-319.88 1378,-313.88 1378,-307.88 1378,-307.88 1378,-269.12 1378,-269.12 1378,-263.12 1384,-257.12 1390,-257.12"/>
<text xml:space="preserve" text-anchor="start" x="1501.5" y="-296.57" font-family="Helvetica,Arial,sans-serif" font-weight="bold" font-size="14.00" fill="#fab387">sw01</text>
<text xml:space="preserve" text-anchor="start" x="1389" y="-269.32" font-family="Helvetica,Arial,sans-serif" font-size="9.00" fill="#a6adc8">ArubaOS (MODEL: ArubaS2500&#45;24P), Version 7.4.1.12 (72393)</text>
<path fill="none" stroke="#fab387" d="M1390,-257.12C1390,-257.12 1646.75,-257.12 1646.75,-257.12 1652.75,-257.12 1658.75,-263.12 1658.75,-269.12 1658.75,-269.12 1658.75,-307.88 1658.75,-307.88 1658.75,-313.88 1652.75,-319.88 1646.75,-319.88 1646.75,-319.88 1390,-319.88 1390,-319.88 1384,-319.88 1378,-313.88 1378,-307.88 1378,-307.88 1378,-269.12 1378,-269.12 1378,-263.12 1384,-257.12 1390,-257.12"/>
</g>
<!-- swport_sw01_ifname_gigabitethernet0_1_1&#45;&gt;sw_sw01 -->
<g id="edge6" class="edge">
<title>swport_sw01_ifname_gigabitethernet0_1_1&#45;&gt;sw_sw01</title>
<path fill="none" stroke="#585b70" d="M1268.79,-288.5C1299.3,-288.5 1335.47,-288.5 1370.65,-288.5"/>
<polygon fill="#585b70" stroke="#585b70" points="1370.62,-290.6 1376.62,-288.5 1370.62,-286.4 1370.62,-290.6"/>
</g>
</g>
</svg>
