<?xml version="1.0" encoding="UTF-8" standalone="no"?>
<!DOCTYPE svg PUBLIC "-//W3C//DTD SVG 1.1//EN"
 "http://www.w3.org/Graphics/SVG/1.1/DTD/svg11.dtd">
<!-- Generated by graphviz version 14.0.0 (0)
 -->
<!-- Title: nic_xray Pages: 1 -->
<svg width="1061pt" height="1416pt"
 viewBox="0.00 0.00 1061.00 1416.00" xmlns="http://www.w3.org/2000/svg" xmlns:xlink="http://www.w3.org/1999/xlink">
<g id="graph0" class="graph" transform="scale(1 1) rotate(0) translate(36 1380.12)">
<title>nic_xray</title>
<polygon fill="#1e1e2e" stroke="none" points="-36,36 -36,-1380.12 1025.25,-1380.12 1025.25,36 -36,36"/>
<text xml:space="preserve" text-anchor="start" x="778" y="-5.2" font-family="Helvetica,Arial,sans-serif" font-size="9.00" fill="#6c7086">Generated by nic&#45;xray v2.5.0 — © 2026 Ciro Iriarte</text>
<g id="clust1" class="cluster">
<title>cluster_bond_0</title>
<polygon fill="#1e1e2e" fill-opacity="0.800000" stroke="#89b4fa" stroke-width="1.5" stroke-dasharray="5,2" points="266.25,-910.12 266.25,-1119.12 397,-1119.12 397,-910.12 266.25,-910.12"/>
<text xml:space="preserve" text-anchor="start" x="274.25" y="-916.48" font-family="Helvetica,Arial,sans-serif" font-weight="bold" font-size="12.00" fill="#89b4fa">bond0</text>
<text xml:space="preserve" text-anchor="start" x="311" y="-916.48" font-family="Helvetica,Arial,sans-serif" font-size="12.00" fill="#89b4fa"> (LACP Active)</text>
</g>
<g id="clust2" class="cluster">
<title>cluster_bond_1</title>
<polygon fill="#1e1e2e" fill-opacity="0.800000" stroke="#f9e2af" stroke-width="1.5" stroke-dasharray="5,2" points="266.25,-476.12 266.25,-685.12 397,-685.12 397,-476.12 266.25,-476.12"/>
<text xml:space="preserve" text-anchor="start" x="274.25" y="-482.48" font-family="Helvetica,Arial,sans-serif" font-weight="bold" font-size="12.00" fill="#f9e2af">bond1</text>
<text xml:space="preserve" text-anchor="start" x="311" y="-482.48" font-family="Helvetica,Arial,sans-serif" font-size="12.00" fill="#f9e2af"> (LACP Active)</text>
</g>
<g id="clust3" class="cluster">
<title>cluster_bond_2</title>
<polygon fill="#1e1e2e" fill-opacity="0.800000" stroke="#94e2d5" stroke-width="1.5" stroke-dasharray="5,2" points="266.25,-693.12 266.25,-902.12 397,-902.12 397,-693.12 266.25,-693.12"/>
<text xml:space="preserve" text-anchor="start" x="274.25" y="-699.48" font-family="Helvetica,Arial,sans-serif" font-weight="bold" font-size="12.00" fill="#94e2d5">bond2</text>
<text xml:space="preserve" text-anchor="start" x="311" y="-699.48" font-family="Helvetica,Arial,sans-serif" font-size="12.00" fill="#94e2d5"> (LACP Active)</text>
</g>
<g id="clust4" class="cluster">
<title>cluster_bond_3</title>
<polygon fill="#1e1e2e" fill-opacity="0.800000" stroke="#f5c2e7" stroke-width="1.5" stroke-dasharray="5,2" points="266.25,-1127.12 266.25,-1336.12 397,-1336.12 397,-1127.12 266.25,-1127.12"/>
<text xml:space="preserve" text-anchor="start" x="274.25" y="-1133.47" font-family="Helvetica,Arial,sans-serif" font-weight="bold" font-size="12.00" fill="#f5c2e7">bond3</text>
<text xml:space="preserve" text-anchor="start" x="311" y="-1133.47" font-family="Helvetica,Arial,sans-serif" font-size="12.00" fill="#f5c2e7"> (LACP Active)</text>
</g>
<!-- server -->
<g id="node1" class="node">
<title>server</title>
<polygon fill="#313244" stroke="none" points="0,-613 0,-677.25 165.25,-677.25 165.25,-613 0,-613"/>
<text xml:space="preserve" text-anchor="start" x="11" y="-653.95" font-family="Helvetica,Arial,sans-serif" font-weight="bold" font-size="14.00" fill="#cba6f7">server&#45;01.example.net</text>
<text xml:space="preserve" text-anchor="start" x="66.5" y="-624.8" font-family="Helvetica,Arial,sans-serif" font-size="11.00" fill="#a6adc8">Server</text>
<polygon fill="none" stroke="#585b70" points="0,-613 0,-677.25 165.25,-677.25 165.25,-613 0,-613"/>
</g>
<!-- eno1np0 -->
<g id="node2" class="node">
<title>eno1np0</title>
<polygon fill="#313244" stroke="none" points="283.25,-938.75 283.25,-1003.5 379,-1003.5 379,-938.75 283.25,-938.75"/>
<text xml:space="preserve" text-anchor="start" x="308.62" y="-987.05" font-family="Helvetica,Arial,sans-serif" font-weight="bold" font-size="11.00" fill="#cdd6f4">eno1np0</text>
<text xml:space="preserve" text-anchor="start" x="290.25" y="-966.7" font-family="Helvetica,Arial,sans-serif" font-size="9.00" fill="#a6adc8">XX:XX:XX:XX:XX:01</text>
<text xml:space="preserve" text-anchor="start" x="308.62" y="-946.95" font-family="Helvetica,Arial,sans-serif" font-size="9.00" fill="#a6adc8">MTU: 9100</text>
<polygon fill="none" stroke="#a6e3a1" points="283.25,-938.75 283.25,-1003.5 379,-1003.5 379,-938.75 283.25,-938.75"/>
</g>
<!-- server&#45;&gt;eno1np0 -->
<g id="edge1" class="edge">
<title>server&#45;&gt;eno1np0</title>
<path fill="none" stroke="#585b70" d="M102.3,-677.2C133.2,-729.08 198.33,-833.5 266.25,-912.12 272.66,-919.55 279.94,-927.01 287.22,-934"/>
<polygon fill="#585b70" stroke="#585b70" points="285.36,-935.13 291.16,-937.73 288.24,-932.08 285.36,-935.13"/>
</g>
<!-- ens5f0np0 -->
<g id="node3" class="node">
<title>ens5f0np0</title>
<polygon fill="#313244" stroke="none" points="283.25,-1046.75 283.25,-1111.5 379,-1111.5 379,-1046.75 283.25,-1046.75"/>
<text xml:space="preserve" text-anchor="start" x="304.12" y="-1095.05" font-family="Helvetica,Arial,sans-serif" font-weight="bold" font-size="11.00" fill="#cdd6f4">ens5f0np0</text>
<text xml:space="preserve" text-anchor="start" x="290.25" y="-1074.7" font-family="Helvetica,Arial,sans-serif" font-size="9.00" fill="#a6adc8">XX:XX:XX:XX:XX:07</text>
<text xml:space="preserve" text-anchor="start" x="308.62" y="-1054.95" font-family="Helvetica,Arial,sans-serif" font-size="9.00" fill="#a6adc8">MTU: 9100</text>
<polygon fill="none" stroke="#a6e3a1" points="283.25,-1046.75 283.25,-1111.5 379,-1111.5 379,-1046.75 283.25,-1046.75"/>
</g>
<!-- server&#45;&gt;ens5f0np0 -->
<g id="edge7" class="edge">
<title>server&#45;&gt;ens5f0np0</title>
<path fill="none" stroke="#585b70" d="M93.84,-677.15C116.82,-745.87 177.57,-910.5 266.25,-1025.12 270.81,-1031.02 276.1,-1036.72 281.66,-1042.06"/>
<polygon fill="#585b70" stroke="#585b70" points="279.89,-1043.28 285.71,-1045.84 282.75,-1040.21 279.89,-1043.28"/>
</g>
<!-- eno2np1 -->
<g id="node4" class="node">
<title>eno2np1</title>
<polygon fill="#313244" stroke="none" points="283.25,-504.75 283.25,-569.5 379,-569.5 379,-504.75 283.25,-504.75"/>
<text xml:space="preserve" text-anchor="start" x="308.62" y="-553.05" font-family="Helvetica,Arial,sans-serif" font-weight="bold" font-size="11.00" fill="#cdd6f4">eno2np1</text>
<text xml:space="preserve" text-anchor="start" x="290.25" y="-532.7" font-family="Helvetica,Arial,sans-serif" font-size="9.00" fill="#a6adc8">XX:XX:XX:XX:XX:02</text>
<text xml:space="preserve" text-anchor="start" x="308.62" y="-512.95" font-family="Helvetica,Arial,sans-serif" font-size="9.00" fill="#a6adc8">MTU: 9100</text>
<polygon fill="none" stroke="#a6e3a1" points="283.25,-504.75 283.25,-569.5 379,-569.5 379,-504.75 283.25,-504.75"/>
</g>
<!-- server&#45;&gt;eno2np1 -->
<g id="edge2" class="edge">
<title>server&#45;&gt;eno2np1</title>
<path fill="none" stroke="#585b70" d="M156.92,-613.01C195.37,-596.17 241.63,-575.9 276.66,-560.55"/>
<polygon fill="#585b70" stroke="#585b70" points="277.48,-562.49 282.13,-558.15 275.79,-558.64 277.48,-562.49"/>
</g>
<!-- ens5f1np1 -->
<g id="node5" class="node">
<title>ens5f1np1</title>
<polygon fill="#313244" stroke="none" points="283.25,-612.75 283.25,-677.5 379,-677.5 379,-612.75 283.25,-612.75"/>
<text xml:space="preserve" text-anchor="start" x="304.12" y="-661.05" font-family="Helvetica,Arial,sans-serif" font-weight="bold" font-size="11.00" fill="#cdd6f4">ens5f1np1</text>
<text xml:space="preserve" text-anchor="start" x="290.25" y="-640.7" font-family="Helvetica,Arial,sans-serif" font-size="9.00" fill="#a6adc8">XX:XX:XX:XX:XX:08</text>
<text xml:space="preserve" text-anchor="start" x="308.62" y="-620.95" font-family="Helvetica,Arial,sans-serif" font-size="9.00" fill="#a6adc8">MTU: 9100</text>
<polygon fill="none" stroke="#a6e3a1" points="283.25,-612.75 283.25,-677.5 379,-677.5 379,-612.75 283.25,-612.75"/>
</g>
<!-- server&#45;&gt;ens5f1np1 -->
<g id="edge8" class="edge">
<title>server&#45;&gt;ens5f1np1</title>
<path fill="none" stroke="#585b70" d="M165.02,-645.12C201.53,-645.12 243.59,-645.12 276.12,-645.12"/>
<polygon fill="#585b70" stroke="#585b70" points="275.82,-647.23 281.82,-645.13 275.82,-643.03 275.82,-647.23"/>
</g>
<!-- ens3f0np0 -->
<g id="node6" class="node">
<title>ens3f0np0</title>
<polygon fill="#313244" stroke="none" points="283.25,-721.75 283.25,-786.5 379,-786.5 379,-721.75 283.25,-721.75"/>
<text xml:space="preserve" text-anchor="start" x="304.12" y="-770.05" font-family="Helvetica,Arial,sans-serif" font-weight="bold" font-size="11.00" fill="#cdd6f4">ens3f0np0</text>
<text xml:space="preserve" text-anchor="start" x="290.25" y="-749.7" font-family="Helvetica,Arial,sans-serif" font-size="9.00" fill="#a6adc8">XX:XX:XX:XX:XX:05</text>
<text xml:space="preserve" text-anchor="start" x="308.62" y="-729.95" font-family="Helvetica,Arial,sans-serif" font-size="9.00" fill="#a6adc8">MTU: 9100</text>
<polygon fill="none" stroke="#a6e3a1" points="283.25,-721.75 283.25,-786.5 379,-786.5 379,-721.75 283.25,-721.75"/>
</g>
<!-- server&#45;&gt;ens3f0np0 -->
<g id="edge5" class="edge">
<title>server&#45;&gt;ens3f0np0</title>
<path fill="none" stroke="#585b70" d="M156.25,-677.24C194.89,-694.32 241.56,-714.96 276.82,-730.55"/>
<polygon fill="#585b70" stroke="#585b70" points="275.54,-732.28 281.88,-732.79 277.24,-728.44 275.54,-732.28"/>
</g>
<!-- ens8f0np0 -->
<g id="node7" class="node">
<title>ens8f0np0</title>
<polygon fill="#313244" stroke="none" points="283.25,-829.75 283.25,-894.5 379,-894.5 379,-829.75 283.25,-829.75"/>
<text xml:space="preserve" text-anchor="start" x="304.12" y="-878.05" font-family="Helvetica,Arial,sans-serif" font-weight="bold" font-size="11.00" fill="#cdd6f4">ens8f0np0</text>
<text xml:space="preserve" text-anchor="start" x="290.25" y="-857.7" font-family="Helvetica,Arial,sans-serif" font-size="9.00" fill="#a6adc8">XX:XX:XX:XX:XX:0b</text>
<text xml:space="preserve" text-anchor="start" x="308.62" y="-837.95" font-family="Helvetica,Arial,sans-serif" font-size="9.00" fill="#a6adc8">MTU: 9100</text>
<polygon fill="none" stroke="#a6e3a1" points="283.25,-829.75 283.25,-894.5 379,-894.5 379,-829.75 283.25,-829.75"/>
</g>
<!-- server&#45;&gt;ens8f0np0 -->
<g id="edge11" class="edge">
<title>server&#45;&gt;ens8f0np0</title>
<path fill="none" stroke="#585b70" d="M118.73,-676.96C155.32,-710.02 214.44,-763.11 266.25,-808.12 272.67,-813.7 279.5,-819.56 286.22,-825.27"/>
<polygon fill="#585b70" stroke="#585b70" points="284.73,-826.76 290.66,-829.05 287.45,-823.56 284.73,-826.76"/>
</g>
<!-- ens3f1np1 -->
<g id="node8" class="node">
<title>ens3f1np1</title>
<polygon fill="#313244" stroke="none" points="283.25,-1155.75 283.25,-1220.5 379,-1220.5 379,-1155.75 283.25,-1155.75"/>
<text xml:space="preserve" text-anchor="start" x="304.12" y="-1204.05" font-family="Helvetica,Arial,sans-serif" font-weight="bold" font-size="11.00" fill="#cdd6f4">ens3f1np1</text>
<text xml:space="preserve" text-anchor="start" x="290.25" y="-1183.7" font-family="Helvetica,Arial,sans-serif" font-size="9.00" fill="#a6adc8">XX:XX:XX:XX:XX:06</text>
<text xml:space="preserve" text-anchor="start" x="308.62" y="-1163.95" font-family="Helvetica,Arial,sans-serif" font-size="9.00" fill="#a6adc8">MTU: 9100</text>
<polygon fill="none" stroke="#a6e3a1" points="283.25,-1155.75 283.25,-1220.5 379,-1220.5 379,-1155.75 283.25,-1155.75"/>
</g>
<!-- server&#45;&gt;ens3f1np1 -->
<g id="edge6" class="edge">
<title>server&#45;&gt;ens3f1np1</title>
<path fill="none" stroke="#585b70" d="M90.3,-677.22C108.29,-758.46 163.5,-976.63 266.25,-1129.12 271.43,-1136.81 277.79,-1144.2 284.48,-1150.99"/>
<polygon fill="#585b70" stroke="#585b70" points="282.81,-1152.3 288.56,-1155 285.75,-1149.3 282.81,-1152.3"/>
</g>
<!-- ens8f1np1 -->
<g id="node9" class="node">
<title>ens8f1np1</title>
<polygon fill="#313244" stroke="none" points="283.62,-1263.75 283.62,-1328.5 378.62,-1328.5 378.62,-1263.75 283.62,-1263.75"/>
<text xml:space="preserve" text-anchor="start" x="304.12" y="-1312.05" font-family="Helvetica,Arial,sans-serif" font-weight="bold" font-size="11.00" fill="#cdd6f4">ens8f1np1</text>
<text xml:space="preserve" text-anchor="start" x="290.62" y="-1291.7" font-family="Helvetica,Arial,sans-serif" font-size="9.00" fill="#a6adc8">XX:XX:XX:XX:XX:0c</text>
<text xml:space="preserve" text-anchor="start" x="308.62" y="-1271.95" font-family="Helvetica,Arial,sans-serif" font-size="9.00" fill="#a6adc8">MTU: 9100</text>
<polygon fill="none" stroke="#a6e3a1" points="283.62,-1263.75 283.62,-1328.5 378.62,-1328.5 378.62,-1263.75 283.62,-1263.75"/>
</g>
<!-- server&#45;&gt;ens8f1np1 -->
<g id="edge12" class="edge">
<title>server&#45;&gt;ens8f1np1</title>
<path fill="none" stroke="#585b70" d="M86.98,-676.95C98.13,-770.77 140.66,-1051.65 266.25,-1242.12 270.15,-1248.04 274.88,-1253.65 279.98,-1258.87"/>
<polygon fill="#585b70" stroke="#585b70" points="278.35,-1260.21 284.11,-1262.9 281.28,-1257.21 278.35,-1260.21"/>
</g>
<!-- eno3np2 -->
<g id="node10" class="node">
<title>eno3np2</title>
<polygon fill="#313244" stroke="none" points="617.75,-449.75 617.75,-514.5 713.5,-514.5 713.5,-449.75 617.75,-449.75"/>
<text xml:space="preserve" text-anchor="start" x="643.12" y="-498.05" font-family="Helvetica,Arial,sans-serif" font-weight="bold" font-size="11.00" fill="#cdd6f4">eno3np2</text>
<text xml:space="preserve" text-anchor="start" x="624.75" y="-477.7" font-family="Helvetica,Arial,sans-serif" font-size="9.00" fill="#a6adc8">XX:XX:XX:XX:XX:03</text>
<text xml:space="preserve" text-anchor="start" x="643.12" y="-457.95" font-family="Helvetica,Arial,sans-serif" font-size="9.00" fill="#a6adc8">MTU: 1500</text>
<polygon fill="none" stroke="#f38ba8" points="617.75,-449.75 617.75,-514.5 713.5,-514.5 713.5,-449.75 617.75,-449.75"/>
</g>
<!-- server&#45;&gt;eno3np2 -->
<g id="edge3" class="edge">
<title>server&#45;&gt;eno3np2</title>
<path fill="none" stroke="#585b70" d="M104.03,-613.36C133.71,-570.45 193.3,-495.92 266.25,-466.12 381.79,-418.94 532.2,-446.16 611.04,-466.38"/>
<polygon fill="#585b70" stroke="#585b70" points="610.18,-468.33 616.52,-467.81 611.24,-464.26 610.18,-468.33"/>
</g>
<!-- eno4np3 -->
<g id="node11" class="node">
<title>eno4np3</title>
<polygon fill="#313244" stroke="none" points="617.75,-341.75 617.75,-406.5 713.5,-406.5 713.5,-341.75 617.75,-341.75"/>
<text xml:space="preserve" text-anchor="start" x="643.12" y="-390.05" font-family="Helvetica,Arial,sans-serif" font-weight="bold" font-size="11.00" fill="#cdd6f4">eno4np3</text>
<text xml:space="preserve" text-anchor="start" x="624.75" y="-369.7" font-family="Helvetica,Arial,sans-serif" font-size="9.00" fill="#a6adc8">XX:XX:XX:XX:XX:04</text>
<text xml:space="preserve" text-anchor="start" x="643.12" y="-349.95" font-family="Helvetica,Arial,sans-serif" font-size="9.00" fill="#a6adc8">MTU: 1500</text>
<polygon fill="none" stroke="#f38ba8" points="617.75,-341.75 617.75,-406.5 713.5,-406.5 713.5,-341.75 617.75,-341.75"/>
</g>
<!-- server&#45;&gt;eno4np3 -->
<g id="edge4" class="edge">
<title>server&#45;&gt;eno4np3</title>
<path fill="none" stroke="#585b70" d="M100.17,-613.29C127.45,-564.45 186.86,-472.24 266.25,-430.12 377.95,-370.87 530.89,-367.42 610.88,-370.48"/>
<polygon fill="#585b70" stroke="#585b70" points="610.33,-372.55 616.41,-370.71 610.51,-368.36 610.33,-372.55"/>
</g>
<!-- ens5f2np2 -->
<g id="node12" class="node">
<title>ens5f2np2</title>
<polygon fill="#313244" stroke="none" points="617.75,-233.75 617.75,-298.5 713.5,-298.5 713.5,-233.75 617.75,-233.75"/>
<text xml:space="preserve" text-anchor="start" x="638.62" y="-282.05" font-family="Helvetica,Arial,sans-serif" font-weight="bold" font-size="11.00" fill="#cdd6f4">ens5f2np2</text>
<text xml:space="preserve" text-anchor="start" x="624.75" y="-261.7" font-family="Helvetica,Arial,sans-serif" font-size="9.00" fill="#a6adc8">XX:XX:XX:XX:XX:09</text>
<text xml:space="preserve" text-anchor="start" x="643.12" y="-241.95" font-family="Helvetica,Arial,sans-serif" font-size="9.00" fill="#a6adc8">MTU: 1500</text>
<polygon fill="none" stroke="#f38ba8" points="617.75,-233.75 617.75,-298.5 713.5,-298.5 713.5,-233.75 617.75,-233.75"/>
</g>
<!-- server&#45;&gt;ens5f2np2 -->
<g id="edge9" class="edge">
<title>server&#45;&gt;ens5f2np2</title>
<path fill="none" stroke="#585b70" d="M96.4,-613.16C120.71,-556.52 179.08,-438.61 266.25,-376.12 372.39,-300.05 528.97,-276.54 610.62,-269.31"/>
<polygon fill="#585b70" stroke="#585b70" points="610.5,-271.43 616.3,-268.83 610.14,-267.25 610.5,-271.43"/>
</g>
<!-- ens5f3np3 -->
<g id="node13" class="node">
<title>ens5f3np3</title>
<polygon fill="#313244" stroke="none" points="617.75,-125.75 617.75,-190.5 713.5,-190.5 713.5,-125.75 617.75,-125.75"/>
<text xml:space="preserve" text-anchor="start" x="638.62" y="-174.05" font-family="Helvetica,Arial,sans-serif" font-weight="bold" font-size="11.00" fill="#cdd6f4">ens5f3np3</text>
<text xml:space="preserve" text-anchor="start" x="624.75" y="-153.7" font-family="Helvetica,Arial,sans-serif" font-size="9.00" fill="#a6adc8">XX:XX:XX:XX:XX:0a</text>
<text xml:space="preserve" text-anchor="start" x="643.12" y="-133.95" font-family="Helvetica,Arial,sans-serif" font-size="9.00" fill="#a6adc8">MTU: 1500</text>
<polygon fill="none" stroke="#f38ba8" points="617.75,-125.75 617.75,-190.5 713.5,-190.5 713.5,-125.75 617.75,-125.75"/>
</g>
<!-- server&#45;&gt;ens5f3np3 -->
<g id="edge10" class="edge">
<title>server&#45;&gt;ens5f3np3</title>
<path fill="none" stroke="#585b70" d="M92.1,-613.25C111.54,-546.16 165.57,-389.4 266.25,-302.12 367.93,-213.98 527.78,-178.28 610.7,-165.08"/>
<polygon fill="#585b70" stroke="#585b70" points="610.89,-167.17 616.49,-164.17 610.24,-163.02 610.89,-167.17"/>
</g>
<!-- idrac -->
<g id="node14" class="node">
<title>idrac</title>
<polygon fill="#313244" stroke="none" points="617.75,-17.75 617.75,-82.5 713.5,-82.5 713.5,-17.75 617.75,-17.75"/>
<text xml:space="preserve" text-anchor="start" x="652.5" y="-66.05" font-family="Helvetica,Arial,sans-serif" font-weight="bold" font-size="11.00" fill="#cdd6f4">idrac</text>
<text xml:space="preserve" text-anchor="start" x="624.75" y="-45.7" font-family="Helvetica,Arial,sans-serif" font-size="9.00" fill="#a6adc8">XX:XX:XX:XX:XX:0d</text>
<text xml:space="preserve" text-anchor="start" x="643.12" y="-25.95" font-family="Helvetica,Arial,sans-serif" font-size="9.00" fill="#a6adc8">MTU: 1500</text>
<polygon fill="none" stroke="#a6e3a1" points="617.75,-17.75 617.75,-82.5 713.5,-82.5 713.5,-17.75 617.75,-17.75"/>
</g>
<!-- server&#45;&gt;idrac -->
<g id="edge13" class="edge">
<title>server&#45;&gt;idrac</title>
<path fill="none" stroke="#585b70" d="M88.67,-613.24C102.65,-535 148.88,-331.45 266.25,-215.12 364.03,-118.22 526.89,-75.4 610.88,-58.96"/>
<polygon fill="#585b70" stroke="#585b70" points="611.04,-61.07 616.53,-57.87 610.25,-56.94 611.04,-61.07"/>
</g>
<!-- swport_dev_collapsed_ipf01cly_lf01_ifname_xe_0_0_2 -->
<g id="node15" class="node">
<title>swport_dev_collapsed_ipf01cly_lf01_ifname_xe_0_0_2</title>
<polygon fill="#313244" stroke="none" points="619.25,-824.5 619.25,-849.75 712,-849.75 712,-824.5 619.25,-824.5"/>
<text xml:space="preserve" text-anchor="start" x="626.25" y="-833.3" font-family="Helvetica,Arial,sans-serif" font-weight="bold" font-size="11.00" fill="#cdd6f4">ifname xe&#45;0/0/2</text>
<polygon fill="none" stroke="#fab387" points="619.25,-824.5 619.25,-849.75 712,-849.75 712,-824.5 619.25,-824.5"/>
</g>
<!-- eno1np0&#45;&gt;swport_dev_collapsed_ipf01cly_lf01_ifname_xe_0_0_2 -->
<g id="edge14" class="edge">
<title>eno1np0&#45;&gt;swport_dev_collapsed_ipf01cly_lf01_ifname_xe_0_0_2</title>
<path fill="none" stroke="#89b4fa" stroke-width="2.5" d="M369.37,-938.95C378.65,-930.48 388.4,-921.17 397,-912.12 419.19,-888.78 414.5,-871.12 443,-856.12 493.28,-829.67 558.97,-827.35 605.75,-830.16"/>
<polygon fill="#89b4fa" stroke="#89b4fa" stroke-width="2.5" points="605.32,-833.63 615.55,-830.87 605.83,-826.65 605.32,-833.63"/>
<text xml:space="preserve" text-anchor="start" x="443" y="-867.62" font-family="Helvetica,Arial,sans-serif" font-size="10.00" fill="#a6adc8">VLAN 100;101;102;110;111</text>
<text xml:space="preserve" text-anchor="start" x="488.38" y="-857.12" font-family="Helvetica,Arial,sans-serif" font-size="10.00" fill="#a6adc8">10GbE</text>
</g>
<!-- swport_dev_collapsed_ipf01cly_lf02_ifname_xe_0_0_2 -->
<g id="node19" class="node">
<title>swport_dev_collapsed_ipf01cly_lf02_ifname_xe_0_0_2</title>
<polygon fill="#313244" stroke="none" points="619.25,-1063.5 619.25,-1088.75 712,-1088.75 712,-1063.5 619.25,-1063.5"/>
<text xml:space="preserve" text-anchor="start" x="626.25" y="-1072.3" font-family="Helvetica,Arial,sans-serif" font-weight="bold" font-size="11.00" fill="#cdd6f4">ifname xe&#45;0/0/2</text>
<polygon fill="none" stroke="#fab387" points="619.25,-1063.5 619.25,-1088.75 712,-1088.75 712,-1063.5 619.25,-1063.5"/>
</g>
<!-- ens5f0np0&#45;&gt;swport_dev_collapsed_ipf01cly_lf02_ifname_xe_0_0_2 -->
<g id="edge20" class="edge">
<title>ens5f0np0&#45;&gt;swport_dev_collapsed_ipf01cly_lf02_ifname_xe_0_0_2</title>
<path fill="none" stroke="#89b4fa" stroke-width="2.5" d="M378.71,-1078.7C438.15,-1078.17 541.02,-1077.24 605.81,-1076.66"/>
<polygon fill="#89b4fa" stroke="#89b4fa" stroke-width="2.5" points="605.67,-1080.16 615.64,-1076.57 605.61,-1073.16 605.67,-1080.16"/>
<text xml:space="preserve" text-anchor="start" x="443" y="-1089.57" font-family="Helvetica,Arial,sans-serif" font-size="10.00" fill="#a6adc8">VLAN 100;101;102;110;111</text>
<text xml:space="preserve" text-anchor="start" x="488.38" y="-1079.07" font-family="Helvetica,Arial,sans-serif" font-size="10.00" fill="#a6adc8">10GbE</text>
</g>
<!-- swport_dev_collapsed_ipf01cly_lf01_ifname_xe_0_0_3 -->
<g id="node16" class="node">
<title>swport_dev_collapsed_ipf01cly_lf01_ifname_xe_0_0_3</title>
<polygon fill="#313244" stroke="none" points="619.25,-630.5 619.25,-655.75 712,-655.75 712,-630.5 619.25,-630.5"/>
<text xml:space="preserve" text-anchor="start" x="626.25" y="-639.3" font-family="Helvetica,Arial,sans-serif" font-weight="bold" font-size="11.00" fill="#cdd6f4">ifname xe&#45;0/0/3</text>
<polygon fill="none" stroke="#fab387" points="619.25,-630.5 619.25,-655.75 712,-655.75 712,-630.5 619.25,-630.5"/>
</g>
<!-- eno2np1&#45;&gt;swport_dev_collapsed_ipf01cly_lf01_ifname_xe_0_0_3 -->
<g id="edge15" class="edge">
<title>eno2np1&#45;&gt;swport_dev_collapsed_ipf01cly_lf01_ifname_xe_0_0_3</title>
<path fill="none" stroke="#f9e2af" stroke-width="2.5" d="M378.71,-551.98C440.11,-571.55 547.85,-605.9 612.09,-626.38"/>
<polygon fill="#f9e2af" stroke="#f9e2af" stroke-width="2.5" points="610.91,-629.67 621.5,-629.38 613.04,-623 610.91,-629.67"/>
<text xml:space="preserve" text-anchor="start" x="443" y="-620.34" font-family="Helvetica,Arial,sans-serif" font-size="10.00" fill="#a6adc8">VLAN 200;201;202;211;212</text>
<text xml:space="preserve" text-anchor="start" x="488.38" y="-609.84" font-family="Helvetica,Arial,sans-serif" font-size="10.00" fill="#a6adc8">10GbE</text>
</g>
<!-- swport_dev_collapsed_ipf01cly_lf02_ifname_xe_0_0_3 -->
<g id="node20" class="node">
<title>swport_dev_collapsed_ipf01cly_lf02_ifname_xe_0_0_3</title>
<polygon fill="#313244" stroke="none" points="619.25,-926.5 619.25,-951.75 712,-951.75 712,-926.5 619.25,-926.5"/>
<text xml:space="preserve" text-anchor="start" x="626.25" y="-935.3" font-family="Helvetica,Arial,sans-serif" font-weight="bold" font-size="11.00" fill="#cdd6f4">ifname xe&#45;0/0/3</text>
<polygon fill="none" stroke="#fab387" points="619.25,-926.5 619.25,-951.75 712,-951.75 712,-926.5 619.25,-926.5"/>
</g>
<!-- ens5f1np1&#45;&gt;swport_dev_collapsed_ipf01cly_lf02_ifname_xe_0_0_3 -->
<g id="edge21" class="edge">
<title>ens5f1np1&#45;&gt;swport_dev_collapsed_ipf01cly_lf02_ifname_xe_0_0_3</title>
<path fill="none" stroke="#f9e2af" stroke-width="2.5" d="M378.85,-666.05C385.73,-670.83 392.13,-676.5 397,-683.12 450.99,-756.64 379.2,-817.94 443,-883.12 465.49,-906.1 548.27,-922.42 606.03,-931.31"/>
<polygon fill="#f9e2af" stroke="#f9e2af" stroke-width="2.5" points="605.25,-934.73 615.66,-932.75 606.28,-927.81 605.25,-934.73"/>
<text xml:space="preserve" text-anchor="start" x="443" y="-935.08" font-family="Helvetica,Arial,sans-serif" font-size="10.00" fill="#a6adc8">VLAN 200;201;202;211;212</text>
<text xml:space="preserve" text-anchor="start" x="488.38" y="-924.58" font-family="Helvetica,Arial,sans-serif" font-size="10.00" fill="#a6adc8">10GbE</text>
</g>
<!-- swport_dev_collapsed_ipf01cly_lf01_ifname_et_0_0_38 -->
<g id="node17" class="node">
<title>swport_dev_collapsed_ipf01cly_lf01_ifname_et_0_0_38</title>
<polygon fill="#313244" stroke="none" points="617.75,-756.5 617.75,-781.75 713.5,-781.75 713.5,-756.5 617.75,-756.5"/>
<text xml:space="preserve" text-anchor="start" x="624.75" y="-765.3" font-family="Helvetica,Arial,sans-serif" font-weight="bold" font-size="11.00" fill="#cdd6f4">ifname et&#45;0/0/38</text>
<polygon fill="none" stroke="#fab387" points="617.75,-756.5 617.75,-781.75 713.5,-781.75 713.5,-756.5 617.75,-756.5"/>
</g>
<!-- ens3f0np0&#45;&gt;swport_dev_collapsed_ipf01cly_lf01_ifname_et_0_0_38 -->
<g id="edge18" class="edge">
<title>ens3f0np0&#45;&gt;swport_dev_collapsed_ipf01cly_lf01_ifname_et_0_0_38</title>
<path fill="none" stroke="#94e2d5" stroke-width="3" d="M378.71,-756.23C437.41,-758.87 538.44,-763.43 603.35,-766.36"/>
<polygon fill="#94e2d5" stroke="#94e2d5" stroke-width="3" points="603.14,-769.85 613.29,-766.81 603.45,-762.86 603.14,-769.85"/>
<text xml:space="preserve" text-anchor="start" x="480.5" y="-775.77" font-family="Helvetica,Arial,sans-serif" font-size="10.00" fill="#a6adc8">VLAN 501</text>
<text xml:space="preserve" text-anchor="start" x="488.38" y="-765.27" font-family="Helvetica,Arial,sans-serif" font-size="10.00" fill="#a6adc8">25GbE</text>
</g>
<!-- swport_dev_collapsed_ipf01cly_lf02_ifname_et_0_0_38 -->
<g id="node21" class="node">
<title>swport_dev_collapsed_ipf01cly_lf02_ifname_et_0_0_38</title>
<polygon fill="#313244" stroke="none" points="617.75,-994.5 617.75,-1019.75 713.5,-1019.75 713.5,-994.5 617.75,-994.5"/>
<text xml:space="preserve" text-anchor="start" x="624.75" y="-1003.3" font-family="Helvetica,Arial,sans-serif" font-weight="bold" font-size="11.00" fill="#cdd6f4">ifname et&#45;0/0/38</text>
<polygon fill="none" stroke="#fab387" points="617.75,-994.5 617.75,-1019.75 713.5,-1019.75 713.5,-994.5 617.75,-994.5"/>
</g>
<!-- ens8f0np0&#45;&gt;swport_dev_collapsed_ipf01cly_lf02_ifname_et_0_0_38 -->
<g id="edge24" class="edge">
<title>ens8f0np0&#45;&gt;swport_dev_collapsed_ipf01cly_lf02_ifname_et_0_0_38</title>
<path fill="none" stroke="#94e2d5" stroke-width="3" d="M378.94,-886.69C385.27,-890.82 391.48,-895.33 397,-900.12 421.84,-921.7 415.11,-940.68 443,-958.12 491.64,-988.55 556.64,-1000.22 603.66,-1004.62"/>
<polygon fill="#94e2d5" stroke="#94e2d5" stroke-width="3" points="603.16,-1008.09 613.41,-1005.42 603.73,-1001.11 603.16,-1008.09"/>
<text xml:space="preserve" text-anchor="start" x="480.5" y="-1010.97" font-family="Helvetica,Arial,sans-serif" font-size="10.00" fill="#a6adc8">VLAN 501</text>
<text xml:space="preserve" text-anchor="start" x="488.38" y="-1000.47" font-family="Helvetica,Arial,sans-serif" font-size="10.00" fill="#a6adc8">25GbE</text>
</g>
<!-- swport_dev_collapsed_ipf01cly_lf01_ifname_et_0_0_39 -->
<g id="node18" class="node">
<title>swport_dev_collapsed_ipf01cly_lf01_ifname_et_0_0_39</title>
<polygon fill="#313244" stroke="none" points="617.75,-1143.5 617.75,-1168.75 713.5,-1168.75 713.5,-1143.5 617.75,-1143.5"/>
<text xml:space="preserve" text-anchor="start" x="624.75" y="-1152.3" font-family="Helvetica,Arial,sans-serif" font-weight="bold" font-size="11.00" fill="#cdd6f4">ifname et&#45;0/0/39</text>
<polygon fill="none" stroke="#fab387" points="617.75,-1143.5 617.75,-1168.75 713.5,-1168.75 713.5,-1143.5 617.75,-1143.5"/>
</g>
<!-- ens3f1np1&#45;&gt;swport_dev_collapsed_ipf01cly_lf01_ifname_et_0_0_39 -->
<g id="edge19" class="edge">
<title>ens3f1np1&#45;&gt;swport_dev_collapsed_ipf01cly_lf01_ifname_et_0_0_39</title>
<path fill="none" stroke="#f5c2e7" stroke-width="3" d="M378.71,-1183.64C437.41,-1177.99 538.44,-1168.27 603.35,-1162.02"/>
<polygon fill="#f5c2e7" stroke="#f5c2e7" stroke-width="3" points="603.68,-1165.51 613.3,-1161.06 603.01,-1158.54 603.68,-1165.51"/>
<text xml:space="preserve" text-anchor="start" x="480.5" y="-1188.36" font-family="Helvetica,Arial,sans-serif" font-size="10.00" fill="#a6adc8">VLAN 502</text>
<text xml:space="preserve" text-anchor="start" x="488.38" y="-1177.86" font-family="Helvetica,Arial,sans-serif" font-size="10.00" fill="#a6adc8">25GbE</text>
</g>
<!-- swport_dev_collapsed_ipf01cly_lf02_ifname_et_0_0_39 -->
<g id="node22" class="node">
<title>swport_dev_collapsed_ipf01cly_lf02_ifname_et_0_0_39</title>
<polygon fill="#313244" stroke="none" points="617.75,-1239.5 617.75,-1264.75 713.5,-1264.75 713.5,-1239.5 617.75,-1239.5"/>
<text xml:space="preserve" text-anchor="start" x="624.75" y="-1248.3" font-family="Helvetica,Arial,sans-serif" font-weight="bold" font-size="11.00" fill="#cdd6f4">ifname et&#45;0/0/39</text>
<polygon fill="none" stroke="#fab387" points="617.75,-1239.5 617.75,-1264.75 713.5,-1264.75 713.5,-1239.5 617.75,-1239.5"/>
</g>
<!-- ens8f1np1&#45;&gt;swport_dev_collapsed_ipf01cly_lf02_ifname_et_0_0_39 -->
<g id="edge25" class="edge">
<title>ens8f1np1&#45;&gt;swport_dev_collapsed_ipf01cly_lf02_ifname_et_0_0_39</title>
<path fill="none" stroke="#f5c2e7" stroke-width="3" d="M378.36,-1290.01C437.17,-1282.22 538.88,-1268.76 603.89,-1260.16"/>
<polygon fill="#f5c2e7" stroke="#f5c2e7" stroke-width="3" points="604.03,-1263.67 613.48,-1258.89 603.11,-1256.74 604.03,-1263.67"/>
<text xml:space="preserve" text-anchor="start" x="480.5" y="-1292.14" font-family="Helvetica,Arial,sans-serif" font-size="10.00" fill="#a6adc8">VLAN 502</text>
<text xml:space="preserve" text-anchor="start" x="488.38" y="-1281.64" font-family="Helvetica,Arial,sans-serif" font-size="10.00" fill="#a6adc8">25GbE</text>
</g>
<!-- no_lldp_peer -->
<g id="node25" class="node">
<title>no_lldp_peer</title>
<path fill="#313244" stroke="none" d="M873.17,-252.38C873.17,-252.38 938.58,-252.38 938.58,-252.38 943.17,-252.38 947.75,-256.96 947.75,-261.54 947.75,-261.54 947.75,-270.71 947.75,-270.71 947.75,-275.29 943.17,-279.88 938.58,-279.88 938.58,-279.88 873.17,-279.88 873.17,-279.88 868.58,-279.88 864,-275.29 864,-270.71 864,-270.71 864,-261.54 864,-261.54 864,-256.96 868.58,-252.38 873.17,-252.38"/>
<text xml:space="preserve" text-anchor="start" x="871" y="-263.43" font-family="Helvetica,Arial,sans-serif" font-style="italic" font-size="11.00" fill="#6c7086">No LLDP peer</text>
<path fill="none" stroke="#6c7086" d="M873.17,-252.38C873.17,-252.38 938.58,-252.38 938.58,-252.38 943.17,-252.38 947.75,-256.96 947.75,-261.54 947.75,-261.54 947.75,-270.71 947.75,-270.71 947.75,-275.29 943.17,-279.88 938.58,-279.88 938.58,-279.88 873.17,-279.88 873.17,-279.88 868.58,-279.88 864,-275.29 864,-270.71 864,-270.71 864,-261.54 864,-261.54 864,-256.96 868.58,-252.38 873.17,-252.38"/>
</g>
<!-- eno3np2&#45;&gt;no_lldp_peer -->
<g id="edge16" class="edge">
<title>eno3np2&#45;&gt;no_lldp_peer</title>
<path fill="none" stroke="#6c7086" stroke-dasharray="5,2" d="M702.29,-449.79C751.64,-405.05 839.37,-325.51 881.3,-287.5"/>
<polygon fill="#6c7086" stroke="#6c7086" points="883.57,-290.16 888.63,-280.85 878.87,-284.98 883.57,-290.16"/>
</g>
<!-- eno4np3&#45;&gt;no_lldp_peer -->
<g id="edge17" class="edge">
<title>eno4np3&#45;&gt;no_lldp_peer</title>
<path fill="none" stroke="#6c7086" stroke-dasharray="5,2" d="M713.41,-352.92C757.42,-332.97 822.62,-303.41 864.43,-284.46"/>
<polygon fill="#6c7086" stroke="#6c7086" points="865.75,-287.7 873.41,-280.39 862.86,-281.33 865.75,-287.7"/>
</g>
<!-- ens5f2np2&#45;&gt;no_lldp_peer -->
<g id="edge22" class="edge">
<title>ens5f2np2&#45;&gt;no_lldp_peer</title>
<path fill="none" stroke="#6c7086" stroke-dasharray="5,2" d="M713.41,-266.12C753.55,-266.12 811.31,-266.12 852.88,-266.12"/>
<polygon fill="#6c7086" stroke="#6c7086" points="852.64,-269.63 862.64,-266.13 852.64,-262.63 852.64,-269.63"/>
</g>
<!-- ens5f3np3&#45;&gt;no_lldp_peer -->
<g id="edge23" class="edge">
<title>ens5f3np3&#45;&gt;no_lldp_peer</title>
<path fill="none" stroke="#6c7086" stroke-dasharray="5,2" d="M713.41,-179.33C757.42,-199.28 822.62,-228.84 864.43,-247.79"/>
<polygon fill="#6c7086" stroke="#6c7086" points="862.86,-250.92 873.41,-251.86 865.75,-244.55 862.86,-250.92"/>
</g>
<!-- idrac&#45;&gt;no_lldp_peer -->
<g id="edge26" class="edge">
<title>idrac&#45;&gt;no_lldp_peer</title>
<path fill="none" stroke="#6c7086" stroke-dasharray="5,2" d="M702.29,-82.46C751.64,-127.2 839.37,-206.74 881.3,-244.75"/>
<polygon fill="#6c7086" stroke="#6c7086" points="878.87,-247.27 888.63,-251.4 883.57,-242.09 878.87,-247.27"/>
</g>
<!-- sw_switch_01_example_net -->
<g id="node23" class="node">
<title>sw_switch_01_example_net</title>
<path fill="#313244" stroke="none" d="M834.5,-769C834.5,-769 977.25,-769 977.25,-769 983.25,-769 989.25,-775 989.25,-781 989.25,-781 989.25,-821.25 989.25,-821.25 989.25,-827.25 983.25,-833.25 977.25,-833.25 977.25,-833.25 834.5,-833.25 834.5,-833.25 828.5,-833.25 822.5,-827.25 822.5,-821.25 822.5,-821.25 822.5,-781 822.5,-781 822.5,-775 828.5,-769 834.5,-769"/>
<text xml:space="preserve" text-anchor="start" x="833.5" y="-809.95" font-family="Helvetica,Arial,sans-serif" font-weight="bold" font-size="14.00" fill="#fab387">switch&#45;01.example.net</text>
<text xml:space="preserve" text-anchor="start" x="889.75" y="-780.8" font-family="Helvetica,Arial,sans-serif" font-size="11.00" fill="#a6adc8">Switch</text>
<path fill="none" stroke="#fab387" d="M834.5,-769C834.5,-769 977.25,-769 977.25,-769 983.25,-769 989.25,-775 989.25,-781 989.25,-781 989.25,-821.25 989.25,-821.25 989.25,-827.25 983.25,-833.25 977.25,-833.25 977.25,-833.25 834.5,-833.25 834.5,-833.25 828.5,-833.25 822.5,-827.25 822.5,-821.25 822.5,-821.25 822.5,-781 822.5,-781 822.5,-775 828.5,-769 834.5,-769"/>
</g>
<!-- swport_dev_collapsed_ipf01cly_lf01_ifname_xe_0_0_2&#45;&gt;sw_switch_01_example_net -->
<g id="edge27" class="edge">
<title>swport_dev_collapsed_ipf01cly_lf01_ifname_xe_0_0_2&#45;&gt;sw_switch_01_example_net</title>
<path fill="none" stroke="#585b70" d="M712,-830.27C741.24,-825.85 780.25,-819.96 815.53,-814.62"/>
<polygon fill="#585b70" stroke="#585b70" points="815.42,-816.77 821.04,-813.79 814.79,-812.61 815.42,-816.77"/>
</g>
<!-- swport_dev_collapsed_ipf01cly_lf01_ifname_xe_0_0_3&#45;&gt;sw_switch_01_example_net -->
<g id="edge28" class="edge">
<title>swport_dev_collapsed_ipf01cly_lf01_ifname_xe_0_0_3&#45;&gt;sw_switch_01_example_net</title>
<path fill="none" stroke="#585b70" d="M685.32,-655.52C720.49,-678.85 797.72,-730.06 850.53,-765.09"/>
<polygon fill="#585b70" stroke="#585b70" points="849.1,-766.66 855.27,-768.23 851.43,-763.16 849.1,-766.66"/>
</g>
<!-- swport_dev_collapsed_ipf01cly_lf01_ifname_et_0_0_38&#45;&gt;sw_switch_01_example_net -->
<g id="edge29" class="edge">
<title>swport_dev_collapsed_ipf01cly_lf01_ifname_et_0_0_38&#45;&gt;sw_switch_01_example_net</title>
<path fill="none" stroke="#585b70" d="M713.41,-775.41C742.51,-779.32 780.88,-784.47 815.62,-789.14"/>
<polygon fill="#585b70" stroke="#585b70" points="815.25,-791.21 821.48,-789.92 815.81,-787.04 815.25,-791.21"/>
</g>
<!-- swport_dev_collapsed_ipf01cly_lf01_ifname_et_0_0_39&#45;&gt;sw_switch_01_example_net -->
<g id="edge30" class="edge">
<title>swport_dev_collapsed_ipf01cly_lf01_ifname_et_0_0_39&#45;&gt;sw_switch_01_example_net</title>
<path fill="none" stroke="#585b70" d="M681.06,-1143.65C690.82,-1134.82 703.67,-1122.41 713.5,-1110.12 785.95,-1019.55 853.02,-899.75 885.08,-839.38"/>
<polygon fill="#585b70" stroke="#585b70" points="886.79,-840.65 887.74,-834.36 883.08,-838.68 886.79,-840.65"/>
</g>
<!-- sw_switch_02_example_net -->
<g id="node24" class="node">
<title>sw_switch_02_example_net</title>
<path fill="#313244" stroke="none" d="M834.5,-1009C834.5,-1009 977.25,-1009 977.25,-1009 983.25,-1009 989.25,-1015 989.25,-1021 989.25,-1021 989.25,-1061.25 989.25,-1061.25 989.25,-1067.25 983.25,-1073.25 977.25,-1073.25 977.25,-1073.25 834.5,-1073.25 834.5,-1073.25 828.5,-1073.25 822.5,-1067.25 822.5,-1061.25 822.5,-1061.25 822.5,-1021 822.5,-1021 822.5,-1015 828.5,-1009 834.5,-1009"/>
<text xml:space="preserve" text-anchor="start" x="833.5" y="-1049.95" font-family="Helvetica,Arial,sans-serif" font-weight="bold" font-size="14.00" fill="#fab387">switch&#45;02.example.net</text>
<text xml:space="preserve" text-anchor="start" x="889.75" y="-1020.8" font-family="Helvetica,Arial,sans-serif" font-size="11.00" fill="#a6adc8">Switch</text>
<path fill="none" stroke="#fab387" d="M834.5,-1009C834.5,-1009 977.25,-1009 977.25,-1009 983.25,-1009 989.25,-1015 989.25,-1021 989.25,-1021 989.25,-1061.25 989.25,-1061.25 989.25,-1067.25 983.25,-1073.25 977.25,-1073.25 977.25,-1073.25 834.5,-1073.25 834.5,-1073.25 828.5,-1073.25 822.5,-1067.25 822.5,-1061.25 822.5,-1061.25 822.5,-1021 822.5,-1021 822.5,-1015 828.5,-1009 834.5,-1009"/>
</g>
<!-- swport_dev_collapsed_ipf01cly_lf02_ifname_xe_0_0_2&#45;&gt;sw_switch_02_example_net -->
<g id="edge31" class="edge">
<title>swport_dev_collapsed_ipf01cly_lf02_ifname_xe_0_0_2&#45;&gt;sw_switch_02_example_net</title>
<path fill="none" stroke="#585b70" d="M712,-1069.46C741.24,-1065.16 780.25,-1059.43 815.53,-1054.25"/>
<polygon fill="#585b70" stroke="#585b70" points="815.41,-1056.39 821.04,-1053.44 814.8,-1052.24 815.41,-1056.39"/>
</g>
<!-- swport_dev_collapsed_ipf01cly_lf02_ifname_xe_0_0_3&#45;&gt;sw_switch_02_example_net -->
<g id="edge32" class="edge">
<title>swport_dev_collapsed_ipf01cly_lf02_ifname_xe_0_0_3&#45;&gt;sw_switch_02_example_net</title>
<path fill="none" stroke="#585b70" d="M695.84,-951.63C727.4,-965.14 779.08,-987.27 823.16,-1006.14"/>
<polygon fill="#585b70" stroke="#585b70" points="822.15,-1007.99 828.49,-1008.42 823.8,-1004.13 822.15,-1007.99"/>
</g>
<!-- swport_dev_collapsed_ipf01cly_lf02_ifname_et_0_0_38&#45;&gt;sw_switch_02_example_net -->
<g id="edge33" class="edge">
<title>swport_dev_collapsed_ipf01cly_lf02_ifname_et_0_0_38&#45;&gt;sw_switch_02_example_net</title>
<path fill="none" stroke="#585b70" d="M713.41,-1013.8C742.51,-1017.95 780.88,-1023.43 815.62,-1028.39"/>
<polygon fill="#585b70" stroke="#585b70" points="815.24,-1030.45 821.48,-1029.22 815.83,-1026.3 815.24,-1030.45"/>
</g>
<!-- swport_dev_collapsed_ipf01cly_lf02_ifname_et_0_0_39&#45;&gt;sw_switch_02_example_net -->
<g id="edge34" class="edge">
<title>swport_dev_collapsed_ipf01cly_lf02_ifname_et_0_0_39&#45;&gt;sw_switch_02_example_net</title>
<path fill="none" stroke="#585b70" d="M682.02,-1239.69C702.14,-1223.34 738.38,-1193.57 768.5,-1167.12 801.88,-1137.81 838.84,-1103.54 865.86,-1078.15"/>
<polygon fill="#585b70" stroke="#585b70" points="867.09,-1079.87 870.02,-1074.23 864.21,-1076.82 867.09,-1079.87"/>
</g>
</g>
</svg>
