<?xml version="1.0" encoding="UTF-8" standalone="no"?>
<!DOCTYPE svg PUBLIC "-//W3C//DTD SVG 1.1//EN"
 "http://www.w3.org/Graphics/SVG/1.1/DTD/svg11.dtd">
<!-- Generated by graphviz version 14.0.0 (0)
 -->
<!-- Title: nic_xray Pages: 1 -->
<svg width="1061pt" height="1419pt"
 viewBox="0.00 0.00 1061.00 1419.00" xmlns="http://www.w3.org/2000/svg" xmlns:xlink="http://www.w3.org/1999/xlink">
<g id="graph0" class="graph" transform="scale(1 1) rotate(0) translate(36 1383.38)">
<title>nic_xray</title>
<polygon fill="#1e1e2e" stroke="none" points="-36,36 -36,-1383.38 1025.25,-1383.38 1025.25,36 -36,36"/>
<g id="clust1" class="cluster">
<title>cluster_bond_0</title>
<polygon fill="#1e1e2e" fill-opacity="0.800000" stroke="#89b4fa" stroke-width="1.5" stroke-dasharray="5,2" points="266.25,-913.38 266.25,-1122.38 397,-1122.38 397,-913.38 266.25,-913.38"/>
<text xml:space="preserve" text-anchor="start" x="274.25" y="-1107.97" font-family="Helvetica,Arial,sans-serif" font-weight="bold" font-size="12.00" fill="#89b4fa">bond0</text>
<text xml:space="preserve" text-anchor="start" x="311" y="-1107.97" font-family="Helvetica,Arial,sans-serif" font-size="12.00" fill="#89b4fa"> (LACP Active)</text>
</g>
<g id="clust2" class="cluster">
<title>cluster_bond_1</title>
<polygon fill="#1e1e2e" fill-opacity="0.800000" stroke="#f9e2af" stroke-width="1.5" stroke-dasharray="5,2" points="266.25,-479.38 266.25,-688.38 397,-688.38 397,-479.38 266.25,-479.38"/>
<text xml:space="preserve" text-anchor="start" x="274.25" y="-673.98" font-family="Helvetica,Arial,sans-serif" font-weight="bold" font-size="12.00" fill="#f9e2af">bond1</text>
<text xml:space="preserve" text-anchor="start" x="311" y="-673.98" font-family="Helvetica,Arial,sans-serif" font-size="12.00" fill="#f9e2af"> (LACP Active)</text>
</g>
<g id="clust3" class="cluster">
<title>cluster_bond_2</title>
<polygon fill="#1e1e2e" fill-opacity="0.800000" stroke="#94e2d5" stroke-width="1.5" stroke-dasharray="5,2" points="266.25,-696.38 266.25,-905.38 397,-905.38 397,-696.38 266.25,-696.38"/>
<text xml:space="preserve" text-anchor="start" x="274.25" y="-890.98" font-family="Helvetica,Arial,sans-serif" font-weight="bold" font-size="12.00" fill="#94e2d5">bond2</text>
<text xml:space="preserve" text-anchor="start" x="311" y="-890.98" font-family="Helvetica,Arial,sans-serif" font-size="12.00" fill="#94e2d5"> (LACP Active)</text>
</g>
<g id="clust4" class="cluster">
<title>cluster_bond_3</title>
<polygon fill="#1e1e2e" fill-opacity="0.800000" stroke="#f5c2e7" stroke-width="1.5" stroke-dasharray="5,2" points="266.25,-1130.38 266.25,-1339.38 397,-1339.38 397,-1130.38 266.25,-1130.38"/>
<text xml:space="preserve" text-anchor="start" x="274.25" y="-1324.97" font-family="Helvetica,Arial,sans-serif" font-weight="bold" font-size="12.00" fill="#f5c2e7">bond3</text>
<text xml:space="preserve" text-anchor="start" x="311" y="-1324.97" font-family="Helvetica,Arial,sans-serif" font-size="12.00" fill="#f5c2e7"> (LACP Active)</text>
</g>
<!-- server -->
<g id="node1" class="node">
<title>server</title>
<polygon fill="#313244" stroke="none" points="0,-595.25 0,-659.5 165.25,-659.5 165.25,-595.25 0,-595.25"/>
<text xml:space="preserve" text-anchor="start" x="11" y="-636.2" font-family="Helvetica,Arial,sans-serif" font-weight="bold" font-size="14.00" fill="#cba6f7">server&#45;01.example.net</text>
<text xml:space="preserve" text-anchor="start" x="66.5" y="-607.05" font-family="Helvetica,Arial,sans-serif" font-size="11.00" fill="#a6adc8">Server</text>
<polygon fill="none" stroke="#585b70" points="0,-595.25 0,-659.5 165.25,-659.5 165.25,-595.25 0,-595.25"/>
</g>
<!-- eno1np0 -->
<g id="node2" class="node">
<title>eno1np0</title>
<polygon fill="#313244" stroke="none" points="283.25,-921 283.25,-985.75 379,-985.75 379,-921 283.25,-921"/>
<text xml:space="preserve" text-anchor="start" x="308.62" y="-969.3" font-family="Helvetica,Arial,sans-serif" font-weight="bold" font-size="11.00" fill="#cdd6f4">eno1np0</text>
<text xml:space="preserve" text-anchor="start" x="290.25" y="-948.95" font-family="Helvetica,Arial,sans-serif" font-size="9.00" fill="#a6adc8">XX:XX:XX:XX:XX:01</text>
<text xml:space="preserve" text-anchor="start" x="308.62" y="-929.2" font-family="Helvetica,Arial,sans-serif" font-size="9.00" fill="#a6adc8">MTU: 9100</text>
<polygon fill="none" stroke="#a6e3a1" points="283.25,-921 283.25,-985.75 379,-985.75 379,-921 283.25,-921"/>
</g>
<!-- server&#45;&gt;eno1np0 -->
<g id="edge1" class="edge">
<title>server&#45;&gt;eno1np0</title>
<path fill="none" stroke="#585b70" d="M97.7,-659.3C124.06,-716.31 185.58,-836.97 266.25,-915.38 269.73,-918.76 273.57,-921.97 277.58,-924.98"/>
<polygon fill="#585b70" stroke="#585b70" points="276.23,-926.6 282.34,-928.38 278.67,-923.18 276.23,-926.6"/>
</g>
<!-- ens5f0np0 -->
<g id="node3" class="node">
<title>ens5f0np0</title>
<polygon fill="#313244" stroke="none" points="283.25,-1029 283.25,-1093.75 379,-1093.75 379,-1029 283.25,-1029"/>
<text xml:space="preserve" text-anchor="start" x="304.12" y="-1077.3" font-family="Helvetica,Arial,sans-serif" font-weight="bold" font-size="11.00" fill="#cdd6f4">ens5f0np0</text>
<text xml:space="preserve" text-anchor="start" x="290.25" y="-1056.95" font-family="Helvetica,Arial,sans-serif" font-size="9.00" fill="#a6adc8">XX:XX:XX:XX:XX:07</text>
<text xml:space="preserve" text-anchor="start" x="308.62" y="-1037.2" font-family="Helvetica,Arial,sans-serif" font-size="9.00" fill="#a6adc8">MTU: 9100</text>
<polygon fill="none" stroke="#a6e3a1" points="283.25,-1029 283.25,-1093.75 379,-1093.75 379,-1029 283.25,-1029"/>
</g>
<!-- server&#45;&gt;ens5f0np0 -->
<g id="edge7" class="edge">
<title>server&#45;&gt;ens5f0np0</title>
<path fill="none" stroke="#585b70" d="M93.84,-659.4C116.82,-728.12 177.57,-892.75 266.25,-1007.38 270.81,-1013.27 276.1,-1018.97 281.66,-1024.31"/>
<polygon fill="#585b70" stroke="#585b70" points="279.89,-1025.53 285.71,-1028.09 282.75,-1022.46 279.89,-1025.53"/>
</g>
<!-- eno2np1 -->
<g id="node4" class="node">
<title>eno2np1</title>
<polygon fill="#313244" stroke="none" points="283.25,-487 283.25,-551.75 379,-551.75 379,-487 283.25,-487"/>
<text xml:space="preserve" text-anchor="start" x="308.62" y="-535.3" font-family="Helvetica,Arial,sans-serif" font-weight="bold" font-size="11.00" fill="#cdd6f4">eno2np1</text>
<text xml:space="preserve" text-anchor="start" x="290.25" y="-514.95" font-family="Helvetica,Arial,sans-serif" font-size="9.00" fill="#a6adc8">XX:XX:XX:XX:XX:02</text>
<text xml:space="preserve" text-anchor="start" x="308.62" y="-495.2" font-family="Helvetica,Arial,sans-serif" font-size="9.00" fill="#a6adc8">MTU: 9100</text>
<polygon fill="none" stroke="#a6e3a1" points="283.25,-487 283.25,-551.75 379,-551.75 379,-487 283.25,-487"/>
</g>
<!-- server&#45;&gt;eno2np1 -->
<g id="edge2" class="edge">
<title>server&#45;&gt;eno2np1</title>
<path fill="none" stroke="#585b70" d="M156.92,-595.26C195.37,-578.42 241.63,-558.15 276.66,-542.8"/>
<polygon fill="#585b70" stroke="#585b70" points="277.48,-544.74 282.13,-540.4 275.79,-540.89 277.48,-544.74"/>
</g>
<!-- ens5f1np1 -->
<g id="node5" class="node">
<title>ens5f1np1</title>
<polygon fill="#313244" stroke="none" points="283.25,-595 283.25,-659.75 379,-659.75 379,-595 283.25,-595"/>
<text xml:space="preserve" text-anchor="start" x="304.12" y="-643.3" font-family="Helvetica,Arial,sans-serif" font-weight="bold" font-size="11.00" fill="#cdd6f4">ens5f1np1</text>
<text xml:space="preserve" text-anchor="start" x="290.25" y="-622.95" font-family="Helvetica,Arial,sans-serif" font-size="9.00" fill="#a6adc8">XX:XX:XX:XX:XX:08</text>
<text xml:space="preserve" text-anchor="start" x="308.62" y="-603.2" font-family="Helvetica,Arial,sans-serif" font-size="9.00" fill="#a6adc8">MTU: 9100</text>
<polygon fill="none" stroke="#a6e3a1" points="283.25,-595 283.25,-659.75 379,-659.75 379,-595 283.25,-595"/>
</g>
<!-- server&#45;&gt;ens5f1np1 -->
<g id="edge8" class="edge">
<title>server&#45;&gt;ens5f1np1</title>
<path fill="none" stroke="#585b70" d="M165.02,-627.38C201.53,-627.38 243.59,-627.38 276.12,-627.38"/>
<polygon fill="#585b70" stroke="#585b70" points="275.82,-629.48 281.82,-627.38 275.82,-625.28 275.82,-629.48"/>
</g>
<!-- ens3f0np0 -->
<g id="node6" class="node">
<title>ens3f0np0</title>
<polygon fill="#313244" stroke="none" points="283.25,-704 283.25,-768.75 379,-768.75 379,-704 283.25,-704"/>
<text xml:space="preserve" text-anchor="start" x="304.12" y="-752.3" font-family="Helvetica,Arial,sans-serif" font-weight="bold" font-size="11.00" fill="#cdd6f4">ens3f0np0</text>
<text xml:space="preserve" text-anchor="start" x="290.25" y="-731.95" font-family="Helvetica,Arial,sans-serif" font-size="9.00" fill="#a6adc8">XX:XX:XX:XX:XX:05</text>
<text xml:space="preserve" text-anchor="start" x="308.62" y="-712.2" font-family="Helvetica,Arial,sans-serif" font-size="9.00" fill="#a6adc8">MTU: 9100</text>
<polygon fill="none" stroke="#a6e3a1" points="283.25,-704 283.25,-768.75 379,-768.75 379,-704 283.25,-704"/>
</g>
<!-- server&#45;&gt;ens3f0np0 -->
<g id="edge5" class="edge">
<title>server&#45;&gt;ens3f0np0</title>
<path fill="none" stroke="#585b70" d="M156.25,-659.49C194.89,-676.57 241.56,-697.21 276.82,-712.8"/>
<polygon fill="#585b70" stroke="#585b70" points="275.54,-714.53 281.88,-715.04 277.24,-710.69 275.54,-714.53"/>
</g>
<!-- ens8f0np0 -->
<g id="node7" class="node">
<title>ens8f0np0</title>
<polygon fill="#313244" stroke="none" points="283.25,-812 283.25,-876.75 379,-876.75 379,-812 283.25,-812"/>
<text xml:space="preserve" text-anchor="start" x="304.12" y="-860.3" font-family="Helvetica,Arial,sans-serif" font-weight="bold" font-size="11.00" fill="#cdd6f4">ens8f0np0</text>
<text xml:space="preserve" text-anchor="start" x="290.25" y="-839.95" font-family="Helvetica,Arial,sans-serif" font-size="9.00" fill="#a6adc8">XX:XX:XX:XX:XX:0b</text>
<text xml:space="preserve" text-anchor="start" x="308.62" y="-820.2" font-family="Helvetica,Arial,sans-serif" font-size="9.00" fill="#a6adc8">MTU: 9100</text>
<polygon fill="none" stroke="#a6e3a1" points="283.25,-812 283.25,-876.75 379,-876.75 379,-812 283.25,-812"/>
</g>
<!-- server&#45;&gt;ens8f0np0 -->
<g id="edge11" class="edge">
<title>server&#45;&gt;ens8f0np0</title>
<path fill="none" stroke="#585b70" d="M118.73,-659.21C155.32,-692.27 214.44,-745.36 266.25,-790.38 272.67,-795.95 279.5,-801.81 286.22,-807.52"/>
<polygon fill="#585b70" stroke="#585b70" points="284.73,-809.01 290.66,-811.3 287.45,-805.81 284.73,-809.01"/>
</g>
<!-- ens3f1np1 -->
<g id="node8" class="node">
<title>ens3f1np1</title>
<polygon fill="#313244" stroke="none" points="283.25,-1138 283.25,-1202.75 379,-1202.75 379,-1138 283.25,-1138"/>
<text xml:space="preserve" text-anchor="start" x="304.12" y="-1186.3" font-family="Helvetica,Arial,sans-serif" font-weight="bold" font-size="11.00" fill="#cdd6f4">ens3f1np1</text>
<text xml:space="preserve" text-anchor="start" x="290.25" y="-1165.95" font-family="Helvetica,Arial,sans-serif" font-size="9.00" fill="#a6adc8">XX:XX:XX:XX:XX:06</text>
<text xml:space="preserve" text-anchor="start" x="308.62" y="-1146.2" font-family="Helvetica,Arial,sans-serif" font-size="9.00" fill="#a6adc8">MTU: 9100</text>
<polygon fill="none" stroke="#a6e3a1" points="283.25,-1138 283.25,-1202.75 379,-1202.75 379,-1138 283.25,-1138"/>
</g>
<!-- server&#45;&gt;ens3f1np1 -->
<g id="edge6" class="edge">
<title>server&#45;&gt;ens3f1np1</title>
<path fill="none" stroke="#585b70" d="M87.63,-659.45C99.79,-745.24 143.32,-983.6 266.25,-1132.38 269.58,-1136.41 273.46,-1140.12 277.64,-1143.51"/>
<polygon fill="#585b70" stroke="#585b70" points="276.22,-1145.07 282.27,-1147.01 278.75,-1141.72 276.22,-1145.07"/>
</g>
<!-- ens8f1np1 -->
<g id="node9" class="node">
<title>ens8f1np1</title>
<polygon fill="#313244" stroke="none" points="283.62,-1246 283.62,-1310.75 378.62,-1310.75 378.62,-1246 283.62,-1246"/>
<text xml:space="preserve" text-anchor="start" x="304.12" y="-1294.3" font-family="Helvetica,Arial,sans-serif" font-weight="bold" font-size="11.00" fill="#cdd6f4">ens8f1np1</text>
<text xml:space="preserve" text-anchor="start" x="290.62" y="-1273.95" font-family="Helvetica,Arial,sans-serif" font-size="9.00" fill="#a6adc8">XX:XX:XX:XX:XX:0c</text>
<text xml:space="preserve" text-anchor="start" x="308.62" y="-1254.2" font-family="Helvetica,Arial,sans-serif" font-size="9.00" fill="#a6adc8">MTU: 9100</text>
<polygon fill="none" stroke="#a6e3a1" points="283.62,-1246 283.62,-1310.75 378.62,-1310.75 378.62,-1246 283.62,-1246"/>
</g>
<!-- server&#45;&gt;ens8f1np1 -->
<g id="edge12" class="edge">
<title>server&#45;&gt;ens8f1np1</title>
<path fill="none" stroke="#585b70" d="M91.96,-659.25C112.07,-735.5 165.6,-934.21 219.25,-1097.38 238.05,-1154.55 231.69,-1175.1 266.25,-1224.38 270.38,-1230.26 275.3,-1235.89 280.55,-1241.14"/>
<polygon fill="#585b70" stroke="#585b70" points="279.01,-1242.58 284.8,-1245.21 281.92,-1239.54 279.01,-1242.58"/>
</g>
<!-- eno3np2 -->
<g id="node10" class="node">
<title>eno3np2</title>
<polygon fill="#313244" stroke="none" points="617.75,-432 617.75,-496.75 713.5,-496.75 713.5,-432 617.75,-432"/>
<text xml:space="preserve" text-anchor="start" x="643.12" y="-480.3" font-family="Helvetica,Arial,sans-serif" font-weight="bold" font-size="11.00" fill="#cdd6f4">eno3np2</text>
<text xml:space="preserve" text-anchor="start" x="624.75" y="-459.95" font-family="Helvetica,Arial,sans-serif" font-size="9.00" fill="#a6adc8">XX:XX:XX:XX:XX:03</text>
<text xml:space="preserve" text-anchor="start" x="643.12" y="-440.2" font-family="Helvetica,Arial,sans-serif" font-size="9.00" fill="#a6adc8">MTU: 1500</text>
<polygon fill="none" stroke="#f38ba8" points="617.75,-432 617.75,-496.75 713.5,-496.75 713.5,-432 617.75,-432"/>
</g>
<!-- server&#45;&gt;eno3np2 -->
<g id="edge3" class="edge">
<title>server&#45;&gt;eno3np2</title>
<path fill="none" stroke="#585b70" d="M108.21,-595.44C139.91,-557.13 199.03,-494.9 266.25,-469.38 382.45,-425.25 531.82,-440.61 610.53,-453.69"/>
<polygon fill="#585b70" stroke="#585b70" points="610.16,-455.75 616.43,-454.69 610.86,-451.61 610.16,-455.75"/>
</g>
<!-- eno4np3 -->
<g id="node11" class="node">
<title>eno4np3</title>
<polygon fill="#313244" stroke="none" points="617.75,-324 617.75,-388.75 713.5,-388.75 713.5,-324 617.75,-324"/>
<text xml:space="preserve" text-anchor="start" x="643.12" y="-372.3" font-family="Helvetica,Arial,sans-serif" font-weight="bold" font-size="11.00" fill="#cdd6f4">eno4np3</text>
<text xml:space="preserve" text-anchor="start" x="624.75" y="-351.95" font-family="Helvetica,Arial,sans-serif" font-size="9.00" fill="#a6adc8">XX:XX:XX:XX:XX:04</text>
<text xml:space="preserve" text-anchor="start" x="643.12" y="-332.2" font-family="Helvetica,Arial,sans-serif" font-size="9.00" fill="#a6adc8">MTU: 1500</text>
<polygon fill="none" stroke="#f38ba8" points="617.75,-324 617.75,-388.75 713.5,-388.75 713.5,-324 617.75,-324"/>
</g>
<!-- server&#45;&gt;eno4np3 -->
<g id="edge4" class="edge">
<title>server&#45;&gt;eno4np3</title>
<path fill="none" stroke="#585b70" d="M103.76,-595.56C133.55,-551.36 193.72,-472.31 266.25,-432.38 377.91,-370.89 530.87,-358.36 610.87,-356.29"/>
<polygon fill="#585b70" stroke="#585b70" points="610.45,-358.4 616.4,-356.17 610.36,-354.2 610.45,-358.4"/>
</g>
<!-- ens5f2np2 -->
<g id="node12" class="node">
<title>ens5f2np2</title>
<polygon fill="#313244" stroke="none" points="617.75,-216 617.75,-280.75 713.5,-280.75 713.5,-216 617.75,-216"/>
<text xml:space="preserve" text-anchor="start" x="638.62" y="-264.3" font-family="Helvetica,Arial,sans-serif" font-weight="bold" font-size="11.00" fill="#cdd6f4">ens5f2np2</text>
<text xml:space="preserve" text-anchor="start" x="624.75" y="-243.95" font-family="Helvetica,Arial,sans-serif" font-size="9.00" fill="#a6adc8">XX:XX:XX:XX:XX:09</text>
<text xml:space="preserve" text-anchor="start" x="643.12" y="-224.2" font-family="Helvetica,Arial,sans-serif" font-size="9.00" fill="#a6adc8">MTU: 1500</text>
<polygon fill="none" stroke="#f38ba8" points="617.75,-216 617.75,-280.75 713.5,-280.75 713.5,-216 617.75,-216"/>
</g>
<!-- server&#45;&gt;ens5f2np2 -->
<g id="edge9" class="edge">
<title>server&#45;&gt;ens5f2np2</title>
<path fill="none" stroke="#585b70" d="M98.17,-595.51C124.23,-541.94 183.94,-433.88 266.25,-374.38 373.25,-297.03 529.47,-265.97 610.84,-254.48"/>
<polygon fill="#585b70" stroke="#585b70" points="610.84,-256.6 616.5,-253.7 610.27,-252.44 610.84,-256.6"/>
</g>
<!-- ens5f3np3 -->
<g id="node13" class="node">
<title>ens5f3np3</title>
<polygon fill="#313244" stroke="none" points="617.75,-108 617.75,-172.75 713.5,-172.75 713.5,-108 617.75,-108"/>
<text xml:space="preserve" text-anchor="start" x="638.62" y="-156.3" font-family="Helvetica,Arial,sans-serif" font-weight="bold" font-size="11.00" fill="#cdd6f4">ens5f3np3</text>
<text xml:space="preserve" text-anchor="start" x="624.75" y="-135.95" font-family="Helvetica,Arial,sans-serif" font-size="9.00" fill="#a6adc8">XX:XX:XX:XX:XX:0a</text>
<text xml:space="preserve" text-anchor="start" x="643.12" y="-116.2" font-family="Helvetica,Arial,sans-serif" font-size="9.00" fill="#a6adc8">MTU: 1500</text>
<polygon fill="none" stroke="#f38ba8" points="617.75,-108 617.75,-172.75 713.5,-172.75 713.5,-108 617.75,-108"/>
</g>
<!-- server&#45;&gt;ens5f3np3 -->
<g id="edge10" class="edge">
<title>server&#45;&gt;ens5f3np3</title>
<path fill="none" stroke="#585b70" d="M93.12,-595.44C113.99,-530.5 169.79,-382.04 266.25,-297.38 368.34,-207.76 527.67,-166.09 610.5,-149.57"/>
<polygon fill="#585b70" stroke="#585b70" points="610.82,-151.65 616.3,-148.44 610.01,-147.53 610.82,-151.65"/>
</g>
<!-- idrac -->
<g id="node14" class="node">
<title>idrac</title>
<polygon fill="#313244" stroke="none" points="617.75,0 617.75,-64.75 713.5,-64.75 713.5,0 617.75,0"/>
<text xml:space="preserve" text-anchor="start" x="652.5" y="-48.3" font-family="Helvetica,Arial,sans-serif" font-weight="bold" font-size="11.00" fill="#cdd6f4">idrac</text>
<text xml:space="preserve" text-anchor="start" x="624.75" y="-27.95" font-family="Helvetica,Arial,sans-serif" font-size="9.00" fill="#a6adc8">XX:XX:XX:XX:XX:0d</text>
<text xml:space="preserve" text-anchor="start" x="643.12" y="-8.2" font-family="Helvetica,Arial,sans-serif" font-size="9.00" fill="#a6adc8">MTU: 1500</text>
<polygon fill="none" stroke="#a6e3a1" points="617.75,0 617.75,-64.75 713.5,-64.75 713.5,0 617.75,0"/>
</g>
<!-- server&#45;&gt;idrac -->
<g id="edge13" class="edge">
<title>server&#45;&gt;idrac</title>
<path fill="none" stroke="#585b70" d="M89.31,-595.33C104.49,-518.64 152.77,-322.42 266.25,-208.38 364.19,-109.94 526.63,-62.16 610.62,-43.02"/>
<polygon fill="#585b70" stroke="#585b70" points="610.89,-45.11 616.28,-41.75 609.97,-41.01 610.89,-45.11"/>
</g>
<!-- swport_dev_collapsed_ipf01cly_lf01_ifname_xe_0_0_2 -->
<g id="node15" class="node">
<title>swport_dev_collapsed_ipf01cly_lf01_ifname_xe_0_0_2</title>
<polygon fill="#313244" stroke="none" points="619.25,-799.75 619.25,-825 712,-825 712,-799.75 619.25,-799.75"/>
<text xml:space="preserve" text-anchor="start" x="626.25" y="-808.55" font-family="Helvetica,Arial,sans-serif" font-weight="bold" font-size="11.00" fill="#cdd6f4">ifname xe&#45;0/0/2</text>
<polygon fill="none" stroke="#fab387" points="619.25,-799.75 619.25,-825 712,-825 712,-799.75 619.25,-799.75"/>
</g>
<!-- eno1np0&#45;&gt;swport_dev_collapsed_ipf01cly_lf01_ifname_xe_0_0_2 -->
<g id="edge14" class="edge">
<title>eno1np0&#45;&gt;swport_dev_collapsed_ipf01cly_lf01_ifname_xe_0_0_2</title>
<path fill="none" stroke="#89b4fa" stroke-width="2.5" d="M378.97,-930.55C385.51,-926.1 391.77,-921.03 397,-915.38 428.84,-880.92 403.71,-846 443,-820.38 490.99,-789.07 558.07,-791.46 605.84,-798.95"/>
<polygon fill="#89b4fa" stroke="#89b4fa" stroke-width="2.5" points="605.2,-802.39 615.65,-800.64 606.39,-795.49 605.2,-802.39"/>
<text xml:space="preserve" text-anchor="start" x="443" y="-831.88" font-family="Helvetica,Arial,sans-serif" font-size="10.00" fill="#a6adc8">VLAN </text>
<text xml:space="preserve" text-anchor="start" x="473" y="-831.88" font-family="Helvetica,Arial,sans-serif" font-weight="bold" text-decoration="underline" font-size="10.00" fill="#a6adc8">100</text>
<text xml:space="preserve" text-anchor="start" x="488.75" y="-831.88" font-family="Helvetica,Arial,sans-serif" font-size="10.00" fill="#a6adc8">;101;102;110;111</text>
<text xml:space="preserve" text-anchor="start" x="488.38" y="-821.88" font-family="Helvetica,Arial,sans-serif" font-size="10.00" fill="#a6adc8">10GbE</text>
</g>
<!-- swport_dev_collapsed_ipf01cly_lf02_ifname_xe_0_0_2 -->
<g id="node19" class="node">
<title>swport_dev_collapsed_ipf01cly_lf02_ifname_xe_0_0_2</title>
<polygon fill="#313244" stroke="none" points="619.25,-1047.75 619.25,-1073 712,-1073 712,-1047.75 619.25,-1047.75"/>
<text xml:space="preserve" text-anchor="start" x="626.25" y="-1056.55" font-family="Helvetica,Arial,sans-serif" font-weight="bold" font-size="11.00" fill="#cdd6f4">ifname xe&#45;0/0/2</text>
<polygon fill="none" stroke="#fab387" points="619.25,-1047.75 619.25,-1073 712,-1073 712,-1047.75 619.25,-1047.75"/>
</g>
<!-- ens5f0np0&#45;&gt;swport_dev_collapsed_ipf01cly_lf02_ifname_xe_0_0_2 -->
<g id="edge20" class="edge">
<title>ens5f0np0&#45;&gt;swport_dev_collapsed_ipf01cly_lf02_ifname_xe_0_0_2</title>
<path fill="none" stroke="#89b4fa" stroke-width="2.5" d="M378.71,-1061.23C438.15,-1061.06 541.02,-1060.75 605.81,-1060.55"/>
<polygon fill="#89b4fa" stroke="#89b4fa" stroke-width="2.5" points="605.65,-1064.05 615.64,-1060.52 605.63,-1057.05 605.65,-1064.05"/>
<text xml:space="preserve" text-anchor="start" x="443" y="-1072.52" font-family="Helvetica,Arial,sans-serif" font-size="10.00" fill="#a6adc8">VLAN </text>
<text xml:space="preserve" text-anchor="start" x="473" y="-1072.52" font-family="Helvetica,Arial,sans-serif" font-weight="bold" text-decoration="underline" font-size="10.00" fill="#a6adc8">100</text>
<text xml:space="preserve" text-anchor="start" x="488.75" y="-1072.52" font-family="Helvetica,Arial,sans-serif" font-size="10.00" fill="#a6adc8">;101;102;110;111</text>
<text xml:space="preserve" text-anchor="start" x="488.38" y="-1062.52" font-family="Helvetica,Arial,sans-serif" font-size="10.00" fill="#a6adc8">10GbE</text>
</g>
<!-- swport_dev_collapsed_ipf01cly_lf01_ifname_xe_0_0_3 -->
<g id="node16" class="node">
<title>swport_dev_collapsed_ipf01cly_lf01_ifname_xe_0_0_3</title>
<polygon fill="#313244" stroke="none" points="619.25,-605.75 619.25,-631 712,-631 712,-605.75 619.25,-605.75"/>
<text xml:space="preserve" text-anchor="start" x="626.25" y="-614.55" font-family="Helvetica,Arial,sans-serif" font-weight="bold" font-size="11.00" fill="#cdd6f4">ifname xe&#45;0/0/3</text>
<polygon fill="none" stroke="#fab387" points="619.25,-605.75 619.25,-631 712,-631 712,-605.75 619.25,-605.75"/>
</g>
<!-- eno2np1&#45;&gt;swport_dev_collapsed_ipf01cly_lf01_ifname_xe_0_0_3 -->
<g id="edge15" class="edge">
<title>eno2np1&#45;&gt;swport_dev_collapsed_ipf01cly_lf01_ifname_xe_0_0_3</title>
<path fill="none" stroke="#f9e2af" stroke-width="2.5" d="M378.71,-533.24C439.19,-551.25 544.64,-582.65 609.18,-601.87"/>
<polygon fill="#f9e2af" stroke="#f9e2af" stroke-width="2.5" points="608.09,-605.19 618.67,-604.69 610.09,-598.49 608.09,-605.19"/>
<text xml:space="preserve" text-anchor="start" x="443" y="-597.85" font-family="Helvetica,Arial,sans-serif" font-size="10.00" fill="#a6adc8">VLAN </text>
<text xml:space="preserve" text-anchor="start" x="473" y="-597.85" font-family="Helvetica,Arial,sans-serif" font-weight="bold" text-decoration="underline" font-size="10.00" fill="#a6adc8">200</text>
<text xml:space="preserve" text-anchor="start" x="488.75" y="-597.85" font-family="Helvetica,Arial,sans-serif" font-size="10.00" fill="#a6adc8">;201;202;211;212</text>
<text xml:space="preserve" text-anchor="start" x="488.38" y="-587.85" font-family="Helvetica,Arial,sans-serif" font-size="10.00" fill="#a6adc8">10GbE</text>
</g>
<!-- swport_dev_collapsed_ipf01cly_lf02_ifname_xe_0_0_3 -->
<g id="node20" class="node">
<title>swport_dev_collapsed_ipf01cly_lf02_ifname_xe_0_0_3</title>
<polygon fill="#313244" stroke="none" points="619.25,-882.75 619.25,-908 712,-908 712,-882.75 619.25,-882.75"/>
<text xml:space="preserve" text-anchor="start" x="626.25" y="-891.55" font-family="Helvetica,Arial,sans-serif" font-weight="bold" font-size="11.00" fill="#cdd6f4">ifname xe&#45;0/0/3</text>
<polygon fill="none" stroke="#fab387" points="619.25,-882.75 619.25,-908 712,-908 712,-882.75 619.25,-882.75"/>
</g>
<!-- ens5f1np1&#45;&gt;swport_dev_collapsed_ipf01cly_lf02_ifname_xe_0_0_3 -->
<g id="edge21" class="edge">
<title>ens5f1np1&#45;&gt;swport_dev_collapsed_ipf01cly_lf02_ifname_xe_0_0_3</title>
<path fill="none" stroke="#f9e2af" stroke-width="2.5" d="M374.51,-659.61C382.9,-667.6 390.97,-676.68 397,-686.38 436.08,-749.21 389.07,-795.71 443,-846.38 466.22,-868.19 548.5,-881.99 605.98,-889.2"/>
<polygon fill="#f9e2af" stroke="#f9e2af" stroke-width="2.5" points="605.55,-892.68 615.89,-890.4 606.39,-885.73 605.55,-892.68"/>
<text xml:space="preserve" text-anchor="start" x="443" y="-894.35" font-family="Helvetica,Arial,sans-serif" font-size="10.00" fill="#a6adc8">VLAN </text>
<text xml:space="preserve" text-anchor="start" x="473" y="-894.35" font-family="Helvetica,Arial,sans-serif" font-weight="bold" text-decoration="underline" font-size="10.00" fill="#a6adc8">200</text>
<text xml:space="preserve" text-anchor="start" x="488.75" y="-894.35" font-family="Helvetica,Arial,sans-serif" font-size="10.00" fill="#a6adc8">;201;202;211;212</text>
<text xml:space="preserve" text-anchor="start" x="488.38" y="-884.35" font-family="Helvetica,Arial,sans-serif" font-size="10.00" fill="#a6adc8">10GbE</text>
</g>
<!-- swport_dev_collapsed_ipf01cly_lf01_ifname_et_0_0_38 -->
<g id="node17" class="node">
<title>swport_dev_collapsed_ipf01cly_lf01_ifname_et_0_0_38</title>
<polygon fill="#313244" stroke="none" points="617.75,-731.75 617.75,-757 713.5,-757 713.5,-731.75 617.75,-731.75"/>
<text xml:space="preserve" text-anchor="start" x="624.75" y="-740.55" font-family="Helvetica,Arial,sans-serif" font-weight="bold" font-size="11.00" fill="#cdd6f4">ifname et&#45;0/0/38</text>
<polygon fill="none" stroke="#fab387" points="617.75,-731.75 617.75,-757 713.5,-757 713.5,-731.75 617.75,-731.75"/>
</g>
<!-- ens3f0np0&#45;&gt;swport_dev_collapsed_ipf01cly_lf01_ifname_et_0_0_38 -->
<g id="edge18" class="edge">
<title>ens3f0np0&#45;&gt;swport_dev_collapsed_ipf01cly_lf01_ifname_et_0_0_38</title>
<path fill="none" stroke="#94e2d5" stroke-width="3" d="M378.71,-737.5C437.41,-738.91 538.44,-741.34 603.35,-742.9"/>
<polygon fill="#94e2d5" stroke="#94e2d5" stroke-width="3" points="603.2,-746.4 613.28,-743.14 603.37,-739.4 603.2,-746.4"/>
<text xml:space="preserve" text-anchor="start" x="480.5" y="-753.29" font-family="Helvetica,Arial,sans-serif" font-size="10.00" fill="#a6adc8">VLAN </text>
<text xml:space="preserve" text-anchor="start" x="510.5" y="-753.29" font-family="Helvetica,Arial,sans-serif" font-weight="bold" text-decoration="underline" font-size="10.00" fill="#a6adc8">501</text>
<text xml:space="preserve" text-anchor="start" x="488.38" y="-743.29" font-family="Helvetica,Arial,sans-serif" font-size="10.00" fill="#a6adc8">25GbE</text>
</g>
<!-- swport_dev_collapsed_ipf01cly_lf02_ifname_et_0_0_38 -->
<g id="node21" class="node">
<title>swport_dev_collapsed_ipf01cly_lf02_ifname_et_0_0_38</title>
<polygon fill="#313244" stroke="none" points="617.75,-953.75 617.75,-979 713.5,-979 713.5,-953.75 617.75,-953.75"/>
<text xml:space="preserve" text-anchor="start" x="624.75" y="-962.55" font-family="Helvetica,Arial,sans-serif" font-weight="bold" font-size="11.00" fill="#cdd6f4">ifname et&#45;0/0/38</text>
<polygon fill="none" stroke="#fab387" points="617.75,-953.75 617.75,-979 713.5,-979 713.5,-953.75 617.75,-953.75"/>
</g>
<!-- ens8f0np0&#45;&gt;swport_dev_collapsed_ipf01cly_lf02_ifname_et_0_0_38 -->
<g id="edge24" class="edge">
<title>ens8f0np0&#45;&gt;swport_dev_collapsed_ipf01cly_lf02_ifname_et_0_0_38</title>
<path fill="none" stroke="#94e2d5" stroke-width="3" d="M373.24,-876.65C393.3,-891 418.38,-906.97 443,-917.38 495.08,-939.39 558.39,-952.12 603.99,-959.05"/>
<polygon fill="#94e2d5" stroke="#94e2d5" stroke-width="3" points="603.25,-962.48 613.64,-960.46 604.25,-955.56 603.25,-962.48"/>
<text xml:space="preserve" text-anchor="start" x="480.5" y="-963.09" font-family="Helvetica,Arial,sans-serif" font-size="10.00" fill="#a6adc8">VLAN </text>
<text xml:space="preserve" text-anchor="start" x="510.5" y="-963.09" font-family="Helvetica,Arial,sans-serif" font-weight="bold" text-decoration="underline" font-size="10.00" fill="#a6adc8">501</text>
<text xml:space="preserve" text-anchor="start" x="488.38" y="-953.09" font-family="Helvetica,Arial,sans-serif" font-size="10.00" fill="#a6adc8">25GbE</text>
</g>
<!-- swport_dev_collapsed_ipf01cly_lf01_ifname_et_0_0_39 -->
<g id="node18" class="node">
<title>swport_dev_collapsed_ipf01cly_lf01_ifname_et_0_0_39</title>
<polygon fill="#313244" stroke="none" points="617.75,-1149.75 617.75,-1175 713.5,-1175 713.5,-1149.75 617.75,-1149.75"/>
<text xml:space="preserve" text-anchor="start" x="624.75" y="-1158.55" font-family="Helvetica,Arial,sans-serif" font-weight="bold" font-size="11.00" fill="#cdd6f4">ifname et&#45;0/0/39</text>
<polygon fill="none" stroke="#fab387" points="617.75,-1149.75 617.75,-1175 713.5,-1175 713.5,-1149.75 617.75,-1149.75"/>
</g>
<!-- ens3f1np1&#45;&gt;swport_dev_collapsed_ipf01cly_lf01_ifname_et_0_0_39 -->
<g id="edge19" class="edge">
<title>ens3f1np1&#45;&gt;swport_dev_collapsed_ipf01cly_lf01_ifname_et_0_0_39</title>
<path fill="none" stroke="#f5c2e7" stroke-width="3" d="M378.71,-1169.25C437.41,-1167.84 538.44,-1165.41 603.35,-1163.85"/>
<polygon fill="#f5c2e7" stroke="#f5c2e7" stroke-width="3" points="603.37,-1167.35 613.28,-1163.61 603.2,-1160.35 603.37,-1167.35"/>
<text xml:space="preserve" text-anchor="start" x="480.5" y="-1179.06" font-family="Helvetica,Arial,sans-serif" font-size="10.00" fill="#a6adc8">VLAN </text>
<text xml:space="preserve" text-anchor="start" x="510.5" y="-1179.06" font-family="Helvetica,Arial,sans-serif" font-weight="bold" text-decoration="underline" font-size="10.00" fill="#a6adc8">502</text>
<text xml:space="preserve" text-anchor="start" x="488.38" y="-1169.06" font-family="Helvetica,Arial,sans-serif" font-size="10.00" fill="#a6adc8">25GbE</text>
</g>
<!-- swport_dev_collapsed_ipf01cly_lf02_ifname_et_0_0_39 -->
<g id="node22" class="node">
<title>swport_dev_collapsed_ipf01cly_lf02_ifname_et_0_0_39</title>
<polygon fill="#313244" stroke="none" points="617.75,-1254.75 617.75,-1280 713.5,-1280 713.5,-1254.75 617.75,-1254.75"/>
<text xml:space="preserve" text-anchor="start" x="624.75" y="-1263.55" font-family="Helvetica,Arial,sans-serif" font-weight="bold" font-size="11.00" fill="#cdd6f4">ifname et&#45;0/0/39</text>
<polygon fill="none" stroke="#fab387" points="617.75,-1254.75 617.75,-1280 713.5,-1280 713.5,-1254.75 617.75,-1254.75"/>
</g>
<!-- ens8f1np1&#45;&gt;swport_dev_collapsed_ipf01cly_lf02_ifname_et_0_0_39 -->
<g id="edge25" class="edge">
<title>ens8f1np1&#45;&gt;swport_dev_collapsed_ipf01cly_lf02_ifname_et_0_0_39</title>
<path fill="none" stroke="#f5c2e7" stroke-width="3" d="M378.36,-1276.85C437.04,-1274.9 538.45,-1271.55 603.48,-1269.4"/>
<polygon fill="#f5c2e7" stroke="#f5c2e7" stroke-width="3" points="603.56,-1272.9 613.44,-1269.07 603.33,-1265.9 603.56,-1272.9"/>
<text xml:space="preserve" text-anchor="start" x="480.5" y="-1286" font-family="Helvetica,Arial,sans-serif" font-size="10.00" fill="#a6adc8">VLAN </text>
<text xml:space="preserve" text-anchor="start" x="510.5" y="-1286" font-family="Helvetica,Arial,sans-serif" font-weight="bold" text-decoration="underline" font-size="10.00" fill="#a6adc8">502</text>
<text xml:space="preserve" text-anchor="start" x="488.38" y="-1276" font-family="Helvetica,Arial,sans-serif" font-size="10.00" fill="#a6adc8">25GbE</text>
</g>
<!-- no_lldp_peer -->
<g id="node25" class="node">
<title>no_lldp_peer</title>
<path fill="#313244" stroke="none" d="M873.17,-234.62C873.17,-234.62 938.58,-234.62 938.58,-234.62 943.17,-234.62 947.75,-239.21 947.75,-243.79 947.75,-243.79 947.75,-252.96 947.75,-252.96 947.75,-257.54 943.17,-262.12 938.58,-262.12 938.58,-262.12 873.17,-262.12 873.17,-262.12 868.58,-262.12 864,-257.54 864,-252.96 864,-252.96 864,-243.79 864,-243.79 864,-239.21 868.58,-234.62 873.17,-234.62"/>
<text xml:space="preserve" text-anchor="start" x="871" y="-245.68" font-family="Helvetica,Arial,sans-serif" font-style="italic" font-size="11.00" fill="#6c7086">No LLDP peer</text>
<path fill="none" stroke="#6c7086" d="M873.17,-234.62C873.17,-234.62 938.58,-234.62 938.58,-234.62 943.17,-234.62 947.75,-239.21 947.75,-243.79 947.75,-243.79 947.75,-252.96 947.75,-252.96 947.75,-257.54 943.17,-262.12 938.58,-262.12 938.58,-262.12 873.17,-262.12 873.17,-262.12 868.58,-262.12 864,-257.54 864,-252.96 864,-252.96 864,-243.79 864,-243.79 864,-239.21 868.58,-234.62 873.17,-234.62"/>
</g>
<!-- eno3np2&#45;&gt;no_lldp_peer -->
<g id="edge16" class="edge">
<title>eno3np2&#45;&gt;no_lldp_peer</title>
<path fill="none" stroke="#6c7086" stroke-dasharray="5,2" d="M702.29,-432.04C751.64,-387.3 839.37,-307.76 881.3,-269.75"/>
<polygon fill="#6c7086" stroke="#6c7086" points="883.57,-272.41 888.63,-263.1 878.87,-267.23 883.57,-272.41"/>
</g>
<!-- eno4np3&#45;&gt;no_lldp_peer -->
<g id="edge17" class="edge">
<title>eno4np3&#45;&gt;no_lldp_peer</title>
<path fill="none" stroke="#6c7086" stroke-dasharray="5,2" d="M713.41,-335.17C757.42,-315.22 822.62,-285.66 864.43,-266.71"/>
<polygon fill="#6c7086" stroke="#6c7086" points="865.75,-269.95 873.41,-262.64 862.86,-263.58 865.75,-269.95"/>
</g>
<!-- ens5f2np2&#45;&gt;no_lldp_peer -->
<g id="edge22" class="edge">
<title>ens5f2np2&#45;&gt;no_lldp_peer</title>
<path fill="none" stroke="#6c7086" stroke-dasharray="5,2" d="M713.41,-248.38C753.55,-248.38 811.31,-248.38 852.88,-248.38"/>
<polygon fill="#6c7086" stroke="#6c7086" points="852.64,-251.88 862.64,-248.38 852.64,-244.88 852.64,-251.88"/>
</g>
<!-- ens5f3np3&#45;&gt;no_lldp_peer -->
<g id="edge23" class="edge">
<title>ens5f3np3&#45;&gt;no_lldp_peer</title>
<path fill="none" stroke="#6c7086" stroke-dasharray="5,2" d="M713.41,-161.58C757.42,-181.53 822.62,-211.09 864.43,-230.04"/>
<polygon fill="#6c7086" stroke="#6c7086" points="862.86,-233.17 873.41,-234.11 865.75,-226.8 862.86,-233.17"/>
</g>
<!-- idrac&#45;&gt;no_lldp_peer -->
<g id="edge26" class="edge">
<title>idrac&#45;&gt;no_lldp_peer</title>
<path fill="none" stroke="#6c7086" stroke-dasharray="5,2" d="M702.29,-64.71C751.64,-109.45 839.37,-188.99 881.3,-227"/>
<polygon fill="#6c7086" stroke="#6c7086" points="878.87,-229.52 888.63,-233.65 883.57,-224.34 878.87,-229.52"/>
</g>
<!-- sw_switch_01_example_net -->
<g id="node23" class="node">
<title>sw_switch_01_example_net</title>
<path fill="#313244" stroke="none" d="M834.5,-744.25C834.5,-744.25 977.25,-744.25 977.25,-744.25 983.25,-744.25 989.25,-750.25 989.25,-756.25 989.25,-756.25 989.25,-796.5 989.25,-796.5 989.25,-802.5 983.25,-808.5 977.25,-808.5 977.25,-808.5 834.5,-808.5 834.5,-808.5 828.5,-808.5 822.5,-802.5 822.5,-796.5 822.5,-796.5 822.5,-756.25 822.5,-756.25 822.5,-750.25 828.5,-744.25 834.5,-744.25"/>
<text xml:space="preserve" text-anchor="start" x="833.5" y="-785.2" font-family="Helvetica,Arial,sans-serif" font-weight="bold" font-size="14.00" fill="#fab387">switch&#45;01.example.net</text>
<text xml:space="preserve" text-anchor="start" x="889.75" y="-756.05" font-family="Helvetica,Arial,sans-serif" font-size="11.00" fill="#a6adc8">Switch</text>
<path fill="none" stroke="#fab387" d="M834.5,-744.25C834.5,-744.25 977.25,-744.25 977.25,-744.25 983.25,-744.25 989.25,-750.25 989.25,-756.25 989.25,-756.25 989.25,-796.5 989.25,-796.5 989.25,-802.5 983.25,-808.5 977.25,-808.5 977.25,-808.5 834.5,-808.5 834.5,-808.5 828.5,-808.5 822.5,-802.5 822.5,-796.5 822.5,-796.5 822.5,-756.25 822.5,-756.25 822.5,-750.25 828.5,-744.25 834.5,-744.25"/>
</g>
<!-- swport_dev_collapsed_ipf01cly_lf01_ifname_xe_0_0_2&#45;&gt;sw_switch_01_example_net -->
<g id="edge27" class="edge">
<title>swport_dev_collapsed_ipf01cly_lf01_ifname_xe_0_0_2&#45;&gt;sw_switch_01_example_net</title>
<path fill="none" stroke="#585b70" d="M712,-805.52C741.24,-801.1 780.25,-795.21 815.53,-789.87"/>
<polygon fill="#585b70" stroke="#585b70" points="815.42,-792.02 821.04,-789.04 814.79,-787.86 815.42,-792.02"/>
</g>
<!-- swport_dev_collapsed_ipf01cly_lf01_ifname_xe_0_0_3&#45;&gt;sw_switch_01_example_net -->
<g id="edge28" class="edge">
<title>swport_dev_collapsed_ipf01cly_lf01_ifname_xe_0_0_3&#45;&gt;sw_switch_01_example_net</title>
<path fill="none" stroke="#585b70" d="M685.32,-630.77C720.49,-654.1 797.72,-705.31 850.53,-740.34"/>
<polygon fill="#585b70" stroke="#585b70" points="849.1,-741.91 855.27,-743.48 851.43,-738.41 849.1,-741.91"/>
</g>
<!-- swport_dev_collapsed_ipf01cly_lf01_ifname_et_0_0_38&#45;&gt;sw_switch_01_example_net -->
<g id="edge29" class="edge">
<title>swport_dev_collapsed_ipf01cly_lf01_ifname_et_0_0_38&#45;&gt;sw_switch_01_example_net</title>
<path fill="none" stroke="#585b70" d="M713.41,-750.66C742.51,-754.57 780.88,-759.72 815.62,-764.39"/>
<polygon fill="#585b70" stroke="#585b70" points="815.25,-766.46 821.48,-765.17 815.81,-762.29 815.25,-766.46"/>
</g>
<!-- swport_dev_collapsed_ipf01cly_lf01_ifname_et_0_0_39&#45;&gt;sw_switch_01_example_net -->
<g id="edge30" class="edge">
<title>swport_dev_collapsed_ipf01cly_lf01_ifname_et_0_0_39&#45;&gt;sw_switch_01_example_net</title>
<path fill="none" stroke="#585b70" d="M675.5,-1150C685.1,-1136.49 700.76,-1114.14 713.5,-1094.38 777.5,-995.1 847.98,-874.94 882.83,-814.71"/>
<polygon fill="#585b70" stroke="#585b70" points="884.56,-815.92 885.74,-809.68 880.92,-813.82 884.56,-815.92"/>
</g>
<!-- sw_switch_02_example_net -->
<g id="node24" class="node">
<title>sw_switch_02_example_net</title>
<path fill="#313244" stroke="none" d="M834.5,-981.25C834.5,-981.25 977.25,-981.25 977.25,-981.25 983.25,-981.25 989.25,-987.25 989.25,-993.25 989.25,-993.25 989.25,-1033.5 989.25,-1033.5 989.25,-1039.5 983.25,-1045.5 977.25,-1045.5 977.25,-1045.5 834.5,-1045.5 834.5,-1045.5 828.5,-1045.5 822.5,-1039.5 822.5,-1033.5 822.5,-1033.5 822.5,-993.25 822.5,-993.25 822.5,-987.25 828.5,-981.25 834.5,-981.25"/>
<text xml:space="preserve" text-anchor="start" x="833.5" y="-1022.2" font-family="Helvetica,Arial,sans-serif" font-weight="bold" font-size="14.00" fill="#fab387">switch&#45;02.example.net</text>
<text xml:space="preserve" text-anchor="start" x="889.75" y="-993.05" font-family="Helvetica,Arial,sans-serif" font-size="11.00" fill="#a6adc8">Switch</text>
<path fill="none" stroke="#fab387" d="M834.5,-981.25C834.5,-981.25 977.25,-981.25 977.25,-981.25 983.25,-981.25 989.25,-987.25 989.25,-993.25 989.25,-993.25 989.25,-1033.5 989.25,-1033.5 989.25,-1039.5 983.25,-1045.5 977.25,-1045.5 977.25,-1045.5 834.5,-1045.5 834.5,-1045.5 828.5,-1045.5 822.5,-1039.5 822.5,-1033.5 822.5,-1033.5 822.5,-993.25 822.5,-993.25 822.5,-987.25 828.5,-981.25 834.5,-981.25"/>
</g>
<!-- swport_dev_collapsed_ipf01cly_lf02_ifname_xe_0_0_2&#45;&gt;sw_switch_02_example_net -->
<g id="edge31" class="edge">
<title>swport_dev_collapsed_ipf01cly_lf02_ifname_xe_0_0_2&#45;&gt;sw_switch_02_example_net</title>
<path fill="none" stroke="#585b70" d="M712,-1051.42C741.24,-1045.66 780.25,-1037.96 815.53,-1031"/>
<polygon fill="#585b70" stroke="#585b70" points="815.57,-1033.13 821.05,-1029.91 814.76,-1029.01 815.57,-1033.13"/>
</g>
<!-- swport_dev_collapsed_ipf01cly_lf02_ifname_xe_0_0_3&#45;&gt;sw_switch_02_example_net -->
<g id="edge32" class="edge">
<title>swport_dev_collapsed_ipf01cly_lf02_ifname_xe_0_0_3&#45;&gt;sw_switch_02_example_net</title>
<path fill="none" stroke="#585b70" d="M691.67,-907.78C725.05,-924.31 785.47,-954.24 833.5,-978.02"/>
<polygon fill="#585b70" stroke="#585b70" points="832.52,-979.88 838.83,-980.66 834.38,-976.12 832.52,-979.88"/>
</g>
<!-- swport_dev_collapsed_ipf01cly_lf02_ifname_et_0_0_38&#45;&gt;sw_switch_02_example_net -->
<g id="edge33" class="edge">
<title>swport_dev_collapsed_ipf01cly_lf02_ifname_et_0_0_38&#45;&gt;sw_switch_02_example_net</title>
<path fill="none" stroke="#585b70" d="M713.41,-975.6C742.51,-981.35 780.88,-988.91 815.62,-995.77"/>
<polygon fill="#585b70" stroke="#585b70" points="815.2,-997.82 821.49,-996.93 816.01,-993.7 815.2,-997.82"/>
</g>
<!-- swport_dev_collapsed_ipf01cly_lf02_ifname_et_0_0_39&#45;&gt;sw_switch_02_example_net -->
<g id="edge34" class="edge">
<title>swport_dev_collapsed_ipf01cly_lf02_ifname_et_0_0_39&#45;&gt;sw_switch_02_example_net</title>
<path fill="none" stroke="#585b70" d="M678.44,-1254.78C713.1,-1217.83 815.46,-1108.7 869.9,-1050.66"/>
<polygon fill="#585b70" stroke="#585b70" points="871.41,-1052.12 873.98,-1046.31 868.34,-1049.25 871.41,-1052.12"/>
</g>
</g>
</svg>
