<?xml version="1.0" encoding="UTF-8" standalone="no"?>
<!DOCTYPE svg PUBLIC "-//W3C//DTD SVG 1.1//EN"
 "http://www.w3.org/Graphics/SVG/1.1/DTD/svg11.dtd">
<!-- Generated by graphviz version 14.0.0 (0)
 -->
<!-- Title: nic_xray Pages: 1 -->
<svg width="1063pt" height="1389pt"
 viewBox="0.00 0.00 1063.00 1389.00" xmlns="http://www.w3.org/2000/svg" xmlns:xlink="http://www.w3.org/1999/xlink">
<g id="graph0" class="graph" transform="scale(1 1) rotate(0) translate(36 1353.38)">
<title>nic_xray</title>
<polygon fill="#1e1e2e" stroke="none" points="-36,36 -36,-1353.38 1026.75,-1353.38 1026.75,36 -36,36"/>
<g id="clust1" class="cluster">
<title>cluster_bond_0</title>
<polygon fill="#1e1e2e" fill-opacity="0.800000" stroke="#89b4fa" stroke-width="1.5" stroke-dasharray="5,2" points="266.25,-883.38 266.25,-1092.38 398.5,-1092.38 398.5,-883.38 266.25,-883.38"/>
<text xml:space="preserve" text-anchor="start" x="274.25" y="-1077.97" font-family="Helvetica,Arial,sans-serif" font-weight="bold" font-size="12.00" fill="#89b4fa">bond0</text>
<text xml:space="preserve" text-anchor="start" x="311" y="-1077.97" font-family="Helvetica,Arial,sans-serif" font-size="12.00" fill="#89b4fa"> (LACP Partial)</text>
</g>
<g id="clust2" class="cluster">
<title>cluster_bond_1</title>
<polygon fill="#1e1e2e" fill-opacity="0.800000" stroke="#f9e2af" stroke-width="1.5" stroke-dasharray="5,2" points="266.25,-449.38 266.25,-658.38 398.5,-658.38 398.5,-449.38 266.25,-449.38"/>
<text xml:space="preserve" text-anchor="start" x="274.25" y="-643.98" font-family="Helvetica,Arial,sans-serif" font-weight="bold" font-size="12.00" fill="#f9e2af">bond1</text>
<text xml:space="preserve" text-anchor="start" x="311" y="-643.98" font-family="Helvetica,Arial,sans-serif" font-size="12.00" fill="#f9e2af"> (LACP Partial)</text>
</g>
<g id="clust3" class="cluster">
<title>cluster_bond_2</title>
<polygon fill="#1e1e2e" fill-opacity="0.800000" stroke="#94e2d5" stroke-width="1.5" stroke-dasharray="5,2" points="266.25,-666.38 266.25,-875.38 398.5,-875.38 398.5,-666.38 266.25,-666.38"/>
<text xml:space="preserve" text-anchor="start" x="274.25" y="-860.98" font-family="Helvetica,Arial,sans-serif" font-weight="bold" font-size="12.00" fill="#94e2d5">bond2</text>
<text xml:space="preserve" text-anchor="start" x="311" y="-860.98" font-family="Helvetica,Arial,sans-serif" font-size="12.00" fill="#94e2d5"> (LACP Partial)</text>
</g>
<g id="clust4" class="cluster">
<title>cluster_bond_3</title>
<polygon fill="#1e1e2e" fill-opacity="0.800000" stroke="#f5c2e7" stroke-width="1.5" stroke-dasharray="5,2" points="266.25,-1100.38 266.25,-1309.38 398.5,-1309.38 398.5,-1100.38 266.25,-1100.38"/>
<text xml:space="preserve" text-anchor="start" x="274.25" y="-1294.97" font-family="Helvetica,Arial,sans-serif" font-weight="bold" font-size="12.00" fill="#f5c2e7">bond3</text>
<text xml:space="preserve" text-anchor="start" x="311" y="-1294.97" font-family="Helvetica,Arial,sans-serif" font-size="12.00" fill="#f5c2e7"> (LACP Partial)</text>
</g>
<!-- server -->
<g id="node1" class="node">
<title>server</title>
<polygon fill="#313244" stroke="none" points="0,-565.25 0,-629.5 165.25,-629.5 165.25,-565.25 0,-565.25"/>
<text xml:space="preserve" text-anchor="start" x="11" y="-606.2" font-family="Helvetica,Arial,sans-serif" font-weight="bold" font-size="14.00" fill="#cba6f7">server&#45;01.example.net</text>
<text xml:space="preserve" text-anchor="start" x="66.5" y="-577.05" font-family="Helvetica,Arial,sans-serif" font-size="11.00" fill="#a6adc8">Server</text>
<polygon fill="none" stroke="#585b70" points="0,-565.25 0,-629.5 165.25,-629.5 165.25,-565.25 0,-565.25"/>
</g>
<!-- eno1np0 -->
<g id="node2" class="node">
<title>eno1np0</title>
<polygon fill="#313244" stroke="none" points="284,-891 284,-955.75 379.75,-955.75 379.75,-891 284,-891"/>
<text xml:space="preserve" text-anchor="start" x="309.38" y="-939.3" font-family="Helvetica,Arial,sans-serif" font-weight="bold" font-size="11.00" fill="#cdd6f4">eno1np0</text>
<text xml:space="preserve" text-anchor="start" x="291" y="-918.95" font-family="Helvetica,Arial,sans-serif" font-size="9.00" fill="#a6adc8">XX:XX:XX:XX:XX:01</text>
<text xml:space="preserve" text-anchor="start" x="297.38" y="-899.2" font-family="Helvetica,Arial,sans-serif" font-size="9.00" fill="#a6adc8">10000Mb/s (Full)</text>
<polygon fill="none" stroke="#a6e3a1" points="284,-891 284,-955.75 379.75,-955.75 379.75,-891 284,-891"/>
</g>
<!-- server&#45;&gt;eno1np0 -->
<g id="edge1" class="edge">
<title>server&#45;&gt;eno1np0</title>
<path fill="none" stroke="#585b70" d="M97.66,-629.34C123.96,-686.41 185.38,-807.18 266.25,-885.38 269.92,-888.92 273.97,-892.27 278.22,-895.4"/>
<polygon fill="#585b70" stroke="#585b70" points="276.75,-896.94 282.86,-898.67 279.16,-893.5 276.75,-896.94"/>
</g>
<!-- ens5f0np0 -->
<g id="node3" class="node">
<title>ens5f0np0</title>
<polygon fill="#313244" stroke="none" points="284,-999 284,-1063.75 379.75,-1063.75 379.75,-999 284,-999"/>
<text xml:space="preserve" text-anchor="start" x="304.88" y="-1047.3" font-family="Helvetica,Arial,sans-serif" font-weight="bold" font-size="11.00" fill="#cdd6f4">ens5f0np0</text>
<text xml:space="preserve" text-anchor="start" x="291" y="-1026.95" font-family="Helvetica,Arial,sans-serif" font-size="9.00" fill="#a6adc8">XX:XX:XX:XX:XX:07</text>
<text xml:space="preserve" text-anchor="start" x="297.38" y="-1007.2" font-family="Helvetica,Arial,sans-serif" font-size="9.00" fill="#a6adc8">10000Mb/s (Full)</text>
<polygon fill="none" stroke="#a6e3a1" points="284,-999 284,-1063.75 379.75,-1063.75 379.75,-999 284,-999"/>
</g>
<!-- server&#45;&gt;ens5f0np0 -->
<g id="edge7" class="edge">
<title>server&#45;&gt;ens5f0np0</title>
<path fill="none" stroke="#585b70" d="M93.79,-629.44C116.67,-698.23 177.24,-863.01 266.25,-977.38 270.86,-983.29 276.21,-989.01 281.83,-994.36"/>
<polygon fill="#585b70" stroke="#585b70" points="280.1,-995.63 285.94,-998.15 282.95,-992.54 280.1,-995.63"/>
</g>
<!-- eno2np1 -->
<g id="node4" class="node">
<title>eno2np1</title>
<polygon fill="#313244" stroke="none" points="284,-457 284,-521.75 379.75,-521.75 379.75,-457 284,-457"/>
<text xml:space="preserve" text-anchor="start" x="309.38" y="-505.3" font-family="Helvetica,Arial,sans-serif" font-weight="bold" font-size="11.00" fill="#cdd6f4">eno2np1</text>
<text xml:space="preserve" text-anchor="start" x="291" y="-484.95" font-family="Helvetica,Arial,sans-serif" font-size="9.00" fill="#a6adc8">XX:XX:XX:XX:XX:02</text>
<text xml:space="preserve" text-anchor="start" x="297.38" y="-465.2" font-family="Helvetica,Arial,sans-serif" font-size="9.00" fill="#a6adc8">10000Mb/s (Full)</text>
<polygon fill="none" stroke="#a6e3a1" points="284,-457 284,-521.75 379.75,-521.75 379.75,-457 284,-457"/>
</g>
<!-- server&#45;&gt;eno2np1 -->
<g id="edge2" class="edge">
<title>server&#45;&gt;eno2np1</title>
<path fill="none" stroke="#585b70" d="M157.14,-565.26C195.71,-548.42 242.11,-528.15 277.25,-512.8"/>
<polygon fill="#585b70" stroke="#585b70" points="278.08,-514.73 282.74,-510.4 276.4,-510.88 278.08,-514.73"/>
</g>
<!-- ens5f1np1 -->
<g id="node5" class="node">
<title>ens5f1np1</title>
<polygon fill="#313244" stroke="none" points="284,-565 284,-629.75 379.75,-629.75 379.75,-565 284,-565"/>
<text xml:space="preserve" text-anchor="start" x="304.88" y="-613.3" font-family="Helvetica,Arial,sans-serif" font-weight="bold" font-size="11.00" fill="#cdd6f4">ens5f1np1</text>
<text xml:space="preserve" text-anchor="start" x="291" y="-592.95" font-family="Helvetica,Arial,sans-serif" font-size="9.00" fill="#a6adc8">XX:XX:XX:XX:XX:08</text>
<text xml:space="preserve" text-anchor="start" x="297.38" y="-573.2" font-family="Helvetica,Arial,sans-serif" font-size="9.00" fill="#a6adc8">10000Mb/s (Full)</text>
<polygon fill="none" stroke="#a6e3a1" points="284,-565 284,-629.75 379.75,-629.75 379.75,-565 284,-565"/>
</g>
<!-- server&#45;&gt;ens5f1np1 -->
<g id="edge8" class="edge">
<title>server&#45;&gt;ens5f1np1</title>
<path fill="none" stroke="#585b70" d="M164.93,-597.38C201.7,-597.38 244.15,-597.38 276.91,-597.38"/>
<polygon fill="#585b70" stroke="#585b70" points="276.66,-599.48 282.66,-597.38 276.66,-595.28 276.66,-599.48"/>
</g>
<!-- ens3f0np0 -->
<g id="node6" class="node">
<title>ens3f0np0</title>
<polygon fill="#313244" stroke="none" points="284,-674 284,-738.75 379.75,-738.75 379.75,-674 284,-674"/>
<text xml:space="preserve" text-anchor="start" x="304.88" y="-722.3" font-family="Helvetica,Arial,sans-serif" font-weight="bold" font-size="11.00" fill="#cdd6f4">ens3f0np0</text>
<text xml:space="preserve" text-anchor="start" x="291" y="-701.95" font-family="Helvetica,Arial,sans-serif" font-size="9.00" fill="#a6adc8">XX:XX:XX:XX:XX:05</text>
<text xml:space="preserve" text-anchor="start" x="297.38" y="-682.2" font-family="Helvetica,Arial,sans-serif" font-size="9.00" fill="#a6adc8">25000Mb/s (Full)</text>
<polygon fill="none" stroke="#a6e3a1" points="284,-674 284,-738.75 379.75,-738.75 379.75,-674 284,-674"/>
</g>
<!-- server&#45;&gt;ens3f0np0 -->
<g id="edge5" class="edge">
<title>server&#45;&gt;ens3f0np0</title>
<path fill="none" stroke="#585b70" d="M156.47,-629.49C195.36,-646.63 242.36,-667.35 277.77,-682.96"/>
<polygon fill="#585b70" stroke="#585b70" points="276.52,-684.71 282.86,-685.21 278.21,-680.86 276.52,-684.71"/>
</g>
<!-- ens8f0np0 -->
<g id="node7" class="node">
<title>ens8f0np0</title>
<polygon fill="#313244" stroke="none" points="284,-782 284,-846.75 379.75,-846.75 379.75,-782 284,-782"/>
<text xml:space="preserve" text-anchor="start" x="304.88" y="-830.3" font-family="Helvetica,Arial,sans-serif" font-weight="bold" font-size="11.00" fill="#cdd6f4">ens8f0np0</text>
<text xml:space="preserve" text-anchor="start" x="291" y="-809.95" font-family="Helvetica,Arial,sans-serif" font-size="9.00" fill="#a6adc8">XX:XX:XX:XX:XX:0b</text>
<text xml:space="preserve" text-anchor="start" x="297.38" y="-790.2" font-family="Helvetica,Arial,sans-serif" font-size="9.00" fill="#a6adc8">25000Mb/s (Full)</text>
<polygon fill="none" stroke="#a6e3a1" points="284,-782 284,-846.75 379.75,-846.75 379.75,-782 284,-782"/>
</g>
<!-- server&#45;&gt;ens8f0np0 -->
<g id="edge11" class="edge">
<title>server&#45;&gt;ens8f0np0</title>
<path fill="none" stroke="#585b70" d="M118.67,-629.27C155.22,-662.38 214.31,-715.51 266.25,-760.38 272.65,-765.9 279.45,-771.68 286.15,-777.33"/>
<polygon fill="#585b70" stroke="#585b70" points="284.64,-778.8 290.58,-781.05 287.34,-775.58 284.64,-778.8"/>
</g>
<!-- ens3f1np1 -->
<g id="node8" class="node">
<title>ens3f1np1</title>
<polygon fill="#313244" stroke="none" points="284,-1108 284,-1172.75 379.75,-1172.75 379.75,-1108 284,-1108"/>
<text xml:space="preserve" text-anchor="start" x="304.88" y="-1156.3" font-family="Helvetica,Arial,sans-serif" font-weight="bold" font-size="11.00" fill="#cdd6f4">ens3f1np1</text>
<text xml:space="preserve" text-anchor="start" x="291" y="-1135.95" font-family="Helvetica,Arial,sans-serif" font-size="9.00" fill="#a6adc8">XX:XX:XX:XX:XX:06</text>
<text xml:space="preserve" text-anchor="start" x="297.38" y="-1116.2" font-family="Helvetica,Arial,sans-serif" font-size="9.00" fill="#a6adc8">25000Mb/s (Full)</text>
<polygon fill="none" stroke="#a6e3a1" points="284,-1108 284,-1172.75 379.75,-1172.75 379.75,-1108 284,-1108"/>
</g>
<!-- server&#45;&gt;ens3f1np1 -->
<g id="edge6" class="edge">
<title>server&#45;&gt;ens3f1np1</title>
<path fill="none" stroke="#585b70" d="M87.58,-629.48C99.64,-715.36 142.94,-953.92 266.25,-1102.38 269.68,-1106.51 273.68,-1110.29 277.98,-1113.74"/>
<polygon fill="#585b70" stroke="#585b70" points="276.73,-1115.42 282.8,-1117.32 279.24,-1112.05 276.73,-1115.42"/>
</g>
<!-- ens8f1np1 -->
<g id="node9" class="node">
<title>ens8f1np1</title>
<polygon fill="#313244" stroke="none" points="284.38,-1216 284.38,-1280.75 379.38,-1280.75 379.38,-1216 284.38,-1216"/>
<text xml:space="preserve" text-anchor="start" x="304.88" y="-1264.3" font-family="Helvetica,Arial,sans-serif" font-weight="bold" font-size="11.00" fill="#cdd6f4">ens8f1np1</text>
<text xml:space="preserve" text-anchor="start" x="291.38" y="-1243.95" font-family="Helvetica,Arial,sans-serif" font-size="9.00" fill="#a6adc8">XX:XX:XX:XX:XX:0c</text>
<text xml:space="preserve" text-anchor="start" x="297.38" y="-1224.2" font-family="Helvetica,Arial,sans-serif" font-size="9.00" fill="#a6adc8">25000Mb/s (Full)</text>
<polygon fill="none" stroke="#a6e3a1" points="284.38,-1216 284.38,-1280.75 379.38,-1280.75 379.38,-1216 284.38,-1216"/>
</g>
<!-- server&#45;&gt;ens8f1np1 -->
<g id="edge12" class="edge">
<title>server&#45;&gt;ens8f1np1</title>
<path fill="none" stroke="#585b70" d="M91.88,-629.41C111.84,-706.03 165.05,-905.68 219.25,-1069.38 237.9,-1125.72 231.9,-1145.97 266.25,-1194.38 270.44,-1200.28 275.42,-1205.92 280.74,-1211.17"/>
<polygon fill="#585b70" stroke="#585b70" points="279.25,-1212.65 285.05,-1215.26 282.14,-1209.6 279.25,-1212.65"/>
</g>
<!-- eno3np2 -->
<g id="node10" class="node">
<title>eno3np2</title>
<polygon fill="#313244" stroke="none" points="619.25,-371.88 619.25,-416.88 715,-416.88 715,-371.88 619.25,-371.88"/>
<text xml:space="preserve" text-anchor="start" x="644.62" y="-400.43" font-family="Helvetica,Arial,sans-serif" font-weight="bold" font-size="11.00" fill="#cdd6f4">eno3np2</text>
<text xml:space="preserve" text-anchor="start" x="626.25" y="-380.07" font-family="Helvetica,Arial,sans-serif" font-size="9.00" fill="#a6adc8">XX:XX:XX:XX:XX:03</text>
<polygon fill="none" stroke="#f38ba8" points="619.25,-371.88 619.25,-416.88 715,-416.88 715,-371.88 619.25,-371.88"/>
</g>
<!-- server&#45;&gt;eno3np2 -->
<g id="edge3" class="edge">
<title>server&#45;&gt;eno3np2</title>
<path fill="none" stroke="#585b70" d="M109.5,-565.54C141.85,-528.25 200.96,-467.96 266.25,-439.38 381.56,-388.89 532.65,-387.18 612.03,-390.6"/>
<polygon fill="#585b70" stroke="#585b70" points="611.88,-392.69 617.97,-390.87 612.07,-388.49 611.88,-392.69"/>
</g>
<!-- eno4np3 -->
<g id="node11" class="node">
<title>eno4np3</title>
<polygon fill="#313244" stroke="none" points="619.25,-283.88 619.25,-328.88 715,-328.88 715,-283.88 619.25,-283.88"/>
<text xml:space="preserve" text-anchor="start" x="644.62" y="-312.43" font-family="Helvetica,Arial,sans-serif" font-weight="bold" font-size="11.00" fill="#cdd6f4">eno4np3</text>
<text xml:space="preserve" text-anchor="start" x="626.25" y="-292.07" font-family="Helvetica,Arial,sans-serif" font-size="9.00" fill="#a6adc8">XX:XX:XX:XX:XX:04</text>
<polygon fill="none" stroke="#f38ba8" points="619.25,-283.88 619.25,-328.88 715,-328.88 715,-283.88 619.25,-283.88"/>
</g>
<!-- server&#45;&gt;eno4np3 -->
<g id="edge4" class="edge">
<title>server&#45;&gt;eno4np3</title>
<path fill="none" stroke="#585b70" d="M102.75,-565.32C131.94,-519.36 192.11,-435.56 266.25,-392.38 377.48,-327.58 531.69,-311.43 612.24,-307.52"/>
<polygon fill="#585b70" stroke="#585b70" points="611.92,-309.64 617.82,-307.27 611.73,-305.44 611.92,-309.64"/>
</g>
<!-- ens5f2np2 -->
<g id="node12" class="node">
<title>ens5f2np2</title>
<polygon fill="#313244" stroke="none" points="619.25,-195.88 619.25,-240.88 715,-240.88 715,-195.88 619.25,-195.88"/>
<text xml:space="preserve" text-anchor="start" x="640.12" y="-224.43" font-family="Helvetica,Arial,sans-serif" font-weight="bold" font-size="11.00" fill="#cdd6f4">ens5f2np2</text>
<text xml:space="preserve" text-anchor="start" x="626.25" y="-204.07" font-family="Helvetica,Arial,sans-serif" font-size="9.00" fill="#a6adc8">XX:XX:XX:XX:XX:09</text>
<polygon fill="none" stroke="#f38ba8" points="619.25,-195.88 619.25,-240.88 715,-240.88 715,-195.88 619.25,-195.88"/>
</g>
<!-- server&#45;&gt;ens5f2np2 -->
<g id="edge9" class="edge">
<title>server&#45;&gt;ens5f2np2</title>
<path fill="none" stroke="#585b70" d="M96.44,-565.54C120.81,-509.13 179.29,-391.68 266.25,-329.38 372.99,-252.9 530.41,-229.05 612.26,-221.66"/>
<polygon fill="#585b70" stroke="#585b70" points="612.16,-223.78 617.95,-221.17 611.79,-219.6 612.16,-223.78"/>
</g>
<!-- ens5f3np3 -->
<g id="node13" class="node">
<title>ens5f3np3</title>
<polygon fill="#313244" stroke="none" points="619.25,-107.88 619.25,-152.88 715,-152.88 715,-107.88 619.25,-107.88"/>
<text xml:space="preserve" text-anchor="start" x="640.12" y="-136.43" font-family="Helvetica,Arial,sans-serif" font-weight="bold" font-size="11.00" fill="#cdd6f4">ens5f3np3</text>
<text xml:space="preserve" text-anchor="start" x="626.25" y="-116.08" font-family="Helvetica,Arial,sans-serif" font-size="9.00" fill="#a6adc8">XX:XX:XX:XX:XX:0a</text>
<polygon fill="none" stroke="#f38ba8" points="619.25,-107.88 619.25,-152.88 715,-152.88 715,-107.88 619.25,-107.88"/>
</g>
<!-- server&#45;&gt;ens5f3np3 -->
<g id="edge10" class="edge">
<title>server&#45;&gt;ens5f3np3</title>
<path fill="none" stroke="#585b70" d="M91.72,-565.39C110.5,-497.74 163.45,-339.41 266.25,-254.38 368.73,-169.6 529,-142.67 612.09,-134.19"/>
<polygon fill="#585b70" stroke="#585b70" points="612.13,-136.3 617.9,-133.63 611.72,-132.12 612.13,-136.3"/>
</g>
<!-- idrac -->
<g id="node14" class="node">
<title>idrac</title>
<polygon fill="#313244" stroke="none" points="619.25,0 619.25,-64.75 715,-64.75 715,0 619.25,0"/>
<text xml:space="preserve" text-anchor="start" x="654" y="-48.3" font-family="Helvetica,Arial,sans-serif" font-weight="bold" font-size="11.00" fill="#cdd6f4">idrac</text>
<text xml:space="preserve" text-anchor="start" x="626.25" y="-27.95" font-family="Helvetica,Arial,sans-serif" font-size="9.00" fill="#a6adc8">XX:XX:XX:XX:XX:0d</text>
<text xml:space="preserve" text-anchor="start" x="637.12" y="-8.2" font-family="Helvetica,Arial,sans-serif" font-size="9.00" fill="#a6adc8">425Mb/s (Half)</text>
<polygon fill="none" stroke="#a6e3a1" points="619.25,0 619.25,-64.75 715,-64.75 715,0 619.25,0"/>
</g>
<!-- server&#45;&gt;idrac -->
<g id="edge13" class="edge">
<title>server&#45;&gt;idrac</title>
<path fill="none" stroke="#585b70" d="M88.35,-565.35C101.6,-486.85 146.31,-283.15 266.25,-171.38 365.03,-79.32 527.95,-47.81 612.1,-37.35"/>
<polygon fill="#585b70" stroke="#585b70" points="612.29,-39.44 618,-36.64 611.79,-35.27 612.29,-39.44"/>
</g>
<!-- swport_dev_collapsed_ipf01cly_lf01_ifname_xe_0_0_2 -->
<g id="node15" class="node">
<title>swport_dev_collapsed_ipf01cly_lf01_ifname_xe_0_0_2</title>
<polygon fill="#313244" stroke="none" points="620.75,-790.75 620.75,-816 713.5,-816 713.5,-790.75 620.75,-790.75"/>
<text xml:space="preserve" text-anchor="start" x="627.75" y="-799.55" font-family="Helvetica,Arial,sans-serif" font-weight="bold" font-size="11.00" fill="#cdd6f4">ifname xe&#45;0/0/2</text>
<polygon fill="none" stroke="#fab387" points="620.75,-790.75 620.75,-816 713.5,-816 713.5,-790.75 620.75,-790.75"/>
</g>
<!-- eno1np0&#45;&gt;swport_dev_collapsed_ipf01cly_lf01_ifname_xe_0_0_2 -->
<g id="edge14" class="edge">
<title>eno1np0&#45;&gt;swport_dev_collapsed_ipf01cly_lf01_ifname_xe_0_0_2</title>
<path fill="none" stroke="#89b4fa" stroke-width="2.5" d="M379.64,-899.99C386.34,-895.62 392.86,-890.72 398.5,-885.38 425.65,-859.63 412.07,-833.54 444.5,-814.88 494.04,-786.36 560.59,-787.03 607.8,-792.64"/>
<polygon fill="#89b4fa" stroke="#89b4fa" stroke-width="2.5" points="607.05,-796.07 617.43,-793.92 607.98,-789.13 607.05,-796.07"/>
<text xml:space="preserve" text-anchor="start" x="444.5" y="-815.88" font-family="Helvetica,Arial,sans-serif" font-size="10.00" fill="#a6adc8">VLAN 100;101;102;110;111</text>
</g>
<!-- swport_dev_collapsed_ipf01cly_lf02_ifname_xe_0_0_2 -->
<g id="node19" class="node">
<title>swport_dev_collapsed_ipf01cly_lf02_ifname_xe_0_0_2</title>
<polygon fill="#313244" stroke="none" points="620.75,-1017.75 620.75,-1043 713.5,-1043 713.5,-1017.75 620.75,-1017.75"/>
<text xml:space="preserve" text-anchor="start" x="627.75" y="-1026.55" font-family="Helvetica,Arial,sans-serif" font-weight="bold" font-size="11.00" fill="#cdd6f4">ifname xe&#45;0/0/2</text>
<polygon fill="none" stroke="#fab387" points="620.75,-1017.75 620.75,-1043 713.5,-1043 713.5,-1017.75 620.75,-1017.75"/>
</g>
<!-- ens5f0np0&#45;&gt;swport_dev_collapsed_ipf01cly_lf02_ifname_xe_0_0_2 -->
<g id="edge20" class="edge">
<title>ens5f0np0&#45;&gt;swport_dev_collapsed_ipf01cly_lf02_ifname_xe_0_0_2</title>
<path fill="none" stroke="#89b4fa" stroke-width="2.5" d="M379.56,-1031.23C439.14,-1031.06 542.24,-1030.75 607.17,-1030.55"/>
<polygon fill="#89b4fa" stroke="#89b4fa" stroke-width="2.5" points="607.05,-1034.05 617.04,-1030.52 607.03,-1027.05 607.05,-1034.05"/>
<text xml:space="preserve" text-anchor="start" x="444.5" y="-1032.02" font-family="Helvetica,Arial,sans-serif" font-size="10.00" fill="#a6adc8">VLAN 100;101;102;110;111</text>
</g>
<!-- swport_dev_collapsed_ipf01cly_lf01_ifname_xe_0_0_3 -->
<g id="node16" class="node">
<title>swport_dev_collapsed_ipf01cly_lf01_ifname_xe_0_0_3</title>
<polygon fill="#313244" stroke="none" points="620.75,-589.75 620.75,-615 713.5,-615 713.5,-589.75 620.75,-589.75"/>
<text xml:space="preserve" text-anchor="start" x="627.75" y="-598.55" font-family="Helvetica,Arial,sans-serif" font-weight="bold" font-size="11.00" fill="#cdd6f4">ifname xe&#45;0/0/3</text>
<polygon fill="none" stroke="#fab387" points="620.75,-589.75 620.75,-615 713.5,-615 713.5,-589.75 620.75,-589.75"/>
</g>
<!-- eno2np1&#45;&gt;swport_dev_collapsed_ipf01cly_lf01_ifname_xe_0_0_3 -->
<g id="edge15" class="edge">
<title>eno2np1&#45;&gt;swport_dev_collapsed_ipf01cly_lf01_ifname_xe_0_0_3</title>
<path fill="none" stroke="#f9e2af" stroke-width="2.5" d="M379.56,-505.21C441.94,-526.36 552.03,-563.69 616.07,-585.4"/>
<polygon fill="#f9e2af" stroke="#f9e2af" stroke-width="2.5" points="614.83,-588.68 625.42,-588.57 617.07,-582.05 614.83,-588.68"/>
<text xml:space="preserve" text-anchor="start" x="444.5" y="-566.82" font-family="Helvetica,Arial,sans-serif" font-size="10.00" fill="#a6adc8">VLAN 200;201;202;211;212</text>
</g>
<!-- swport_dev_collapsed_ipf01cly_lf02_ifname_xe_0_0_3 -->
<g id="node20" class="node">
<title>swport_dev_collapsed_ipf01cly_lf02_ifname_xe_0_0_3</title>
<polygon fill="#313244" stroke="none" points="620.75,-871.75 620.75,-897 713.5,-897 713.5,-871.75 620.75,-871.75"/>
<text xml:space="preserve" text-anchor="start" x="627.75" y="-880.55" font-family="Helvetica,Arial,sans-serif" font-weight="bold" font-size="11.00" fill="#cdd6f4">ifname xe&#45;0/0/3</text>
<polygon fill="none" stroke="#fab387" points="620.75,-871.75 620.75,-897 713.5,-897 713.5,-871.75 620.75,-871.75"/>
</g>
<!-- ens5f1np1&#45;&gt;swport_dev_collapsed_ipf01cly_lf02_ifname_xe_0_0_3 -->
<g id="edge21" class="edge">
<title>ens5f1np1&#45;&gt;swport_dev_collapsed_ipf01cly_lf02_ifname_xe_0_0_3</title>
<path fill="none" stroke="#f9e2af" stroke-width="2.5" d="M375.93,-629.44C384.41,-637.44 392.52,-646.57 398.5,-656.38 440.38,-725.03 387,-775.15 444.5,-831.38 467.41,-853.78 550.09,-869.05 607.71,-877.25"/>
<polygon fill="#f9e2af" stroke="#f9e2af" stroke-width="2.5" points="606.9,-880.67 617.29,-878.57 607.86,-873.74 606.9,-880.67"/>
<text xml:space="preserve" text-anchor="start" x="444.5" y="-871.07" font-family="Helvetica,Arial,sans-serif" font-size="10.00" fill="#a6adc8">VLAN 200;201;202;211;212</text>
</g>
<!-- swport_dev_collapsed_ipf01cly_lf01_ifname_et_0_0_38 -->
<g id="node17" class="node">
<title>swport_dev_collapsed_ipf01cly_lf01_ifname_et_0_0_38</title>
<polygon fill="#313244" stroke="none" points="619.25,-696.75 619.25,-722 715,-722 715,-696.75 619.25,-696.75"/>
<text xml:space="preserve" text-anchor="start" x="626.25" y="-705.55" font-family="Helvetica,Arial,sans-serif" font-weight="bold" font-size="11.00" fill="#cdd6f4">ifname et&#45;0/0/38</text>
<polygon fill="none" stroke="#fab387" points="619.25,-696.75 619.25,-722 715,-722 715,-696.75 619.25,-696.75"/>
</g>
<!-- ens3f0np0&#45;&gt;swport_dev_collapsed_ipf01cly_lf01_ifname_et_0_0_38 -->
<g id="edge18" class="edge">
<title>ens3f0np0&#45;&gt;swport_dev_collapsed_ipf01cly_lf01_ifname_et_0_0_38</title>
<path fill="none" stroke="#94e2d5" stroke-width="3" d="M379.56,-706.8C438.48,-707.33 539.94,-708.24 604.99,-708.82"/>
<polygon fill="#94e2d5" stroke="#94e2d5" stroke-width="3" points="604.91,-712.32 614.94,-708.91 604.98,-705.32 604.91,-712.32"/>
<text xml:space="preserve" text-anchor="start" x="482" y="-709.4" font-family="Helvetica,Arial,sans-serif" font-size="10.00" fill="#a6adc8">VLAN 501</text>
</g>
<!-- swport_dev_collapsed_ipf01cly_lf02_ifname_et_0_0_38 -->
<g id="node21" class="node">
<title>swport_dev_collapsed_ipf01cly_lf02_ifname_et_0_0_38</title>
<polygon fill="#313244" stroke="none" points="619.25,-946.75 619.25,-972 715,-972 715,-946.75 619.25,-946.75"/>
<text xml:space="preserve" text-anchor="start" x="626.25" y="-955.55" font-family="Helvetica,Arial,sans-serif" font-weight="bold" font-size="11.00" fill="#cdd6f4">ifname et&#45;0/0/38</text>
<polygon fill="none" stroke="#fab387" points="619.25,-946.75 619.25,-972 715,-972 715,-946.75 619.25,-946.75"/>
</g>
<!-- ens8f0np0&#45;&gt;swport_dev_collapsed_ipf01cly_lf02_ifname_et_0_0_38 -->
<g id="edge24" class="edge">
<title>ens8f0np0&#45;&gt;swport_dev_collapsed_ipf01cly_lf02_ifname_et_0_0_38</title>
<path fill="none" stroke="#94e2d5" stroke-width="3" d="M367.71,-846.54C388.62,-864.35 416.53,-885.6 444.5,-899.38 495.81,-924.64 559.22,-940.43 605.05,-949.43"/>
<polygon fill="#94e2d5" stroke="#94e2d5" stroke-width="3" points="604.33,-952.86 614.81,-951.28 605.63,-945.98 604.33,-952.86"/>
<text xml:space="preserve" text-anchor="start" x="482" y="-940.97" font-family="Helvetica,Arial,sans-serif" font-size="10.00" fill="#a6adc8">VLAN 501</text>
</g>
<!-- swport_dev_collapsed_ipf01cly_lf01_ifname_et_0_0_39 -->
<g id="node18" class="node">
<title>swport_dev_collapsed_ipf01cly_lf01_ifname_et_0_0_39</title>
<polygon fill="#313244" stroke="none" points="619.25,-1107.75 619.25,-1133 715,-1133 715,-1107.75 619.25,-1107.75"/>
<text xml:space="preserve" text-anchor="start" x="626.25" y="-1116.55" font-family="Helvetica,Arial,sans-serif" font-weight="bold" font-size="11.00" fill="#cdd6f4">ifname et&#45;0/0/39</text>
<polygon fill="none" stroke="#fab387" points="619.25,-1107.75 619.25,-1133 715,-1133 715,-1107.75 619.25,-1107.75"/>
</g>
<!-- ens3f1np1&#45;&gt;swport_dev_collapsed_ipf01cly_lf01_ifname_et_0_0_39 -->
<g id="edge19" class="edge">
<title>ens3f1np1&#45;&gt;swport_dev_collapsed_ipf01cly_lf01_ifname_et_0_0_39</title>
<path fill="none" stroke="#f5c2e7" stroke-width="3" d="M379.56,-1137.57C438.48,-1134.04 539.94,-1127.95 604.99,-1124.04"/>
<polygon fill="#f5c2e7" stroke="#f5c2e7" stroke-width="3" points="605.18,-1127.54 614.95,-1123.45 604.76,-1120.55 605.18,-1127.54"/>
<text xml:space="preserve" text-anchor="start" x="482" y="-1134.34" font-family="Helvetica,Arial,sans-serif" font-size="10.00" fill="#a6adc8">VLAN 502</text>
</g>
<!-- swport_dev_collapsed_ipf01cly_lf02_ifname_et_0_0_39 -->
<g id="node22" class="node">
<title>swport_dev_collapsed_ipf01cly_lf02_ifname_et_0_0_39</title>
<polygon fill="#313244" stroke="none" points="619.25,-1206.75 619.25,-1232 715,-1232 715,-1206.75 619.25,-1206.75"/>
<text xml:space="preserve" text-anchor="start" x="626.25" y="-1215.55" font-family="Helvetica,Arial,sans-serif" font-weight="bold" font-size="11.00" fill="#cdd6f4">ifname et&#45;0/0/39</text>
<polygon fill="none" stroke="#fab387" points="619.25,-1206.75 619.25,-1232 715,-1232 715,-1206.75 619.25,-1206.75"/>
</g>
<!-- ens8f1np1&#45;&gt;swport_dev_collapsed_ipf01cly_lf02_ifname_et_0_0_39 -->
<g id="edge25" class="edge">
<title>ens8f1np1&#45;&gt;swport_dev_collapsed_ipf01cly_lf02_ifname_et_0_0_39</title>
<path fill="none" stroke="#f5c2e7" stroke-width="3" d="M379.21,-1244.34C438.15,-1239.21 540.1,-1230.34 605.26,-1224.67"/>
<polygon fill="#f5c2e7" stroke="#f5c2e7" stroke-width="3" points="605.19,-1228.19 614.85,-1223.84 604.59,-1221.22 605.19,-1228.19"/>
<text xml:space="preserve" text-anchor="start" x="482" y="-1239.17" font-family="Helvetica,Arial,sans-serif" font-size="10.00" fill="#a6adc8">VLAN 502</text>
</g>
<!-- no_lldp_peer -->
<g id="node25" class="node">
<title>no_lldp_peer</title>
<path fill="#313244" stroke="none" d="M874.67,-204.62C874.67,-204.62 940.08,-204.62 940.08,-204.62 944.67,-204.62 949.25,-209.21 949.25,-213.79 949.25,-213.79 949.25,-222.96 949.25,-222.96 949.25,-227.54 944.67,-232.12 940.08,-232.12 940.08,-232.12 874.67,-232.12 874.67,-232.12 870.08,-232.12 865.5,-227.54 865.5,-222.96 865.5,-222.96 865.5,-213.79 865.5,-213.79 865.5,-209.21 870.08,-204.62 874.67,-204.62"/>
<text xml:space="preserve" text-anchor="start" x="872.5" y="-215.68" font-family="Helvetica,Arial,sans-serif" font-style="italic" font-size="11.00" fill="#6c7086">No LLDP peer</text>
<path fill="none" stroke="#6c7086" d="M874.67,-204.62C874.67,-204.62 940.08,-204.62 940.08,-204.62 944.67,-204.62 949.25,-209.21 949.25,-213.79 949.25,-213.79 949.25,-222.96 949.25,-222.96 949.25,-227.54 944.67,-232.12 940.08,-232.12 940.08,-232.12 874.67,-232.12 874.67,-232.12 870.08,-232.12 865.5,-227.54 865.5,-222.96 865.5,-222.96 865.5,-213.79 865.5,-213.79 865.5,-209.21 870.08,-204.62 874.67,-204.62"/>
</g>
<!-- eno3np2&#45;&gt;no_lldp_peer -->
<g id="edge16" class="edge">
<title>eno3np2&#45;&gt;no_lldp_peer</title>
<path fill="none" stroke="#6c7086" stroke-dasharray="5,2" d="M698.3,-372.08C744.96,-337.61 833.93,-271.89 878.9,-238.67"/>
<polygon fill="#6c7086" stroke="#6c7086" points="880.87,-241.57 886.83,-232.81 876.71,-235.94 880.87,-241.57"/>
</g>
<!-- eno4np3&#45;&gt;no_lldp_peer -->
<g id="edge17" class="edge">
<title>eno4np3&#45;&gt;no_lldp_peer</title>
<path fill="none" stroke="#6c7086" stroke-dasharray="5,2" d="M714.91,-289.09C756.46,-273.75 816.91,-251.42 858.72,-235.98"/>
<polygon fill="#6c7086" stroke="#6c7086" points="859.87,-239.28 868.03,-232.54 857.44,-232.72 859.87,-239.28"/>
</g>
<!-- ens5f2np2&#45;&gt;no_lldp_peer -->
<g id="edge22" class="edge">
<title>ens5f2np2&#45;&gt;no_lldp_peer</title>
<path fill="none" stroke="#6c7086" stroke-dasharray="5,2" d="M714.91,-218.38C755.05,-218.38 812.81,-218.38 854.38,-218.38"/>
<polygon fill="#6c7086" stroke="#6c7086" points="854.14,-221.88 864.14,-218.38 854.14,-214.88 854.14,-221.88"/>
</g>
<!-- ens5f3np3&#45;&gt;no_lldp_peer -->
<g id="edge23" class="edge">
<title>ens5f3np3&#45;&gt;no_lldp_peer</title>
<path fill="none" stroke="#6c7086" stroke-dasharray="5,2" d="M714.91,-147.66C756.46,-163 816.91,-185.33 858.72,-200.77"/>
<polygon fill="#6c7086" stroke="#6c7086" points="857.44,-204.03 868.03,-204.21 859.87,-197.47 857.44,-204.03"/>
</g>
<!-- idrac&#45;&gt;no_lldp_peer -->
<g id="edge26" class="edge">
<title>idrac&#45;&gt;no_lldp_peer</title>
<path fill="none" stroke="#6c7086" stroke-dasharray="5,2" d="M709.35,-64.56C758.41,-102.86 838.84,-165.65 880.12,-197.88"/>
<polygon fill="#6c7086" stroke="#6c7086" points="877.79,-200.5 887.83,-203.9 882.1,-194.98 877.79,-200.5"/>
</g>
<!-- sw_switch_01_example_net -->
<g id="node23" class="node">
<title>sw_switch_01_example_net</title>
<path fill="#313244" stroke="none" d="M836,-728.25C836,-728.25 978.75,-728.25 978.75,-728.25 984.75,-728.25 990.75,-734.25 990.75,-740.25 990.75,-740.25 990.75,-780.5 990.75,-780.5 990.75,-786.5 984.75,-792.5 978.75,-792.5 978.75,-792.5 836,-792.5 836,-792.5 830,-792.5 824,-786.5 824,-780.5 824,-780.5 824,-740.25 824,-740.25 824,-734.25 830,-728.25 836,-728.25"/>
<text xml:space="preserve" text-anchor="start" x="835" y="-769.2" font-family="Helvetica,Arial,sans-serif" font-weight="bold" font-size="14.00" fill="#fab387">switch&#45;01.example.net</text>
<text xml:space="preserve" text-anchor="start" x="891.25" y="-740.05" font-family="Helvetica,Arial,sans-serif" font-size="11.00" fill="#a6adc8">Switch</text>
<path fill="none" stroke="#fab387" d="M836,-728.25C836,-728.25 978.75,-728.25 978.75,-728.25 984.75,-728.25 990.75,-734.25 990.75,-740.25 990.75,-740.25 990.75,-780.5 990.75,-780.5 990.75,-786.5 984.75,-792.5 978.75,-792.5 978.75,-792.5 836,-792.5 836,-792.5 830,-792.5 824,-786.5 824,-780.5 824,-780.5 824,-740.25 824,-740.25 824,-734.25 830,-728.25 836,-728.25"/>
</g>
<!-- swport_dev_collapsed_ipf01cly_lf01_ifname_xe_0_0_2&#45;&gt;sw_switch_01_example_net -->
<g id="edge27" class="edge">
<title>swport_dev_collapsed_ipf01cly_lf01_ifname_xe_0_0_2&#45;&gt;sw_switch_01_example_net</title>
<path fill="none" stroke="#585b70" d="M713.5,-795.19C742.74,-789.91 781.75,-782.87 817.03,-776.5"/>
<polygon fill="#585b70" stroke="#585b70" points="817.02,-778.64 822.55,-775.5 816.27,-774.5 817.02,-778.64"/>
</g>
<!-- swport_dev_collapsed_ipf01cly_lf01_ifname_xe_0_0_3&#45;&gt;sw_switch_01_example_net -->
<g id="edge28" class="edge">
<title>swport_dev_collapsed_ipf01cly_lf01_ifname_xe_0_0_3&#45;&gt;sw_switch_01_example_net</title>
<path fill="none" stroke="#585b70" d="M686.82,-614.77C721.99,-638.1 799.22,-689.31 852.03,-724.34"/>
<polygon fill="#585b70" stroke="#585b70" points="850.6,-725.91 856.77,-727.48 852.93,-722.41 850.6,-725.91"/>
</g>
<!-- swport_dev_collapsed_ipf01cly_lf01_ifname_et_0_0_38&#45;&gt;sw_switch_01_example_net -->
<g id="edge29" class="edge">
<title>swport_dev_collapsed_ipf01cly_lf01_ifname_et_0_0_38&#45;&gt;sw_switch_01_example_net</title>
<path fill="none" stroke="#585b70" d="M714.91,-719.39C744.13,-725.65 782.7,-733.9 817.56,-741.36"/>
<polygon fill="#585b70" stroke="#585b70" points="816.69,-743.32 823,-742.53 817.57,-739.22 816.69,-743.32"/>
</g>
<!-- swport_dev_collapsed_ipf01cly_lf01_ifname_et_0_0_39&#45;&gt;sw_switch_01_example_net -->
<g id="edge30" class="edge">
<title>swport_dev_collapsed_ipf01cly_lf01_ifname_et_0_0_39&#45;&gt;sw_switch_01_example_net</title>
<path fill="none" stroke="#585b70" d="M679.43,-1107.87C689.26,-1096.78 703.66,-1079.95 715,-1064.38 781.94,-972.44 850.62,-857.23 884.59,-798.55"/>
<polygon fill="#585b70" stroke="#585b70" points="886.23,-799.92 887.41,-793.67 882.59,-797.82 886.23,-799.92"/>
</g>
<!-- sw_switch_02_example_net -->
<g id="node24" class="node">
<title>sw_switch_02_example_net</title>
<path fill="#313244" stroke="none" d="M836,-962.25C836,-962.25 978.75,-962.25 978.75,-962.25 984.75,-962.25 990.75,-968.25 990.75,-974.25 990.75,-974.25 990.75,-1014.5 990.75,-1014.5 990.75,-1020.5 984.75,-1026.5 978.75,-1026.5 978.75,-1026.5 836,-1026.5 836,-1026.5 830,-1026.5 824,-1020.5 824,-1014.5 824,-1014.5 824,-974.25 824,-974.25 824,-968.25 830,-962.25 836,-962.25"/>
<text xml:space="preserve" text-anchor="start" x="835" y="-1003.2" font-family="Helvetica,Arial,sans-serif" font-weight="bold" font-size="14.00" fill="#fab387">switch&#45;02.example.net</text>
<text xml:space="preserve" text-anchor="start" x="891.25" y="-974.05" font-family="Helvetica,Arial,sans-serif" font-size="11.00" fill="#a6adc8">Switch</text>
<path fill="none" stroke="#fab387" d="M836,-962.25C836,-962.25 978.75,-962.25 978.75,-962.25 984.75,-962.25 990.75,-968.25 990.75,-974.25 990.75,-974.25 990.75,-1014.5 990.75,-1014.5 990.75,-1020.5 984.75,-1026.5 978.75,-1026.5 978.75,-1026.5 836,-1026.5 836,-1026.5 830,-1026.5 824,-1020.5 824,-1014.5 824,-1014.5 824,-974.25 824,-974.25 824,-968.25 830,-962.25 836,-962.25"/>
</g>
<!-- swport_dev_collapsed_ipf01cly_lf02_ifname_xe_0_0_2&#45;&gt;sw_switch_02_example_net -->
<g id="edge31" class="edge">
<title>swport_dev_collapsed_ipf01cly_lf02_ifname_xe_0_0_2&#45;&gt;sw_switch_02_example_net</title>
<path fill="none" stroke="#585b70" d="M713.5,-1023.52C742.74,-1019.1 781.75,-1013.21 817.03,-1007.87"/>
<polygon fill="#585b70" stroke="#585b70" points="816.92,-1010.02 822.54,-1007.04 816.29,-1005.86 816.92,-1010.02"/>
</g>
<!-- swport_dev_collapsed_ipf01cly_lf02_ifname_xe_0_0_3&#45;&gt;sw_switch_02_example_net -->
<g id="edge32" class="edge">
<title>swport_dev_collapsed_ipf01cly_lf02_ifname_xe_0_0_3&#45;&gt;sw_switch_02_example_net</title>
<path fill="none" stroke="#585b70" d="M695.46,-896.99C728.13,-912.08 784.19,-937.96 830.31,-959.25"/>
<polygon fill="#585b70" stroke="#585b70" points="829.33,-961.12 835.66,-961.73 831.09,-957.3 829.33,-961.12"/>
</g>
<!-- swport_dev_collapsed_ipf01cly_lf02_ifname_et_0_0_38&#45;&gt;sw_switch_02_example_net -->
<g id="edge33" class="edge">
<title>swport_dev_collapsed_ipf01cly_lf02_ifname_et_0_0_38&#45;&gt;sw_switch_02_example_net</title>
<path fill="none" stroke="#585b70" d="M714.91,-966.25C744.01,-970.52 782.38,-976.16 817.12,-981.26"/>
<polygon fill="#585b70" stroke="#585b70" points="816.74,-983.33 822.98,-982.12 817.35,-979.17 816.74,-983.33"/>
</g>
<!-- swport_dev_collapsed_ipf01cly_lf02_ifname_et_0_0_39&#45;&gt;sw_switch_02_example_net -->
<g id="edge34" class="edge">
<title>swport_dev_collapsed_ipf01cly_lf02_ifname_et_0_0_39&#45;&gt;sw_switch_02_example_net</title>
<path fill="none" stroke="#585b70" d="M681.27,-1206.96C716.24,-1173.94 812.57,-1082.96 867.21,-1031.36"/>
<polygon fill="#585b70" stroke="#585b70" points="868.34,-1033.18 871.26,-1027.53 865.46,-1030.13 868.34,-1033.18"/>
</g>
</g>
</svg>
